<svg xmlns="http://www.w3.org/2000/svg" width="113.823" height="128.31" viewBox="0 0 113.823 128.31"><defs><style>.a{opacity:0.31;}.b{fill:#fff;}</style></defs><g class="a" transform="translate(-40 -8)"><path class="b" d="M76.417,464H66.07a2.07,2.07,0,0,0,0,4.139H76.417a2.07,2.07,0,0,0,0-4.139Z" transform="translate(-17.791 -338.038)"/><path class="b" d="M132.139,464h-2.07a2.07,2.07,0,0,0,0,4.139h2.07a2.07,2.07,0,0,0,0-4.139Z" transform="translate(-65.235 -338.038)"/><path class="b" d="M82.07,116.417h66.225a2.07,2.07,0,0,0,2.07-2.07V106.07a2.07,2.07,0,0,0-2.07-2.07H82.07A2.07,2.07,0,0,0,80,106.07v8.278A2.07,2.07,0,0,0,82.07,116.417Zm2.07-8.278h62.086v4.139H84.139Z" transform="translate(-29.652 -71.166)"/><path class="b" d="M82.07,180.417h66.225a2.07,2.07,0,0,0,2.07-2.07V170.07a2.07,2.07,0,0,0-2.07-2.07H82.07A2.07,2.07,0,0,0,80,170.07v8.278A2.07,2.07,0,0,0,82.07,180.417Zm2.07-8.278h62.086v4.139H84.139Z" transform="translate(-29.652 -118.61)"/><path class="b" d="M82.07,244.417h66.225a2.07,2.07,0,0,0,2.07-2.07V234.07a2.07,2.07,0,0,0-2.07-2.07H82.07A2.07,2.07,0,0,0,80,234.07v8.278A2.07,2.07,0,0,0,82.07,244.417Zm2.07-8.278h62.086v4.139H84.139Z" transform="translate(-29.652 -166.054)"/><path class="b" d="M121.39,296H82.07a2.07,2.07,0,0,0,0,4.139H121.39a2.07,2.07,0,0,0,0-4.139Z" transform="translate(-29.652 -213.497)"/><path class="b" d="M108.973,320H82.07a2.07,2.07,0,0,0,0,4.139h26.9a2.07,2.07,0,1,0,0-4.139Z" transform="translate(-29.652 -231.289)"/><path class="b" d="M86.209,348.139a2.07,2.07,0,0,0,0-4.139H82.07a2.07,2.07,0,0,0,0,4.139Z" transform="translate(-29.652 -249.08)"/><path class="b" d="M124.139,348.139a2.07,2.07,0,0,0,0-4.139h-2.07a2.07,2.07,0,1,0,0,4.139Z" transform="translate(-59.305 -249.08)"/><path class="b" d="M153.823,105.267A24.867,24.867,0,0,0,131.059,80.52V26.626a2.07,2.07,0,0,0-.606-1.463L113.9,8.606A2.07,2.07,0,0,0,112.433,8H42.07A2.07,2.07,0,0,0,40,10.07V134.241a2.07,2.07,0,0,0,2.07,2.07h86.92a2.07,2.07,0,0,0,2.07-2.07v-4.226A24.867,24.867,0,0,0,153.823,105.267ZM114.5,15.066l9.491,9.491H114.5ZM44.139,132.171V12.139h66.225V26.626a2.07,2.07,0,0,0,2.07,2.07H126.92V80.52a24.834,24.834,0,0,0,0,49.495v2.156Zm84.85-6.209a20.7,20.7,0,1,1,20.7-20.7,20.7,20.7,0,0,1-20.7,20.7Z"/><path class="b" d="M364.366,352.606a2.07,2.07,0,0,0-2.927,0L348.1,365.95l-8.962-5.377a2.07,2.07,0,1,0-2.13,3.549l10.348,6.209a2.07,2.07,0,0,0,2.528-.31l14.487-14.487A2.07,2.07,0,0,0,364.366,352.606Z" transform="translate(-219.427 -255.011)"/></g></svg>