<svg xmlns="http://www.w3.org/2000/svg" width="50" height="50" viewBox="0 0 50 50"><defs><style>.a{fill:#f5a31a;}</style></defs><g transform="translate(14.122 6.339)"><path class="a" d="M166,84.185a.977.977,0,0,0-.6-.643,6.943,6.943,0,0,0-1.288-.3A8.3,8.3,0,0,0,166,75.1a.977.977,0,0,0-.6-.643,8.4,8.4,0,0,0-5.252.055,8.773,8.773,0,0,0,.244-2.086,8.3,8.3,0,0,0-4.428-7.39.976.976,0,0,0-.88-.029,8.265,8.265,0,0,0-4.485,7.419,8.772,8.772,0,0,0,.245,2.09,8.4,8.4,0,0,0-5.263-.059.977.977,0,0,0-.6.643,8.3,8.3,0,0,0,1.89,8.145,6.943,6.943,0,0,0-1.288.3.977.977,0,0,0-.6.643,8.3,8.3,0,0,0,2.095,8.357,8.1,8.1,0,0,0,5.862,2.468,8.736,8.736,0,0,0,1.572-.143v6.39a.977.977,0,0,0,1.953,0V94.865a8.748,8.748,0,0,0,1.586.145,8.1,8.1,0,0,0,5.862-2.468A8.3,8.3,0,0,0,166,84.185Zm-11.5,7.638a6.51,6.51,0,0,1-.143,1.084,6.443,6.443,0,0,1-7.65-7.654,6.548,6.548,0,0,1,3.355.159q.14.052.279.1A6.4,6.4,0,0,1,152.611,87a6.226,6.226,0,0,1,1.89,4.173Zm0-9.089a6.507,6.507,0,0,1-.143,1.084,6.489,6.489,0,0,1-3.288-.131q-.212-.082-.421-.149a6.449,6.449,0,0,1-2.2-1.466,6.3,6.3,0,0,1-1.741-5.908,6.334,6.334,0,0,1,5.9,1.746l.041.043q.128.144.257.276a6.184,6.184,0,0,1,1.591,3.854v.652Zm.99-4.9a6.639,6.639,0,0,1-1.2-.987c-.046-.05-.092-.1-.139-.15a6.23,6.23,0,0,1-1.611-4.274,6.3,6.3,0,0,1,2.939-5.41,6.3,6.3,0,0,1,2.948,5.41,6.229,6.229,0,0,1-1.461,4.11c-.158.158-.306.318-.446.479A6.558,6.558,0,0,1,155.491,77.835Zm.969,4.583a6.182,6.182,0,0,1,1.509-4.088c.144-.143.288-.3.432-.462a6.3,6.3,0,0,1,5.859-1.705,6.3,6.3,0,0,1-1.741,5.91,6.449,6.449,0,0,1-2.2,1.465q-.213.068-.428.151a6.487,6.487,0,0,1-3.284.13,6.556,6.556,0,0,1-.152-1.375C156.459,82.435,156.46,82.426,156.46,82.418Zm6.06,8.743a6.3,6.3,0,0,1-5.907,1.747A6.334,6.334,0,0,1,158.357,87a6.447,6.447,0,0,1,2.2-1.467q.209-.067.42-.148a6.491,6.491,0,0,1,3.281-.133A6.3,6.3,0,0,1,162.52,91.161Z" transform="translate(-144.606 -64.913)"/></g><g transform="translate(0)"><path class="a" d="M30.211.544A25.168,25.168,0,0,0,25,0,25,25,0,0,0,5.283,40.369,3.706,3.706,0,1,0,6.74,39.06,23.057,23.057,0,0,1,29.805,2.455.977.977,0,1,0,30.211.544ZM7.161,41.135a1.758,1.758,0,1,1-.515,1.243A1.752,1.752,0,0,1,7.161,41.135Z" transform="translate(0)"/></g><g transform="translate(19.781 3.911)"><path class="a" d="M227.492,45.771a3.706,3.706,0,1,0-1.457,1.309A23.057,23.057,0,0,1,203.7,83.828a.977.977,0,0,0-.343,1.923,25.234,25.234,0,0,0,4.414.389,25,25,0,0,0,19.717-40.369ZM225.615,45a1.758,1.758,0,1,1,.515-1.243A1.746,1.746,0,0,1,225.615,45Z" transform="translate(-202.556 -40.051)"/></g><g transform="translate(15.074 46.324)"><path class="a" d="M155.7,474.433l-.369.9.366-.905a.977.977,0,0,0-.732,1.811l.03.012a.977.977,0,0,0,.7-1.822Z" transform="translate(-154.355 -474.36)"/></g><g transform="translate(33.001 1.734)"><path class="a" d="M339.286,17.831l-.017-.007a.977.977,0,1,0-.725,1.813l.011,0a.977.977,0,0,0,.732-1.811Z" transform="translate(-337.929 -17.754)"/></g></svg>