<svg xmlns="http://www.w3.org/2000/svg" width="39.628" height="50" viewBox="0 0 39.628 50"><defs><style>.a{fill:#f5a31a;}</style></defs><g transform="translate(-53.103 0)"><g transform="translate(53.103 0)"><path class="a" d="M72.917,0A19.806,19.806,0,0,0,60.436,35.191l-1.052,1.933a.731.731,0,1,0,1.284.7l.948-1.743a19.708,19.708,0,0,0,7.677,3.215L64.32,48.443,62.09,45.177A1.361,1.361,0,0,0,61,44.586l-3.954-.1,2-3.676a.731.731,0,1,0-1.284-.7l-2.079,3.826a1.358,1.358,0,0,0,1.16,2.006l4.07.1,2.3,3.362A1.348,1.348,0,0,0,64.328,50l.071,0a1.348,1.348,0,0,0,1.124-.708l5.311-9.772a19.954,19.954,0,0,0,4.165,0l5.311,9.771A1.348,1.348,0,0,0,81.435,50l.071,0a1.348,1.348,0,0,0,1.119-.592l2.3-3.362,4.07-.1a1.358,1.358,0,0,0,1.16-2.006L85.4,35.2a19.746,19.746,0,0,0,6.08-8.446.731.731,0,0,0-1.369-.512,18.365,18.365,0,1,1,1.158-6.43,18.527,18.527,0,0,1-.288,3.257.731.731,0,1,0,1.439.258A19.831,19.831,0,0,0,72.917,0Zm11.3,36.089,4.566,8.4-3.954.1a1.361,1.361,0,0,0-1.088.592l-2.231,3.266L76.543,39.3a19.651,19.651,0,0,0,7.678-3.208Z" transform="translate(-53.103 0)"/><path class="a" d="M110.483,41.632a15.749,15.749,0,1,0,15.749,15.749A15.766,15.766,0,0,0,110.483,41.632Zm0,30.036A14.287,14.287,0,1,1,124.77,57.381,14.3,14.3,0,0,1,110.483,71.668Z" transform="translate(-90.668 -37.566)"/><path class="a" d="M206.641,163.486a.731.731,0,0,0,0-1.462h-2.748a.731.731,0,0,0-.731.731v6.521a.731.731,0,0,0,.731.731h2.748a.731.731,0,0,0,0-1.462h-2.017v-1.8h1.814a.731.731,0,1,0,0-1.462h-1.814v-1.8Z" transform="translate(-188.508 -146.201)"/><path class="a" d="M136.441,165.251a2.243,2.243,0,0,0-1.837-3.534h-1.912a.731.731,0,0,0-.731.731v6.581a.731.731,0,0,0,.731.731h0s1.758-.008,2.242-.008a2.5,2.5,0,0,0,1.5-4.5Zm-3.018-2.072H134.6a.784.784,0,1,1,0,1.567l-1.181,0Zm1.515,5.112-1.515,0v-2.084l1.515,0a1.041,1.041,0,1,1,0,2.082Z" transform="translate(-124.261 -145.924)"/><path class="a" d="M263.138,165.105c-.711-.262-1.369-.54-1.7-.683a.525.525,0,0,1-.224-.167.577.577,0,0,1-.062-.52.8.8,0,0,1,.559-.484,2.285,2.285,0,0,1,1.9.436.731.731,0,0,0,.937-1.121,3.74,3.74,0,0,0-3.255-.714,2.253,2.253,0,0,0-1.519,1.406,2.042,2.042,0,0,0,.246,1.837,1.978,1.978,0,0,0,.84.669c.342.148,1.028.438,1.773.713.31.114,1.021.441.922,1a1.2,1.2,0,0,1-1.24.824,2.385,2.385,0,0,1-1.752-.736.731.731,0,0,0-1.083.981,3.867,3.867,0,0,0,2.835,1.216,2.623,2.623,0,0,0,2.679-2.029A2.392,2.392,0,0,0,263.138,165.105Z" transform="translate(-239.155 -145.925)"/><path class="a" d="M327.852,162.448a.731.731,0,0,0,.731.731h1.079v5.851a.731.731,0,1,0,1.462,0v-5.851h1.094a.731.731,0,1,0,0-1.462h-3.635A.731.731,0,0,0,327.852,162.448Z" transform="translate(-301.021 -145.924)"/></g></g></svg>