<svg xmlns="http://www.w3.org/2000/svg" width="111.455" height="111.455" viewBox="0 0 111.455 111.455"><defs><style>.a{fill:rgba(18,128,92,0.19);}</style></defs><g transform="translate(0.001 0)"><path class="a" d="M105.21,62.694h4.5a1.741,1.741,0,1,0,0-3.483h-4.5l-3.4-3.4a12.272,12.272,0,0,0-2.333-1.829,12.272,12.272,0,0,0,2.333-1.829l3.4-3.4h4.5a1.741,1.741,0,1,0,0-3.483h-4.5l-3.4-3.4a12.111,12.111,0,0,0-8.62-3.57H88.815V14.624a13.741,13.741,0,0,0,3.483-9.1V1.742A1.742,1.742,0,0,0,90.556,0H86.777a13.742,13.742,0,0,0-9.1,3.483H33.779A13.742,13.742,0,0,0,24.676,0H20.9a1.742,1.742,0,0,0-1.741,1.741V5.521a13.741,13.741,0,0,0,3.483,9.1V38.313H18.259a12.111,12.111,0,0,0-8.62,3.57l-3.4,3.4h-4.5a1.741,1.741,0,1,0,0,3.483h4.5l3.4,3.4a12.273,12.273,0,0,0,2.333,1.829,12.272,12.272,0,0,0-2.333,1.829l-3.4,3.4h-4.5a1.741,1.741,0,0,0,0,3.483h4.5l3.4,3.4a12.274,12.274,0,0,0,2.333,1.829,12.275,12.275,0,0,0-2.333,1.829l-3.4,3.4h-4.5a1.741,1.741,0,1,0,0,3.483h4.5l3.4,3.4a12.273,12.273,0,0,0,2.334,1.829,12.29,12.29,0,0,0-2.339,1.833L6.244,87.074h-4.5a1.741,1.741,0,1,0,0,3.483h4.5l3.391,3.391a12.289,12.289,0,0,0,2.34,1.834,12.288,12.288,0,0,0-2.34,1.834l-3.391,3.391h-4.5a1.741,1.741,0,0,0,0,3.483h4.5l3.391,3.391a12.129,12.129,0,0,0,8.633,3.575H93.186a12.129,12.129,0,0,0,8.633-3.575l3.391-3.391h4.5a1.741,1.741,0,1,0,0-3.483h-4.5l-3.391-3.391a12.288,12.288,0,0,0-2.34-1.834,12.289,12.289,0,0,0,2.34-1.834l3.391-3.391h4.5a1.741,1.741,0,1,0,0-3.483h-4.5l-3.391-3.391a12.291,12.291,0,0,0-2.339-1.833,12.274,12.274,0,0,0,2.334-1.829l3.4-3.4h4.5a1.741,1.741,0,0,0,0-3.483h-4.5l-3.4-3.4a12.275,12.275,0,0,0-2.333-1.829,12.274,12.274,0,0,0,2.333-1.829ZM93.194,41.8a8.649,8.649,0,0,1,6.157,2.55l2.674,2.674-2.674,2.674a8.649,8.649,0,0,1-6.157,2.55H88.815V41.8Zm-51.4-34.83H69.659v6.966H41.795ZM22.639,3.483h2.037a10.223,10.223,0,0,1,7.18,2.973L33.6,8.2A1.742,1.742,0,0,0,36.57,6.966h1.741v8.707a1.742,1.742,0,0,0,1.741,1.741H71.4a1.742,1.742,0,0,0,1.741-1.741V6.966h1.741A1.742,1.742,0,0,0,77.856,8.2L79.6,6.456a10.223,10.223,0,0,1,7.18-2.973h2.037V5.521a10.223,10.223,0,0,1-2.973,7.18L84.1,14.442a1.741,1.741,0,0,0,1.232,2.973V87.074A1.741,1.741,0,0,0,84.1,90.047l1.741,1.741h0a9.937,9.937,0,0,1,2.578,4.442l.009.031a9.773,9.773,0,0,1,.385,2.7v2.038H86.777a10.223,10.223,0,0,1-7.18-2.973l-1.741-1.741a1.742,1.742,0,0,0-2.973,1.231H73.142V88.816A1.742,1.742,0,0,0,71.4,87.074H40.053a1.742,1.742,0,0,0-1.741,1.741v8.707H36.57A1.742,1.742,0,0,0,33.6,96.292l-1.741,1.741a10.223,10.223,0,0,1-7.18,2.973H22.638V98.969a9.773,9.773,0,0,1,.385-2.7l.009-.031A9.937,9.937,0,0,1,25.61,91.79h0l1.741-1.741a1.741,1.741,0,0,0-1.231-2.973V17.415a1.741,1.741,0,0,0,1.231-2.973L25.611,12.7a10.223,10.223,0,0,1-2.973-7.18Zm47.02,94.04H41.795V90.557H69.659ZM12.1,49.694,9.428,47.02,12.1,44.346a8.649,8.649,0,0,1,6.157-2.55h4.379V52.245H18.259a8.649,8.649,0,0,1-6.157-2.55Zm0,13.932L9.428,60.952,12.1,58.278a8.649,8.649,0,0,1,6.157-2.55h4.379V66.177H18.259a8.649,8.649,0,0,1-6.157-2.55Zm0,13.932L9.428,74.884,12.1,72.21a8.649,8.649,0,0,1,6.157-2.55h4.379V80.108H18.259a8.649,8.649,0,0,1-6.157-2.55Zm0,13.927-2.67-2.669,2.67-2.669a8.667,8.667,0,0,1,6.17-2.555h4.371v6.273a13.452,13.452,0,0,0-2.548,4.176H18.267a8.667,8.667,0,0,1-6.17-2.555Zm87.258,8.593,2.67,2.669-2.67,2.669a8.667,8.667,0,0,1-6.17,2.555H18.268a8.667,8.667,0,0,1-6.17-2.555l-2.67-2.669,2.67-2.669a8.667,8.667,0,0,1,6.17-2.555h.969a13.12,13.12,0,0,0-.081,1.445v3.779a1.742,1.742,0,0,0,1.741,1.741h3.779a13.742,13.742,0,0,0,9.1-3.483H77.674a13.742,13.742,0,0,0,9.1,3.483h3.779a1.742,1.742,0,0,0,1.741-1.741V98.969a13.12,13.12,0,0,0-.081-1.445h.969a8.667,8.667,0,0,1,6.17,2.555Zm2.67-11.262-2.67,2.669a8.667,8.667,0,0,1-6.17,2.555H91.363a13.452,13.452,0,0,0-2.548-4.176V83.591h4.371a8.667,8.667,0,0,1,6.17,2.555ZM99.351,72.21l2.674,2.674-2.674,2.674a8.649,8.649,0,0,1-6.157,2.55H88.815V69.659h4.379A8.649,8.649,0,0,1,99.351,72.21ZM88.815,66.177V55.728h4.379a8.649,8.649,0,0,1,6.157,2.55l2.674,2.674-2.674,2.674a8.649,8.649,0,0,1-6.157,2.55Z"/><path class="a" d="M177.741,99.483h31.347a1.741,1.741,0,1,0,0-3.483H177.741a1.741,1.741,0,1,0,0,3.483Z" transform="translate(-137.688 -75.102)"/><path class="a" d="M177.741,131.483h31.347a1.741,1.741,0,1,0,0-3.483H177.741a1.741,1.741,0,1,0,0,3.483Z" transform="translate(-137.688 -100.136)"/><path class="a" d="M52,10.921l1.958-1.958L52.943,7.949,50.986,9.906a7.838,7.838,0,0,0-4.547,1.671c1.082-2-.951-5.8-1.6-6.9V2H43.408V4.673c-.645,1.108-2.678,4.9-1.6,6.9a7.838,7.838,0,0,0-4.547-1.671L35.307,7.949,34.293,8.963l1.958,1.958a7.846,7.846,0,0,0,1.882,4.807,7.85,7.85,0,0,0-.868-.082l-1.958-1.958L34.293,14.7l1.958,1.958a7.846,7.846,0,0,0,1.882,4.807,7.85,7.85,0,0,0-.868-.082l-1.958-1.958L34.293,20.44,36.251,22.4A7.846,7.846,0,0,0,38.133,27.2a7.849,7.849,0,0,0-.868-.082l-1.958-1.958-1.014,1.014,1.958,1.958a7.893,7.893,0,0,0,7.157,7.541v9.362h1.435V35.677A7.893,7.893,0,0,0,52,28.136l1.958-1.958-1.014-1.014-1.958,1.958a7.848,7.848,0,0,0-.868.082A7.85,7.85,0,0,0,52,22.4l1.958-1.958-1.014-1.014-1.958,1.958a7.849,7.849,0,0,0-.868.082A7.85,7.85,0,0,0,52,16.659L53.958,14.7l-1.014-1.014-1.958,1.958a7.85,7.85,0,0,0-.868.082A7.846,7.846,0,0,0,52,10.921ZM44.125,29.975a7.912,7.912,0,0,0,1.181-.1,7.9,7.9,0,0,0-1.181,1.851,7.9,7.9,0,0,0-1.181-1.851A7.912,7.912,0,0,0,44.125,29.975Zm0-3.985a7.9,7.9,0,0,0-1.181-1.851,7.142,7.142,0,0,0,2.361,0A7.9,7.9,0,0,0,44.125,25.99Zm0-5.739A7.9,7.9,0,0,0,42.945,18.4a7.142,7.142,0,0,0,2.361,0A7.9,7.9,0,0,0,44.125,20.251Zm0-5.739a7.907,7.907,0,0,0-1.335-2.021,3.46,3.46,0,0,0,2.67,0A7.89,7.89,0,0,0,44.125,14.513Zm6.411-3.143a6.467,6.467,0,0,1-5.649,5.649A6.466,6.466,0,0,1,50.537,11.37Zm-6.411-5c.828,1.672,1.515,3.716,1.047,4.541-.058.1-.235.414-1.047.414s-.989-.312-1.047-.414C42.61,10.085,43.3,8.042,44.125,6.37Zm-.762,10.649a6.467,6.467,0,0,1-5.649-5.649A6.467,6.467,0,0,1,43.363,17.019Zm0,5.739a6.467,6.467,0,0,1-5.649-5.649A6.467,6.467,0,0,1,43.363,22.758Zm0,5.739a6.467,6.467,0,0,1-5.649-5.649A6.467,6.467,0,0,1,43.363,28.5Zm-5.649.09a6.467,6.467,0,0,1,5.649,5.649A6.467,6.467,0,0,1,37.715,28.586Zm7.173,5.649a6.467,6.467,0,0,1,5.649-5.649A6.469,6.469,0,0,1,44.888,34.235Zm0-5.739a6.467,6.467,0,0,1,5.649-5.649A6.469,6.469,0,0,1,44.888,28.5Zm0-5.739a6.467,6.467,0,0,1,5.649-5.649A6.469,6.469,0,0,1,44.888,22.758Z" transform="translate(11.159 36.503)"/></g></svg>