<svg xmlns="http://www.w3.org/2000/svg" width="91.016" height="91.016" viewBox="0 0 91.016 91.016"><defs><style>.a{fill:rgba(18,128,92,0.19);}</style></defs><g transform="translate(0.001 0)"><path class="a" d="M85.916,51.2h3.677a1.422,1.422,0,1,0,0-2.844H85.916L83.143,45.58a10.022,10.022,0,0,0-1.905-1.493,10.022,10.022,0,0,0,1.905-1.493l2.773-2.773h3.677a1.422,1.422,0,1,0,0-2.844H85.916L83.143,34.2A9.89,9.89,0,0,0,76.1,31.287H72.528V11.942a11.221,11.221,0,0,0,2.844-7.434V1.422A1.422,1.422,0,0,0,73.95,0H70.864A11.222,11.222,0,0,0,63.43,2.845H27.585A11.222,11.222,0,0,0,20.151,0H17.065a1.422,1.422,0,0,0-1.422,1.422V4.508a11.221,11.221,0,0,0,2.844,7.434V31.287H14.91A9.89,9.89,0,0,0,7.871,34.2L5.1,36.976H1.421a1.422,1.422,0,1,0,0,2.844H5.1l2.773,2.773a10.022,10.022,0,0,0,1.905,1.493A10.022,10.022,0,0,0,7.871,45.58L5.1,48.353H1.421a1.422,1.422,0,0,0,0,2.844H5.1L7.871,53.97a10.023,10.023,0,0,0,1.905,1.493,10.024,10.024,0,0,0-1.905,1.493L5.1,59.73H1.421a1.422,1.422,0,0,0,0,2.844H5.1l2.773,2.773a10.022,10.022,0,0,0,1.906,1.494,10.036,10.036,0,0,0-1.91,1.5L5.1,71.107H1.421a1.422,1.422,0,1,0,0,2.844H5.1L7.868,76.72a10.035,10.035,0,0,0,1.911,1.5,10.035,10.035,0,0,0-1.911,1.5L5.1,82.484H1.421a1.422,1.422,0,0,0,0,2.844H5.1L7.868,88.1a9.9,9.9,0,0,0,7.05,2.919H76.1a9.9,9.9,0,0,0,7.05-2.919l2.769-2.769h3.677a1.422,1.422,0,1,0,0-2.844H85.916l-2.769-2.769a10.035,10.035,0,0,0-1.911-1.5,10.035,10.035,0,0,0,1.911-1.5l2.769-2.769h3.677a1.422,1.422,0,1,0,0-2.844H85.916l-2.769-2.769a10.037,10.037,0,0,0-1.91-1.5,10.023,10.023,0,0,0,1.906-1.494l2.773-2.773h3.677a1.422,1.422,0,0,0,0-2.844H85.916l-2.773-2.773a10.024,10.024,0,0,0-1.905-1.493,10.023,10.023,0,0,0,1.905-1.493ZM76.1,34.131a7.063,7.063,0,0,1,5.028,2.083L83.316,38.4l-2.184,2.184A7.063,7.063,0,0,1,76.1,42.664H72.528V34.131ZM34.13,5.689H56.884v5.689H34.13ZM18.487,2.844h1.664a8.349,8.349,0,0,1,5.863,2.428l1.422,1.422a1.422,1.422,0,0,0,2.428-1.006h1.422V12.8a1.422,1.422,0,0,0,1.422,1.422h25.6A1.422,1.422,0,0,0,59.729,12.8V5.689h1.422a1.422,1.422,0,0,0,2.428,1.006L65,5.272a8.349,8.349,0,0,1,5.863-2.428h1.664V4.508A8.348,8.348,0,0,1,70.1,10.372l-1.422,1.422a1.422,1.422,0,0,0,1.006,2.428V71.107a1.422,1.422,0,0,0-1.006,2.428L70.1,74.957h0a8.115,8.115,0,0,1,2.105,3.628l.007.026a7.981,7.981,0,0,1,.314,2.209v1.664H70.864A8.349,8.349,0,0,1,65,80.056l-1.422-1.422a1.422,1.422,0,0,0-2.428,1.006H59.729V72.529a1.422,1.422,0,0,0-1.422-1.422h-25.6a1.422,1.422,0,0,0-1.422,1.422V79.64H29.864a1.422,1.422,0,0,0-2.428-1.006l-1.422,1.422a8.349,8.349,0,0,1-5.863,2.428H18.487V80.82a7.981,7.981,0,0,1,.314-2.209l.007-.026a8.115,8.115,0,0,1,2.105-3.628h0l1.422-1.422a1.422,1.422,0,0,0-1.006-2.428V14.222a1.422,1.422,0,0,0,1.006-2.428l-1.422-1.422a8.348,8.348,0,0,1-2.428-5.863Zm38.4,76.8H34.13V73.951H56.884Zm-47-39.058L7.7,38.4l2.184-2.184a7.063,7.063,0,0,1,5.028-2.083h3.576v8.533H14.911a7.063,7.063,0,0,1-5.028-2.083Zm0,11.377L7.7,49.775l2.184-2.184a7.063,7.063,0,0,1,5.028-2.083h3.576v8.533H14.911a7.063,7.063,0,0,1-5.028-2.083Zm0,11.377L7.7,61.152l2.184-2.184a7.063,7.063,0,0,1,5.028-2.083h3.576v8.533H14.911a7.063,7.063,0,0,1-5.028-2.083Zm0,11.373L7.7,72.529l2.18-2.18a7.078,7.078,0,0,1,5.038-2.086h3.57v5.123a10.985,10.985,0,0,0-2.08,3.41H14.917a7.078,7.078,0,0,1-5.038-2.087Zm71.257,7.017,2.18,2.18-2.18,2.18A7.078,7.078,0,0,1,76.1,88.172H14.917a7.078,7.078,0,0,1-5.038-2.087L7.7,83.906l2.18-2.18a7.078,7.078,0,0,1,5.038-2.086h.791a10.714,10.714,0,0,0-.066,1.18v3.086a1.422,1.422,0,0,0,1.422,1.422h3.086a11.222,11.222,0,0,0,7.434-2.844H63.43a11.222,11.222,0,0,0,7.434,2.844H73.95a1.422,1.422,0,0,0,1.422-1.422V80.82a10.714,10.714,0,0,0-.066-1.18H76.1a7.078,7.078,0,0,1,5.038,2.086Zm2.18-9.2-2.18,2.18A7.078,7.078,0,0,1,76.1,76.8H74.608a10.985,10.985,0,0,0-2.08-3.41V68.263H76.1a7.078,7.078,0,0,1,5.038,2.086ZM81.132,58.968l2.184,2.184-2.184,2.184A7.063,7.063,0,0,1,76.1,65.418H72.528V56.885H76.1A7.063,7.063,0,0,1,81.132,58.968Zm-8.6-4.927V45.508H76.1a7.063,7.063,0,0,1,5.028,2.083l2.184,2.184-2.184,2.184A7.063,7.063,0,0,1,76.1,54.041Z" transform="translate(0)"/><path class="a" d="M177.422,98.844h25.6a1.422,1.422,0,1,0,0-2.844h-25.6a1.422,1.422,0,1,0,0,2.844Z" transform="translate(-144.714 -78.934)"/><path class="a" d="M177.422,130.844h25.6a1.422,1.422,0,1,0,0-2.844h-25.6a1.422,1.422,0,1,0,0,2.844Z" transform="translate(-144.714 -105.246)"/><path class="a" d="M48.753,9.285l1.6-1.6-.828-.828-1.6,1.6a6.4,6.4,0,0,0-3.713,1.365c.883-1.637-.777-4.734-1.3-5.638V2H41.736V4.183c-.527.9-2.187,4-1.3,5.638A6.4,6.4,0,0,0,36.72,8.456l-1.6-1.6-.828.828,1.6,1.6a6.407,6.407,0,0,0,1.537,3.925,6.411,6.411,0,0,0-.709-.067l-1.6-1.6-.828.828,1.6,1.6A6.407,6.407,0,0,0,37.429,17.9a6.411,6.411,0,0,0-.709-.067l-1.6-1.6-.828.828,1.6,1.6a6.407,6.407,0,0,0,1.537,3.925,6.409,6.409,0,0,0-.709-.067l-1.6-1.6-.828.828,1.6,1.6A6.445,6.445,0,0,0,41.736,29.5v7.645h1.172V29.5a6.445,6.445,0,0,0,5.845-6.158l1.6-1.6-.828-.828-1.6,1.6a6.409,6.409,0,0,0-.709.067,6.411,6.411,0,0,0,1.537-3.925l1.6-1.6-.828-.828-1.6,1.6a6.41,6.41,0,0,0-.709.067,6.411,6.411,0,0,0,1.537-3.925l1.6-1.6-.828-.828-1.6,1.6a6.411,6.411,0,0,0-.709.067A6.407,6.407,0,0,0,48.753,9.285ZM42.322,24.845a6.462,6.462,0,0,0,.964-.08,6.453,6.453,0,0,0-.964,1.512,6.453,6.453,0,0,0-.964-1.512A6.461,6.461,0,0,0,42.322,24.845Zm0-3.255a6.453,6.453,0,0,0-.964-1.512,5.832,5.832,0,0,0,1.928,0A6.453,6.453,0,0,0,42.322,21.591Zm0-4.686a6.453,6.453,0,0,0-.964-1.512,5.832,5.832,0,0,0,1.928,0A6.453,6.453,0,0,0,42.322,16.9Zm0-4.686a6.457,6.457,0,0,0-1.09-1.651,2.825,2.825,0,0,0,2.18,0A6.444,6.444,0,0,0,42.322,12.218Zm5.236-2.566a5.281,5.281,0,0,1-4.613,4.613A5.28,5.28,0,0,1,47.558,9.652ZM42.322,5.569C43,6.934,43.559,8.6,43.177,9.277c-.047.083-.192.338-.855.338s-.808-.255-.855-.338C41.085,8.6,41.646,6.934,42.322,5.569Zm-.622,8.7a5.281,5.281,0,0,1-4.613-4.613A5.281,5.281,0,0,1,41.7,14.265Zm0,4.686a5.281,5.281,0,0,1-4.613-4.613A5.281,5.281,0,0,1,41.7,18.951Zm0,4.686a5.281,5.281,0,0,1-4.613-4.613A5.281,5.281,0,0,1,41.7,23.637Zm-4.613.073A5.281,5.281,0,0,1,41.7,28.324,5.281,5.281,0,0,1,37.087,23.711Zm5.858,4.613a5.281,5.281,0,0,1,4.613-4.613A5.283,5.283,0,0,1,42.945,28.324Zm0-4.686a5.281,5.281,0,0,1,4.613-4.613A5.283,5.283,0,0,1,42.945,23.637Zm0-4.686a5.281,5.281,0,0,1,4.613-4.613A5.283,5.283,0,0,1,42.945,18.951Z" transform="translate(2.824 29.442)"/></g></svg>