<svg xmlns="http://www.w3.org/2000/svg" width="54.813" height="50" viewBox="0 0 54.813 50"><defs><style>.a{fill:#f5a31a;}</style></defs><g transform="translate(0.005 -0.277)"><path class="a" d="M368.2,45.942a3.376,3.376,0,1,0-3.375-3.376A3.376,3.376,0,0,0,368.2,45.942Zm0-5.2a1.827,1.827,0,1,1-1.827,1.827A1.828,1.828,0,0,1,368.2,40.74Zm0,0" transform="translate(-324.476 -34.609)"/><path class="a" d="M352.88,95.3a.8.8,0,0,0-.624.34,2.406,2.406,0,0,1-.5.514,2.32,2.32,0,0,1-3.282-.517.8.8,0,0,0-.624-.337,3.129,3.129,0,0,0-3.078,3.164v3.307a.7.7,0,0,0,.737.719h9.712a.685.685,0,0,0,.722-.719V98.46A3.116,3.116,0,0,0,352.88,95.3Zm1.514,5.641H346.32V98.46a1.554,1.554,0,0,1,1.215-1.531,3.89,3.89,0,0,0,5.146.481,3.65,3.65,0,0,0,.51-.481,1.543,1.543,0,0,1,1.2,1.531Zm0,0" transform="translate(-306.64 -84.51)"/><path class="a" d="M43.778.277A11.024,11.024,0,0,0,34.817,17.73L27.4,20.069,19.986,17.73A11.026,11.026,0,1,0,9.107,22.169L6.75,24.525a7.411,7.411,0,0,0,.316,10.446C10.3,38.208,13.779,41.7,16.681,44.6a3.061,3.061,0,0,0,.785,2.91l.038.038a3.018,3.018,0,0,0,2.147.878,3.22,3.22,0,0,0,.768-.094l.292.291a3.375,3.375,0,0,0,1.688.916,3,3,0,0,0,2,.74l.112,0a3.346,3.346,0,0,0,2.253-.992l.639-.639.639.639a3.343,3.343,0,0,0,2.252.992l.112,0a3,3,0,0,0,2-.739,3.411,3.411,0,0,0,1.689-.917l.293-.293a3.072,3.072,0,0,0,2.913-.782l.039-.039A3.07,3.07,0,0,0,38.12,44.6c2.924-2.923,6.349-6.354,9.617-9.628a7.411,7.411,0,0,0,.316-10.446L45.7,22.169A11.03,11.03,0,0,0,43.777.277ZM1.544,11.307a9.481,9.481,0,1,1,9.481,9.481,9.481,9.481,0,0,1-9.481-9.481ZM25.667,48.188l-.019.018a2.969,2.969,0,0,0,.395-.921l.264.264Zm10.575-1.775-.039.039a1.648,1.648,0,0,1-2.319-.118L22.689,35.14l-1.095,1.095,9.748,9.748a1.647,1.647,0,0,1,.124,2.311l-.012.011a1.474,1.474,0,0,1-1.109.422,1.8,1.8,0,0,1-1.211-.54l-9.747-9.747-1.095,1.095,5.746,5.746a1.8,1.8,0,0,1,.539,1.211,1.473,1.473,0,0,1-.423,1.109l-.036.036a1.648,1.648,0,0,1-2.315-.114C18.667,44.4,13.117,38.843,8.162,33.878a5.863,5.863,0,0,1-.317-8.258l3.285-3.285a11,11,0,0,0,7.777-3.322l5.92,1.867-3.28,1.034a.774.774,0,0,0-.538.81l.083.894A4.114,4.114,0,0,0,22.5,26.566a4.181,4.181,0,0,0,3.185.992l.464-.045L36.862,38.239a1.648,1.648,0,0,1,.116,2.318l-.006.006a1.474,1.474,0,0,1-1.1.416,1.794,1.794,0,0,1-1.16-.491l-3.5-3.495c-2.665-2.664-4.966-4.964-5.187-5.187l-1.1,1.091c.223.225,2.525,2.527,5.191,5.191l3.447,3.445h0l.067.066,2.494,2.494a1.648,1.648,0,0,1,.118,2.319Zm10.4-12.536c-3.14,3.146-6.425,6.437-9.271,9.282-.048-.054-.1-.108-.149-.16l-.556-.556a2.969,2.969,0,0,0,1.409-.791l.009-.009a3.2,3.2,0,0,0-.124-4.5L28.5,27.669l.624-.625a.774.774,0,0,0-.623-1.318l-2.962.29a2.643,2.643,0,0,1-2.018-.619,2.583,2.583,0,0,1-.879-1.865c0-.013,0-.026,0-.039l-.027-.29L35.9,19.013a11,11,0,0,0,7.776,3.322l3.285,3.285a5.862,5.862,0,0,1-.316,8.258Zm-2.863-13.09a9.481,9.481,0,1,1,9.481-9.481,9.481,9.481,0,0,1-9.481,9.481Zm0,0" transform="translate(0)"/><path class="a" d="M72.091,45.942a3.376,3.376,0,1,0-3.376-3.376A3.376,3.376,0,0,0,72.091,45.942Zm0-5.2a1.827,1.827,0,1,1-1.827,1.827A1.828,1.828,0,0,1,72.091,40.74Zm0,0" transform="translate(-61.119 -34.609)"/><path class="a" d="M59.939,101.768V98.461A3.126,3.126,0,0,0,56.865,95.3a.8.8,0,0,0-.624.34,2.407,2.407,0,0,1-.5.514,2.353,2.353,0,0,1-3.282-.52.794.794,0,0,0-.624-.333,3.119,3.119,0,0,0-3.065,3.164v3.307a.688.688,0,0,0,.725.719H59.2a.7.7,0,0,0,.735-.719Zm-1.549-.83H50.316V98.461a1.549,1.549,0,0,1,1.209-1.531,3.886,3.886,0,0,0,5.143.481,3.666,3.666,0,0,0,.515-.481,1.547,1.547,0,0,1,1.208,1.531Zm0,0" transform="translate(-43.377 -84.51)"/></g></svg>