<svg xmlns="http://www.w3.org/2000/svg" width="60.115" height="60" viewBox="0 0 60.115 60"><defs><style>.a{fill:#f5a31a;}</style></defs><g transform="translate(0 -0.49)"><path class="a" d="M52.274,126.115a8.078,8.078,0,1,0-12.55,0,11.311,11.311,0,0,0-3,1.478,8.07,8.07,0,0,0-13.325,0,11.307,11.307,0,0,0-3-1.478,8.078,8.078,0,1,0-12.55,0A11.275,11.275,0,0,0,0,136.841v10a1.765,1.765,0,0,0,1.765,1.765H15.94v9.356a1.765,1.765,0,0,0,1.765,1.765H42.411a1.765,1.765,0,0,0,1.765-1.765v-9.356H58.351a1.765,1.765,0,0,0,1.765-1.765v-10a11.275,11.275,0,0,0-7.842-10.726ZM46,116.487a4.549,4.549,0,0,1,0,9.1h-.009a4.549,4.549,0,0,1,0-9.1Zm-15.94,11.121a4.549,4.549,0,1,1-4.549,4.549A4.553,4.553,0,0,1,30.058,127.609Zm-15.94-11.121a4.549,4.549,0,0,1,0,9.1h-.009a4.549,4.549,0,0,1,0-9.1ZM3.529,136.841a7.735,7.735,0,0,1,7.726-7.726h5.726a7.746,7.746,0,0,1,5.078,1.9,8.1,8.1,0,0,0,1.717,6.217,11.286,11.286,0,0,0-7.462,7.839H11.058v-6.6a1.765,1.765,0,1,0-3.529,0v6.6h-4ZM40.646,156.2H37.116v-5.216a1.765,1.765,0,1,0-3.529,0V156.2H26.528v-5.216a1.765,1.765,0,1,0-3.529,0V156.2H19.469v-8.235a7.736,7.736,0,0,1,7.726-7.726H32.92a7.736,7.736,0,0,1,7.726,7.726Zm15.94-11.121h-4v-6.6a1.765,1.765,0,1,0-3.529,0v6.6H43.8a11.286,11.286,0,0,0-7.462-7.839,8.1,8.1,0,0,0,1.717-6.217,7.746,7.746,0,0,1,5.078-1.9H48.86a7.735,7.735,0,0,1,7.726,7.726Z" transform="translate(0 -99.236)"/><path class="a" d="M155.647,18.963a1.765,1.765,0,0,0,3.213-1.46l-2.353-5.176a1.765,1.765,0,1,0-3.213,1.46Z" transform="translate(-135.119 -9.53)"/><path class="a" d="M308.872,19.839a1.765,1.765,0,0,0,2.337-.876l2.353-5.176a1.765,1.765,0,0,0-3.213-1.46L308,17.5A1.765,1.765,0,0,0,308.872,19.839Z" transform="translate(-271.621 -9.531)"/><path class="a" d="M242.255,9.176a1.765,1.765,0,0,0,1.765-1.765V2.255a1.765,1.765,0,0,0-3.529,0V7.412A1.765,1.765,0,0,0,242.255,9.176Z" transform="translate(-212.197)"/></g></svg>