<svg xmlns="http://www.w3.org/2000/svg" width="88" height="425" viewBox="0 0 88 425"><defs><style>.a,.b{fill:#f5a31a;}.a{opacity:0.1;}</style></defs><g transform="translate(-577 -2187)"><rect class="a" width="88" height="425" rx="20" transform="translate(577 2187)"/><g transform="translate(595.949 2290)"><g transform="translate(0.051 0)"><g transform="translate(0)"><path class="b" d="M42.767,7.41l-.088-.088A24.965,24.965,0,0,0,.051,24.981,24.99,24.99,0,1,0,42.767,7.41ZM25.021,47.758A22.783,22.783,0,1,1,47.8,24.97,22.81,22.81,0,0,1,25.021,47.758Z" transform="translate(-0.051 0)"/></g></g><g transform="translate(18.378 15.422)"><path class="b" d="M179.434,145.414h-2.17a5.089,5.089,0,0,0-1.195-2.521h3.354a1.1,1.1,0,1,0,.011-2.192H168.342a1.1,1.1,0,0,0,0,2.192h3.179a3.705,3.705,0,0,1,3.5,2.521h-6.675a1.1,1.1,0,0,0,0,2.192h6.675a3.8,3.8,0,0,1-.91,1.524,3.654,3.654,0,0,1-2.587,1.107h-3.179a1.062,1.062,0,0,0-.756,1.841l7.936,7.5a1.082,1.082,0,0,0,1.546-.055,1.055,1.055,0,0,0-.022-1.491c-.011-.011-.022-.011-.022-.022l-5.93-5.579h.417a5.888,5.888,0,0,0,4.143-1.743,5.65,5.65,0,0,0,1.611-3.08h2.17a1.1,1.1,0,1,0,0-2.192Z" transform="translate(-167.245 -140.701)"/></g><g transform="translate(5.904 5.853)"><path class="b" d="M72.567,53.4A19.116,19.116,0,1,0,91.684,72.517,19.133,19.133,0,0,0,72.567,53.4Zm0,36.041A16.924,16.924,0,1,1,89.492,72.517,16.948,16.948,0,0,1,72.567,89.442Z" transform="translate(-53.451 -53.401)"/></g></g><g transform="translate(596 2206)"><g transform="translate(15)"><path class="b" d="M157.922,10.139a5.833,5.833,0,1,0-7.843,0A7.51,7.51,0,0,0,144,17.5v3.333a.833.833,0,0,0,.833.833h18.333a.833.833,0,0,0,.833-.833V17.5A7.51,7.51,0,0,0,157.922,10.139Zm-8.088-4.306A4.167,4.167,0,1,1,154,10,4.171,4.171,0,0,1,149.833,5.833ZM162.333,20H145.667V17.5a5.84,5.84,0,0,1,5.833-5.833h5a5.84,5.84,0,0,1,5.833,5.833Z" transform="translate(-144)"/></g><g transform="translate(0 28.333)"><path class="b" d="M13.922,282.139a5.833,5.833,0,1,0-7.843,0A7.51,7.51,0,0,0,0,289.5v3.333a.833.833,0,0,0,.833.833H19.167a.833.833,0,0,0,.833-.833V289.5A7.51,7.51,0,0,0,13.922,282.139Zm-8.088-4.306A4.167,4.167,0,1,1,10,282,4.171,4.171,0,0,1,5.833,277.833ZM18.333,292H1.667v-2.5A5.84,5.84,0,0,1,7.5,283.667h5a5.84,5.84,0,0,1,5.833,5.833Z" transform="translate(0 -272)"/></g><g transform="translate(30 28.333)"><path class="b" d="M301.922,282.139a5.833,5.833,0,1,0-7.843,0A7.51,7.51,0,0,0,288,289.5v3.333a.833.833,0,0,0,.833.833h18.333a.833.833,0,0,0,.833-.833V289.5A7.51,7.51,0,0,0,301.922,282.139Zm-8.088-4.306A4.167,4.167,0,1,1,298,282,4.171,4.171,0,0,1,293.833,277.833ZM306.333,292H289.667v-2.5a5.84,5.84,0,0,1,5.833-5.833h5a5.84,5.84,0,0,1,5.833,5.833Z" transform="translate(-288 -272)"/></g><g transform="translate(3.351 26.64)"><path class="b" d="M33.833,255.744l-1.665.065c.022.574.068,1.156.137,1.727l1.655-.2C33.9,256.811,33.854,256.274,33.833,255.744Z" transform="translate(-32.168 -255.744)"/></g><g transform="translate(3.351 23.247)"><path class="b" d="M32.3,223.176c-.068.568-.114,1.149-.136,1.727l1.665.065c.021-.533.063-1.069.126-1.6Z" transform="translate(-32.168 -223.176)"/></g><g transform="translate(10.53 8.598)"><path class="b" d="M102.424,82.544c-.456.347-.905.719-1.336,1.106l1.114,1.24c.4-.357.811-.7,1.232-1.02Z" transform="translate(-101.088 -82.544)"/></g><g transform="translate(4.714 16.608)"><path class="b" d="M45.931,159.44c-.245.521-.472,1.057-.675,1.6l1.56.586c.188-.5.4-.993.623-1.473Z" transform="translate(-45.256 -159.44)"/></g><g transform="translate(3.759 19.853)"><path class="b" d="M36.5,190.584c-.158.551-.3,1.118-.41,1.683l1.634.329c.1-.521.232-1.044.378-1.553Z" transform="translate(-36.088 -190.584)"/></g><g transform="translate(8.147 10.914)"><path class="b" d="M79.351,104.776c-.4.42-.783.857-1.143,1.3l1.3,1.048c.332-.41.687-.815,1.055-1.2Z" transform="translate(-78.208 -104.776)"/></g><g transform="translate(13.283 6.726)"><path class="b" d="M129.007,64.568c-.5.269-1.007.565-1.5.879l.9,1.4c.45-.291.913-.563,1.377-.811Z" transform="translate(-127.512 -64.568)"/></g><g transform="translate(6.19 13.604)"><path class="b" d="M60.346,130.6c-.326.476-.636.969-.922,1.468l1.446.828c.263-.46.55-.916.851-1.354Z" transform="translate(-59.424 -130.6)"/></g><g transform="translate(20.722 45.443)"><path class="b" d="M199.265,436.256l-.329,1.634c.561.113,1.137.2,1.713.272l.193-1.655C200.313,436.444,199.782,436.36,199.265,436.256Z" transform="translate(-198.936 -436.256)"/></g><g transform="translate(27.421 45.433)"><path class="b" d="M264.82,436.16c-.517.1-1.048.191-1.58.256l.2,1.655c.575-.07,1.15-.163,1.71-.277Z" transform="translate(-263.24 -436.16)"/></g><g transform="translate(24.162 45.817)"><path class="b" d="M233.618,439.84c-.533.021-1.071.023-1.6,0l-.066,1.665c.277.012.557.017.841.017s.6-.007.892-.019Z" transform="translate(-231.952 -439.84)"/></g><g transform="translate(38.36 9.711)"><path class="b" d="M369.369,93.224l-1.113,1.24c.4.357.782.732,1.146,1.115l1.21-1.146C370.217,94.017,369.8,93.61,369.369,93.224Z" transform="translate(-368.256 -93.224)"/></g><g transform="translate(40.561 12.221)"><path class="b" d="M390.68,117.32l-1.3,1.048c.333.411.654.843.956,1.283l1.374-.942C391.387,118.233,391.04,117.766,390.68,117.32Z" transform="translate(-389.384 -117.32)"/></g><g transform="translate(44.984 24.977)"><path class="b" d="M433.513,239.776l-1.665.065c.011.262.016.527.016.792s-.005.54-.016.809l1.665.065q.017-.435.017-.876C433.53,240.345,433.525,240.059,433.513,239.776Z" transform="translate(-431.848 -239.776)"/></g><g transform="translate(42.367 15.077)"><path class="b" d="M408.167,144.736l-1.447.829c.264.461.512.938.739,1.418l1.508-.712C408.722,145.752,408.452,145.235,408.167,144.736Z" transform="translate(-406.72 -144.736)"/></g><g transform="translate(43.728 18.21)"><path class="b" d="M421.344,174.816l-1.56.587c.187.5.355,1.008.5,1.518l1.6-.459C421.73,175.908,421.546,175.354,421.344,174.816Z" transform="translate(-419.784 -174.816)"/></g><g transform="translate(44.607 21.539)"><path class="b" d="M429.857,206.776l-1.633.328c.105.522.19,1.053.252,1.58l1.655-.2C430.063,207.918,429.971,207.342,429.857,206.776Z" transform="translate(-428.224 -206.776)"/></g><g transform="translate(35.82 7.608)"><path class="b" d="M344.775,73.04l-.9,1.4c.445.287.885.6,1.309.92l1.012-1.326C345.734,73.685,345.257,73.351,344.775,73.04Z" transform="translate(-343.872 -73.04)"/></g><g transform="translate(33.003 5.972)"><path class="b" d="M317.492,57.328l-.668,1.527c.486.213.969.447,1.438.7l.788-1.468C318.543,57.812,318.018,57.557,317.492,57.328Z" transform="translate(-316.824 -57.328)"/></g></g><g transform="translate(596.26 2466.183)"><g transform="translate(0 0)"><g transform="translate(0 0)"><path class="b" d="M96.367,349.867a2.5,2.5,0,1,0,2.5,2.5A2.5,2.5,0,0,0,96.367,349.867Zm0,3.333a.833.833,0,1,1,.833-.833A.833.833,0,0,1,96.367,353.2Z" transform="translate(-84.7 -323.2)"/><path class="b" d="M369.433,349.867a2.5,2.5,0,1,0,2.5,2.5A2.5,2.5,0,0,0,369.433,349.867Zm0,3.333a.833.833,0,1,1,.833-.833A.833.833,0,0,1,369.433,353.2Z" transform="translate(-331.1 -323.2)"/><path class="b" d="M49.365,91.6,43.624,85.14a2.5,2.5,0,0,0-1.874-.84H34.167v-5a2.5,2.5,0,0,0-2.5-2.5H2.5A2.5,2.5,0,0,0,0,79.3v21.667a.833.833,0,0,0,.833.833h.833v2.5a2.5,2.5,0,0,0,2.5,2.5H5.9a5.826,5.826,0,0,0,11.534,0H32.567a5.826,5.826,0,0,0,11.534,0h3.4a2.5,2.5,0,0,0,2.5-2.5V93.266A2.5,2.5,0,0,0,49.365,91.6Zm-47.7,8.529V79.3a.834.834,0,0,1,.833-.833H31.667a.834.834,0,0,1,.833.833v20.833Zm4.233,5H4.167a.834.834,0,0,1-.833-.833v-2.5H7.592A5.818,5.818,0,0,0,5.9,105.133Zm5.767,5a4.167,4.167,0,1,1,4.167-4.167A4.167,4.167,0,0,1,11.667,110.133Zm8.333-5H17.433a5.818,5.818,0,0,0-1.692-3.333H20Zm7.5,0H21.667V101.8H27.5Zm5.067,0h-3.4V101.8h5.092A5.818,5.818,0,0,0,32.567,105.133Zm5.767,5a4.167,4.167,0,1,1,4.167-4.167A4.167,4.167,0,0,1,38.333,110.133Zm10-5.833a.834.834,0,0,1-.833.833H44.1a5.838,5.838,0,0,0-5.767-5H34.167V85.967H37.5V94.3A2.5,2.5,0,0,0,40,96.8h8.333Zm0-9.167H40a.834.834,0,0,1-.833-.833V85.967H41.75a.835.835,0,0,1,.627.278l5.743,6.467a.836.836,0,0,1,.214.554v1.867Z" transform="translate(0 -76.8)"/><path class="b" d="M41.185,5.472l.762-.762-.395-.395-.762.762a3.051,3.051,0,0,0-1.77.651c.421-.78-.37-2.256-.621-2.687V2h-.558V3.041c-.251.431-1.042,1.907-.621,2.687a3.051,3.051,0,0,0-1.77-.651l-.762-.762-.395.395.762.762a3.054,3.054,0,0,0,.733,1.871,3.055,3.055,0,0,0-.338-.032l-.762-.762-.395.395.762.762a3.054,3.054,0,0,0,.733,1.871,3.055,3.055,0,0,0-.338-.032l-.762-.762-.395.395.762.762a3.054,3.054,0,0,0,.733,1.871,3.055,3.055,0,0,0-.338-.032l-.762-.762-.395.395.762.762a3.072,3.072,0,0,0,2.786,2.935v3.644H38.4V15.108a3.072,3.072,0,0,0,2.786-2.935l.762-.762-.395-.395-.762.762a3.055,3.055,0,0,0-.338.032,3.056,3.056,0,0,0,.733-1.871l.762-.762-.395-.395-.762.762a3.055,3.055,0,0,0-.338.032,3.056,3.056,0,0,0,.733-1.871l.762-.762-.395-.395-.762.762a3.055,3.055,0,0,0-.338.032A3.054,3.054,0,0,0,41.185,5.472ZM38.12,12.889a3.08,3.08,0,0,0,.46-.038,3.076,3.076,0,0,0-.46.721,3.076,3.076,0,0,0-.46-.721A3.08,3.08,0,0,0,38.12,12.889Zm0-1.551a3.076,3.076,0,0,0-.46-.721,2.78,2.78,0,0,0,.919,0A3.075,3.075,0,0,0,38.12,11.337Zm0-2.234a3.076,3.076,0,0,0-.46-.721,2.78,2.78,0,0,0,.919,0A3.076,3.076,0,0,0,38.12,9.1Zm0-2.234a3.078,3.078,0,0,0-.52-.787,1.347,1.347,0,0,0,1.039,0A3.071,3.071,0,0,0,38.12,6.87Zm2.5-1.223a2.517,2.517,0,0,1-2.2,2.2A2.517,2.517,0,0,1,40.615,5.647ZM38.12,3.7c.322.651.59,1.446.408,1.768-.023.04-.091.161-.408.161s-.385-.121-.408-.161C37.53,5.147,37.8,4.352,38.12,3.7Zm-.3,4.145a2.517,2.517,0,0,1-2.2-2.2A2.517,2.517,0,0,1,37.823,7.846Zm0,2.234a2.517,2.517,0,0,1-2.2-2.2A2.517,2.517,0,0,1,37.823,10.079Zm0,2.234a2.517,2.517,0,0,1-2.2-2.2A2.517,2.517,0,0,1,37.823,12.313Zm-2.2.035a2.517,2.517,0,0,1,2.2,2.2A2.517,2.517,0,0,1,35.625,12.348Zm2.792,2.2a2.517,2.517,0,0,1,2.2-2.2A2.518,2.518,0,0,1,38.417,14.547Zm0-2.234a2.517,2.517,0,0,1,2.2-2.2A2.518,2.518,0,0,1,38.417,12.313Zm0-2.234a2.517,2.517,0,0,1,2.2-2.2A2.518,2.518,0,0,1,38.417,10.079Z" transform="translate(-28.765 2.522)"/><path class="b" d="M41.185,5.472l.762-.762-.395-.395-.762.762a3.051,3.051,0,0,0-1.77.651c.421-.78-.37-2.256-.621-2.687V2h-.558V3.041c-.251.431-1.042,1.907-.621,2.687a3.051,3.051,0,0,0-1.77-.651l-.762-.762-.395.395.762.762a3.054,3.054,0,0,0,.733,1.871,3.055,3.055,0,0,0-.338-.032l-.762-.762-.395.395.762.762a3.054,3.054,0,0,0,.733,1.871,3.055,3.055,0,0,0-.338-.032l-.762-.762-.395.395.762.762a3.054,3.054,0,0,0,.733,1.871,3.055,3.055,0,0,0-.338-.032l-.762-.762-.395.395.762.762a3.072,3.072,0,0,0,2.786,2.935v3.644H38.4V15.108a3.072,3.072,0,0,0,2.786-2.935l.762-.762-.395-.395-.762.762a3.055,3.055,0,0,0-.338.032,3.056,3.056,0,0,0,.733-1.871l.762-.762-.395-.395-.762.762a3.055,3.055,0,0,0-.338.032,3.056,3.056,0,0,0,.733-1.871l.762-.762-.395-.395-.762.762a3.055,3.055,0,0,0-.338.032A3.054,3.054,0,0,0,41.185,5.472ZM38.12,12.889a3.08,3.08,0,0,0,.46-.038,3.076,3.076,0,0,0-.46.721,3.076,3.076,0,0,0-.46-.721A3.08,3.08,0,0,0,38.12,12.889Zm0-1.551a3.076,3.076,0,0,0-.46-.721,2.78,2.78,0,0,0,.919,0A3.075,3.075,0,0,0,38.12,11.337Zm0-2.234a3.076,3.076,0,0,0-.46-.721,2.78,2.78,0,0,0,.919,0A3.076,3.076,0,0,0,38.12,9.1Zm0-2.234a3.078,3.078,0,0,0-.52-.787,1.347,1.347,0,0,0,1.039,0A3.071,3.071,0,0,0,38.12,6.87Zm2.5-1.223a2.517,2.517,0,0,1-2.2,2.2A2.517,2.517,0,0,1,40.615,5.647ZM38.12,3.7c.322.651.59,1.446.408,1.768-.023.04-.091.161-.408.161s-.385-.121-.408-.161C37.53,5.147,37.8,4.352,38.12,3.7Zm-.3,4.145a2.517,2.517,0,0,1-2.2-2.2A2.517,2.517,0,0,1,37.823,7.846Zm0,2.234a2.517,2.517,0,0,1-2.2-2.2A2.517,2.517,0,0,1,37.823,10.079Zm0,2.234a2.517,2.517,0,0,1-2.2-2.2A2.517,2.517,0,0,1,37.823,12.313Zm-2.2.035a2.517,2.517,0,0,1,2.2,2.2A2.517,2.517,0,0,1,35.625,12.348Zm2.792,2.2a2.517,2.517,0,0,1,2.2-2.2A2.518,2.518,0,0,1,38.417,14.547Zm0-2.234a2.517,2.517,0,0,1,2.2-2.2A2.518,2.518,0,0,1,38.417,12.313Zm0-2.234a2.517,2.517,0,0,1,2.2-2.2A2.518,2.518,0,0,1,38.417,10.079Z" transform="translate(-21.036 2.522)"/><path class="b" d="M41.185,5.472l.762-.762-.395-.395-.762.762a3.051,3.051,0,0,0-1.77.651c.421-.78-.37-2.256-.621-2.687V2h-.558V3.041c-.251.431-1.042,1.907-.621,2.687a3.051,3.051,0,0,0-1.77-.651l-.762-.762-.395.395.762.762a3.054,3.054,0,0,0,.733,1.871,3.055,3.055,0,0,0-.338-.032l-.762-.762-.395.395.762.762a3.054,3.054,0,0,0,.733,1.871,3.055,3.055,0,0,0-.338-.032l-.762-.762-.395.395.762.762a3.054,3.054,0,0,0,.733,1.871,3.055,3.055,0,0,0-.338-.032l-.762-.762-.395.395.762.762a3.072,3.072,0,0,0,2.786,2.935v3.644H38.4V15.108a3.072,3.072,0,0,0,2.786-2.935l.762-.762-.395-.395-.762.762a3.055,3.055,0,0,0-.338.032,3.056,3.056,0,0,0,.733-1.871l.762-.762-.395-.395-.762.762a3.055,3.055,0,0,0-.338.032,3.056,3.056,0,0,0,.733-1.871l.762-.762-.395-.395-.762.762a3.055,3.055,0,0,0-.338.032A3.054,3.054,0,0,0,41.185,5.472ZM38.12,12.889a3.08,3.08,0,0,0,.46-.038,3.076,3.076,0,0,0-.46.721,3.076,3.076,0,0,0-.46-.721A3.08,3.08,0,0,0,38.12,12.889Zm0-1.551a3.076,3.076,0,0,0-.46-.721,2.78,2.78,0,0,0,.919,0A3.075,3.075,0,0,0,38.12,11.337Zm0-2.234a3.076,3.076,0,0,0-.46-.721,2.78,2.78,0,0,0,.919,0A3.076,3.076,0,0,0,38.12,9.1Zm0-2.234a3.078,3.078,0,0,0-.52-.787,1.347,1.347,0,0,0,1.039,0A3.071,3.071,0,0,0,38.12,6.87Zm2.5-1.223a2.517,2.517,0,0,1-2.2,2.2A2.517,2.517,0,0,1,40.615,5.647ZM38.12,3.7c.322.651.59,1.446.408,1.768-.023.04-.091.161-.408.161s-.385-.121-.408-.161C37.53,5.147,37.8,4.352,38.12,3.7Zm-.3,4.145a2.517,2.517,0,0,1-2.2-2.2A2.517,2.517,0,0,1,37.823,7.846Zm0,2.234a2.517,2.517,0,0,1-2.2-2.2A2.517,2.517,0,0,1,37.823,10.079Zm0,2.234a2.517,2.517,0,0,1-2.2-2.2A2.517,2.517,0,0,1,37.823,12.313Zm-2.2.035a2.517,2.517,0,0,1,2.2,2.2A2.517,2.517,0,0,1,35.625,12.348Zm2.792,2.2a2.517,2.517,0,0,1,2.2-2.2A2.518,2.518,0,0,1,38.417,14.547Zm0-2.234a2.517,2.517,0,0,1,2.2-2.2A2.518,2.518,0,0,1,38.417,12.313Zm0-2.234a2.517,2.517,0,0,1,2.2-2.2A2.518,2.518,0,0,1,38.417,10.079Z" transform="translate(-13.308 2.522)"/></g></g></g><g transform="translate(595.999 2542)"><g transform="translate(7.484 45.976)"><path class="b" d="M79.867,473.274,78.4,471.2a.977.977,0,1,0-1.593,1.131l1.47,2.071a.977.977,0,0,0,1.593-1.131Z" transform="translate(-76.624 -470.791)"/></g><g transform="translate(0.001 15.278)"><path class="b" d="M21.994,190l-1.6-7.626a14.382,14.382,0,0,0-6.082-9.029l-3.416-2.3a3.436,3.436,0,0,0-4.356.445V159.721a3.269,3.269,0,0,0-5.315-2.55A3.254,3.254,0,0,0,0,159.721v15.142a9.459,9.459,0,0,0,1.755,5.5L3.5,182.821A.977.977,0,1,0,5.09,181.69l-1.741-2.453a7.516,7.516,0,0,1-1.395-4.374V159.721a1.316,1.316,0,1,1,2.632,0v12.013a6.823,6.823,0,0,0,1.76,4.581c.049.058.1.116.151.172.649.687,1.411,1.5,2.129,2.26l1.005,1.07.01.01,1.508,1.6a.977.977,0,1,0,1.424-1.337c-.018-.019-1.161-1.236-2.466-2.624l-2.239-2.383-.017-.018a1.648,1.648,0,0,1,.032-2.16,1.476,1.476,0,0,1,1.922-.245l3.416,2.3a12.438,12.438,0,0,1,5.261,7.809l1.6,7.626a.977.977,0,1,0,1.911-.4Z" transform="translate(-0.001 -156.451)"/></g><g transform="translate(5.458 43.122)"><path class="b" d="M57.662,441.994l-.006-.009a.977.977,0,0,0-1.59,1.134l.006.009a.977.977,0,0,0,1.59-1.134Z" transform="translate(-55.884 -441.575)"/></g><g transform="translate(27.987 15.279)"><path class="b" d="M307.37,157.174a3.269,3.269,0,0,0-5.315,2.55v11.767a3.436,3.436,0,0,0-4.356-.445l-3.416,2.3a14.381,14.381,0,0,0-6.082,9.029L286.6,190a.977.977,0,1,0,1.911.4l1.6-7.626a12.438,12.438,0,0,1,5.261-7.809l3.416-2.3a1.476,1.476,0,0,1,1.922.245,1.648,1.648,0,0,1,.034,2.157l-.018.021-4.706,5.007a.977.977,0,1,0,1.424,1.337c.013-.014,4-4.257,4.652-4.944.053-.056.1-.114.151-.172a6.824,6.824,0,0,0,1.76-4.581V159.724a1.316,1.316,0,1,1,2.632,0v15.142a7.517,7.517,0,0,1-1.395,4.374l-7.378,10.393a.977.977,0,1,0,1.593,1.131l7.378-10.393a9.459,9.459,0,0,0,1.755-5.5V159.724A3.255,3.255,0,0,0,307.37,157.174Z" transform="translate(-286.58 -156.454)"/></g><g transform="translate(9.121 5.273)"><path class="b" d="M121.639,67.443l-1.737-.415v-.312a4.368,4.368,0,0,0,1.87-3.581V60.877a4.367,4.367,0,0,0-7.206-3.322A5.7,5.7,0,0,0,104,57.563a4.367,4.367,0,0,0-7.216,3.314v2.259a4.368,4.368,0,0,0,1.87,3.581v.312l-1.737.415a4.575,4.575,0,0,0-3.523,4.464v1.824a.977.977,0,0,0,.977.977h4.487c-.007.118-.012.238-.012.358v3.512a.977.977,0,0,0,.977.977h5.87a.977.977,0,0,0,0-1.953H104.68V75.582a.977.977,0,0,0-1.953,0V77.6H100.8V75.065a4.043,4.043,0,0,1,3.111-3.944l2.68-.642,1.793,4.08a.977.977,0,0,0,.894.584h0a.976.976,0,0,0,.894-.583l1.792-4.074,2.671.638a4.043,4.043,0,0,1,3.114,3.945V77.6h-1.931V75.582a.977.977,0,0,0-1.953,0V77.6h-1.107a.977.977,0,1,0,0,1.953h5.968a.977.977,0,0,0,.977-.977V75.068c0-.121,0-.241-.012-.36h4.5a.977.977,0,0,0,.977-.977V71.907A4.575,4.575,0,0,0,121.639,67.443ZM117.4,58.459a2.421,2.421,0,0,1,2.412,2.258h-1.358a7.118,7.118,0,0,1-3.274-.8A2.421,2.421,0,0,1,117.4,58.459Zm-2.418,4.534c0-.048,0-.095,0-.143v-.87a9.072,9.072,0,0,0,3.469.69h1.363v.465a2.418,2.418,0,1,1-4.835,0ZM105.531,59.7h0a3.751,3.751,0,0,1,7.455-.6l-1.644-.966a.976.976,0,0,0-1.243.215,4.207,4.207,0,0,1-3.233,1.509h-1.335V59.7Zm-4.379-1.245a2.421,2.421,0,0,1,2.22,1.46,7.118,7.118,0,0,1-3.274.8H98.74A2.421,2.421,0,0,1,101.152,58.459ZM98.734,62.67H100.1a9.072,9.072,0,0,0,3.472-.692v1.157a2.418,2.418,0,0,1-4.835,0Zm4.717,6.551a5.989,5.989,0,0,0-4.15,3.533H95.343v-.847a2.628,2.628,0,0,1,2.024-2.564l2.487-.594a.977.977,0,0,0,.75-.95v-.328a4.239,4.239,0,0,0,1.092,0v.279c0,.015,0,.029,0,.044a.978.978,0,0,0,.794.961l1.457.349Zm2.724-1.516a4.581,4.581,0,0,0-.782-.264l-1.745-.418v-.3a4.407,4.407,0,0,0,.846-.773,5.749,5.749,0,0,0,1.68,1.684Zm4.241,1.435-1.143,2.6-1.145-2.606v-.7a5.723,5.723,0,0,0,2.288,0ZM109.282,66.6a3.755,3.755,0,0,1-3.751-3.751V61.819h1.335a6.153,6.153,0,0,0,4.15-1.6l2.014,1.183v1.594A3.755,3.755,0,0,1,109.282,66.6Zm3.088,1.108v-.066a5.747,5.747,0,0,0,1.694-1.688,4.406,4.406,0,0,0,.839.765v.3l-1.745.418A4.6,4.6,0,0,0,112.37,67.709Zm10.839,5.046h-3.972a5.988,5.988,0,0,0-4.153-3.531l-.49-.117,1.465-.351a.978.978,0,0,0,.8-.962c0-.008,0-.015,0-.023v-.3a4.239,4.239,0,0,0,1.092,0V67.8a.977.977,0,0,0,.75.95l2.487.594a2.628,2.628,0,0,1,2.024,2.564Z" transform="translate(-93.39 -54)"/></g><g transform="translate(24.024 28.874)"><path class="b" d="M247.667,295.955a.977.977,0,1,0,.286.691A.984.984,0,0,0,247.667,295.955Z" transform="translate(-246 -295.67)"/></g><g transform="translate(24.024)"><path class="b" d="M246.97,0a.977.977,0,0,0-.977.977V2.438a.977.977,0,1,0,1.953,0V.977A.977.977,0,0,0,246.97,0Z" transform="translate(-245.993)"/></g><g transform="translate(18.712 1.876)"><path class="b" d="M194.291,20.522,193.266,19.5a.977.977,0,1,0-1.38,1.382L192.91,21.9a.976.976,0,1,0,1.38-1.382Z" transform="translate(-191.599 -19.213)"/></g><g transform="translate(28.296 1.901)"><path class="b" d="M292.429,19.755a.976.976,0,0,0-1.381,0l-1.017,1.017a.977.977,0,1,0,1.382,1.38l1.017-1.017A.977.977,0,0,0,292.429,19.755Z" transform="translate(-289.746 -19.469)"/></g></g><g transform="translate(566.898 2377.679)"><path class="b" d="M37.236,22.321A16.718,16.718,0,0,1,51.187,5.883V8.37l5.58-4.185L51.187,0V3.016a19.491,19.491,0,0,0-7.341,35.971l2.426-1.819a16.747,16.747,0,0,1-9.036-14.847Z"/><path class="b" d="M263.441,86.482a19.519,19.519,0,0,0-9.4-16.666l-2.426,1.819a16.7,16.7,0,0,1-4.915,31.3v-2.507l-5.58,4.185,5.58,4.185v-3.018A19.541,19.541,0,0,0,263.441,86.482Z" transform="translate(-189.933 -64.161)"/></g></g></svg>