<svg xmlns="http://www.w3.org/2000/svg" width="559.204" height="129.478" viewBox="0 0 559.204 129.478"><defs><style>.a{fill:rgba(18,128,92,0.19);}</style></defs><g transform="translate(-493.796 -1937.522)"><g transform="translate(493.795 1937.522)"><path class="a" d="M394.654,338.23a12.534,12.534,0,1,0,12.534,12.534A12.534,12.534,0,0,0,394.654,338.23Zm0,20.948a8.413,8.413,0,1,1,8.413-8.413,8.413,8.413,0,0,1-8.413,8.413Z" transform="translate(-259.009 -245.263)"/><path class="a" d="M87.12,275.22a21.494,21.494,0,1,0,21.5,21.495,21.493,21.493,0,0,0-21.5-21.495Zm0,38.867A17.373,17.373,0,1,1,104.5,296.713,17.372,17.372,0,0,1,87.12,314.087Z" transform="translate(-51.203 -203.891)"/><path class="a" d="M109.136,308.76a9.976,9.976,0,1,0,9.976,9.976A9.976,9.976,0,0,0,109.136,308.76Zm0,15.831a5.855,5.855,0,1,1,5.855-5.855A5.855,5.855,0,0,1,109.136,324.591Z" transform="translate(-73.219 -225.913)"/><path class="a" d="M181.876,165.023l-.822-2.032a4.7,4.7,0,0,0-2.7-2.633,4.7,4.7,0,0,0-1.376-3.512L175.43,155.3a4.648,4.648,0,0,0-.375-.336h.061a2.06,2.06,0,0,0,2.026-1.681l5.57-29.7a2.06,2.06,0,0,0-.147-1.227l-2.651-5.879a2.069,2.069,0,0,0-.281-.454,5.185,5.185,0,0,0-3.864-1.909l-19.643-.624V86.253a2.06,2.06,0,0,0-2.06-2.06h-2.342V75.982a3.076,3.076,0,0,1,1.723-2.777l1.4-.7a2.06,2.06,0,1,0-1.832-3.691l-1.4.7a7.17,7.17,0,0,0-4.016,6.469v8.211h-2.342a2.06,2.06,0,0,0-2.06,2.06v26.82a32.086,32.086,0,0,1-10.955-2.137,75.968,75.968,0,0,1-8.581-4.338c-.781-.434-1.6-.887-2.462-1.36a2.06,2.06,0,0,0-2.445.348l-6.087,6.07-5.327-5.636,4.066-3.819a2.061,2.061,0,0,0-2.821-3l-10.632,9.987a2.06,2.06,0,1,0,2.822,3l3.561-3.345,5.411,5.725-7.467,7.445a2.06,2.06,0,0,0-.2,2.682l8.319,11.281h-9.3v-2.567a2.06,2.06,0,0,0-.99-1.761L96.2,129.267V122.6a7.589,7.589,0,0,0-7.582-7.582H84.681a2.353,2.353,0,0,1-2.221-1.584l-4.231-12.281c-.022-.063-.047-.126-.075-.187a5.517,5.517,0,0,0-10.437,3.326l2.31,11.761a43.167,43.167,0,0,0-9.4-1.035H45.907V73.451a5.941,5.941,0,1,0-11.882,0v41.562H25.68a2.06,2.06,0,0,0-2.06,2.06v8.874a2.06,2.06,0,0,0,2.06,2.06H27A10.96,10.96,0,0,1,37.05,134.6a6.151,6.151,0,0,0-.961.82l-2.565,2.692a6.166,6.166,0,0,0-1.694,4.576,6.168,6.168,0,0,0-3.432,3.472l-1.352,3.46a6.172,6.172,0,0,0,.24,5.032,6.165,6.165,0,0,0-1.945,4.642l.089,3.72a6.169,6.169,0,0,0,2.038,4.43,6.16,6.16,0,0,0,.03,4.882l1.491,3.407a6.176,6.176,0,0,0,3.726,3.384,6.176,6.176,0,0,0,1.908,4.658l2.69,2.563a6.169,6.169,0,0,0,4.58,1.7,6.163,6.163,0,0,0,3.468,3.428l3.468,1.357a6.178,6.178,0,0,0,5.027-.244,6.178,6.178,0,0,0,4.5,1.949c.048,0,.1,0,.145,0l3.72-.089a6.166,6.166,0,0,0,4.433-2.039,6.175,6.175,0,0,0,4.88-.029l3.41-1.492a6.187,6.187,0,0,0,3.38-3.727,6.12,6.12,0,0,0,4.657-1.907l2.573-2.693a6.177,6.177,0,0,0,1.692-4.578,6.172,6.172,0,0,0,.944-.488h34.53a2.06,2.06,0,0,0,1.659-.839l8.18-11.115h3.949a4.686,4.686,0,0,0,.242,2.763l.069.164a4.707,4.707,0,0,0-1.511,3.457v2.191a4.7,4.7,0,0,0,1.36,3.307,4.682,4.682,0,0,0-.017,3.585l.824,2.026a4.688,4.688,0,0,0,2.534,2.571c.055.023.11.045.166.067q0,.088,0,.175a4.684,4.684,0,0,0,1.377,3.335l1.549,1.553a4.711,4.711,0,0,0,3.3,1.376,4.709,4.709,0,0,0,2.521,2.545l2.014.851a4.689,4.689,0,0,0,3.611.025l.163-.069a4.708,4.708,0,0,0,3.459,1.511h2.187a4.7,4.7,0,0,0,3.312-1.363,4.7,4.7,0,0,0,3.58.017l2.031-.821a4.685,4.685,0,0,0,2.572-2.537q.034-.081.066-.163a4.707,4.707,0,0,0,3.512-1.376l1.551-1.551a4.71,4.71,0,0,0,1.374-3.3,4.709,4.709,0,0,0,2.546-2.521l.851-2.014a4.685,4.685,0,0,0,.025-3.611c-.022-.054-.045-.107-.069-.16a4.706,4.706,0,0,0,1.511-3.458v-2.191a4.7,4.7,0,0,0-1.363-3.312,4.7,4.7,0,0,0,.018-3.579Zm-7.113-21.415H159.311l-.256-.5V140.24h16.339Zm-.773,4.121-.584,3.111h-5.06l-.758-.321a4.686,4.686,0,0,0-3.611-.024c-.054.022-.106.044-.158.069a4.708,4.708,0,0,0-1.49-1.08l-.9-1.753Zm2.177-11.611H159.055V132.75H176.8Zm1.4-7.49H159.055v-3.286a.081.081,0,0,1,.086-.082H178.2ZM147.321,88.313h4.684v25.042l-4.684-.149ZM73.139,101.861a1.4,1.4,0,0,1,1.234.746l4.191,12.166a6.476,6.476,0,0,0,6.116,4.361h3.935a3.466,3.466,0,0,1,3.462,3.462v4.162l-8.943-5.439a43.283,43.283,0,0,0-8.664-4.031L71.763,103.5a1.343,1.343,0,0,1-.022-.253,1.4,1.4,0,0,1,1.4-1.389ZM38.146,73.451a1.82,1.82,0,0,1,3.111-1.283,1.8,1.8,0,0,1,.53,1.283v41.562h-3.64ZM89.37,162.475a2.091,2.091,0,0,1-1.245,1.016,2.06,2.06,0,0,0-.644,3.638,2.069,2.069,0,0,1,.711,2.41L86.834,173a1.992,1.992,0,0,1-.6.827l1.3,1.593v0l-1.317-1.588a2.089,2.089,0,0,1-1.408.469,2.037,2.037,0,0,0-1.834.952,2.06,2.06,0,0,0-.085,2.065,2.065,2.065,0,0,1-.322,2.384L80,182.4a2.06,2.06,0,0,1-2.48.378,2.06,2.06,0,0,0-3.025,2.119,2.071,2.071,0,0,1-1.2,2.207l-3.406,1.49a2.065,2.065,0,0,1-2.355-.51,2.06,2.06,0,0,0-3.493.777,2.06,2.06,0,0,1-1.914,1.457l-3.718.089a2.047,2.047,0,0,1-2.023-1.49,2.06,2.06,0,0,0-3.637-.642,2.068,2.068,0,0,1-2.41.71l-3.466-1.359a2.058,2.058,0,0,1-1.3-2.021,2.06,2.06,0,0,0-3.015-1.923,2.063,2.063,0,0,1-2.388-.327l-2.693-2.565a2.064,2.064,0,0,1-.378-2.482,2.06,2.06,0,0,0-2.119-3.025,2.065,2.065,0,0,1-2.2-1.2l-1.491-3.409a2.06,2.06,0,0,1,.51-2.353,2.06,2.06,0,0,0-.774-3.49,2.066,2.066,0,0,1-1.459-1.915l-.089-3.721a2.068,2.068,0,0,1,1.493-2.024,2.06,2.06,0,0,0,.634-3.64,2.057,2.057,0,0,1-.705-2.408l1.353-3.461a2.055,2.055,0,0,1,2.024-1.3,2.06,2.06,0,0,0,1.923-3.015,2.067,2.067,0,0,1,.323-2.388l2.565-2.692a2.041,2.041,0,0,1,1-.575,2.082,2.082,0,0,1,1.484.195,2.06,2.06,0,0,0,3.025-2.123,2.057,2.057,0,0,1,1.205-2.2l3.406-1.493a2.064,2.064,0,0,1,2.351.513,2.06,2.06,0,0,0,3.49-.774,2.064,2.064,0,0,1,1.918-1.459l3.719-.089a2.047,2.047,0,0,1,2.023,1.487,2.06,2.06,0,0,0,3.636.64,2.065,2.065,0,0,1,2.411-.706l3.462,1.353a2.069,2.069,0,0,1,1.3,2.029,2.06,2.06,0,0,0,3.018,1.918,2.063,2.063,0,0,1,2.386.324l2.69,2.564a2.063,2.063,0,0,1,.378,2.481,2.06,2.06,0,0,0,2.118,3.027,2.066,2.066,0,0,1,2.207,1.207l1.477,3.372.014.034.028.067.018.052a2.08,2.08,0,0,1-.557,2.232,2.06,2.06,0,0,0,.772,3.494,2.067,2.067,0,0,1,1.461,1.918l.089,3.714A2,2,0,0,1,89.37,162.475Zm-3.013-20.931a6.181,6.181,0,0,0-1.906-4.658l-2.692-2.565a6.179,6.179,0,0,0-4.579-1.694,6.172,6.172,0,0,0-3.472-3.431l-3.46-1.354a6.173,6.173,0,0,0-5.029.24,6.177,6.177,0,0,0-4.645-1.944l-3.714.089a6.162,6.162,0,0,0-4.439,2.037,6.165,6.165,0,0,0-4.879.028l-3.4,1.493a6.159,6.159,0,0,0-3.237,3.339A15.083,15.083,0,0,0,27.742,123.9v-4.77h32.89a39.258,39.258,0,0,1,20.361,5.706l12.074,7.342,1.069-1.759h0l-1.071,1.763,3.915,2.378v12.78H91.141l-1.056-2.411A6.175,6.175,0,0,0,86.357,141.545Zm35.321,31.82H91.119l.911-2.326a6.181,6.181,0,0,0-.247-5.029,6.2,6.2,0,0,0,.452-.478h2.713a2.06,2.06,0,1,0,0-4.121H93.732v-.043l-.089-3.718a6.17,6.17,0,0,0-2.036-4.43,6.139,6.139,0,0,0,.45-1.754h6.985a2.06,2.06,0,0,0,2.06-2.06v-9.314H113.44l2.05,2.779-7.626,18.539h-6.5a2.06,2.06,0,1,0,0,4.121h26.083Zm16.738-11.954h-26.1l6.887-16.741,22.3.416h.039a2.061,2.061,0,0,0,.038-4.121l-22.7-.423-12.44-16.867,14.121-14.08,1.094.606a78.833,78.833,0,0,0,9.062,4.567,36.535,36.535,0,0,0,12.925,2.448l31.987,1.016a1.071,1.071,0,0,1,.657.25l1.2,2.66H159.141a4.21,4.21,0,0,0-4.207,4.2V141.47l-6.671-.257a2.06,2.06,0,1,0-.158,4.118l7.607.293,1.791,3.486a4.708,4.708,0,0,0-2.644,1.308,4.7,4.7,0,0,0-3.584-.018l-2.03.824a4.7,4.7,0,0,0-2.634,2.7A4.724,4.724,0,0,0,143.1,155.3l-1.541,1.545a4.7,4.7,0,0,0-1.383,3.3A4.724,4.724,0,0,0,138.416,161.411Zm40.684,12.7a.606.606,0,0,1-.6.6h-.731a2.06,2.06,0,0,0-.8,3.961l.665.278a.607.607,0,0,1,.317.786l-.852,2.015a.609.609,0,0,1-.786.321,2.06,2.06,0,0,0-2.255,3.355.606.606,0,0,1,0,.842l-1.549,1.549a.607.607,0,0,1-.846,0l-.515-.515a2.06,2.06,0,0,0-3.365,2.236l.273.668a.608.608,0,0,1-.329.781l-2.033.822a.6.6,0,0,1-.775-.324,2.06,2.06,0,0,0-3.968.768.611.611,0,0,1-.6.6h-2.187a.606.606,0,0,1-.6-.6v-.731a2.06,2.06,0,0,0-3.958-.8l-.285.673a.606.606,0,0,1-.786.317l-2.014-.851a.607.607,0,0,1-.319-.782,2.06,2.06,0,0,0-3.354-2.258.608.608,0,0,1-.844,0l-1.545-1.55a.607.607,0,0,1,0-.846l.515-.515a2.06,2.06,0,0,0-2.232-3.365l-.675.275a.6.6,0,0,1-.779-.332l-.824-2.029a.6.6,0,0,1,.325-.774,2.06,2.06,0,0,0-.765-3.97.609.609,0,0,1-.6-.6v-2.191a.606.606,0,0,1,.6-.6h.728a2.06,2.06,0,0,0,.806-3.956l-.674-.287a.606.606,0,0,1-.319-.783l.855-2.016v0a.6.6,0,0,1,.778-.317,2.06,2.06,0,0,0,2.261-3.351.605.605,0,0,1,0-.846l1.542-1.545a.611.611,0,0,1,.853,0l.519.515a2.06,2.06,0,0,0,3.361-2.237l-.275-.675a.606.606,0,0,1,.329-.779l2.03-.824a.607.607,0,0,1,.779.33,2.06,2.06,0,0,0,3.968-.777.605.605,0,0,1,.6-.6h2.187a.521.521,0,0,1,.11.01.609.609,0,0,1,.491.588v.728a2.06,2.06,0,0,0,3.959.8l.281-.667a.606.606,0,0,1,.782-.32l.561.238a2.047,2.047,0,0,0,.9.381l.562.239a.6.6,0,0,1,.317.779,2.06,2.06,0,0,0,3.352,2.259.606.606,0,0,1,.845,0l1.548,1.548a.605.605,0,0,1,0,.848l-.515.519a2.06,2.06,0,0,0,2.241,3.36l.668-.273a.607.607,0,0,1,.781.326l.822,2.032a.608.608,0,0,1-.328.78,2.06,2.06,0,0,0,.776,3.967.605.605,0,0,1,.6.6Z" transform="translate(-23.62 -67.51)"/></g><g transform="translate(703 2007)"><path class="a" d="M2,60H58a2,2,0,0,0,2-2V43.053a1.993,1.993,0,0,0-2.19-1.991c-3.793.409-4.427,2.674-7.81,2.913V35.92A7,7,0,0,0,56,29V26.6a5.706,5.706,0,0,1,1.566-3.935A1.586,1.586,0,0,0,56.408,20H55V14.5C55,10.364,52.309,7,49,7s-6,3.364-6,7.5V20H41.592a1.586,1.586,0,0,0-1.16,2.67C42.262,24.606,42,26.536,42,29a7,7,0,0,0,6,6.92V43.9c-3.144-.5-3.719-2.9-8.34-2.9-4.812,0-5.172,2.549-8.669,2.941L31,28.92A7,7,0,0,0,37,22V19.6a5.706,5.706,0,0,1,1.566-3.935A1.586,1.586,0,0,0,37.408,13H36V7.5C36,3.364,33.309,0,30,0s-6,3.364-6,7.5V13H22.592a1.586,1.586,0,0,0-1.16,2.67C23.262,17.606,23,19.536,23,22a7,7,0,0,0,6,6.92l-.008,15.021C25.529,43.551,25.086,41,20.33,41c-4.67,0-5.178,2.4-8.33,2.9V35.92A7,7,0,0,0,18,29V26.6a5.706,5.706,0,0,1,1.566-3.935A1.586,1.586,0,0,0,18.408,20H17V14.5C17,10.364,14.309,7,11,7s-6,3.364-6,7.5V20H3.592a1.586,1.586,0,0,0-1.16,2.67C4.262,24.606,4,26.536,4,29a7,7,0,0,0,6,6.92v8.055c-3.414-.237-3.978-2.5-7.809-2.913A1.994,1.994,0,0,0,0,43.053V58a2,2,0,0,0,2,2ZM54,29a5.008,5.008,0,0,1-4,4.9V26a4,4,0,0,1,4-4h1.523C53.777,24.349,54,26.378,54,29ZM49,9c2.206,0,4,2.467,4,5.5v5.59a6.008,6.008,0,0,0-4,2.6,6.008,6.008,0,0,0-4-2.6V14.5C45,11.467,46.794,9,49,9ZM44,29c0-2.651.23-4.64-1.523-7H44a4,4,0,0,1,4,4v7.9A5.008,5.008,0,0,1,44,29Zm-9-7a5.008,5.008,0,0,1-4,4.9V19a4,4,0,0,1,4-4h1.523C34.777,17.349,35,19.378,35,22ZM30,2c2.206,0,4,2.467,4,5.5v5.59a6.008,6.008,0,0,0-4,2.6,6.008,6.008,0,0,0-4-2.6V7.5C26,4.467,27.794,2,30,2ZM25,22c0-2.651.23-4.64-1.523-7H25a4,4,0,0,1,4,4v7.9A5.008,5.008,0,0,1,25,22Zm-9,7a5.008,5.008,0,0,1-4,4.9V26a4,4,0,0,1,4-4h1.523C15.777,24.349,16,26.378,16,29ZM11,9c2.206,0,4,2.467,4,5.5v5.59a6.008,6.008,0,0,0-4,2.6,6.008,6.008,0,0,0-4-2.6V14.5C7,11.467,8.794,9,11,9ZM6,29c0-2.651.23-4.64-1.523-7H6a4,4,0,0,1,4,4v7.9A5.008,5.008,0,0,1,6,29Zm5,17a.838.838,0,0,0,.087-.018,9.025,9.025,0,0,0,4.93-1.631A7.033,7.033,0,0,1,20.33,43c4.332,0,4.583,3,9.66,3s5.33-3,9.67-3c4.244,0,4.5,2.812,9.256,2.983A.781.781,0,0,0,49,46c5.407,0,5.382-2.543,9-2.956a.012.012,0,0,1,0,.009V58H2L1.975,43.05C5.592,43.443,5.6,46,11,46Z"/><path class="a" d="M10,14h1a1,1,0,0,0,0-2H10a1,1,0,0,0,0,2Z"/><path class="a" d="M11,16a1,1,0,0,0,0,2h1a1,1,0,0,0,0-2Z"/><path class="a" d="M48,14h1a1,1,0,0,0,0-2H48a1,1,0,0,0,0,2Z"/><path class="a" d="M49,16a1,1,0,0,0,0,2h1a1,1,0,0,0,0-2Z"/><path class="a" d="M30,7h1a1,1,0,0,0,0-2H30a1,1,0,0,0,0,2Z"/><path class="a" d="M29,11h1a1,1,0,0,0,0-2H29a1,1,0,0,0,0,2Z"/><path class="a" d="M18.27,48.255A7.547,7.547,0,0,1,20.33,48a8.188,8.188,0,0,1,1.49.125,1,1,0,0,0,.36-1.968A10.151,10.151,0,0,0,20.33,46a9.507,9.507,0,0,0-2.6.329,1,1,0,0,0,.54,1.926Z"/><path class="a" d="M32.27,51.255A7.547,7.547,0,0,1,34.33,51a8.188,8.188,0,0,1,1.49.125,1,1,0,0,0,.36-1.968A10.151,10.151,0,0,0,34.33,49a9.507,9.507,0,0,0-2.6.329,1,1,0,0,0,.54,1.926Z"/><path class="a" d="M43.27,50.255A7.552,7.552,0,0,1,45.33,50a8.188,8.188,0,0,1,1.49.125,1,1,0,0,0,.36-1.968A10.151,10.151,0,0,0,45.33,48a9.517,9.517,0,0,0-2.6.329,1,1,0,0,0,.54,1.926Z"/><path class="a" d="M7.27,51.255A7.547,7.547,0,0,1,9.33,51a8.188,8.188,0,0,1,1.49.125,1,1,0,0,0,.36-1.968A10.151,10.151,0,0,0,9.33,49a9.507,9.507,0,0,0-2.6.329,1,1,0,0,0,.54,1.926Z"/><path class="a" d="M40.27,55.255A7.547,7.547,0,0,1,42.33,55a8.188,8.188,0,0,1,1.49.125,1,1,0,0,0,.36-1.968A10.151,10.151,0,0,0,42.33,53a9.507,9.507,0,0,0-2.6.329,1,1,0,1,0,.54,1.926Z"/><path class="a" d="M50.27,53.963a7.591,7.591,0,0,1,2.06-.255,8.211,8.211,0,0,1,1.49.125,1,1,0,0,0,.36-1.968,10.182,10.182,0,0,0-1.85-.157,9.517,9.517,0,0,0-2.6.329,1,1,0,0,0,.54,1.926Z"/><path class="a" d="M22.037,53.562a1,1,0,0,0,1.233.693A7.547,7.547,0,0,1,25.33,54a8.188,8.188,0,0,1,1.49.125,1,1,0,0,0,.36-1.968A10.151,10.151,0,0,0,25.33,52a9.507,9.507,0,0,0-2.6.329,1,1,0,0,0-.693,1.233Z"/><path class="a" d="M11.037,54.562a1,1,0,0,0,1.233.693A7.547,7.547,0,0,1,14.33,55a8.188,8.188,0,0,1,1.49.125,1,1,0,0,0,.36-1.968A10.151,10.151,0,0,0,14.33,53a9.507,9.507,0,0,0-2.6.329,1,1,0,0,0-.693,1.233Z"/></g><g transform="translate(935 2007)"><path class="a" d="M2,60H58a2,2,0,0,0,2-2V43.053a1.993,1.993,0,0,0-2.19-1.991c-3.793.409-4.427,2.674-7.81,2.913V35.92A7,7,0,0,0,56,29V26.6a5.706,5.706,0,0,1,1.566-3.935A1.586,1.586,0,0,0,56.408,20H55V14.5C55,10.364,52.309,7,49,7s-6,3.364-6,7.5V20H41.592a1.586,1.586,0,0,0-1.16,2.67C42.262,24.606,42,26.536,42,29a7,7,0,0,0,6,6.92V43.9c-3.144-.5-3.719-2.9-8.34-2.9-4.812,0-5.172,2.549-8.669,2.941L31,28.92A7,7,0,0,0,37,22V19.6a5.706,5.706,0,0,1,1.566-3.935A1.586,1.586,0,0,0,37.408,13H36V7.5C36,3.364,33.309,0,30,0s-6,3.364-6,7.5V13H22.592a1.586,1.586,0,0,0-1.16,2.67C23.262,17.606,23,19.536,23,22a7,7,0,0,0,6,6.92l-.008,15.021C25.529,43.551,25.086,41,20.33,41c-4.67,0-5.178,2.4-8.33,2.9V35.92A7,7,0,0,0,18,29V26.6a5.706,5.706,0,0,1,1.566-3.935A1.586,1.586,0,0,0,18.408,20H17V14.5C17,10.364,14.309,7,11,7s-6,3.364-6,7.5V20H3.592a1.586,1.586,0,0,0-1.16,2.67C4.262,24.606,4,26.536,4,29a7,7,0,0,0,6,6.92v8.055c-3.414-.237-3.978-2.5-7.809-2.913A1.994,1.994,0,0,0,0,43.053V58a2,2,0,0,0,2,2ZM54,29a5.008,5.008,0,0,1-4,4.9V26a4,4,0,0,1,4-4h1.523C53.777,24.349,54,26.378,54,29ZM49,9c2.206,0,4,2.467,4,5.5v5.59a6.008,6.008,0,0,0-4,2.6,6.008,6.008,0,0,0-4-2.6V14.5C45,11.467,46.794,9,49,9ZM44,29c0-2.651.23-4.64-1.523-7H44a4,4,0,0,1,4,4v7.9A5.008,5.008,0,0,1,44,29Zm-9-7a5.008,5.008,0,0,1-4,4.9V19a4,4,0,0,1,4-4h1.523C34.777,17.349,35,19.378,35,22ZM30,2c2.206,0,4,2.467,4,5.5v5.59a6.008,6.008,0,0,0-4,2.6,6.008,6.008,0,0,0-4-2.6V7.5C26,4.467,27.794,2,30,2ZM25,22c0-2.651.23-4.64-1.523-7H25a4,4,0,0,1,4,4v7.9A5.008,5.008,0,0,1,25,22Zm-9,7a5.008,5.008,0,0,1-4,4.9V26a4,4,0,0,1,4-4h1.523C15.777,24.349,16,26.378,16,29ZM11,9c2.206,0,4,2.467,4,5.5v5.59a6.008,6.008,0,0,0-4,2.6,6.008,6.008,0,0,0-4-2.6V14.5C7,11.467,8.794,9,11,9ZM6,29c0-2.651.23-4.64-1.523-7H6a4,4,0,0,1,4,4v7.9A5.008,5.008,0,0,1,6,29Zm5,17a.838.838,0,0,0,.087-.018,9.025,9.025,0,0,0,4.93-1.631A7.033,7.033,0,0,1,20.33,43c4.332,0,4.583,3,9.66,3s5.33-3,9.67-3c4.244,0,4.5,2.812,9.256,2.983A.781.781,0,0,0,49,46c5.407,0,5.382-2.543,9-2.956a.012.012,0,0,1,0,.009V58H2L1.975,43.05C5.592,43.443,5.6,46,11,46Z"/><path class="a" d="M10,14h1a1,1,0,0,0,0-2H10a1,1,0,0,0,0,2Z"/><path class="a" d="M11,16a1,1,0,0,0,0,2h1a1,1,0,0,0,0-2Z"/><path class="a" d="M48,14h1a1,1,0,0,0,0-2H48a1,1,0,0,0,0,2Z"/><path class="a" d="M49,16a1,1,0,0,0,0,2h1a1,1,0,0,0,0-2Z"/><path class="a" d="M30,7h1a1,1,0,0,0,0-2H30a1,1,0,0,0,0,2Z"/><path class="a" d="M29,11h1a1,1,0,0,0,0-2H29a1,1,0,0,0,0,2Z"/><path class="a" d="M18.27,48.255A7.547,7.547,0,0,1,20.33,48a8.188,8.188,0,0,1,1.49.125,1,1,0,0,0,.36-1.968A10.151,10.151,0,0,0,20.33,46a9.507,9.507,0,0,0-2.6.329,1,1,0,0,0,.54,1.926Z"/><path class="a" d="M32.27,51.255A7.547,7.547,0,0,1,34.33,51a8.188,8.188,0,0,1,1.49.125,1,1,0,0,0,.36-1.968A10.151,10.151,0,0,0,34.33,49a9.507,9.507,0,0,0-2.6.329,1,1,0,0,0,.54,1.926Z"/><path class="a" d="M43.27,50.255A7.552,7.552,0,0,1,45.33,50a8.188,8.188,0,0,1,1.49.125,1,1,0,0,0,.36-1.968A10.151,10.151,0,0,0,45.33,48a9.517,9.517,0,0,0-2.6.329,1,1,0,0,0,.54,1.926Z"/><path class="a" d="M7.27,51.255A7.547,7.547,0,0,1,9.33,51a8.188,8.188,0,0,1,1.49.125,1,1,0,0,0,.36-1.968A10.151,10.151,0,0,0,9.33,49a9.507,9.507,0,0,0-2.6.329,1,1,0,0,0,.54,1.926Z"/><path class="a" d="M40.27,55.255A7.547,7.547,0,0,1,42.33,55a8.188,8.188,0,0,1,1.49.125,1,1,0,0,0,.36-1.968A10.151,10.151,0,0,0,42.33,53a9.507,9.507,0,0,0-2.6.329,1,1,0,1,0,.54,1.926Z"/><path class="a" d="M50.27,53.963a7.591,7.591,0,0,1,2.06-.255,8.211,8.211,0,0,1,1.49.125,1,1,0,0,0,.36-1.968,10.182,10.182,0,0,0-1.85-.157,9.517,9.517,0,0,0-2.6.329,1,1,0,0,0,.54,1.926Z"/><path class="a" d="M22.037,53.562a1,1,0,0,0,1.233.693A7.547,7.547,0,0,1,25.33,54a8.188,8.188,0,0,1,1.49.125,1,1,0,0,0,.36-1.968A10.151,10.151,0,0,0,25.33,52a9.507,9.507,0,0,0-2.6.329,1,1,0,0,0-.693,1.233Z"/><path class="a" d="M11.037,54.562a1,1,0,0,0,1.233.693A7.547,7.547,0,0,1,14.33,55a8.188,8.188,0,0,1,1.49.125,1,1,0,0,0,.36-1.968A10.151,10.151,0,0,0,14.33,53a9.507,9.507,0,0,0-2.6.329,1,1,0,0,0-.693,1.233Z"/></g><g transform="translate(993 2007)"><path class="a" d="M2,60H58a2,2,0,0,0,2-2V43.053a1.993,1.993,0,0,0-2.19-1.991c-3.793.409-4.427,2.674-7.81,2.913V35.92A7,7,0,0,0,56,29V26.6a5.706,5.706,0,0,1,1.566-3.935A1.586,1.586,0,0,0,56.408,20H55V14.5C55,10.364,52.309,7,49,7s-6,3.364-6,7.5V20H41.592a1.586,1.586,0,0,0-1.16,2.67C42.262,24.606,42,26.536,42,29a7,7,0,0,0,6,6.92V43.9c-3.144-.5-3.719-2.9-8.34-2.9-4.812,0-5.172,2.549-8.669,2.941L31,28.92A7,7,0,0,0,37,22V19.6a5.706,5.706,0,0,1,1.566-3.935A1.586,1.586,0,0,0,37.408,13H36V7.5C36,3.364,33.309,0,30,0s-6,3.364-6,7.5V13H22.592a1.586,1.586,0,0,0-1.16,2.67C23.262,17.606,23,19.536,23,22a7,7,0,0,0,6,6.92l-.008,15.021C25.529,43.551,25.086,41,20.33,41c-4.67,0-5.178,2.4-8.33,2.9V35.92A7,7,0,0,0,18,29V26.6a5.706,5.706,0,0,1,1.566-3.935A1.586,1.586,0,0,0,18.408,20H17V14.5C17,10.364,14.309,7,11,7s-6,3.364-6,7.5V20H3.592a1.586,1.586,0,0,0-1.16,2.67C4.262,24.606,4,26.536,4,29a7,7,0,0,0,6,6.92v8.055c-3.414-.237-3.978-2.5-7.809-2.913A1.994,1.994,0,0,0,0,43.053V58a2,2,0,0,0,2,2ZM54,29a5.008,5.008,0,0,1-4,4.9V26a4,4,0,0,1,4-4h1.523C53.777,24.349,54,26.378,54,29ZM49,9c2.206,0,4,2.467,4,5.5v5.59a6.008,6.008,0,0,0-4,2.6,6.008,6.008,0,0,0-4-2.6V14.5C45,11.467,46.794,9,49,9ZM44,29c0-2.651.23-4.64-1.523-7H44a4,4,0,0,1,4,4v7.9A5.008,5.008,0,0,1,44,29Zm-9-7a5.008,5.008,0,0,1-4,4.9V19a4,4,0,0,1,4-4h1.523C34.777,17.349,35,19.378,35,22ZM30,2c2.206,0,4,2.467,4,5.5v5.59a6.008,6.008,0,0,0-4,2.6,6.008,6.008,0,0,0-4-2.6V7.5C26,4.467,27.794,2,30,2ZM25,22c0-2.651.23-4.64-1.523-7H25a4,4,0,0,1,4,4v7.9A5.008,5.008,0,0,1,25,22Zm-9,7a5.008,5.008,0,0,1-4,4.9V26a4,4,0,0,1,4-4h1.523C15.777,24.349,16,26.378,16,29ZM11,9c2.206,0,4,2.467,4,5.5v5.59a6.008,6.008,0,0,0-4,2.6,6.008,6.008,0,0,0-4-2.6V14.5C7,11.467,8.794,9,11,9ZM6,29c0-2.651.23-4.64-1.523-7H6a4,4,0,0,1,4,4v7.9A5.008,5.008,0,0,1,6,29Zm5,17a.838.838,0,0,0,.087-.018,9.025,9.025,0,0,0,4.93-1.631A7.033,7.033,0,0,1,20.33,43c4.332,0,4.583,3,9.66,3s5.33-3,9.67-3c4.244,0,4.5,2.812,9.256,2.983A.781.781,0,0,0,49,46c5.407,0,5.382-2.543,9-2.956a.012.012,0,0,1,0,.009V58H2L1.975,43.05C5.592,43.443,5.6,46,11,46Z"/><path class="a" d="M10,14h1a1,1,0,0,0,0-2H10a1,1,0,0,0,0,2Z"/><path class="a" d="M11,16a1,1,0,0,0,0,2h1a1,1,0,0,0,0-2Z"/><path class="a" d="M48,14h1a1,1,0,0,0,0-2H48a1,1,0,0,0,0,2Z"/><path class="a" d="M49,16a1,1,0,0,0,0,2h1a1,1,0,0,0,0-2Z"/><path class="a" d="M30,7h1a1,1,0,0,0,0-2H30a1,1,0,0,0,0,2Z"/><path class="a" d="M29,11h1a1,1,0,0,0,0-2H29a1,1,0,0,0,0,2Z"/><path class="a" d="M18.27,48.255A7.547,7.547,0,0,1,20.33,48a8.188,8.188,0,0,1,1.49.125,1,1,0,0,0,.36-1.968A10.151,10.151,0,0,0,20.33,46a9.507,9.507,0,0,0-2.6.329,1,1,0,0,0,.54,1.926Z"/><path class="a" d="M32.27,51.255A7.547,7.547,0,0,1,34.33,51a8.188,8.188,0,0,1,1.49.125,1,1,0,0,0,.36-1.968A10.151,10.151,0,0,0,34.33,49a9.507,9.507,0,0,0-2.6.329,1,1,0,0,0,.54,1.926Z"/><path class="a" d="M43.27,50.255A7.552,7.552,0,0,1,45.33,50a8.188,8.188,0,0,1,1.49.125,1,1,0,0,0,.36-1.968A10.151,10.151,0,0,0,45.33,48a9.517,9.517,0,0,0-2.6.329,1,1,0,0,0,.54,1.926Z"/><path class="a" d="M7.27,51.255A7.547,7.547,0,0,1,9.33,51a8.188,8.188,0,0,1,1.49.125,1,1,0,0,0,.36-1.968A10.151,10.151,0,0,0,9.33,49a9.507,9.507,0,0,0-2.6.329,1,1,0,0,0,.54,1.926Z"/><path class="a" d="M40.27,55.255A7.547,7.547,0,0,1,42.33,55a8.188,8.188,0,0,1,1.49.125,1,1,0,0,0,.36-1.968A10.151,10.151,0,0,0,42.33,53a9.507,9.507,0,0,0-2.6.329,1,1,0,1,0,.54,1.926Z"/><path class="a" d="M50.27,53.963a7.591,7.591,0,0,1,2.06-.255,8.211,8.211,0,0,1,1.49.125,1,1,0,0,0,.36-1.968,10.182,10.182,0,0,0-1.85-.157,9.517,9.517,0,0,0-2.6.329,1,1,0,0,0,.54,1.926Z"/><path class="a" d="M22.037,53.562a1,1,0,0,0,1.233.693A7.547,7.547,0,0,1,25.33,54a8.188,8.188,0,0,1,1.49.125,1,1,0,0,0,.36-1.968A10.151,10.151,0,0,0,25.33,52a9.507,9.507,0,0,0-2.6.329,1,1,0,0,0-.693,1.233Z"/><path class="a" d="M11.037,54.562a1,1,0,0,0,1.233.693A7.547,7.547,0,0,1,14.33,55a8.188,8.188,0,0,1,1.49.125,1,1,0,0,0,.36-1.968A10.151,10.151,0,0,0,14.33,53a9.507,9.507,0,0,0-2.6.329,1,1,0,0,0-.693,1.233Z"/></g><g transform="translate(819 2007)"><path class="a" d="M2,60H58a2,2,0,0,0,2-2V43.053a1.993,1.993,0,0,0-2.19-1.991c-3.793.409-4.427,2.674-7.81,2.913V35.92A7,7,0,0,0,56,29V26.6a5.706,5.706,0,0,1,1.566-3.935A1.586,1.586,0,0,0,56.408,20H55V14.5C55,10.364,52.309,7,49,7s-6,3.364-6,7.5V20H41.592a1.586,1.586,0,0,0-1.16,2.67C42.262,24.606,42,26.536,42,29a7,7,0,0,0,6,6.92V43.9c-3.144-.5-3.719-2.9-8.34-2.9-4.812,0-5.172,2.549-8.669,2.941L31,28.92A7,7,0,0,0,37,22V19.6a5.706,5.706,0,0,1,1.566-3.935A1.586,1.586,0,0,0,37.408,13H36V7.5C36,3.364,33.309,0,30,0s-6,3.364-6,7.5V13H22.592a1.586,1.586,0,0,0-1.16,2.67C23.262,17.606,23,19.536,23,22a7,7,0,0,0,6,6.92l-.008,15.021C25.529,43.551,25.086,41,20.33,41c-4.67,0-5.178,2.4-8.33,2.9V35.92A7,7,0,0,0,18,29V26.6a5.706,5.706,0,0,1,1.566-3.935A1.586,1.586,0,0,0,18.408,20H17V14.5C17,10.364,14.309,7,11,7s-6,3.364-6,7.5V20H3.592a1.586,1.586,0,0,0-1.16,2.67C4.262,24.606,4,26.536,4,29a7,7,0,0,0,6,6.92v8.055c-3.414-.237-3.978-2.5-7.809-2.913A1.994,1.994,0,0,0,0,43.053V58a2,2,0,0,0,2,2ZM54,29a5.008,5.008,0,0,1-4,4.9V26a4,4,0,0,1,4-4h1.523C53.777,24.349,54,26.378,54,29ZM49,9c2.206,0,4,2.467,4,5.5v5.59a6.008,6.008,0,0,0-4,2.6,6.008,6.008,0,0,0-4-2.6V14.5C45,11.467,46.794,9,49,9ZM44,29c0-2.651.23-4.64-1.523-7H44a4,4,0,0,1,4,4v7.9A5.008,5.008,0,0,1,44,29Zm-9-7a5.008,5.008,0,0,1-4,4.9V19a4,4,0,0,1,4-4h1.523C34.777,17.349,35,19.378,35,22ZM30,2c2.206,0,4,2.467,4,5.5v5.59a6.008,6.008,0,0,0-4,2.6,6.008,6.008,0,0,0-4-2.6V7.5C26,4.467,27.794,2,30,2ZM25,22c0-2.651.23-4.64-1.523-7H25a4,4,0,0,1,4,4v7.9A5.008,5.008,0,0,1,25,22Zm-9,7a5.008,5.008,0,0,1-4,4.9V26a4,4,0,0,1,4-4h1.523C15.777,24.349,16,26.378,16,29ZM11,9c2.206,0,4,2.467,4,5.5v5.59a6.008,6.008,0,0,0-4,2.6,6.008,6.008,0,0,0-4-2.6V14.5C7,11.467,8.794,9,11,9ZM6,29c0-2.651.23-4.64-1.523-7H6a4,4,0,0,1,4,4v7.9A5.008,5.008,0,0,1,6,29Zm5,17a.838.838,0,0,0,.087-.018,9.025,9.025,0,0,0,4.93-1.631A7.033,7.033,0,0,1,20.33,43c4.332,0,4.583,3,9.66,3s5.33-3,9.67-3c4.244,0,4.5,2.812,9.256,2.983A.781.781,0,0,0,49,46c5.407,0,5.382-2.543,9-2.956a.012.012,0,0,1,0,.009V58H2L1.975,43.05C5.592,43.443,5.6,46,11,46Z"/><path class="a" d="M10,14h1a1,1,0,0,0,0-2H10a1,1,0,0,0,0,2Z"/><path class="a" d="M11,16a1,1,0,0,0,0,2h1a1,1,0,0,0,0-2Z"/><path class="a" d="M48,14h1a1,1,0,0,0,0-2H48a1,1,0,0,0,0,2Z"/><path class="a" d="M49,16a1,1,0,0,0,0,2h1a1,1,0,0,0,0-2Z"/><path class="a" d="M30,7h1a1,1,0,0,0,0-2H30a1,1,0,0,0,0,2Z"/><path class="a" d="M29,11h1a1,1,0,0,0,0-2H29a1,1,0,0,0,0,2Z"/><path class="a" d="M18.27,48.255A7.547,7.547,0,0,1,20.33,48a8.188,8.188,0,0,1,1.49.125,1,1,0,0,0,.36-1.968A10.151,10.151,0,0,0,20.33,46a9.507,9.507,0,0,0-2.6.329,1,1,0,0,0,.54,1.926Z"/><path class="a" d="M32.27,51.255A7.547,7.547,0,0,1,34.33,51a8.188,8.188,0,0,1,1.49.125,1,1,0,0,0,.36-1.968A10.151,10.151,0,0,0,34.33,49a9.507,9.507,0,0,0-2.6.329,1,1,0,0,0,.54,1.926Z"/><path class="a" d="M43.27,50.255A7.552,7.552,0,0,1,45.33,50a8.188,8.188,0,0,1,1.49.125,1,1,0,0,0,.36-1.968A10.151,10.151,0,0,0,45.33,48a9.517,9.517,0,0,0-2.6.329,1,1,0,0,0,.54,1.926Z"/><path class="a" d="M7.27,51.255A7.547,7.547,0,0,1,9.33,51a8.188,8.188,0,0,1,1.49.125,1,1,0,0,0,.36-1.968A10.151,10.151,0,0,0,9.33,49a9.507,9.507,0,0,0-2.6.329,1,1,0,0,0,.54,1.926Z"/><path class="a" d="M40.27,55.255A7.547,7.547,0,0,1,42.33,55a8.188,8.188,0,0,1,1.49.125,1,1,0,0,0,.36-1.968A10.151,10.151,0,0,0,42.33,53a9.507,9.507,0,0,0-2.6.329,1,1,0,1,0,.54,1.926Z"/><path class="a" d="M50.27,53.963a7.591,7.591,0,0,1,2.06-.255,8.211,8.211,0,0,1,1.49.125,1,1,0,0,0,.36-1.968,10.182,10.182,0,0,0-1.85-.157,9.517,9.517,0,0,0-2.6.329,1,1,0,0,0,.54,1.926Z"/><path class="a" d="M22.037,53.562a1,1,0,0,0,1.233.693A7.547,7.547,0,0,1,25.33,54a8.188,8.188,0,0,1,1.49.125,1,1,0,0,0,.36-1.968A10.151,10.151,0,0,0,25.33,52a9.507,9.507,0,0,0-2.6.329,1,1,0,0,0-.693,1.233Z"/><path class="a" d="M11.037,54.562a1,1,0,0,0,1.233.693A7.547,7.547,0,0,1,14.33,55a8.188,8.188,0,0,1,1.49.125,1,1,0,0,0,.36-1.968A10.151,10.151,0,0,0,14.33,53a9.507,9.507,0,0,0-2.6.329,1,1,0,0,0-.693,1.233Z"/></g><g transform="translate(761 2007)"><path class="a" d="M2,60H58a2,2,0,0,0,2-2V43.053a1.993,1.993,0,0,0-2.19-1.991c-3.793.409-4.427,2.674-7.81,2.913V35.92A7,7,0,0,0,56,29V26.6a5.706,5.706,0,0,1,1.566-3.935A1.586,1.586,0,0,0,56.408,20H55V14.5C55,10.364,52.309,7,49,7s-6,3.364-6,7.5V20H41.592a1.586,1.586,0,0,0-1.16,2.67C42.262,24.606,42,26.536,42,29a7,7,0,0,0,6,6.92V43.9c-3.144-.5-3.719-2.9-8.34-2.9-4.812,0-5.172,2.549-8.669,2.941L31,28.92A7,7,0,0,0,37,22V19.6a5.706,5.706,0,0,1,1.566-3.935A1.586,1.586,0,0,0,37.408,13H36V7.5C36,3.364,33.309,0,30,0s-6,3.364-6,7.5V13H22.592a1.586,1.586,0,0,0-1.16,2.67C23.262,17.606,23,19.536,23,22a7,7,0,0,0,6,6.92l-.008,15.021C25.529,43.551,25.086,41,20.33,41c-4.67,0-5.178,2.4-8.33,2.9V35.92A7,7,0,0,0,18,29V26.6a5.706,5.706,0,0,1,1.566-3.935A1.586,1.586,0,0,0,18.408,20H17V14.5C17,10.364,14.309,7,11,7s-6,3.364-6,7.5V20H3.592a1.586,1.586,0,0,0-1.16,2.67C4.262,24.606,4,26.536,4,29a7,7,0,0,0,6,6.92v8.055c-3.414-.237-3.978-2.5-7.809-2.913A1.994,1.994,0,0,0,0,43.053V58a2,2,0,0,0,2,2ZM54,29a5.008,5.008,0,0,1-4,4.9V26a4,4,0,0,1,4-4h1.523C53.777,24.349,54,26.378,54,29ZM49,9c2.206,0,4,2.467,4,5.5v5.59a6.008,6.008,0,0,0-4,2.6,6.008,6.008,0,0,0-4-2.6V14.5C45,11.467,46.794,9,49,9ZM44,29c0-2.651.23-4.64-1.523-7H44a4,4,0,0,1,4,4v7.9A5.008,5.008,0,0,1,44,29Zm-9-7a5.008,5.008,0,0,1-4,4.9V19a4,4,0,0,1,4-4h1.523C34.777,17.349,35,19.378,35,22ZM30,2c2.206,0,4,2.467,4,5.5v5.59a6.008,6.008,0,0,0-4,2.6,6.008,6.008,0,0,0-4-2.6V7.5C26,4.467,27.794,2,30,2ZM25,22c0-2.651.23-4.64-1.523-7H25a4,4,0,0,1,4,4v7.9A5.008,5.008,0,0,1,25,22Zm-9,7a5.008,5.008,0,0,1-4,4.9V26a4,4,0,0,1,4-4h1.523C15.777,24.349,16,26.378,16,29ZM11,9c2.206,0,4,2.467,4,5.5v5.59a6.008,6.008,0,0,0-4,2.6,6.008,6.008,0,0,0-4-2.6V14.5C7,11.467,8.794,9,11,9ZM6,29c0-2.651.23-4.64-1.523-7H6a4,4,0,0,1,4,4v7.9A5.008,5.008,0,0,1,6,29Zm5,17a.838.838,0,0,0,.087-.018,9.025,9.025,0,0,0,4.93-1.631A7.033,7.033,0,0,1,20.33,43c4.332,0,4.583,3,9.66,3s5.33-3,9.67-3c4.244,0,4.5,2.812,9.256,2.983A.781.781,0,0,0,49,46c5.407,0,5.382-2.543,9-2.956a.012.012,0,0,1,0,.009V58H2L1.975,43.05C5.592,43.443,5.6,46,11,46Z"/><path class="a" d="M10,14h1a1,1,0,0,0,0-2H10a1,1,0,0,0,0,2Z"/><path class="a" d="M11,16a1,1,0,0,0,0,2h1a1,1,0,0,0,0-2Z"/><path class="a" d="M48,14h1a1,1,0,0,0,0-2H48a1,1,0,0,0,0,2Z"/><path class="a" d="M49,16a1,1,0,0,0,0,2h1a1,1,0,0,0,0-2Z"/><path class="a" d="M30,7h1a1,1,0,0,0,0-2H30a1,1,0,0,0,0,2Z"/><path class="a" d="M29,11h1a1,1,0,0,0,0-2H29a1,1,0,0,0,0,2Z"/><path class="a" d="M18.27,48.255A7.547,7.547,0,0,1,20.33,48a8.188,8.188,0,0,1,1.49.125,1,1,0,0,0,.36-1.968A10.151,10.151,0,0,0,20.33,46a9.507,9.507,0,0,0-2.6.329,1,1,0,0,0,.54,1.926Z"/><path class="a" d="M32.27,51.255A7.547,7.547,0,0,1,34.33,51a8.188,8.188,0,0,1,1.49.125,1,1,0,0,0,.36-1.968A10.151,10.151,0,0,0,34.33,49a9.507,9.507,0,0,0-2.6.329,1,1,0,0,0,.54,1.926Z"/><path class="a" d="M43.27,50.255A7.552,7.552,0,0,1,45.33,50a8.188,8.188,0,0,1,1.49.125,1,1,0,0,0,.36-1.968A10.151,10.151,0,0,0,45.33,48a9.517,9.517,0,0,0-2.6.329,1,1,0,0,0,.54,1.926Z"/><path class="a" d="M7.27,51.255A7.547,7.547,0,0,1,9.33,51a8.188,8.188,0,0,1,1.49.125,1,1,0,0,0,.36-1.968A10.151,10.151,0,0,0,9.33,49a9.507,9.507,0,0,0-2.6.329,1,1,0,0,0,.54,1.926Z"/><path class="a" d="M40.27,55.255A7.547,7.547,0,0,1,42.33,55a8.188,8.188,0,0,1,1.49.125,1,1,0,0,0,.36-1.968A10.151,10.151,0,0,0,42.33,53a9.507,9.507,0,0,0-2.6.329,1,1,0,1,0,.54,1.926Z"/><path class="a" d="M50.27,53.963a7.591,7.591,0,0,1,2.06-.255,8.211,8.211,0,0,1,1.49.125,1,1,0,0,0,.36-1.968,10.182,10.182,0,0,0-1.85-.157,9.517,9.517,0,0,0-2.6.329,1,1,0,0,0,.54,1.926Z"/><path class="a" d="M22.037,53.562a1,1,0,0,0,1.233.693A7.547,7.547,0,0,1,25.33,54a8.188,8.188,0,0,1,1.49.125,1,1,0,0,0,.36-1.968A10.151,10.151,0,0,0,25.33,52a9.507,9.507,0,0,0-2.6.329,1,1,0,0,0-.693,1.233Z"/><path class="a" d="M11.037,54.562a1,1,0,0,0,1.233.693A7.547,7.547,0,0,1,14.33,55a8.188,8.188,0,0,1,1.49.125,1,1,0,0,0,.36-1.968A10.151,10.151,0,0,0,14.33,53a9.507,9.507,0,0,0-2.6.329,1,1,0,0,0-.693,1.233Z"/></g><g transform="translate(877 2007)"><path class="a" d="M2,60H58a2,2,0,0,0,2-2V43.053a1.993,1.993,0,0,0-2.19-1.991c-3.793.409-4.427,2.674-7.81,2.913V35.92A7,7,0,0,0,56,29V26.6a5.706,5.706,0,0,1,1.566-3.935A1.586,1.586,0,0,0,56.408,20H55V14.5C55,10.364,52.309,7,49,7s-6,3.364-6,7.5V20H41.592a1.586,1.586,0,0,0-1.16,2.67C42.262,24.606,42,26.536,42,29a7,7,0,0,0,6,6.92V43.9c-3.144-.5-3.719-2.9-8.34-2.9-4.812,0-5.172,2.549-8.669,2.941L31,28.92A7,7,0,0,0,37,22V19.6a5.706,5.706,0,0,1,1.566-3.935A1.586,1.586,0,0,0,37.408,13H36V7.5C36,3.364,33.309,0,30,0s-6,3.364-6,7.5V13H22.592a1.586,1.586,0,0,0-1.16,2.67C23.262,17.606,23,19.536,23,22a7,7,0,0,0,6,6.92l-.008,15.021C25.529,43.551,25.086,41,20.33,41c-4.67,0-5.178,2.4-8.33,2.9V35.92A7,7,0,0,0,18,29V26.6a5.706,5.706,0,0,1,1.566-3.935A1.586,1.586,0,0,0,18.408,20H17V14.5C17,10.364,14.309,7,11,7s-6,3.364-6,7.5V20H3.592a1.586,1.586,0,0,0-1.16,2.67C4.262,24.606,4,26.536,4,29a7,7,0,0,0,6,6.92v8.055c-3.414-.237-3.978-2.5-7.809-2.913A1.994,1.994,0,0,0,0,43.053V58a2,2,0,0,0,2,2ZM54,29a5.008,5.008,0,0,1-4,4.9V26a4,4,0,0,1,4-4h1.523C53.777,24.349,54,26.378,54,29ZM49,9c2.206,0,4,2.467,4,5.5v5.59a6.008,6.008,0,0,0-4,2.6,6.008,6.008,0,0,0-4-2.6V14.5C45,11.467,46.794,9,49,9ZM44,29c0-2.651.23-4.64-1.523-7H44a4,4,0,0,1,4,4v7.9A5.008,5.008,0,0,1,44,29Zm-9-7a5.008,5.008,0,0,1-4,4.9V19a4,4,0,0,1,4-4h1.523C34.777,17.349,35,19.378,35,22ZM30,2c2.206,0,4,2.467,4,5.5v5.59a6.008,6.008,0,0,0-4,2.6,6.008,6.008,0,0,0-4-2.6V7.5C26,4.467,27.794,2,30,2ZM25,22c0-2.651.23-4.64-1.523-7H25a4,4,0,0,1,4,4v7.9A5.008,5.008,0,0,1,25,22Zm-9,7a5.008,5.008,0,0,1-4,4.9V26a4,4,0,0,1,4-4h1.523C15.777,24.349,16,26.378,16,29ZM11,9c2.206,0,4,2.467,4,5.5v5.59a6.008,6.008,0,0,0-4,2.6,6.008,6.008,0,0,0-4-2.6V14.5C7,11.467,8.794,9,11,9ZM6,29c0-2.651.23-4.64-1.523-7H6a4,4,0,0,1,4,4v7.9A5.008,5.008,0,0,1,6,29Zm5,17a.838.838,0,0,0,.087-.018,9.025,9.025,0,0,0,4.93-1.631A7.033,7.033,0,0,1,20.33,43c4.332,0,4.583,3,9.66,3s5.33-3,9.67-3c4.244,0,4.5,2.812,9.256,2.983A.781.781,0,0,0,49,46c5.407,0,5.382-2.543,9-2.956a.012.012,0,0,1,0,.009V58H2L1.975,43.05C5.592,43.443,5.6,46,11,46Z"/><path class="a" d="M10,14h1a1,1,0,0,0,0-2H10a1,1,0,0,0,0,2Z"/><path class="a" d="M11,16a1,1,0,0,0,0,2h1a1,1,0,0,0,0-2Z"/><path class="a" d="M48,14h1a1,1,0,0,0,0-2H48a1,1,0,0,0,0,2Z"/><path class="a" d="M49,16a1,1,0,0,0,0,2h1a1,1,0,0,0,0-2Z"/><path class="a" d="M30,7h1a1,1,0,0,0,0-2H30a1,1,0,0,0,0,2Z"/><path class="a" d="M29,11h1a1,1,0,0,0,0-2H29a1,1,0,0,0,0,2Z"/><path class="a" d="M18.27,48.255A7.547,7.547,0,0,1,20.33,48a8.188,8.188,0,0,1,1.49.125,1,1,0,0,0,.36-1.968A10.151,10.151,0,0,0,20.33,46a9.507,9.507,0,0,0-2.6.329,1,1,0,0,0,.54,1.926Z"/><path class="a" d="M32.27,51.255A7.547,7.547,0,0,1,34.33,51a8.188,8.188,0,0,1,1.49.125,1,1,0,0,0,.36-1.968A10.151,10.151,0,0,0,34.33,49a9.507,9.507,0,0,0-2.6.329,1,1,0,0,0,.54,1.926Z"/><path class="a" d="M43.27,50.255A7.552,7.552,0,0,1,45.33,50a8.188,8.188,0,0,1,1.49.125,1,1,0,0,0,.36-1.968A10.151,10.151,0,0,0,45.33,48a9.517,9.517,0,0,0-2.6.329,1,1,0,0,0,.54,1.926Z"/><path class="a" d="M7.27,51.255A7.547,7.547,0,0,1,9.33,51a8.188,8.188,0,0,1,1.49.125,1,1,0,0,0,.36-1.968A10.151,10.151,0,0,0,9.33,49a9.507,9.507,0,0,0-2.6.329,1,1,0,0,0,.54,1.926Z"/><path class="a" d="M40.27,55.255A7.547,7.547,0,0,1,42.33,55a8.188,8.188,0,0,1,1.49.125,1,1,0,0,0,.36-1.968A10.151,10.151,0,0,0,42.33,53a9.507,9.507,0,0,0-2.6.329,1,1,0,1,0,.54,1.926Z"/><path class="a" d="M50.27,53.963a7.591,7.591,0,0,1,2.06-.255,8.211,8.211,0,0,1,1.49.125,1,1,0,0,0,.36-1.968,10.182,10.182,0,0,0-1.85-.157,9.517,9.517,0,0,0-2.6.329,1,1,0,0,0,.54,1.926Z"/><path class="a" d="M22.037,53.562a1,1,0,0,0,1.233.693A7.547,7.547,0,0,1,25.33,54a8.188,8.188,0,0,1,1.49.125,1,1,0,0,0,.36-1.968A10.151,10.151,0,0,0,25.33,52a9.507,9.507,0,0,0-2.6.329,1,1,0,0,0-.693,1.233Z"/><path class="a" d="M11.037,54.562a1,1,0,0,0,1.233.693A7.547,7.547,0,0,1,14.33,55a8.188,8.188,0,0,1,1.49.125,1,1,0,0,0,.36-1.968A10.151,10.151,0,0,0,14.33,53a9.507,9.507,0,0,0-2.6.329,1,1,0,0,0-.693,1.233Z"/></g></g></svg>