<svg xmlns="http://www.w3.org/2000/svg" width="175.104" height="159" viewBox="0 0 175.104 159"><defs><style>.a{fill:rgba(18,128,92,0.16);}</style></defs><g transform="translate(0 -13.955)"><path class="a" d="M160.412,28.119C140.185,8.476,106.8,9.453,87.544,29.87,68.284,9.454,34.9,8.476,14.676,28.119a47.505,47.505,0,0,0,1.3,69.863c-10.6,9.778-4.529,27.35,9.9,29.062-.864,9.542,7.546,18.293,17.5,18.131.61,10.5,11.529,18.024,22,15.248C68.8,172.938,85.31,177.215,94.782,168c5.379-5.163,9.657-8.419,9.93-16.239,8.888-.239,16.579-7.766,16.714-16.344,8.974-.134,16.792-7.686,16.93-16.349,9.309-.137,17.381-8.25,16.948-17.409l5.107-4.931a47.4,47.4,0,0,0,0-68.613ZM23.672,105.878l4.8-4.632a6.456,6.456,0,0,1,4.5-1.8c5.584-.036,8.5,6.631,4.5,10.479l-4.8,4.632c-6.209,5.52-14.709-2.685-8.992-8.683ZM37.048,128.2a6,6,0,0,1,1.863-4.342l4.8-4.634a6.432,6.432,0,0,1,4.493-1.8c5.632-.009,8.486,6.642,4.5,10.482L48.467,132a6.76,6.76,0,0,1-5.061,2.343A6.282,6.282,0,0,1,37.048,128.2Zm19.358,20.145a6.019,6.019,0,0,1,0-8.683l4.233-4.087a6.594,6.594,0,0,1,9.557-.545,6,6,0,0,1,0,8.683l-4.8,4.632a6.525,6.525,0,0,1-8.992,0Zm35.235,7.358-4.8,4.632a6.519,6.519,0,0,1-8.992,0,6.019,6.019,0,0,1,0-8.683l4.8-4.632a6.527,6.527,0,0,1,8.992,0,6.019,6.019,0,0,1,0,8.683Zm50.581-49.251a6.551,6.551,0,0,1-8.992,0L108.247,82.331,100.308,90l24.983,24.124a6,6,0,0,1,0,8.683,6.526,6.526,0,0,1-8.992,0L91.74,99.089l-.424-.409-7.939,7.666.424.409,24.559,23.715a6,6,0,0,1,0,8.683,6.527,6.527,0,0,1-8.992,0l0,0a18.034,18.034,0,0,0-16.695-4.206c-1.833-7.232-9.362-12.708-16.934-12.549-.367-7.785-7.183-14.817-15.237-15.657C51.561,93.389,36.37,84.191,24.381,90.771c-16.7-14.4-17.724-39.682-1.766-54.986C38.482,20.356,64.7,21.378,79.606,37.536l-13.879,13.4L76.849,61.677a26.138,26.138,0,0,0,31.522,3.406l33.852,32.689a6,6,0,0,1,0,8.683Zm10.252-17.389-1.711,1.651q-.292-.311-.6-.611L108.811,50.178l-3.969,3.833a14.558,14.558,0,0,1-20.056,0L81.6,50.938,97.3,35.784c38.12-33.879,90.255,16.5,55.177,53.281Z" transform="translate(0 0)"/></g></svg>