<svg xmlns="http://www.w3.org/2000/svg" width="161.74" height="113.218" viewBox="0 0 161.74 113.218"><defs><style>.a{fill:rgba(18,128,92,0.19);}</style></defs><g transform="translate(0 0)"><g transform="translate(0 0)"><path class="a" d="M101.954,349.867a8.087,8.087,0,1,0,8.087,8.087A8.087,8.087,0,0,0,101.954,349.867Zm0,10.783a2.7,2.7,0,1,1,2.7-2.7A2.7,2.7,0,0,1,101.954,360.65Z" transform="translate(-64.215 -263.606)"/><path class="a" d="M375.02,349.867a8.087,8.087,0,1,0,8.087,8.087A8.087,8.087,0,0,0,375.02,349.867Zm0,10.783a2.7,2.7,0,1,1,2.7-2.7A2.7,2.7,0,0,1,375.02,360.65Z" transform="translate(-251.019 -263.606)"/><path class="a" d="M159.686,124.69l-18.569-20.912a8.086,8.086,0,0,0-6.063-2.717H110.523V84.887a8.1,8.1,0,0,0-8.087-8.087H8.087A8.1,8.1,0,0,0,0,84.887v70.087a2.7,2.7,0,0,0,2.7,2.7h2.7v8.087a8.1,8.1,0,0,0,8.087,8.087h5.607a18.845,18.845,0,0,0,37.309,0h48.953a18.845,18.845,0,0,0,37.309,0h11a8.1,8.1,0,0,0,8.087-8.087V130.066A8.08,8.08,0,0,0,159.686,124.69ZM5.391,152.279V84.887a2.7,2.7,0,0,1,2.7-2.7h94.349a2.7,2.7,0,0,1,2.7,2.7v67.392Zm13.694,16.174H13.478a2.7,2.7,0,0,1-2.7-2.7V157.67H24.559A18.82,18.82,0,0,0,19.085,168.453ZM37.74,184.626a13.478,13.478,0,1,1,13.478-13.478A13.479,13.479,0,0,1,37.74,184.626ZM64.7,168.453h-8.3A18.818,18.818,0,0,0,50.92,157.67H64.7Zm24.261,0H70.088V157.67h18.87Zm16.389,0h-11V157.67h16.472A18.819,18.819,0,0,0,105.347,168.453ZM124,184.626a13.478,13.478,0,1,1,13.478-13.478A13.479,13.479,0,0,1,124,184.626Zm32.348-18.87a2.7,2.7,0,0,1-2.7,2.7h-11A18.883,18.883,0,0,0,124,152.279H110.522V106.452h10.783v26.957a8.1,8.1,0,0,0,8.087,8.087h26.957Zm0-29.652H129.392a2.7,2.7,0,0,1-2.7-2.7V106.452h8.357a2.7,2.7,0,0,1,2.028.9l18.576,20.92a2.7,2.7,0,0,1,.691,1.793V136.1Z" transform="translate(0 -76.8)"/><path class="a" d="M56.587,13.232l2.465-2.465L57.775,9.49,55.31,11.954a9.868,9.868,0,0,0-5.725,2.1c1.362-2.524-1.2-7.3-2.009-8.693V2H45.769V5.366c-.812,1.394-3.371,6.168-2.009,8.693a9.868,9.868,0,0,0-5.725-2.1L35.57,9.49l-1.277,1.277,2.465,2.465a9.879,9.879,0,0,0,2.37,6.052,9.883,9.883,0,0,0-1.093-.1L35.57,16.715l-1.277,1.277,2.465,2.465a9.879,9.879,0,0,0,2.37,6.052,9.883,9.883,0,0,0-1.093-.1L35.57,23.94l-1.277,1.277,2.465,2.465a9.879,9.879,0,0,0,2.37,6.052,9.882,9.882,0,0,0-1.093-.1L35.57,31.165l-1.277,1.277,2.465,2.465A9.938,9.938,0,0,0,45.769,44.4V56.189h1.806V44.4a9.938,9.938,0,0,0,9.012-9.495l2.465-2.465-1.277-1.277L55.31,33.63a9.881,9.881,0,0,0-1.093.1,9.884,9.884,0,0,0,2.37-6.052l2.465-2.465L57.775,23.94,55.31,26.4a9.884,9.884,0,0,0-1.093.1,9.884,9.884,0,0,0,2.37-6.052l2.465-2.465-1.277-1.277L55.31,19.18a9.884,9.884,0,0,0-1.093.1A9.879,9.879,0,0,0,56.587,13.232ZM46.672,37.223a9.963,9.963,0,0,0,1.487-.124,9.949,9.949,0,0,0-1.487,2.331A9.949,9.949,0,0,0,45.186,37.1,9.963,9.963,0,0,0,46.672,37.223Zm0-5.018a9.949,9.949,0,0,0-1.487-2.331,8.992,8.992,0,0,0,2.973,0A9.949,9.949,0,0,0,46.672,32.2Zm0-7.225a9.949,9.949,0,0,0-1.487-2.331,8.992,8.992,0,0,0,2.973,0A9.949,9.949,0,0,0,46.672,24.98Zm0-7.225a9.955,9.955,0,0,0-1.681-2.545,4.356,4.356,0,0,0,3.362,0A9.935,9.935,0,0,0,46.672,17.754ZM54.745,13.8a8.143,8.143,0,0,1-7.112,7.112A8.141,8.141,0,0,1,54.745,13.8ZM46.672,7.5c1.042,2.105,1.907,4.678,1.319,5.718-.073.128-.3.521-1.319.521s-1.245-.393-1.319-.521C44.765,12.179,45.63,9.607,46.672,7.5ZM45.713,20.91A8.143,8.143,0,0,1,38.6,13.8,8.143,8.143,0,0,1,45.713,20.91Zm0,7.225A8.143,8.143,0,0,1,38.6,21.023,8.143,8.143,0,0,1,45.713,28.135Zm0,7.225A8.143,8.143,0,0,1,38.6,28.248,8.143,8.143,0,0,1,45.713,35.36Zm-7.112.113a8.143,8.143,0,0,1,7.112,7.112A8.143,8.143,0,0,1,38.6,35.473Zm9.031,7.112a8.143,8.143,0,0,1,7.112-7.112A8.145,8.145,0,0,1,47.632,42.586Zm0-7.225a8.143,8.143,0,0,1,7.112-7.112A8.145,8.145,0,0,1,47.632,35.36Zm0-7.225a8.143,8.143,0,0,1,7.112-7.112A8.145,8.145,0,0,1,47.632,28.135Z" transform="translate(-16.41 12.629)"/><path class="a" d="M56.587,13.232l2.465-2.465L57.775,9.49,55.31,11.954a9.868,9.868,0,0,0-5.725,2.1c1.362-2.524-1.2-7.3-2.009-8.693V2H45.769V5.366c-.812,1.394-3.371,6.168-2.009,8.693a9.868,9.868,0,0,0-5.725-2.1L35.57,9.49l-1.277,1.277,2.465,2.465a9.879,9.879,0,0,0,2.37,6.052,9.883,9.883,0,0,0-1.093-.1L35.57,16.715l-1.277,1.277,2.465,2.465a9.879,9.879,0,0,0,2.37,6.052,9.883,9.883,0,0,0-1.093-.1L35.57,23.94l-1.277,1.277,2.465,2.465a9.879,9.879,0,0,0,2.37,6.052,9.882,9.882,0,0,0-1.093-.1L35.57,31.165l-1.277,1.277,2.465,2.465A9.938,9.938,0,0,0,45.769,44.4V56.189h1.806V44.4a9.938,9.938,0,0,0,9.012-9.495l2.465-2.465-1.277-1.277L55.31,33.63a9.881,9.881,0,0,0-1.093.1,9.884,9.884,0,0,0,2.37-6.052l2.465-2.465L57.775,23.94,55.31,26.4a9.884,9.884,0,0,0-1.093.1,9.884,9.884,0,0,0,2.37-6.052l2.465-2.465-1.277-1.277L55.31,19.18a9.884,9.884,0,0,0-1.093.1A9.879,9.879,0,0,0,56.587,13.232ZM46.672,37.223a9.963,9.963,0,0,0,1.487-.124,9.949,9.949,0,0,0-1.487,2.331A9.949,9.949,0,0,0,45.186,37.1,9.963,9.963,0,0,0,46.672,37.223Zm0-5.018a9.949,9.949,0,0,0-1.487-2.331,8.992,8.992,0,0,0,2.973,0A9.949,9.949,0,0,0,46.672,32.2Zm0-7.225a9.949,9.949,0,0,0-1.487-2.331,8.992,8.992,0,0,0,2.973,0A9.949,9.949,0,0,0,46.672,24.98Zm0-7.225a9.955,9.955,0,0,0-1.681-2.545,4.356,4.356,0,0,0,3.362,0A9.935,9.935,0,0,0,46.672,17.754ZM54.745,13.8a8.143,8.143,0,0,1-7.112,7.112A8.141,8.141,0,0,1,54.745,13.8ZM46.672,7.5c1.042,2.105,1.907,4.678,1.319,5.718-.073.128-.3.521-1.319.521s-1.245-.393-1.319-.521C44.765,12.179,45.63,9.607,46.672,7.5ZM45.713,20.91A8.143,8.143,0,0,1,38.6,13.8,8.143,8.143,0,0,1,45.713,20.91Zm0,7.225A8.143,8.143,0,0,1,38.6,21.023,8.143,8.143,0,0,1,45.713,28.135Zm0,7.225A8.143,8.143,0,0,1,38.6,28.248,8.143,8.143,0,0,1,45.713,35.36Zm-7.112.113a8.143,8.143,0,0,1,7.112,7.112A8.143,8.143,0,0,1,38.6,35.473Zm9.031,7.112a8.143,8.143,0,0,1,7.112-7.112A8.145,8.145,0,0,1,47.632,42.586Zm0-7.225a8.143,8.143,0,0,1,7.112-7.112A8.145,8.145,0,0,1,47.632,35.36Zm0-7.225a8.143,8.143,0,0,1,7.112-7.112A8.145,8.145,0,0,1,47.632,28.135Z" transform="translate(8.59 12.629)"/><path class="a" d="M56.587,13.232l2.465-2.465L57.775,9.49,55.31,11.954a9.868,9.868,0,0,0-5.725,2.1c1.362-2.524-1.2-7.3-2.009-8.693V2H45.769V5.366c-.812,1.394-3.371,6.168-2.009,8.693a9.868,9.868,0,0,0-5.725-2.1L35.57,9.49l-1.277,1.277,2.465,2.465a9.879,9.879,0,0,0,2.37,6.052,9.883,9.883,0,0,0-1.093-.1L35.57,16.715l-1.277,1.277,2.465,2.465a9.879,9.879,0,0,0,2.37,6.052,9.883,9.883,0,0,0-1.093-.1L35.57,23.94l-1.277,1.277,2.465,2.465a9.879,9.879,0,0,0,2.37,6.052,9.882,9.882,0,0,0-1.093-.1L35.57,31.165l-1.277,1.277,2.465,2.465A9.938,9.938,0,0,0,45.769,44.4V56.189h1.806V44.4a9.938,9.938,0,0,0,9.012-9.495l2.465-2.465-1.277-1.277L55.31,33.63a9.881,9.881,0,0,0-1.093.1,9.884,9.884,0,0,0,2.37-6.052l2.465-2.465L57.775,23.94,55.31,26.4a9.884,9.884,0,0,0-1.093.1,9.884,9.884,0,0,0,2.37-6.052l2.465-2.465-1.277-1.277L55.31,19.18a9.884,9.884,0,0,0-1.093.1A9.879,9.879,0,0,0,56.587,13.232ZM46.672,37.223a9.963,9.963,0,0,0,1.487-.124,9.949,9.949,0,0,0-1.487,2.331A9.949,9.949,0,0,0,45.186,37.1,9.963,9.963,0,0,0,46.672,37.223Zm0-5.018a9.949,9.949,0,0,0-1.487-2.331,8.992,8.992,0,0,0,2.973,0A9.949,9.949,0,0,0,46.672,32.2Zm0-7.225a9.949,9.949,0,0,0-1.487-2.331,8.992,8.992,0,0,0,2.973,0A9.949,9.949,0,0,0,46.672,24.98Zm0-7.225a9.955,9.955,0,0,0-1.681-2.545,4.356,4.356,0,0,0,3.362,0A9.935,9.935,0,0,0,46.672,17.754ZM54.745,13.8a8.143,8.143,0,0,1-7.112,7.112A8.141,8.141,0,0,1,54.745,13.8ZM46.672,7.5c1.042,2.105,1.907,4.678,1.319,5.718-.073.128-.3.521-1.319.521s-1.245-.393-1.319-.521C44.765,12.179,45.63,9.607,46.672,7.5ZM45.713,20.91A8.143,8.143,0,0,1,38.6,13.8,8.143,8.143,0,0,1,45.713,20.91Zm0,7.225A8.143,8.143,0,0,1,38.6,21.023,8.143,8.143,0,0,1,45.713,28.135Zm0,7.225A8.143,8.143,0,0,1,38.6,28.248,8.143,8.143,0,0,1,45.713,35.36Zm-7.112.113a8.143,8.143,0,0,1,7.112,7.112A8.143,8.143,0,0,1,38.6,35.473Zm9.031,7.112a8.143,8.143,0,0,1,7.112-7.112A8.145,8.145,0,0,1,47.632,42.586Zm0-7.225a8.143,8.143,0,0,1,7.112-7.112A8.145,8.145,0,0,1,47.632,35.36Zm0-7.225a8.143,8.143,0,0,1,7.112-7.112A8.145,8.145,0,0,1,47.632,28.135Z" transform="translate(33.59 12.629)"/></g></g></svg>