<svg xmlns="http://www.w3.org/2000/svg" width="66.467" height="100" viewBox="0 0 66.467 100"><defs><style>.a{fill:#f5a31a;}</style></defs><g transform="translate(-85.929)"><path class="a" d="M377.064,415.627l-.268-4.15a22.974,22.974,0,0,0-9.405-17.119,1.463,1.463,0,1,0-1.725,2.364,20.054,20.054,0,0,1,8.21,14.944l.268,4.15a1.464,1.464,0,0,0,1.459,1.369c.032,0,.064,0,.1,0A1.463,1.463,0,0,0,377.064,415.627Z" transform="translate(-224.671 -317.185)"/><path class="a" d="M137.076,73.99l-9.01-4.519V67.784a18.091,18.091,0,0,0,9.174-15.73s0-2.061-.009-4.607A6.391,6.391,0,0,0,141,35.956a24.243,24.243,0,0,0,2.921-11.589c0-.04,0-.079,0-.119v-.057a1.463,1.463,0,0,0-1.463-1.453h-.01a1.463,1.463,0,0,0-1.453,1.474l0,.156a21.331,21.331,0,0,1-2.438,9.946c-2.2-11.59-6.895-18.035-9.273-20.67a48.278,48.278,0,0,1,6.562-3.2,21.512,21.512,0,0,1,4.308,7.963,1.463,1.463,0,0,0,2.812-.812,24.547,24.547,0,0,0-8.641-12.608A24.143,24.143,0,0,0,119.553,0,24.372,24.372,0,0,0,98,35.751a6.391,6.391,0,0,0,3.081,11.678v4.627a18.089,18.089,0,0,0,9.174,15.728v1.687l-11.4,5.716A23.12,23.12,0,0,0,86.2,94.292l-.268,4.15A1.463,1.463,0,0,0,87.3,100c.032,0,.064,0,.1,0a1.464,1.464,0,0,0,1.459-1.369l.268-4.15A20.182,20.182,0,0,1,100.174,77.8l9.543-4.786,7.412,16.19a2.214,2.214,0,0,0,2.034,1.306h0a2.214,2.214,0,0,0,2.034-1.306l7.412-16.19,7.155,3.589a1.463,1.463,0,1,0,1.312-2.616Zm-8.593-23.26a9.343,9.343,0,0,1-5.116,8.319l-1.087-1.764a3.662,3.662,0,0,0-6.236,0l-1.087,1.764a9.342,9.342,0,0,1-5.116-8.319V46.865a10.894,10.894,0,0,0-5.18-9.312l-.067-.042c.614-.907,1.573-2.271,2.839-3.919h5.231a1.463,1.463,0,0,0,0-2.927h-2.889c.892-1.07,1.875-2.2,2.943-3.363h13.46c.93,1.018,1.9,2.14,2.868,3.363h-3.192a1.463,1.463,0,0,0,0,2.927h5.384c.853,1.212,1.694,2.5,2.5,3.864l-.108.068a10.893,10.893,0,0,0-5.158,9.328C128.481,48.885,128.483,50.73,128.483,50.73Zm-9.159-29.874c.865.682,2.288,1.865,4.006,3.521h-7.793C116.7,23.225,117.964,22.039,119.324,20.855Zm21.289,20.2a3.469,3.469,0,0,1-3.389,3.463c0-1.182-.008-2.346-.012-3.358a24.586,24.586,0,0,0,2.229-2.7,3.46,3.46,0,0,1,1.172,2.6Zm-4.892-5.982a65.054,65.054,0,0,0-14.1-16.138c1.6-1.286,3.315-2.543,5.122-3.724C128.624,17.188,133.528,23.3,135.721,35.073ZM116.539,3.14a47.02,47.02,0,0,0-10.546,14.392,1.463,1.463,0,1,0,2.616,1.312c3.665-7.3,8-12.626,12.9-15.828a21.2,21.2,0,0,1,11.042,4.3c.368.281.724.577,1.073.881-9.763,4.145-17.761,11.4-22.882,16.936a94.124,94.124,0,0,0-8.164,10.144,87,87,0,0,1,3.491-10.76,1.463,1.463,0,0,0-2.718-1.086,89.769,89.769,0,0,0-3.288,9.875A21.442,21.442,0,0,1,116.539,3.14ZM98.1,41.056a3.459,3.459,0,0,1,1.424-2.8,24.419,24.419,0,0,0,1.558,2.014v4.218A3.469,3.469,0,0,1,98.1,41.056Zm5.909,11V40.681a7.977,7.977,0,0,1,2.9,6.184V50.73A12.273,12.273,0,0,0,114.132,61.9a2.454,2.454,0,0,0,3.091-.946l1.314-2.132a.735.735,0,0,1,1.252,0l1.314,2.132a2.455,2.455,0,0,0,3.091.946,12.274,12.274,0,0,0,7.216-11.169s0-1.848-.008-3.884a7.976,7.976,0,0,1,2.88-6.186c.015,2.957.026,7.812.031,11.4a15.151,15.151,0,0,1-30.3,0Zm15.151,34.563-6.867-15a2.651,2.651,0,0,0,.89-1.989v-.514a18.078,18.078,0,0,0,11.954,0v.514a2.651,2.651,0,0,0,.89,1.989Z" transform="translate(0)"/><path class="a" d="M232.324,217.885c.006-.088.013-.175.013-.264v-1.4a1.463,1.463,0,0,0-2.927,0v1.4a.836.836,0,0,1-.835.835H227.9a.836.836,0,0,1-.835-.835v-1.4a1.463,1.463,0,0,0-2.927,0v1.4c0,.089.007.177.013.264a7.554,7.554,0,0,0-2.761,6.893,2.033,2.033,0,0,0,2.5,1.7l3.038-.754a5.423,5.423,0,0,1,2.606,0l3.038.754a2.033,2.033,0,0,0,2.5-1.7,7.554,7.554,0,0,0-2.761-6.893Zm-2.077,5a8.363,8.363,0,0,0-4.017,0l-1.961.487a4.628,4.628,0,0,1,1.286-2.816,3.741,3.741,0,0,0,2.346.826h.674a3.741,3.741,0,0,0,2.346-.826,4.631,4.631,0,0,1,1.286,2.816Z" transform="translate(-108.979 -172.852)"/><path class="a" d="M212.778,185.966V184.89a1.463,1.463,0,0,0-2.927,0v1.075a1.463,1.463,0,0,0,2.927,0Z" transform="translate(-99.743 -147.637)"/><path class="a" d="M290.124,183.427a1.463,1.463,0,0,0-1.463,1.463v1.075a1.463,1.463,0,0,0,2.927,0V184.89A1.463,1.463,0,0,0,290.124,183.427Z" transform="translate(-163.176 -147.637)"/><path class="a" d="M147.276,451.9a1.463,1.463,0,0,0-1.463,1.463v8.9a1.463,1.463,0,0,0,2.927,0v-8.9A1.463,1.463,0,0,0,147.276,451.9Z" transform="translate(-48.2 -363.726)"/><path class="a" d="M353.162,451.9a1.463,1.463,0,0,0-1.463,1.463v8.9a1.463,1.463,0,0,0,2.927,0v-8.9A1.463,1.463,0,0,0,353.162,451.9Z" transform="translate(-213.914 -363.726)"/></g></svg>