<svg xmlns="http://www.w3.org/2000/svg" width="50.002" height="50" viewBox="0 0 50.002 50"><defs><style>.a{fill:#f5a31a;}</style></defs><g transform="translate(0)"><path class="a" d="M38.541,42.937H1.041A1.043,1.043,0,0,1,.127,41.4L18.877,7.021a1.085,1.085,0,0,1,1.829,0L39.456,41.4a1.043,1.043,0,0,1-.915,1.542ZM2.8,40.854h33.99L19.791,9.7Z" transform="translate(0 7.063)"/><path class="a" d="M32.521,35.917H22.1a1.042,1.042,0,1,1,0-2.083h8.654L21.124,16.312l-3.971,8.217a1.042,1.042,0,0,1-1.875-.908l4.85-10.033a1.045,1.045,0,0,1,.91-.587,1.1,1.1,0,0,1,.94.54L33.436,34.373a1.043,1.043,0,0,1-.915,1.544Z" transform="translate(16.437 14.083)"/><path class="a" d="M10.042,15.625A1.042,1.042,0,0,1,9,14.583V1.042A1.042,1.042,0,0,1,10.042,0h12.5a1.043,1.043,0,0,1,.738,1.779L19.848,5.208l3.429,3.429a1.043,1.043,0,0,1-.735,1.779H11.083v4.167a1.042,1.042,0,0,1-1.042,1.042Zm1.042-7.292h8.944L17.64,5.946a1.042,1.042,0,0,1,0-1.473l2.387-2.39H11.083Z" transform="translate(9.75)"/><path class="a" d="M16.611,18.238c-.025,0-.048,0-.075,0a1.036,1.036,0,0,1-.758-.415l-2.292-3.054-2.292,3.054a1.047,1.047,0,0,1-.758.415,1.007,1.007,0,0,1-.81-.3l-3.5-3.5A1.042,1.042,0,0,1,7.6,12.961l2.65,2.65,2.4-3.206a1.079,1.079,0,0,1,1.667,0l2.4,3.206,2.65-2.65a1.042,1.042,0,1,1,1.473,1.473l-3.5,3.5a1.039,1.039,0,0,1-.735.3Z" transform="translate(6.306 13.012)"/></g></svg>