<svg xmlns="http://www.w3.org/2000/svg" width="150.269" height="150.607" viewBox="0 0 150.269 150.607"><defs><style>.a{fill:rgba(255,255,255,0.3);}</style></defs><g transform="translate(-0.577)"><path class="a" d="M150.752,335.468a13.045,13.045,0,0,0-22.57-7.178l-11.922,12.94-2.13,2.3a13.4,13.4,0,0,0-13.314-14.858H82.421a8.342,8.342,0,0,1-3.516-.777l-7.612-3.539q-.405-.188-.813-.366a32.9,32.9,0,0,0-34.695,5.642l-5.171,4.53L11.568,334h-.075a10.857,10.857,0,0,0-8.148,3.653,11.16,11.16,0,0,0-2.768,7.458V366.4A10.918,10.918,0,0,0,11.5,377.318H110.38a23.37,23.37,0,0,0,18.277-8.742l19.233-23.316a12.988,12.988,0,0,0,2.861-9.793Zm-9.677,4.171-19.249,23.336-.034.042a14.593,14.593,0,0,1-11.411,5.467H11.495A2.083,2.083,0,0,1,9.411,366.4V344.918a2.083,2.083,0,0,1,2.075-2.083H11.5l20.72.175a4.424,4.424,0,0,0,2.948-1.094l6.5-5.7a23.985,23.985,0,0,1,25.244-4.144q.327.141.651.292l7.612,3.539a17.175,17.175,0,0,0,7.241,1.6h18.272a4.641,4.641,0,0,1,4.653,4.03,4.565,4.565,0,0,1-4.53,5.089H65.148a4.493,4.493,0,0,0-4.506,3.915,4.419,4.419,0,0,0,4.39,4.92H113.19a4.418,4.418,0,0,0,3.24-1.415l4-4.311c.048-.048.1-.092.145-.142l14.11-15.316a4.257,4.257,0,0,1,5.974-.293,4.023,4.023,0,0,1,1.23,2.027,4.08,4.08,0,0,1-.809,3.629Z" transform="translate(0 -226.711)"/><path class="a" d="M137.8,77.95a4.4,4.4,0,0,0,3.123-1.294l7.573-7.573H176.05A35.324,35.324,0,0,0,211.334,33.8V4.417A4.417,4.417,0,0,0,206.917,0H177.535a35.324,35.324,0,0,0-35.284,35.284V62.836l-7.573,7.573A4.417,4.417,0,0,0,137.8,77.95Zm13.284-42.666A26.479,26.479,0,0,1,177.535,8.835H202.5V33.8A26.479,26.479,0,0,1,176.05,60.248H157.333l15.54-15.54H184.12a4.417,4.417,0,0,0,0-8.835h-2.412l9.542-9.542A4.417,4.417,0,0,0,185,20.084l-9.541,9.541V23.649a4.417,4.417,0,1,0-8.835,0V38.46L151.086,54V35.284Z" transform="translate(-93.697)"/></g></svg>