<svg xmlns="http://www.w3.org/2000/svg" width="169" height="169" viewBox="0 0 169 169"><defs><style>.a{fill:rgba(18,128,92,0.19);}</style></defs><g transform="translate(-16 -16)"><path class="a" d="M30.083,114.583h5.633V108.95H30.083a8.45,8.45,0,0,1,0-16.9h8.45v5.633h5.633V92.05h33.8v5.633H52.617A11.279,11.279,0,0,0,41.35,108.95v50.7a2.817,2.817,0,0,0,4.808,1.992l12.333-12.333a3.159,3.159,0,1,1,4.467,4.467l-9.517,9.516a2.817,2.817,0,0,0-.352,3.554,12.384,12.384,0,0,1,0,13.775,2.817,2.817,0,0,0-.473,1.563V185H58.25v-2a18.083,18.083,0,0,0,1.655-3.631h74.4v-5.633H61.067v-10.1l5.875-5.875a8.79,8.79,0,0,0-5.875-15V103.317h78.867v39.442a8.79,8.79,0,0,0-5.875,15l7.992,7.992a17.991,17.991,0,0,0,.7,17.248v2h5.633v-2.817a2.815,2.815,0,0,0-.474-1.563,12.384,12.384,0,0,1,0-13.774,2.817,2.817,0,0,0-.352-3.554l-9.517-9.516a3.159,3.159,0,0,1,4.467-4.467l12.333,12.333a2.817,2.817,0,0,0,4.809-1.992V138.283l3.159,3.159a8.4,8.4,0,0,1,2.475,5.975V185h5.633V147.417a13.99,13.99,0,0,0-4.125-9.958l-7.142-7.142V108.95a11.279,11.279,0,0,0-11.267-11.267h-25.35V92.05h33.8v5.633h5.633V92.05h8.45a8.45,8.45,0,1,1,0,16.9h-5.633v5.633h5.633a14.083,14.083,0,1,0,0-28.167h-8.45V83.361A16.925,16.925,0,0,0,176.55,66.7V63.883a2.817,2.817,0,0,0-2.817-2.817,16.832,16.832,0,0,0-11.267,4.317V60.828A16.925,16.925,0,0,0,176.55,44.167V41.35a2.817,2.817,0,0,0-2.817-2.817,16.832,16.832,0,0,0-11.267,4.317V38.294A16.925,16.925,0,0,0,176.55,21.633V18.817A2.817,2.817,0,0,0,173.733,16a16.9,16.9,0,0,0-14.083,7.572A16.9,16.9,0,0,0,145.567,16a2.817,2.817,0,0,0-2.817,2.817v2.817a16.925,16.925,0,0,0,14.083,16.661V42.85a16.832,16.832,0,0,0-11.267-4.317,2.817,2.817,0,0,0-2.817,2.817v2.817a16.925,16.925,0,0,0,14.083,16.661v4.556a16.832,16.832,0,0,0-11.267-4.317,2.817,2.817,0,0,0-2.817,2.817V66.7a16.925,16.925,0,0,0,14.083,16.661v3.056h-33.8V83.361A16.925,16.925,0,0,0,137.117,66.7V63.883a2.817,2.817,0,0,0-2.817-2.817,16.832,16.832,0,0,0-11.267,4.317V60.828a16.925,16.925,0,0,0,14.083-16.661V41.35a2.817,2.817,0,0,0-2.817-2.817,16.832,16.832,0,0,0-11.267,4.317V38.294a16.925,16.925,0,0,0,14.083-16.661V18.817A2.817,2.817,0,0,0,134.3,16a16.9,16.9,0,0,0-14.083,7.572A16.9,16.9,0,0,0,106.133,16a2.817,2.817,0,0,0-2.817,2.817v2.817A16.925,16.925,0,0,0,117.4,38.294V42.85a16.832,16.832,0,0,0-11.267-4.317,2.817,2.817,0,0,0-2.817,2.817v2.817A16.925,16.925,0,0,0,117.4,60.828v4.556a16.832,16.832,0,0,0-11.267-4.317,2.817,2.817,0,0,0-2.817,2.817V66.7A16.925,16.925,0,0,0,117.4,83.361v3.056H83.6V83.361A16.925,16.925,0,0,0,97.683,66.7V63.883a2.817,2.817,0,0,0-2.817-2.817A16.832,16.832,0,0,0,83.6,65.384V60.828A16.925,16.925,0,0,0,97.683,44.167V41.35a2.817,2.817,0,0,0-2.817-2.817A16.832,16.832,0,0,0,83.6,42.85V38.294A16.925,16.925,0,0,0,97.683,21.633V18.817A2.817,2.817,0,0,0,94.867,16a16.9,16.9,0,0,0-14.083,7.572A16.9,16.9,0,0,0,66.7,16a2.817,2.817,0,0,0-2.817,2.817v2.817A16.925,16.925,0,0,0,77.967,38.294V42.85A16.832,16.832,0,0,0,66.7,38.533a2.817,2.817,0,0,0-2.817,2.817v2.817A16.925,16.925,0,0,0,77.967,60.828v4.556A16.832,16.832,0,0,0,66.7,61.067a2.817,2.817,0,0,0-2.817,2.817V66.7A16.925,16.925,0,0,0,77.967,83.361v3.056h-33.8V83.361A16.925,16.925,0,0,0,58.25,66.7V63.883a2.817,2.817,0,0,0-2.817-2.817,16.832,16.832,0,0,0-11.267,4.317V60.828A16.925,16.925,0,0,0,58.25,44.167V41.35a2.817,2.817,0,0,0-2.817-2.817A16.832,16.832,0,0,0,44.167,42.85V38.294A16.925,16.925,0,0,0,58.25,21.633V18.817A2.817,2.817,0,0,0,55.433,16,16.9,16.9,0,0,0,41.35,23.572,16.9,16.9,0,0,0,27.267,16a2.817,2.817,0,0,0-2.817,2.817v2.817A16.925,16.925,0,0,0,38.533,38.294V42.85a16.832,16.832,0,0,0-11.267-4.317A2.817,2.817,0,0,0,24.45,41.35v2.817A16.925,16.925,0,0,0,38.533,60.828v4.556a16.832,16.832,0,0,0-11.267-4.317,2.817,2.817,0,0,0-2.817,2.817V66.7A16.925,16.925,0,0,0,38.533,83.361v3.056h-8.45a14.083,14.083,0,1,0,0,28.167Zm25.35,29.938c-.324.246-8.45,8.329-8.45,8.329v-43.9a5.64,5.64,0,0,1,5.633-5.633h2.817Zm90.133-41.2h2.817a5.64,5.64,0,0,1,5.633,5.633v43.9s-8.126-8.085-8.45-8.329Zm25.344-36.259a11.289,11.289,0,0,1-8.439,10.551,11.289,11.289,0,0,1,8.439-10.551Zm0-22.533a11.289,11.289,0,0,1-8.439,10.551,11.289,11.289,0,0,1,8.439-10.551Zm0-22.533a11.289,11.289,0,0,1-8.439,10.551,11.289,11.289,0,0,1,8.439-10.551Zm-22.522,0a11.289,11.289,0,0,1,8.439,10.551,11.289,11.289,0,0,1-8.439-10.551Zm0,22.533a11.289,11.289,0,0,1,8.439,10.551,11.289,11.289,0,0,1-8.439-10.551Zm0,22.533a11.289,11.289,0,0,1,8.439,10.551,11.289,11.289,0,0,1-8.439-10.551Zm-16.911,0a11.289,11.289,0,0,1-8.439,10.551,11.289,11.289,0,0,1,8.439-10.551Zm0-22.533a11.289,11.289,0,0,1-8.439,10.551A11.289,11.289,0,0,1,131.478,44.525Zm0-22.533a11.289,11.289,0,0,1-8.439,10.551A11.289,11.289,0,0,1,131.478,21.991Zm-22.522,0a11.289,11.289,0,0,1,8.439,10.551,11.289,11.289,0,0,1-8.439-10.551Zm0,22.533a11.289,11.289,0,0,1,8.439,10.551,11.289,11.289,0,0,1-8.439-10.551Zm0,22.533a11.289,11.289,0,0,1,8.439,10.551,11.289,11.289,0,0,1-8.439-10.551Zm-16.911,0a11.289,11.289,0,0,1-8.439,10.551,11.289,11.289,0,0,1,8.439-10.551Zm0-22.533a11.289,11.289,0,0,1-8.439,10.551,11.289,11.289,0,0,1,8.439-10.551Zm0-22.533a11.289,11.289,0,0,1-8.439,10.551,11.289,11.289,0,0,1,8.439-10.551ZM83.6,92.05h33.8v5.633H83.6ZM69.522,21.991a11.289,11.289,0,0,1,8.439,10.551,11.289,11.289,0,0,1-8.439-10.551Zm0,22.533a11.289,11.289,0,0,1,8.439,10.551A11.289,11.289,0,0,1,69.522,44.525Zm0,22.533a11.289,11.289,0,0,1,8.439,10.551A11.289,11.289,0,0,1,69.522,67.058Zm-16.911,0a11.289,11.289,0,0,1-8.439,10.551,11.289,11.289,0,0,1,8.439-10.551Zm0-22.533a11.289,11.289,0,0,1-8.439,10.551A11.289,11.289,0,0,1,52.611,44.525Zm0-22.533a11.289,11.289,0,0,1-8.439,10.551,11.289,11.289,0,0,1,8.439-10.551Zm-22.522,0a11.289,11.289,0,0,1,8.439,10.551,11.289,11.289,0,0,1-8.439-10.551Zm0,22.533a11.289,11.289,0,0,1,8.439,10.551,11.289,11.289,0,0,1-8.439-10.551Zm0,22.533a11.289,11.289,0,0,1,8.439,10.551,11.289,11.289,0,0,1-8.439-10.551Zm5.22,69.3,3.983,3.983-1.1,1.1a8.4,8.4,0,0,0-2.475,5.975V185H30.083V147.417a13.99,13.99,0,0,1,4.125-9.958ZM72.333,108.95v5.633H66.7V108.95ZM83.6,114.583H77.967V108.95H83.6Zm11.267,0H89.233V108.95h5.633ZM134.3,125.85a8.465,8.465,0,0,0-5.9-8.055,11.267,11.267,0,0,0-22.009,0A8.45,8.45,0,0,0,108.95,134.3h16.9a8.459,8.459,0,0,0,8.45-8.45Zm-28.167,0a2.82,2.82,0,0,1,2.817-2.817,2.817,2.817,0,0,0,2.817-2.817,5.633,5.633,0,0,1,11.267,0,2.817,2.817,0,0,0,2.817,2.817,2.817,2.817,0,0,1,0,5.633h-16.9a2.82,2.82,0,0,1-2.817-2.817Zm2.817,19.717h-5.633v-5.633h5.633ZM100.5,151.2h5.633v5.633H100.5Zm19.717-5.633h-5.633v-5.633h5.633Zm-8.45,5.633H117.4v5.633h-5.633Zm19.717-5.633H125.85v-5.633h5.633Zm-2.817,11.267h-5.633V151.2h5.633ZM66.7,123.033H80.783v5.633H66.7Zm28.167,16.9H66.7V134.3H94.867Zm0,11.267H75.15v-5.633H94.867Zm-22.533,5.633H94.867v5.633H72.333Z"/></g></svg>