<svg xmlns="http://www.w3.org/2000/svg" width="45.08" height="50" viewBox="0 0 45.08 50"><defs><style>.a{fill:#f5a31a;}</style></defs><g transform="translate(-25.19 -0.001)"><path class="a" d="M68.712,29.729c-.054-.055-5.416-5.512-5.416-10.685A19.047,19.047,0,0,0,25.45,15.98c-1.051,6.693,1.269,10.726,3.725,15C31.546,35.1,34,39.36,34,46.88V50H51.576V43.946H61.83V34.683L70.27,31.3ZM58.9,32.7v8.315H48.647v6.055H36.928V46.88c0-8.3-2.77-13.118-5.213-17.366-2.381-4.139-4.261-7.408-3.371-13.08A16.26,16.26,0,0,1,42.3,3.045a16.129,16.129,0,0,1,18.066,16c0,4.5,2.981,8.857,4.835,11.132Z" transform="translate(0 0)"/><g transform="translate(32.682 -5.954)"><path class="a" d="M24.61,23.357a14.016,14.016,0,0,0-24.278,0L0,23.932l.333.575a14.016,14.016,0,0,0,24.278,0l.333-.575ZM12.6,28.01a4.45,4.45,0,1,1,4.45-4.45A4.455,4.455,0,0,1,12.6,28.01Zm-9.92-4.078a11.764,11.764,0,0,1,4.129-3.815,6.7,6.7,0,0,0,.9,8.079A11.788,11.788,0,0,1,2.676,23.932Zm15,4.056a6.721,6.721,0,0,0,.85-7.647,11.743,11.743,0,0,1,3.744,3.591A11.763,11.763,0,0,1,17.673,27.988Z"/></g></g></svg>