<svg xmlns="http://www.w3.org/2000/svg" width="45.08" height="50" viewBox="0 0 45.08 50"><defs><style>.a{fill:#f5a31a;}</style></defs><g transform="translate(-25.19 -0.001)"><path class="a" d="M68.712,29.729c-.054-.055-5.416-5.512-5.416-10.685A19.047,19.047,0,0,0,25.45,15.98c-1.051,6.693,1.269,10.726,3.725,15C31.546,35.1,34,39.36,34,46.88V50H51.576V43.946H61.83V34.683L70.27,31.3ZM58.9,32.7v8.315H48.647v6.055H36.928V46.88c0-8.3-2.77-13.118-5.213-17.366-2.381-4.139-4.261-7.408-3.371-13.08A16.26,16.26,0,0,1,42.3,3.045a16.129,16.129,0,0,1,18.066,16c0,4.5,2.981,8.857,4.835,11.132Z" transform="translate(0 0)"/><path class="a" d="M117.961,120c-.333,0-3,.109-5.859,3.432-2.855-3.323-5.527-3.432-5.859-3.432a5.859,5.859,0,0,0,0,11.719c.333,0,3-.109,5.859-3.432,2.855,3.323,5.527,3.432,5.859,3.432a5.859,5.859,0,0,0,0-11.719Zm-11.74,8.789a2.929,2.929,0,0,1,0-5.858c.2.017,2.006.241,4.078,2.929C108.228,128.544,106.426,128.768,106.222,128.785Zm11.76,0c-.2-.017-2.006-.241-4.078-2.929,2.072-2.688,3.874-2.912,4.078-2.929a2.929,2.929,0,0,1,0,5.858Z" transform="translate(-67.85 -108.277)"/></g></svg>