<svg xmlns="http://www.w3.org/2000/svg" width="49.989" height="50" viewBox="0 0 49.989 50"><defs><style>.a{fill:#f5a31a;}</style></defs><g transform="translate(-0.051 0)"><g transform="translate(0.051 0)"><g transform="translate(0)"><path class="a" d="M42.767,7.41l-.088-.088A24.965,24.965,0,0,0,.051,24.981,24.99,24.99,0,1,0,42.767,7.41ZM25.021,47.758A22.783,22.783,0,1,1,47.8,24.97,22.81,22.81,0,0,1,25.021,47.758Z" transform="translate(-0.051 0)"/></g></g><g transform="translate(18.378 15.422)"><path class="a" d="M179.434,145.414h-2.17a5.089,5.089,0,0,0-1.195-2.521h3.354a1.1,1.1,0,1,0,.011-2.192H168.342a1.1,1.1,0,0,0,0,2.192h3.179a3.705,3.705,0,0,1,3.5,2.521h-6.675a1.1,1.1,0,0,0,0,2.192h6.675a3.8,3.8,0,0,1-.91,1.524,3.654,3.654,0,0,1-2.587,1.107h-3.179a1.062,1.062,0,0,0-.756,1.841l7.936,7.5a1.082,1.082,0,0,0,1.546-.055,1.055,1.055,0,0,0-.022-1.491c-.011-.011-.022-.011-.022-.022l-5.93-5.579h.417a5.888,5.888,0,0,0,4.143-1.743,5.65,5.65,0,0,0,1.611-3.08h2.17a1.1,1.1,0,1,0,0-2.192Z" transform="translate(-167.245 -140.701)"/></g><g transform="translate(5.904 5.853)"><path class="a" d="M72.567,53.4A19.116,19.116,0,1,0,91.684,72.517,19.133,19.133,0,0,0,72.567,53.4Zm0,36.041A16.924,16.924,0,1,1,89.492,72.517,16.948,16.948,0,0,1,72.567,89.442Z" transform="translate(-53.451 -53.401)"/></g></g></svg>