<svg xmlns="http://www.w3.org/2000/svg" width="50" height="50" viewBox="0 0 50 50"><defs><style>.a{fill:#f5a31a;}</style></defs><g transform="translate(-0.001)"><g transform="translate(7.484 45.976)"><path class="a" d="M79.867,473.274,78.4,471.2a.977.977,0,1,0-1.593,1.131l1.47,2.071a.977.977,0,0,0,1.593-1.131Z" transform="translate(-76.624 -470.791)"/></g><g transform="translate(0.001 15.278)"><path class="a" d="M21.994,190l-1.6-7.626a14.382,14.382,0,0,0-6.082-9.029l-3.416-2.3a3.436,3.436,0,0,0-4.356.445V159.721a3.269,3.269,0,0,0-5.315-2.55A3.254,3.254,0,0,0,0,159.721v15.142a9.459,9.459,0,0,0,1.755,5.5L3.5,182.821A.977.977,0,1,0,5.09,181.69l-1.741-2.453a7.516,7.516,0,0,1-1.395-4.374V159.721a1.316,1.316,0,1,1,2.632,0v12.013a6.823,6.823,0,0,0,1.76,4.581c.049.058.1.116.151.172.649.687,1.411,1.5,2.129,2.26l1.005,1.07.01.01,1.508,1.6a.977.977,0,1,0,1.424-1.337c-.018-.019-1.161-1.236-2.466-2.624l-2.239-2.383-.017-.018a1.648,1.648,0,0,1,.032-2.16,1.476,1.476,0,0,1,1.922-.245l3.416,2.3a12.438,12.438,0,0,1,5.261,7.809l1.6,7.626a.977.977,0,1,0,1.911-.4Z" transform="translate(-0.001 -156.451)"/></g><g transform="translate(5.458 43.122)"><path class="a" d="M57.662,441.994l-.006-.009a.977.977,0,0,0-1.59,1.134l.006.009a.977.977,0,0,0,1.59-1.134Z" transform="translate(-55.884 -441.575)"/></g><g transform="translate(27.987 15.279)"><path class="a" d="M307.37,157.174a3.269,3.269,0,0,0-5.315,2.55v11.767a3.436,3.436,0,0,0-4.356-.445l-3.416,2.3a14.381,14.381,0,0,0-6.082,9.029L286.6,190a.977.977,0,1,0,1.911.4l1.6-7.626a12.438,12.438,0,0,1,5.261-7.809l3.416-2.3a1.476,1.476,0,0,1,1.922.245,1.648,1.648,0,0,1,.034,2.157l-.018.021-4.706,5.007a.977.977,0,1,0,1.424,1.337c.013-.014,4-4.257,4.652-4.944.053-.056.1-.114.151-.172a6.824,6.824,0,0,0,1.76-4.581V159.724a1.316,1.316,0,1,1,2.632,0v15.142a7.517,7.517,0,0,1-1.395,4.374l-7.378,10.393a.977.977,0,1,0,1.593,1.131l7.378-10.393a9.459,9.459,0,0,0,1.755-5.5V159.724A3.255,3.255,0,0,0,307.37,157.174Z" transform="translate(-286.58 -156.454)"/></g><g transform="translate(9.121 5.273)"><path class="a" d="M121.639,67.443l-1.737-.415v-.312a4.368,4.368,0,0,0,1.87-3.581V60.877a4.367,4.367,0,0,0-7.206-3.322A5.7,5.7,0,0,0,104,57.563a4.367,4.367,0,0,0-7.216,3.314v2.259a4.368,4.368,0,0,0,1.87,3.581v.312l-1.737.415a4.575,4.575,0,0,0-3.523,4.464v1.824a.977.977,0,0,0,.977.977h4.487c-.007.118-.012.238-.012.358v3.512a.977.977,0,0,0,.977.977h5.87a.977.977,0,0,0,0-1.953H104.68V75.582a.977.977,0,0,0-1.953,0V77.6H100.8V75.065a4.043,4.043,0,0,1,3.111-3.944l2.68-.642,1.793,4.08a.977.977,0,0,0,.894.584h0a.976.976,0,0,0,.894-.583l1.792-4.074,2.671.638a4.043,4.043,0,0,1,3.114,3.945V77.6h-1.931V75.582a.977.977,0,0,0-1.953,0V77.6h-1.107a.977.977,0,1,0,0,1.953h5.968a.977.977,0,0,0,.977-.977V75.068c0-.121,0-.241-.012-.36h4.5a.977.977,0,0,0,.977-.977V71.907A4.575,4.575,0,0,0,121.639,67.443ZM117.4,58.459a2.421,2.421,0,0,1,2.412,2.258h-1.358a7.118,7.118,0,0,1-3.274-.8A2.421,2.421,0,0,1,117.4,58.459Zm-2.418,4.534c0-.048,0-.095,0-.143v-.87a9.072,9.072,0,0,0,3.469.69h1.363v.465a2.418,2.418,0,1,1-4.835,0ZM105.531,59.7h0a3.751,3.751,0,0,1,7.455-.6l-1.644-.966a.976.976,0,0,0-1.243.215,4.207,4.207,0,0,1-3.233,1.509h-1.335V59.7Zm-4.379-1.245a2.421,2.421,0,0,1,2.22,1.46,7.118,7.118,0,0,1-3.274.8H98.74A2.421,2.421,0,0,1,101.152,58.459ZM98.734,62.67H100.1a9.072,9.072,0,0,0,3.472-.692v1.157a2.418,2.418,0,0,1-4.835,0Zm4.717,6.551a5.989,5.989,0,0,0-4.15,3.533H95.343v-.847a2.628,2.628,0,0,1,2.024-2.564l2.487-.594a.977.977,0,0,0,.75-.95v-.328a4.239,4.239,0,0,0,1.092,0v.279c0,.015,0,.029,0,.044a.978.978,0,0,0,.794.961l1.457.349Zm2.724-1.516a4.581,4.581,0,0,0-.782-.264l-1.745-.418v-.3a4.407,4.407,0,0,0,.846-.773,5.749,5.749,0,0,0,1.68,1.684Zm4.241,1.435-1.143,2.6-1.145-2.606v-.7a5.723,5.723,0,0,0,2.288,0ZM109.282,66.6a3.755,3.755,0,0,1-3.751-3.751V61.819h1.335a6.153,6.153,0,0,0,4.15-1.6l2.014,1.183v1.594A3.755,3.755,0,0,1,109.282,66.6Zm3.088,1.108v-.066a5.747,5.747,0,0,0,1.694-1.688,4.406,4.406,0,0,0,.839.765v.3l-1.745.418A4.6,4.6,0,0,0,112.37,67.709Zm10.839,5.046h-3.972a5.988,5.988,0,0,0-4.153-3.531l-.49-.117,1.465-.351a.978.978,0,0,0,.8-.962c0-.008,0-.015,0-.023v-.3a4.239,4.239,0,0,0,1.092,0V67.8a.977.977,0,0,0,.75.95l2.487.594a2.628,2.628,0,0,1,2.024,2.564Z" transform="translate(-93.39 -54)"/></g><g transform="translate(24.024 28.874)"><path class="a" d="M247.667,295.955a.977.977,0,1,0,.286.691A.984.984,0,0,0,247.667,295.955Z" transform="translate(-246 -295.67)"/></g><g transform="translate(24.024)"><path class="a" d="M246.97,0a.977.977,0,0,0-.977.977V2.438a.977.977,0,1,0,1.953,0V.977A.977.977,0,0,0,246.97,0Z" transform="translate(-245.993)"/></g><g transform="translate(18.712 1.876)"><path class="a" d="M194.291,20.522,193.266,19.5a.977.977,0,1,0-1.38,1.382L192.91,21.9a.976.976,0,1,0,1.38-1.382Z" transform="translate(-191.599 -19.213)"/></g><g transform="translate(28.296 1.901)"><path class="a" d="M292.429,19.755a.976.976,0,0,0-1.381,0l-1.017,1.017a.977.977,0,1,0,1.382,1.38l1.017-1.017A.977.977,0,0,0,292.429,19.755Z" transform="translate(-289.746 -19.469)"/></g></g></svg>