<svg xmlns="http://www.w3.org/2000/svg" width="39.062" height="44.643" viewBox="0 0 39.062 44.643"><defs><style>.a{fill:#f5a31a;}</style></defs><g transform="translate(-34.446)"><path class="a" d="M37.236,22.321A16.718,16.718,0,0,1,51.187,5.883V8.37l5.58-4.185L51.187,0V3.016a19.491,19.491,0,0,0-7.341,35.971l2.426-1.819a16.747,16.747,0,0,1-9.036-14.847Z"/><path class="a" d="M263.441,86.482a19.519,19.519,0,0,0-9.4-16.666l-2.426,1.819a16.7,16.7,0,0,1-4.915,31.3v-2.507l-5.58,4.185,5.58,4.185v-3.018A19.541,19.541,0,0,0,263.441,86.482Z" transform="translate(-189.933 -64.161)"/></g></svg>