<svg xmlns="http://www.w3.org/2000/svg" width="88.915" height="100" viewBox="0 0 88.915 100"><defs><style>.a{fill:#f5a31a;}</style></defs><g transform="translate(-28.378)"><path class="a" d="M100.8,65.641,86.969,61.556V53.384l6.653-6.653V42.459l2.813-1.1c1.253-.49,3.861-1.51,3.861-4.294V29.932a16.336,16.336,0,0,0,.121-13.39c-1.407-3.148-4.563-7.235-11.612-9.063a20.789,20.789,0,0,0-31.772-.2c-7.087,1.834-10.281,5.988-11.712,9.19a16.438,16.438,0,0,0,.053,13.461v7.133c0,2.784,2.608,3.8,3.861,4.294l2.813,1.1v4.272L58.7,53.384v8.173L44.871,65.641c-10.79,3.186-16.493,9.012-16.493,16.848V100H71.371V97.07H46.75V68.14l4.562-1.347a34.191,34.191,0,0,0,5.5,17.241c3.984,5.816,9.675,9.019,16.025,9.019a18.668,18.668,0,0,0,14.737-7.3L85.306,83.9a17.4,17.4,0,0,1-5.786,4.694l-2.15-6.91,3.038-4.632,2.4,2.094L91.2,69.192a30.929,30.929,0,0,1-4.287,12.472l2.475,1.567a34.224,34.224,0,0,0,4.967-16.439L98.92,68.14V97.07H74.3V100h42.993V82.488C117.293,74.653,111.59,68.827,100.8,65.641ZM97.366,37.064c0,.5-.327.912-2,1.566l-1.746.683v-11.2H95.9a1.466,1.466,0,0,1,1.465,1.465v7.489Zm.376-19.327a13.66,13.66,0,0,1,.8,8.331,4.372,4.372,0,0,0-2.644-.887h-2.28V20.738a20.572,20.572,0,0,0-2.159-9.2,12.564,12.564,0,0,1,6.279,6.195ZM72.835,2.93A17.852,17.852,0,0,1,90.692,20.738v5.306l-4.384,4.426a6.345,6.345,0,0,0-11.836,1.4H71.2a6.345,6.345,0,0,0-11.836-1.4l-4.384-4.426V20.738A17.852,17.852,0,0,1,72.835,2.93Zm11.23,30.406a3.418,3.418,0,1,1-3.418-3.418A3.422,3.422,0,0,1,84.066,33.336Zm-15.625,0a3.418,3.418,0,1,1-3.418-3.418A3.422,3.422,0,0,1,68.441,33.336ZM48,17.666a12.768,12.768,0,0,1,6.289-6.279,20.572,20.572,0,0,0-2.237,9.351v4.443h-2.28a4.372,4.372,0,0,0-2.634.879A13.9,13.9,0,0,1,48,17.666ZM50.3,38.63c-1.671-.654-2-1.069-2-1.566V29.575a1.467,1.467,0,0,1,1.465-1.465h2.28v11.2Zm4.676-8.424,3.728,3.764A6.347,6.347,0,0,0,71.2,34.8h3.275a6.347,6.347,0,0,0,12.491-.83l3.728-3.764V45.517L79.417,56.792H66.254L54.979,45.517ZM65.04,59.721h15.59l3.408-3.408v5.4L72.835,66.9l-11.2-5.182v-5.4Zm-4.987,4.491,10.115,4.679L63.18,74.977l-7.889-9.359ZM31.308,97.07V82.488c0-6.054,4.209-10.567,12.513-13.436V97.07Zm27.92-14.692A30.337,30.337,0,0,1,54.471,69.19l8.388,9.952,2.4-2.094L68.3,81.679,66.147,88.6A18.387,18.387,0,0,1,59.227,82.378Zm13.608,7.745a15.436,15.436,0,0,1-3.938-.5l2.087-6.7h3.7l2.085,6.7A15.317,15.317,0,0,1,72.835,90.123Zm2.139-10.134H70.7l-3.2-4.884,5.342-4.653,5.342,4.653Zm7.517-5.012L75.5,68.891l10.115-4.679,4.762,1.406ZM114.363,97.07H101.85V69.053c8.3,2.869,12.513,7.382,12.513,13.436Z"/><path class="a" d="M270.354,223.267l1.734-2.361-3.714-2.727H263.5v2.93h3.914Z" transform="translate(-189.2 -175.566)"/><path class="a" d="M237.25,248.179h7.324v2.93H237.25Z" transform="translate(-168.077 -199.707)"/><path class="a" d="M213.116,221.109v-2.93h-4.875l-3.714,2.727,1.734,2.361,2.94-2.159Z" transform="translate(-141.746 -175.566)"/><path class="a" d="M438.622,437.34h2.93v2.93h-2.93Z" transform="translate(-330.118 -351.922)"/><path class="a" d="M273.93,43.359h2.93V40.43h-2.93V37.5H271v2.93h2.93Z" transform="translate(-195.235 -30.176)"/><path class="a" d="M438.622,407.341h2.93v2.93h-2.93Z" transform="translate(-330.118 -327.782)"/></g></svg>