<svg xmlns="http://www.w3.org/2000/svg" width="1034.517" height="122.955" viewBox="0 0 1034.517 122.955"><defs><style>.a{fill:rgba(18,128,92,0.19);}.b{fill:none;stroke:#fad391;stroke-width:5px;stroke-dasharray:10;}</style></defs><g transform="translate(-505 -3135.045)"><g transform="translate(502.707 3171.232)"><path class="a" d="M19.822,66.764v18h2.759v-18a15.179,15.179,0,0,0,13.764-14.5L40.11,48.5l-1.951-1.951-3.765,3.765a15.094,15.094,0,0,0-1.669.159,15.1,15.1,0,0,0,3.62-9.244l3.765-3.765-1.951-1.951-3.765,3.765a15.1,15.1,0,0,0-1.669.159,15.1,15.1,0,0,0,3.62-9.244l3.765-3.765-1.951-1.951L34.394,28.24a15.1,15.1,0,0,0-1.669.159,15.1,15.1,0,0,0,3.62-9.244L40.11,15.39,38.159,13.44,34.394,17.2a15.072,15.072,0,0,0-8.744,3.214c2.08-3.856-1.829-11.147-3.069-13.277V2H19.822V7.141c-1.24,2.13-5.15,9.422-3.069,13.277A15.072,15.072,0,0,0,8.008,17.2L4.244,13.44,2.293,15.39l3.765,3.765A15.089,15.089,0,0,0,9.677,28.4a15.1,15.1,0,0,0-1.669-.159L4.244,24.476,2.293,26.426l3.765,3.765a15.089,15.089,0,0,0,3.62,9.244,15.1,15.1,0,0,0-1.669-.159L4.244,35.511,2.293,37.462l3.765,3.765a15.089,15.089,0,0,0,3.62,9.244,15.1,15.1,0,0,0-1.669-.159L4.244,46.547,2.293,48.5l3.765,3.765a15.179,15.179,0,0,0,13.764,14.5Zm1.379-40.7a15.206,15.206,0,0,0-2.567-3.887,5.962,5.962,0,0,0,2.567.516,5.984,5.984,0,0,0,2.567-.515A15.174,15.174,0,0,0,21.2,26.063Zm0,7.664a15.218,15.218,0,0,0,2.271-.189A15.2,15.2,0,0,0,21.2,37.1a15.2,15.2,0,0,0-2.271-3.56A15.218,15.218,0,0,0,21.2,33.728Zm0,11.036a15.218,15.218,0,0,0,2.271-.189,15.2,15.2,0,0,0-2.271,3.56,15.2,15.2,0,0,0-2.271-3.56A15.218,15.218,0,0,0,21.2,44.763Zm0,11.036a15.217,15.217,0,0,0,2.271-.189A15.2,15.2,0,0,0,21.2,59.17a15.2,15.2,0,0,0-2.271-3.56A15.217,15.217,0,0,0,21.2,55.8Zm1.466,8.191A12.437,12.437,0,0,1,33.531,53.127,12.44,12.44,0,0,1,22.668,63.99Zm0-11.036A12.437,12.437,0,0,1,33.531,42.091,12.44,12.44,0,0,1,22.668,52.955Zm0-11.036A12.437,12.437,0,0,1,33.531,31.056,12.44,12.44,0,0,1,22.668,41.919Zm10.863-21.9A12.437,12.437,0,0,1,22.668,30.883,12.435,12.435,0,0,1,33.531,20.02ZM21.2,10.4c1.592,3.216,2.913,7.146,2.014,8.733-.112.2-.451.8-2.014.8s-1.9-.6-2.014-.8c-.9-1.589.422-5.518,2.014-8.733Zm-1.465,20.48A12.437,12.437,0,0,1,8.873,20.02,12.437,12.437,0,0,1,19.736,30.883Zm0,11.036A12.437,12.437,0,0,1,8.873,31.056,12.437,12.437,0,0,1,19.736,41.919Zm0,11.036A12.437,12.437,0,0,1,8.873,42.091,12.437,12.437,0,0,1,19.736,52.955Zm0,11.036A12.437,12.437,0,0,1,8.873,53.127,12.437,12.437,0,0,1,19.736,63.99Z" transform="translate(0 0)"/><path class="a" d="M19.822,66.764v18h2.759v-18a15.179,15.179,0,0,0,13.764-14.5L40.11,48.5l-1.951-1.951-3.765,3.765a15.094,15.094,0,0,0-1.669.159,15.1,15.1,0,0,0,3.62-9.244l3.765-3.765-1.951-1.951-3.765,3.765a15.1,15.1,0,0,0-1.669.159,15.1,15.1,0,0,0,3.62-9.244l3.765-3.765-1.951-1.951L34.394,28.24a15.1,15.1,0,0,0-1.669.159,15.1,15.1,0,0,0,3.62-9.244L40.11,15.39,38.159,13.44,34.394,17.2a15.072,15.072,0,0,0-8.744,3.214c2.08-3.856-1.829-11.147-3.069-13.277V2H19.822V7.141c-1.24,2.13-5.15,9.422-3.069,13.277A15.072,15.072,0,0,0,8.008,17.2L4.244,13.44,2.293,15.39l3.765,3.765A15.089,15.089,0,0,0,9.677,28.4a15.1,15.1,0,0,0-1.669-.159L4.244,24.476,2.293,26.426l3.765,3.765a15.089,15.089,0,0,0,3.62,9.244,15.1,15.1,0,0,0-1.669-.159L4.244,35.511,2.293,37.462l3.765,3.765a15.089,15.089,0,0,0,3.62,9.244,15.1,15.1,0,0,0-1.669-.159L4.244,46.547,2.293,48.5l3.765,3.765a15.179,15.179,0,0,0,13.764,14.5Zm1.379-40.7a15.206,15.206,0,0,0-2.567-3.887,5.962,5.962,0,0,0,2.567.516,5.984,5.984,0,0,0,2.567-.515A15.174,15.174,0,0,0,21.2,26.063Zm0,7.664a15.218,15.218,0,0,0,2.271-.189A15.2,15.2,0,0,0,21.2,37.1a15.2,15.2,0,0,0-2.271-3.56A15.218,15.218,0,0,0,21.2,33.728Zm0,11.036a15.218,15.218,0,0,0,2.271-.189,15.2,15.2,0,0,0-2.271,3.56,15.2,15.2,0,0,0-2.271-3.56A15.218,15.218,0,0,0,21.2,44.763Zm0,11.036a15.217,15.217,0,0,0,2.271-.189A15.2,15.2,0,0,0,21.2,59.17a15.2,15.2,0,0,0-2.271-3.56A15.217,15.217,0,0,0,21.2,55.8Zm1.466,8.191A12.437,12.437,0,0,1,33.531,53.127,12.44,12.44,0,0,1,22.668,63.99Zm0-11.036A12.437,12.437,0,0,1,33.531,42.091,12.44,12.44,0,0,1,22.668,52.955Zm0-11.036A12.437,12.437,0,0,1,33.531,31.056,12.44,12.44,0,0,1,22.668,41.919Zm10.863-21.9A12.437,12.437,0,0,1,22.668,30.883,12.435,12.435,0,0,1,33.531,20.02ZM21.2,10.4c1.592,3.216,2.913,7.146,2.014,8.733-.112.2-.451.8-2.014.8s-1.9-.6-2.014-.8c-.9-1.589.422-5.518,2.014-8.733Zm-1.465,20.48A12.437,12.437,0,0,1,8.873,20.02,12.437,12.437,0,0,1,19.736,30.883Zm0,11.036A12.437,12.437,0,0,1,8.873,31.056,12.437,12.437,0,0,1,19.736,41.919Zm0,11.036A12.437,12.437,0,0,1,8.873,42.091,12.437,12.437,0,0,1,19.736,52.955Zm0,11.036A12.437,12.437,0,0,1,8.873,53.127,12.437,12.437,0,0,1,19.736,63.99Z" transform="translate(106 0)"/><path class="a" d="M84.056,27.07l5.5-5.5-2.851-2.851-5.5,5.5a22.027,22.027,0,0,0-12.779,4.7c3.04-5.634-2.673-16.291-4.485-19.4V2H59.909V9.513c-1.812,3.113-7.525,13.769-4.485,19.4a22.026,22.026,0,0,0-12.779-4.7l-5.5-5.5-2.851,2.851,5.5,5.5a22.05,22.05,0,0,0,5.29,13.509,22.061,22.061,0,0,0-2.439-.232l-5.5-5.5L34.293,37.7l5.5,5.5a22.05,22.05,0,0,0,5.29,13.509,22.061,22.061,0,0,0-2.439-.232l-5.5-5.5-2.851,2.851,5.5,5.5a22.05,22.05,0,0,0,5.29,13.509,22.059,22.059,0,0,0-2.439-.232l-5.5-5.5-2.851,2.851,5.5,5.5A22.182,22.182,0,0,0,59.909,96.645v26.31h4.032V96.645A22.182,22.182,0,0,0,84.056,75.452l5.5-5.5L86.707,67.1l-5.5,5.5a22.057,22.057,0,0,0-2.439.232,22.062,22.062,0,0,0,5.29-13.509l5.5-5.5-2.851-2.851-5.5,5.5a22.06,22.06,0,0,0-2.439.232A22.062,22.062,0,0,0,84.056,43.2l5.5-5.5-2.851-2.851-5.5,5.5a22.062,22.062,0,0,0-2.439.232A22.05,22.05,0,0,0,84.056,27.07ZM61.925,80.621a22.238,22.238,0,0,0,3.318-.276,22.207,22.207,0,0,0-3.318,5.2,22.207,22.207,0,0,0-3.318-5.2A22.238,22.238,0,0,0,61.925,80.621Zm0-11.2a22.207,22.207,0,0,0-3.318-5.2,20.071,20.071,0,0,0,6.636,0A22.207,22.207,0,0,0,61.925,69.42Zm0-16.127a22.207,22.207,0,0,0-3.318-5.2,20.072,20.072,0,0,0,6.636,0A22.207,22.207,0,0,0,61.925,53.293Zm0-16.127a22.221,22.221,0,0,0-3.752-5.681,9.723,9.723,0,0,0,7.5,0A22.175,22.175,0,0,0,61.925,37.166Zm18.018-8.832A18.176,18.176,0,0,1,64.068,44.209,18.172,18.172,0,0,1,79.943,28.334ZM61.925,14.281c2.326,4.7,4.258,10.442,2.943,12.763-.163.286-.659,1.163-2.943,1.163s-2.78-.877-2.943-1.163C57.668,24.721,59.6,18.98,61.925,14.281ZM59.784,44.209A18.176,18.176,0,0,1,43.909,28.334,18.176,18.176,0,0,1,59.784,44.209Zm0,16.127A18.176,18.176,0,0,1,43.909,44.461,18.176,18.176,0,0,1,59.784,60.337Zm0,16.127A18.176,18.176,0,0,1,43.909,60.589,18.176,18.176,0,0,1,59.784,76.464Zm-15.875.252A18.176,18.176,0,0,1,59.784,92.591,18.176,18.176,0,0,1,43.909,76.716ZM64.068,92.591A18.176,18.176,0,0,1,79.943,76.716,18.18,18.18,0,0,1,64.068,92.591Zm0-16.127A18.176,18.176,0,0,1,79.943,60.589,18.18,18.18,0,0,1,64.068,76.464Zm0-16.127A18.176,18.176,0,0,1,79.943,44.461,18.18,18.18,0,0,1,64.068,60.337Z" transform="translate(12.143 -38.187)"/></g><g transform="translate(936.26 3144.183)"><g transform="translate(0 0)"><g transform="translate(0 0)"><path class="a" d="M101.954,349.867a8.087,8.087,0,1,0,8.087,8.087A8.087,8.087,0,0,0,101.954,349.867Zm0,10.783a2.7,2.7,0,1,1,2.7-2.7A2.7,2.7,0,0,1,101.954,360.65Z" transform="translate(-64.215 -263.606)"/><path class="a" d="M375.02,349.867a8.087,8.087,0,1,0,8.087,8.087A8.087,8.087,0,0,0,375.02,349.867Zm0,10.783a2.7,2.7,0,1,1,2.7-2.7A2.7,2.7,0,0,1,375.02,360.65Z" transform="translate(-251.019 -263.606)"/><path class="a" d="M159.686,124.69l-18.569-20.912a8.086,8.086,0,0,0-6.063-2.717H110.523V84.887a8.1,8.1,0,0,0-8.087-8.087H8.087A8.1,8.1,0,0,0,0,84.887v70.087a2.7,2.7,0,0,0,2.7,2.7h2.7v8.087a8.1,8.1,0,0,0,8.087,8.087h5.607a18.845,18.845,0,0,0,37.309,0h48.953a18.845,18.845,0,0,0,37.309,0h11a8.1,8.1,0,0,0,8.087-8.087V130.066A8.08,8.08,0,0,0,159.686,124.69ZM5.391,152.279V84.887a2.7,2.7,0,0,1,2.7-2.7h94.349a2.7,2.7,0,0,1,2.7,2.7v67.392Zm13.694,16.174H13.478a2.7,2.7,0,0,1-2.7-2.7V157.67H24.559A18.82,18.82,0,0,0,19.085,168.453ZM37.74,184.626a13.478,13.478,0,1,1,13.478-13.478A13.479,13.479,0,0,1,37.74,184.626ZM64.7,168.453h-8.3A18.818,18.818,0,0,0,50.92,157.67H64.7Zm24.261,0H70.088V157.67h18.87Zm16.389,0h-11V157.67h16.472A18.819,18.819,0,0,0,105.347,168.453ZM124,184.626a13.478,13.478,0,1,1,13.478-13.478A13.479,13.479,0,0,1,124,184.626Zm32.348-18.87a2.7,2.7,0,0,1-2.7,2.7h-11A18.883,18.883,0,0,0,124,152.279H110.522V106.452h10.783v26.957a8.1,8.1,0,0,0,8.087,8.087h26.957Zm0-29.652H129.392a2.7,2.7,0,0,1-2.7-2.7V106.452h8.357a2.7,2.7,0,0,1,2.028.9l18.576,20.92a2.7,2.7,0,0,1,.691,1.793V136.1Z" transform="translate(0 -76.8)"/><path class="a" d="M56.587,13.232l2.465-2.465L57.775,9.49,55.31,11.954a9.868,9.868,0,0,0-5.725,2.1c1.362-2.524-1.2-7.3-2.009-8.693V2H45.769V5.366c-.812,1.394-3.371,6.168-2.009,8.693a9.868,9.868,0,0,0-5.725-2.1L35.57,9.49l-1.277,1.277,2.465,2.465a9.879,9.879,0,0,0,2.37,6.052,9.883,9.883,0,0,0-1.093-.1L35.57,16.715l-1.277,1.277,2.465,2.465a9.879,9.879,0,0,0,2.37,6.052,9.883,9.883,0,0,0-1.093-.1L35.57,23.94l-1.277,1.277,2.465,2.465a9.879,9.879,0,0,0,2.37,6.052,9.882,9.882,0,0,0-1.093-.1L35.57,31.165l-1.277,1.277,2.465,2.465A9.938,9.938,0,0,0,45.769,44.4V56.189h1.806V44.4a9.938,9.938,0,0,0,9.012-9.495l2.465-2.465-1.277-1.277L55.31,33.63a9.881,9.881,0,0,0-1.093.1,9.884,9.884,0,0,0,2.37-6.052l2.465-2.465L57.775,23.94,55.31,26.4a9.884,9.884,0,0,0-1.093.1,9.884,9.884,0,0,0,2.37-6.052l2.465-2.465-1.277-1.277L55.31,19.18a9.884,9.884,0,0,0-1.093.1A9.879,9.879,0,0,0,56.587,13.232ZM46.672,37.223a9.963,9.963,0,0,0,1.487-.124,9.949,9.949,0,0,0-1.487,2.331A9.949,9.949,0,0,0,45.186,37.1,9.963,9.963,0,0,0,46.672,37.223Zm0-5.018a9.949,9.949,0,0,0-1.487-2.331,8.992,8.992,0,0,0,2.973,0A9.949,9.949,0,0,0,46.672,32.2Zm0-7.225a9.949,9.949,0,0,0-1.487-2.331,8.992,8.992,0,0,0,2.973,0A9.949,9.949,0,0,0,46.672,24.98Zm0-7.225a9.955,9.955,0,0,0-1.681-2.545,4.356,4.356,0,0,0,3.362,0A9.935,9.935,0,0,0,46.672,17.754ZM54.745,13.8a8.143,8.143,0,0,1-7.112,7.112A8.141,8.141,0,0,1,54.745,13.8ZM46.672,7.5c1.042,2.105,1.907,4.678,1.319,5.718-.073.128-.3.521-1.319.521s-1.245-.393-1.319-.521C44.765,12.179,45.63,9.607,46.672,7.5ZM45.713,20.91A8.143,8.143,0,0,1,38.6,13.8,8.143,8.143,0,0,1,45.713,20.91Zm0,7.225A8.143,8.143,0,0,1,38.6,21.023,8.143,8.143,0,0,1,45.713,28.135Zm0,7.225A8.143,8.143,0,0,1,38.6,28.248,8.143,8.143,0,0,1,45.713,35.36Zm-7.112.113a8.143,8.143,0,0,1,7.112,7.112A8.143,8.143,0,0,1,38.6,35.473Zm9.031,7.112a8.143,8.143,0,0,1,7.112-7.112A8.145,8.145,0,0,1,47.632,42.586Zm0-7.225a8.143,8.143,0,0,1,7.112-7.112A8.145,8.145,0,0,1,47.632,35.36Zm0-7.225a8.143,8.143,0,0,1,7.112-7.112A8.145,8.145,0,0,1,47.632,28.135Z" transform="translate(-16.41 12.629)"/><path class="a" d="M56.587,13.232l2.465-2.465L57.775,9.49,55.31,11.954a9.868,9.868,0,0,0-5.725,2.1c1.362-2.524-1.2-7.3-2.009-8.693V2H45.769V5.366c-.812,1.394-3.371,6.168-2.009,8.693a9.868,9.868,0,0,0-5.725-2.1L35.57,9.49l-1.277,1.277,2.465,2.465a9.879,9.879,0,0,0,2.37,6.052,9.883,9.883,0,0,0-1.093-.1L35.57,16.715l-1.277,1.277,2.465,2.465a9.879,9.879,0,0,0,2.37,6.052,9.883,9.883,0,0,0-1.093-.1L35.57,23.94l-1.277,1.277,2.465,2.465a9.879,9.879,0,0,0,2.37,6.052,9.882,9.882,0,0,0-1.093-.1L35.57,31.165l-1.277,1.277,2.465,2.465A9.938,9.938,0,0,0,45.769,44.4V56.189h1.806V44.4a9.938,9.938,0,0,0,9.012-9.495l2.465-2.465-1.277-1.277L55.31,33.63a9.881,9.881,0,0,0-1.093.1,9.884,9.884,0,0,0,2.37-6.052l2.465-2.465L57.775,23.94,55.31,26.4a9.884,9.884,0,0,0-1.093.1,9.884,9.884,0,0,0,2.37-6.052l2.465-2.465-1.277-1.277L55.31,19.18a9.884,9.884,0,0,0-1.093.1A9.879,9.879,0,0,0,56.587,13.232ZM46.672,37.223a9.963,9.963,0,0,0,1.487-.124,9.949,9.949,0,0,0-1.487,2.331A9.949,9.949,0,0,0,45.186,37.1,9.963,9.963,0,0,0,46.672,37.223Zm0-5.018a9.949,9.949,0,0,0-1.487-2.331,8.992,8.992,0,0,0,2.973,0A9.949,9.949,0,0,0,46.672,32.2Zm0-7.225a9.949,9.949,0,0,0-1.487-2.331,8.992,8.992,0,0,0,2.973,0A9.949,9.949,0,0,0,46.672,24.98Zm0-7.225a9.955,9.955,0,0,0-1.681-2.545,4.356,4.356,0,0,0,3.362,0A9.935,9.935,0,0,0,46.672,17.754ZM54.745,13.8a8.143,8.143,0,0,1-7.112,7.112A8.141,8.141,0,0,1,54.745,13.8ZM46.672,7.5c1.042,2.105,1.907,4.678,1.319,5.718-.073.128-.3.521-1.319.521s-1.245-.393-1.319-.521C44.765,12.179,45.63,9.607,46.672,7.5ZM45.713,20.91A8.143,8.143,0,0,1,38.6,13.8,8.143,8.143,0,0,1,45.713,20.91Zm0,7.225A8.143,8.143,0,0,1,38.6,21.023,8.143,8.143,0,0,1,45.713,28.135Zm0,7.225A8.143,8.143,0,0,1,38.6,28.248,8.143,8.143,0,0,1,45.713,35.36Zm-7.112.113a8.143,8.143,0,0,1,7.112,7.112A8.143,8.143,0,0,1,38.6,35.473Zm9.031,7.112a8.143,8.143,0,0,1,7.112-7.112A8.145,8.145,0,0,1,47.632,42.586Zm0-7.225a8.143,8.143,0,0,1,7.112-7.112A8.145,8.145,0,0,1,47.632,35.36Zm0-7.225a8.143,8.143,0,0,1,7.112-7.112A8.145,8.145,0,0,1,47.632,28.135Z" transform="translate(8.59 12.629)"/><path class="a" d="M56.587,13.232l2.465-2.465L57.775,9.49,55.31,11.954a9.868,9.868,0,0,0-5.725,2.1c1.362-2.524-1.2-7.3-2.009-8.693V2H45.769V5.366c-.812,1.394-3.371,6.168-2.009,8.693a9.868,9.868,0,0,0-5.725-2.1L35.57,9.49l-1.277,1.277,2.465,2.465a9.879,9.879,0,0,0,2.37,6.052,9.883,9.883,0,0,0-1.093-.1L35.57,16.715l-1.277,1.277,2.465,2.465a9.879,9.879,0,0,0,2.37,6.052,9.883,9.883,0,0,0-1.093-.1L35.57,23.94l-1.277,1.277,2.465,2.465a9.879,9.879,0,0,0,2.37,6.052,9.882,9.882,0,0,0-1.093-.1L35.57,31.165l-1.277,1.277,2.465,2.465A9.938,9.938,0,0,0,45.769,44.4V56.189h1.806V44.4a9.938,9.938,0,0,0,9.012-9.495l2.465-2.465-1.277-1.277L55.31,33.63a9.881,9.881,0,0,0-1.093.1,9.884,9.884,0,0,0,2.37-6.052l2.465-2.465L57.775,23.94,55.31,26.4a9.884,9.884,0,0,0-1.093.1,9.884,9.884,0,0,0,2.37-6.052l2.465-2.465-1.277-1.277L55.31,19.18a9.884,9.884,0,0,0-1.093.1A9.879,9.879,0,0,0,56.587,13.232ZM46.672,37.223a9.963,9.963,0,0,0,1.487-.124,9.949,9.949,0,0,0-1.487,2.331A9.949,9.949,0,0,0,45.186,37.1,9.963,9.963,0,0,0,46.672,37.223Zm0-5.018a9.949,9.949,0,0,0-1.487-2.331,8.992,8.992,0,0,0,2.973,0A9.949,9.949,0,0,0,46.672,32.2Zm0-7.225a9.949,9.949,0,0,0-1.487-2.331,8.992,8.992,0,0,0,2.973,0A9.949,9.949,0,0,0,46.672,24.98Zm0-7.225a9.955,9.955,0,0,0-1.681-2.545,4.356,4.356,0,0,0,3.362,0A9.935,9.935,0,0,0,46.672,17.754ZM54.745,13.8a8.143,8.143,0,0,1-7.112,7.112A8.141,8.141,0,0,1,54.745,13.8ZM46.672,7.5c1.042,2.105,1.907,4.678,1.319,5.718-.073.128-.3.521-1.319.521s-1.245-.393-1.319-.521C44.765,12.179,45.63,9.607,46.672,7.5ZM45.713,20.91A8.143,8.143,0,0,1,38.6,13.8,8.143,8.143,0,0,1,45.713,20.91Zm0,7.225A8.143,8.143,0,0,1,38.6,21.023,8.143,8.143,0,0,1,45.713,28.135Zm0,7.225A8.143,8.143,0,0,1,38.6,28.248,8.143,8.143,0,0,1,45.713,35.36Zm-7.112.113a8.143,8.143,0,0,1,7.112,7.112A8.143,8.143,0,0,1,38.6,35.473Zm9.031,7.112a8.143,8.143,0,0,1,7.112-7.112A8.145,8.145,0,0,1,47.632,42.586Zm0-7.225a8.143,8.143,0,0,1,7.112-7.112A8.145,8.145,0,0,1,47.632,35.36Zm0-7.225a8.143,8.143,0,0,1,7.112-7.112A8.145,8.145,0,0,1,47.632,28.135Z" transform="translate(33.59 12.629)"/></g></g></g><g transform="translate(1337.501 3146.544)"><path class="a" d="M105.21,62.694h4.5a1.741,1.741,0,1,0,0-3.483h-4.5l-3.4-3.4a12.272,12.272,0,0,0-2.333-1.829,12.272,12.272,0,0,0,2.333-1.829l3.4-3.4h4.5a1.741,1.741,0,1,0,0-3.483h-4.5l-3.4-3.4a12.111,12.111,0,0,0-8.62-3.57H88.815V14.624a13.741,13.741,0,0,0,3.483-9.1V1.742A1.742,1.742,0,0,0,90.556,0H86.777a13.742,13.742,0,0,0-9.1,3.483H33.779A13.742,13.742,0,0,0,24.676,0H20.9a1.742,1.742,0,0,0-1.741,1.741V5.521a13.741,13.741,0,0,0,3.483,9.1V38.313H18.259a12.111,12.111,0,0,0-8.62,3.57l-3.4,3.4h-4.5a1.741,1.741,0,1,0,0,3.483h4.5l3.4,3.4a12.273,12.273,0,0,0,2.333,1.829,12.272,12.272,0,0,0-2.333,1.829l-3.4,3.4h-4.5a1.741,1.741,0,0,0,0,3.483h4.5l3.4,3.4a12.274,12.274,0,0,0,2.333,1.829,12.275,12.275,0,0,0-2.333,1.829l-3.4,3.4h-4.5a1.741,1.741,0,1,0,0,3.483h4.5l3.4,3.4a12.273,12.273,0,0,0,2.334,1.829,12.29,12.29,0,0,0-2.339,1.833L6.244,87.074h-4.5a1.741,1.741,0,1,0,0,3.483h4.5l3.391,3.391a12.289,12.289,0,0,0,2.34,1.834,12.288,12.288,0,0,0-2.34,1.834l-3.391,3.391h-4.5a1.741,1.741,0,0,0,0,3.483h4.5l3.391,3.391a12.129,12.129,0,0,0,8.633,3.575H93.186a12.129,12.129,0,0,0,8.633-3.575l3.391-3.391h4.5a1.741,1.741,0,1,0,0-3.483h-4.5l-3.391-3.391a12.288,12.288,0,0,0-2.34-1.834,12.289,12.289,0,0,0,2.34-1.834l3.391-3.391h4.5a1.741,1.741,0,1,0,0-3.483h-4.5l-3.391-3.391a12.291,12.291,0,0,0-2.339-1.833,12.274,12.274,0,0,0,2.334-1.829l3.4-3.4h4.5a1.741,1.741,0,0,0,0-3.483h-4.5l-3.4-3.4a12.275,12.275,0,0,0-2.333-1.829,12.274,12.274,0,0,0,2.333-1.829ZM93.194,41.8a8.649,8.649,0,0,1,6.157,2.55l2.674,2.674-2.674,2.674a8.649,8.649,0,0,1-6.157,2.55H88.815V41.8Zm-51.4-34.83H69.659v6.966H41.795ZM22.639,3.483h2.037a10.223,10.223,0,0,1,7.18,2.973L33.6,8.2A1.742,1.742,0,0,0,36.57,6.966h1.741v8.707a1.742,1.742,0,0,0,1.741,1.741H71.4a1.742,1.742,0,0,0,1.741-1.741V6.966h1.741A1.742,1.742,0,0,0,77.856,8.2L79.6,6.456a10.223,10.223,0,0,1,7.18-2.973h2.037V5.521a10.223,10.223,0,0,1-2.973,7.18L84.1,14.442a1.741,1.741,0,0,0,1.232,2.973V87.074A1.741,1.741,0,0,0,84.1,90.047l1.741,1.741h0a9.937,9.937,0,0,1,2.578,4.442l.009.031a9.773,9.773,0,0,1,.385,2.7v2.038H86.777a10.223,10.223,0,0,1-7.18-2.973l-1.741-1.741a1.742,1.742,0,0,0-2.973,1.231H73.142V88.816A1.742,1.742,0,0,0,71.4,87.074H40.053a1.742,1.742,0,0,0-1.741,1.741v8.707H36.57A1.742,1.742,0,0,0,33.6,96.292l-1.741,1.741a10.223,10.223,0,0,1-7.18,2.973H22.638V98.969a9.773,9.773,0,0,1,.385-2.7l.009-.031A9.937,9.937,0,0,1,25.61,91.79h0l1.741-1.741a1.741,1.741,0,0,0-1.231-2.973V17.415a1.741,1.741,0,0,0,1.231-2.973L25.611,12.7a10.223,10.223,0,0,1-2.973-7.18Zm47.02,94.04H41.795V90.557H69.659ZM12.1,49.694,9.428,47.02,12.1,44.346a8.649,8.649,0,0,1,6.157-2.55h4.379V52.245H18.259a8.649,8.649,0,0,1-6.157-2.55Zm0,13.932L9.428,60.952,12.1,58.278a8.649,8.649,0,0,1,6.157-2.55h4.379V66.177H18.259a8.649,8.649,0,0,1-6.157-2.55Zm0,13.932L9.428,74.884,12.1,72.21a8.649,8.649,0,0,1,6.157-2.55h4.379V80.108H18.259a8.649,8.649,0,0,1-6.157-2.55Zm0,13.927-2.67-2.669,2.67-2.669a8.667,8.667,0,0,1,6.17-2.555h4.371v6.273a13.452,13.452,0,0,0-2.548,4.176H18.267a8.667,8.667,0,0,1-6.17-2.555Zm87.258,8.593,2.67,2.669-2.67,2.669a8.667,8.667,0,0,1-6.17,2.555H18.268a8.667,8.667,0,0,1-6.17-2.555l-2.67-2.669,2.67-2.669a8.667,8.667,0,0,1,6.17-2.555h.969a13.12,13.12,0,0,0-.081,1.445v3.779a1.742,1.742,0,0,0,1.741,1.741h3.779a13.742,13.742,0,0,0,9.1-3.483H77.674a13.742,13.742,0,0,0,9.1,3.483h3.779a1.742,1.742,0,0,0,1.741-1.741V98.969a13.12,13.12,0,0,0-.081-1.445h.969a8.667,8.667,0,0,1,6.17,2.555Zm2.67-11.262-2.67,2.669a8.667,8.667,0,0,1-6.17,2.555H91.363a13.452,13.452,0,0,0-2.548-4.176V83.591h4.371a8.667,8.667,0,0,1,6.17,2.555ZM99.351,72.21l2.674,2.674-2.674,2.674a8.649,8.649,0,0,1-6.157,2.55H88.815V69.659h4.379A8.649,8.649,0,0,1,99.351,72.21ZM88.815,66.177V55.728h4.379a8.649,8.649,0,0,1,6.157,2.55l2.674,2.674-2.674,2.674a8.649,8.649,0,0,1-6.157,2.55Z"/><path class="a" d="M177.741,99.483h31.347a1.741,1.741,0,1,0,0-3.483H177.741a1.741,1.741,0,1,0,0,3.483Z" transform="translate(-137.688 -75.102)"/><path class="a" d="M177.741,131.483h31.347a1.741,1.741,0,1,0,0-3.483H177.741a1.741,1.741,0,1,0,0,3.483Z" transform="translate(-137.688 -100.136)"/><path class="a" d="M52,10.921l1.958-1.958L52.943,7.949,50.986,9.906a7.838,7.838,0,0,0-4.547,1.671c1.082-2-.951-5.8-1.6-6.9V2H43.408V4.673c-.645,1.108-2.678,4.9-1.6,6.9a7.838,7.838,0,0,0-4.547-1.671L35.307,7.949,34.293,8.963l1.958,1.958a7.846,7.846,0,0,0,1.882,4.807,7.85,7.85,0,0,0-.868-.082l-1.958-1.958L34.293,14.7l1.958,1.958a7.846,7.846,0,0,0,1.882,4.807,7.85,7.85,0,0,0-.868-.082l-1.958-1.958L34.293,20.44,36.251,22.4A7.846,7.846,0,0,0,38.133,27.2a7.849,7.849,0,0,0-.868-.082l-1.958-1.958-1.014,1.014,1.958,1.958a7.893,7.893,0,0,0,7.157,7.541v9.362h1.435V35.677A7.893,7.893,0,0,0,52,28.136l1.958-1.958-1.014-1.014-1.958,1.958a7.848,7.848,0,0,0-.868.082A7.85,7.85,0,0,0,52,22.4l1.958-1.958-1.014-1.014-1.958,1.958a7.849,7.849,0,0,0-.868.082A7.85,7.85,0,0,0,52,16.659L53.958,14.7l-1.014-1.014-1.958,1.958a7.85,7.85,0,0,0-.868.082A7.846,7.846,0,0,0,52,10.921ZM44.125,29.975a7.912,7.912,0,0,0,1.181-.1,7.9,7.9,0,0,0-1.181,1.851,7.9,7.9,0,0,0-1.181-1.851A7.912,7.912,0,0,0,44.125,29.975Zm0-3.985a7.9,7.9,0,0,0-1.181-1.851,7.142,7.142,0,0,0,2.361,0A7.9,7.9,0,0,0,44.125,25.99Zm0-5.739A7.9,7.9,0,0,0,42.945,18.4a7.142,7.142,0,0,0,2.361,0A7.9,7.9,0,0,0,44.125,20.251Zm0-5.739a7.907,7.907,0,0,0-1.335-2.021,3.46,3.46,0,0,0,2.67,0A7.89,7.89,0,0,0,44.125,14.513Zm6.411-3.143a6.467,6.467,0,0,1-5.649,5.649A6.466,6.466,0,0,1,50.537,11.37Zm-6.411-5c.828,1.672,1.515,3.716,1.047,4.541-.058.1-.235.414-1.047.414s-.989-.312-1.047-.414C42.61,10.085,43.3,8.042,44.125,6.37Zm-.762,10.649a6.467,6.467,0,0,1-5.649-5.649A6.467,6.467,0,0,1,43.363,17.019Zm0,5.739a6.467,6.467,0,0,1-5.649-5.649A6.467,6.467,0,0,1,43.363,22.758Zm0,5.739a6.467,6.467,0,0,1-5.649-5.649A6.467,6.467,0,0,1,43.363,28.5Zm-5.649.09a6.467,6.467,0,0,1,5.649,5.649A6.467,6.467,0,0,1,37.715,28.586Zm7.173,5.649a6.467,6.467,0,0,1,5.649-5.649A6.469,6.469,0,0,1,44.888,34.235Zm0-5.739a6.467,6.467,0,0,1,5.649-5.649A6.469,6.469,0,0,1,44.888,28.5Zm0-5.739a6.467,6.467,0,0,1,5.649-5.649A6.469,6.469,0,0,1,44.888,22.758Z" transform="translate(11.159 36.503)"/></g><g transform="translate(1448.501 3166.983)"><path class="a" d="M85.916,51.2h3.677a1.422,1.422,0,1,0,0-2.844H85.916L83.143,45.58a10.022,10.022,0,0,0-1.905-1.493,10.022,10.022,0,0,0,1.905-1.493l2.773-2.773h3.677a1.422,1.422,0,1,0,0-2.844H85.916L83.143,34.2A9.89,9.89,0,0,0,76.1,31.287H72.528V11.942a11.221,11.221,0,0,0,2.844-7.434V1.422A1.422,1.422,0,0,0,73.95,0H70.864A11.222,11.222,0,0,0,63.43,2.845H27.585A11.222,11.222,0,0,0,20.151,0H17.065a1.422,1.422,0,0,0-1.422,1.422V4.508a11.221,11.221,0,0,0,2.844,7.434V31.287H14.91A9.89,9.89,0,0,0,7.871,34.2L5.1,36.976H1.421a1.422,1.422,0,1,0,0,2.844H5.1l2.773,2.773a10.022,10.022,0,0,0,1.905,1.493A10.022,10.022,0,0,0,7.871,45.58L5.1,48.353H1.421a1.422,1.422,0,0,0,0,2.844H5.1L7.871,53.97a10.023,10.023,0,0,0,1.905,1.493,10.024,10.024,0,0,0-1.905,1.493L5.1,59.73H1.421a1.422,1.422,0,0,0,0,2.844H5.1l2.773,2.773a10.022,10.022,0,0,0,1.906,1.494,10.036,10.036,0,0,0-1.91,1.5L5.1,71.107H1.421a1.422,1.422,0,1,0,0,2.844H5.1L7.868,76.72a10.035,10.035,0,0,0,1.911,1.5,10.035,10.035,0,0,0-1.911,1.5L5.1,82.484H1.421a1.422,1.422,0,0,0,0,2.844H5.1L7.868,88.1a9.9,9.9,0,0,0,7.05,2.919H76.1a9.9,9.9,0,0,0,7.05-2.919l2.769-2.769h3.677a1.422,1.422,0,1,0,0-2.844H85.916l-2.769-2.769a10.035,10.035,0,0,0-1.911-1.5,10.035,10.035,0,0,0,1.911-1.5l2.769-2.769h3.677a1.422,1.422,0,1,0,0-2.844H85.916l-2.769-2.769a10.037,10.037,0,0,0-1.91-1.5,10.023,10.023,0,0,0,1.906-1.494l2.773-2.773h3.677a1.422,1.422,0,0,0,0-2.844H85.916l-2.773-2.773a10.024,10.024,0,0,0-1.905-1.493,10.023,10.023,0,0,0,1.905-1.493ZM76.1,34.131a7.063,7.063,0,0,1,5.028,2.083L83.316,38.4l-2.184,2.184A7.063,7.063,0,0,1,76.1,42.664H72.528V34.131ZM34.13,5.689H56.884v5.689H34.13ZM18.487,2.844h1.664a8.349,8.349,0,0,1,5.863,2.428l1.422,1.422a1.422,1.422,0,0,0,2.428-1.006h1.422V12.8a1.422,1.422,0,0,0,1.422,1.422h25.6A1.422,1.422,0,0,0,59.729,12.8V5.689h1.422a1.422,1.422,0,0,0,2.428,1.006L65,5.272a8.349,8.349,0,0,1,5.863-2.428h1.664V4.508A8.348,8.348,0,0,1,70.1,10.372l-1.422,1.422a1.422,1.422,0,0,0,1.006,2.428V71.107a1.422,1.422,0,0,0-1.006,2.428L70.1,74.957h0a8.115,8.115,0,0,1,2.105,3.628l.007.026a7.981,7.981,0,0,1,.314,2.209v1.664H70.864A8.349,8.349,0,0,1,65,80.056l-1.422-1.422a1.422,1.422,0,0,0-2.428,1.006H59.729V72.529a1.422,1.422,0,0,0-1.422-1.422h-25.6a1.422,1.422,0,0,0-1.422,1.422V79.64H29.864a1.422,1.422,0,0,0-2.428-1.006l-1.422,1.422a8.349,8.349,0,0,1-5.863,2.428H18.487V80.82a7.981,7.981,0,0,1,.314-2.209l.007-.026a8.115,8.115,0,0,1,2.105-3.628h0l1.422-1.422a1.422,1.422,0,0,0-1.006-2.428V14.222a1.422,1.422,0,0,0,1.006-2.428l-1.422-1.422a8.348,8.348,0,0,1-2.428-5.863Zm38.4,76.8H34.13V73.951H56.884Zm-47-39.058L7.7,38.4l2.184-2.184a7.063,7.063,0,0,1,5.028-2.083h3.576v8.533H14.911a7.063,7.063,0,0,1-5.028-2.083Zm0,11.377L7.7,49.775l2.184-2.184a7.063,7.063,0,0,1,5.028-2.083h3.576v8.533H14.911a7.063,7.063,0,0,1-5.028-2.083Zm0,11.377L7.7,61.152l2.184-2.184a7.063,7.063,0,0,1,5.028-2.083h3.576v8.533H14.911a7.063,7.063,0,0,1-5.028-2.083Zm0,11.373L7.7,72.529l2.18-2.18a7.078,7.078,0,0,1,5.038-2.086h3.57v5.123a10.985,10.985,0,0,0-2.08,3.41H14.917a7.078,7.078,0,0,1-5.038-2.087Zm71.257,7.017,2.18,2.18-2.18,2.18A7.078,7.078,0,0,1,76.1,88.172H14.917a7.078,7.078,0,0,1-5.038-2.087L7.7,83.906l2.18-2.18a7.078,7.078,0,0,1,5.038-2.086h.791a10.714,10.714,0,0,0-.066,1.18v3.086a1.422,1.422,0,0,0,1.422,1.422h3.086a11.222,11.222,0,0,0,7.434-2.844H63.43a11.222,11.222,0,0,0,7.434,2.844H73.95a1.422,1.422,0,0,0,1.422-1.422V80.82a10.714,10.714,0,0,0-.066-1.18H76.1a7.078,7.078,0,0,1,5.038,2.086Zm2.18-9.2-2.18,2.18A7.078,7.078,0,0,1,76.1,76.8H74.608a10.985,10.985,0,0,0-2.08-3.41V68.263H76.1a7.078,7.078,0,0,1,5.038,2.086ZM81.132,58.968l2.184,2.184-2.184,2.184A7.063,7.063,0,0,1,76.1,65.418H72.528V56.885H76.1A7.063,7.063,0,0,1,81.132,58.968Zm-8.6-4.927V45.508H76.1a7.063,7.063,0,0,1,5.028,2.083l2.184,2.184-2.184,2.184A7.063,7.063,0,0,1,76.1,54.041Z" transform="translate(0)"/><path class="a" d="M177.422,98.844h25.6a1.422,1.422,0,1,0,0-2.844h-25.6a1.422,1.422,0,1,0,0,2.844Z" transform="translate(-144.714 -78.934)"/><path class="a" d="M177.422,130.844h25.6a1.422,1.422,0,1,0,0-2.844h-25.6a1.422,1.422,0,1,0,0,2.844Z" transform="translate(-144.714 -105.246)"/><path class="a" d="M48.753,9.285l1.6-1.6-.828-.828-1.6,1.6a6.4,6.4,0,0,0-3.713,1.365c.883-1.637-.777-4.734-1.3-5.638V2H41.736V4.183c-.527.9-2.187,4-1.3,5.638A6.4,6.4,0,0,0,36.72,8.456l-1.6-1.6-.828.828,1.6,1.6a6.407,6.407,0,0,0,1.537,3.925,6.411,6.411,0,0,0-.709-.067l-1.6-1.6-.828.828,1.6,1.6A6.407,6.407,0,0,0,37.429,17.9a6.411,6.411,0,0,0-.709-.067l-1.6-1.6-.828.828,1.6,1.6a6.407,6.407,0,0,0,1.537,3.925,6.409,6.409,0,0,0-.709-.067l-1.6-1.6-.828.828,1.6,1.6A6.445,6.445,0,0,0,41.736,29.5v7.645h1.172V29.5a6.445,6.445,0,0,0,5.845-6.158l1.6-1.6-.828-.828-1.6,1.6a6.409,6.409,0,0,0-.709.067,6.411,6.411,0,0,0,1.537-3.925l1.6-1.6-.828-.828-1.6,1.6a6.41,6.41,0,0,0-.709.067,6.411,6.411,0,0,0,1.537-3.925l1.6-1.6-.828-.828-1.6,1.6a6.411,6.411,0,0,0-.709.067A6.407,6.407,0,0,0,48.753,9.285ZM42.322,24.845a6.462,6.462,0,0,0,.964-.08,6.453,6.453,0,0,0-.964,1.512,6.453,6.453,0,0,0-.964-1.512A6.461,6.461,0,0,0,42.322,24.845Zm0-3.255a6.453,6.453,0,0,0-.964-1.512,5.832,5.832,0,0,0,1.928,0A6.453,6.453,0,0,0,42.322,21.591Zm0-4.686a6.453,6.453,0,0,0-.964-1.512,5.832,5.832,0,0,0,1.928,0A6.453,6.453,0,0,0,42.322,16.9Zm0-4.686a6.457,6.457,0,0,0-1.09-1.651,2.825,2.825,0,0,0,2.18,0A6.444,6.444,0,0,0,42.322,12.218Zm5.236-2.566a5.281,5.281,0,0,1-4.613,4.613A5.28,5.28,0,0,1,47.558,9.652ZM42.322,5.569C43,6.934,43.559,8.6,43.177,9.277c-.047.083-.192.338-.855.338s-.808-.255-.855-.338C41.085,8.6,41.646,6.934,42.322,5.569Zm-.622,8.7a5.281,5.281,0,0,1-4.613-4.613A5.281,5.281,0,0,1,41.7,14.265Zm0,4.686a5.281,5.281,0,0,1-4.613-4.613A5.281,5.281,0,0,1,41.7,18.951Zm0,4.686a5.281,5.281,0,0,1-4.613-4.613A5.281,5.281,0,0,1,41.7,23.637Zm-4.613.073A5.281,5.281,0,0,1,41.7,28.324,5.281,5.281,0,0,1,37.087,23.711Zm5.858,4.613a5.281,5.281,0,0,1,4.613-4.613A5.283,5.283,0,0,1,42.945,28.324Zm0-4.686a5.281,5.281,0,0,1,4.613-4.613A5.283,5.283,0,0,1,42.945,23.637Zm0-4.686a5.281,5.281,0,0,1,4.613-4.613A5.283,5.283,0,0,1,42.945,18.951Z" transform="translate(2.824 29.442)"/></g><line class="b" x2="233" transform="translate(678.5 3212.5)"/><line class="b" x2="200" transform="translate(1122.5 3212.5)"/></g></svg>