<svg xmlns="http://www.w3.org/2000/svg" width="50" height="50" viewBox="0 0 50 50"><defs><style>.a{fill:#f5a31a;}</style></defs><g transform="translate(-2 -2)"><path class="a" d="M14.5,44a.833.833,0,0,0,.833-.833v-10h2.5a.833.833,0,0,0,.833-.833V26.5A4.171,4.171,0,0,0,14.5,22.333h-.45a5,5,0,1,0-7.433,0h-.45A4.171,4.171,0,0,0,2,26.5v5.833a.833.833,0,0,0,.833.833h2.5v10A.833.833,0,0,0,6.167,44ZM7,19a3.333,3.333,0,1,1,3.333,3.333A3.337,3.337,0,0,1,7,19ZM9.5,33.167v9.167H7V26.5H5.333v5H3.667v-5a2.5,2.5,0,0,1,2.5-2.5H14.5A2.5,2.5,0,0,1,17,26.5v5H15.333v-5H13.667V42.333h-2.5V33.167Z" transform="translate(0 -2)"/><path class="a" d="M54.5,22.333h-.45a5,5,0,1,0-7.433,0h-.45A4.171,4.171,0,0,0,42,26.5v5.833a.833.833,0,0,0,.833.833h2.5v10a.833.833,0,0,0,.833.833H54.5a.833.833,0,0,0,.833-.833v-10h2.5a.833.833,0,0,0,.833-.833V26.5A4.171,4.171,0,0,0,54.5,22.333ZM47,19a3.333,3.333,0,1,1,3.333,3.333A3.337,3.337,0,0,1,47,19ZM57,31.5H55.333v-5H53.667V42.333h-2.5V33.167H49.5v9.167H47V26.5H45.333v5H43.667v-5a2.5,2.5,0,0,1,2.5-2.5H54.5A2.5,2.5,0,0,1,57,26.5Z" transform="translate(-6.667 -2)"/><path class="a" d="M46.667,6.167V7.488L44.756,5.578,43.577,6.756l3.333,3.333a.833.833,0,0,0,1.178,0l3.333-3.333L50.244,5.578,48.333,7.488V6.167A4.171,4.171,0,0,0,44.167,2H25V3.667H44.167a2.5,2.5,0,0,1,2.5,2.5Z" transform="translate(-3.833 0)"/><path class="a" d="M12.667,6.167a2.5,2.5,0,0,1,2.5-2.5H21V2H15.167A4.171,4.171,0,0,0,11,6.167v4.167h1.667Z" transform="translate(-1.5)"/><path class="a" d="M12.049,56.167V54.845l1.911,1.911,1.178-1.178L11.8,52.244a.832.832,0,0,0-1.178,0L7.293,55.577l1.178,1.178,1.911-1.911v1.322a4.171,4.171,0,0,0,4.167,4.167H30.382V58.667H14.549A2.5,2.5,0,0,1,12.049,56.167Z" transform="translate(-0.882 -8.333)"/><path class="a" d="M37,60h1.667v1.667H37Z" transform="translate(-5.833 -9.667)"/><path class="a" d="M49.333,56.167a2.5,2.5,0,0,1-2.5,2.5H41v1.667h5.833A4.171,4.171,0,0,0,51,56.167V52H49.333Z" transform="translate(-6.5 -8.333)"/></g></svg>