<svg xmlns="http://www.w3.org/2000/svg" xmlns:xlink="http://www.w3.org/1999/xlink" width="1028.817" height="120.955" viewBox="0 0 1028.817 120.955"><defs><style>.a{fill:none;}.b{clip-path:url(#a);}.c{fill:#fad391;}</style><clipPath id="a"><rect class="a" width="1028.817" height="120.955"/></clipPath></defs><g class="b"><g transform="translate(-2.293 36.187)"><path class="c" d="M19.822,66.764v18h2.759v-18a15.179,15.179,0,0,0,13.764-14.5L40.11,48.5l-1.951-1.951-3.765,3.765a15.094,15.094,0,0,0-1.669.159,15.1,15.1,0,0,0,3.62-9.244l3.765-3.765-1.951-1.951-3.765,3.765a15.1,15.1,0,0,0-1.669.159,15.1,15.1,0,0,0,3.62-9.244l3.765-3.765-1.951-1.951L34.394,28.24a15.1,15.1,0,0,0-1.669.159,15.1,15.1,0,0,0,3.62-9.244L40.11,15.39,38.159,13.44,34.394,17.2a15.072,15.072,0,0,0-8.744,3.214c2.08-3.856-1.829-11.147-3.069-13.277V2H19.822V7.141c-1.24,2.13-5.15,9.422-3.069,13.277A15.072,15.072,0,0,0,8.008,17.2L4.244,13.44,2.293,15.39l3.765,3.765A15.089,15.089,0,0,0,9.677,28.4a15.1,15.1,0,0,0-1.669-.159L4.244,24.476,2.293,26.426l3.765,3.765a15.089,15.089,0,0,0,3.62,9.244,15.1,15.1,0,0,0-1.669-.159L4.244,35.511,2.293,37.462l3.765,3.765a15.089,15.089,0,0,0,3.62,9.244,15.1,15.1,0,0,0-1.669-.159L4.244,46.547,2.293,48.5l3.765,3.765a15.179,15.179,0,0,0,13.764,14.5Zm1.379-40.7a15.206,15.206,0,0,0-2.567-3.887,5.962,5.962,0,0,0,2.567.516,5.984,5.984,0,0,0,2.567-.515A15.174,15.174,0,0,0,21.2,26.063Zm0,7.664a15.218,15.218,0,0,0,2.271-.189A15.2,15.2,0,0,0,21.2,37.1a15.2,15.2,0,0,0-2.271-3.56A15.218,15.218,0,0,0,21.2,33.728Zm0,11.036a15.218,15.218,0,0,0,2.271-.189,15.2,15.2,0,0,0-2.271,3.56,15.2,15.2,0,0,0-2.271-3.56A15.218,15.218,0,0,0,21.2,44.763Zm0,11.036a15.217,15.217,0,0,0,2.271-.189A15.2,15.2,0,0,0,21.2,59.17a15.2,15.2,0,0,0-2.271-3.56A15.217,15.217,0,0,0,21.2,55.8Zm1.466,8.191A12.437,12.437,0,0,1,33.531,53.127,12.44,12.44,0,0,1,22.668,63.99Zm0-11.036A12.437,12.437,0,0,1,33.531,42.091,12.44,12.44,0,0,1,22.668,52.955Zm0-11.036A12.437,12.437,0,0,1,33.531,31.056,12.44,12.44,0,0,1,22.668,41.919Zm10.863-21.9A12.437,12.437,0,0,1,22.668,30.883,12.435,12.435,0,0,1,33.531,20.02ZM21.2,10.4c1.592,3.216,2.913,7.146,2.014,8.733-.112.2-.451.8-2.014.8s-1.9-.6-2.014-.8c-.9-1.589.422-5.518,2.014-8.733Zm-1.465,20.48A12.437,12.437,0,0,1,8.873,20.02,12.437,12.437,0,0,1,19.736,30.883Zm0,11.036A12.437,12.437,0,0,1,8.873,31.056,12.437,12.437,0,0,1,19.736,41.919Zm0,11.036A12.437,12.437,0,0,1,8.873,42.091,12.437,12.437,0,0,1,19.736,52.955Zm0,11.036A12.437,12.437,0,0,1,8.873,53.127,12.437,12.437,0,0,1,19.736,63.99Z" transform="translate(0 0)"/><path class="c" d="M19.822,66.764v18h2.759v-18a15.179,15.179,0,0,0,13.764-14.5L40.11,48.5l-1.951-1.951-3.765,3.765a15.094,15.094,0,0,0-1.669.159,15.1,15.1,0,0,0,3.62-9.244l3.765-3.765-1.951-1.951-3.765,3.765a15.1,15.1,0,0,0-1.669.159,15.1,15.1,0,0,0,3.62-9.244l3.765-3.765-1.951-1.951L34.394,28.24a15.1,15.1,0,0,0-1.669.159,15.1,15.1,0,0,0,3.62-9.244L40.11,15.39,38.159,13.44,34.394,17.2a15.072,15.072,0,0,0-8.744,3.214c2.08-3.856-1.829-11.147-3.069-13.277V2H19.822V7.141c-1.24,2.13-5.15,9.422-3.069,13.277A15.072,15.072,0,0,0,8.008,17.2L4.244,13.44,2.293,15.39l3.765,3.765A15.089,15.089,0,0,0,9.677,28.4a15.1,15.1,0,0,0-1.669-.159L4.244,24.476,2.293,26.426l3.765,3.765a15.089,15.089,0,0,0,3.62,9.244,15.1,15.1,0,0,0-1.669-.159L4.244,35.511,2.293,37.462l3.765,3.765a15.089,15.089,0,0,0,3.62,9.244,15.1,15.1,0,0,0-1.669-.159L4.244,46.547,2.293,48.5l3.765,3.765a15.179,15.179,0,0,0,13.764,14.5Zm1.379-40.7a15.206,15.206,0,0,0-2.567-3.887,5.962,5.962,0,0,0,2.567.516,5.984,5.984,0,0,0,2.567-.515A15.174,15.174,0,0,0,21.2,26.063Zm0,7.664a15.218,15.218,0,0,0,2.271-.189A15.2,15.2,0,0,0,21.2,37.1a15.2,15.2,0,0,0-2.271-3.56A15.218,15.218,0,0,0,21.2,33.728Zm0,11.036a15.218,15.218,0,0,0,2.271-.189,15.2,15.2,0,0,0-2.271,3.56,15.2,15.2,0,0,0-2.271-3.56A15.218,15.218,0,0,0,21.2,44.763Zm0,11.036a15.217,15.217,0,0,0,2.271-.189A15.2,15.2,0,0,0,21.2,59.17a15.2,15.2,0,0,0-2.271-3.56A15.217,15.217,0,0,0,21.2,55.8Zm1.466,8.191A12.437,12.437,0,0,1,33.531,53.127,12.44,12.44,0,0,1,22.668,63.99Zm0-11.036A12.437,12.437,0,0,1,33.531,42.091,12.44,12.44,0,0,1,22.668,52.955Zm0-11.036A12.437,12.437,0,0,1,33.531,31.056,12.44,12.44,0,0,1,22.668,41.919Zm10.863-21.9A12.437,12.437,0,0,1,22.668,30.883,12.435,12.435,0,0,1,33.531,20.02ZM21.2,10.4c1.592,3.216,2.913,7.146,2.014,8.733-.112.2-.451.8-2.014.8s-1.9-.6-2.014-.8c-.9-1.589.422-5.518,2.014-8.733Zm-1.465,20.48A12.437,12.437,0,0,1,8.873,20.02,12.437,12.437,0,0,1,19.736,30.883Zm0,11.036A12.437,12.437,0,0,1,8.873,31.056,12.437,12.437,0,0,1,19.736,41.919Zm0,11.036A12.437,12.437,0,0,1,8.873,42.091,12.437,12.437,0,0,1,19.736,52.955Zm0,11.036A12.437,12.437,0,0,1,8.873,53.127,12.437,12.437,0,0,1,19.736,63.99Z" transform="translate(106 0)"/><path class="c" d="M84.056,27.07l5.5-5.5-2.851-2.851-5.5,5.5a22.027,22.027,0,0,0-12.779,4.7c3.04-5.634-2.673-16.291-4.485-19.4V2H59.909V9.513c-1.812,3.113-7.525,13.769-4.485,19.4a22.026,22.026,0,0,0-12.779-4.7l-5.5-5.5-2.851,2.851,5.5,5.5a22.05,22.05,0,0,0,5.29,13.509,22.061,22.061,0,0,0-2.439-.232l-5.5-5.5L34.293,37.7l5.5,5.5a22.05,22.05,0,0,0,5.29,13.509,22.061,22.061,0,0,0-2.439-.232l-5.5-5.5-2.851,2.851,5.5,5.5a22.05,22.05,0,0,0,5.29,13.509,22.059,22.059,0,0,0-2.439-.232l-5.5-5.5-2.851,2.851,5.5,5.5A22.182,22.182,0,0,0,59.909,96.645v26.31h4.032V96.645A22.182,22.182,0,0,0,84.056,75.452l5.5-5.5L86.707,67.1l-5.5,5.5a22.057,22.057,0,0,0-2.439.232,22.062,22.062,0,0,0,5.29-13.509l5.5-5.5-2.851-2.851-5.5,5.5a22.06,22.06,0,0,0-2.439.232A22.062,22.062,0,0,0,84.056,43.2l5.5-5.5-2.851-2.851-5.5,5.5a22.062,22.062,0,0,0-2.439.232A22.05,22.05,0,0,0,84.056,27.07ZM61.925,80.621a22.238,22.238,0,0,0,3.318-.276,22.207,22.207,0,0,0-3.318,5.2,22.207,22.207,0,0,0-3.318-5.2A22.238,22.238,0,0,0,61.925,80.621Zm0-11.2a22.207,22.207,0,0,0-3.318-5.2,20.071,20.071,0,0,0,6.636,0A22.207,22.207,0,0,0,61.925,69.42Zm0-16.127a22.207,22.207,0,0,0-3.318-5.2,20.072,20.072,0,0,0,6.636,0A22.207,22.207,0,0,0,61.925,53.293Zm0-16.127a22.221,22.221,0,0,0-3.752-5.681,9.723,9.723,0,0,0,7.5,0A22.175,22.175,0,0,0,61.925,37.166Zm18.018-8.832A18.176,18.176,0,0,1,64.068,44.209,18.172,18.172,0,0,1,79.943,28.334ZM61.925,14.281c2.326,4.7,4.258,10.442,2.943,12.763-.163.286-.659,1.163-2.943,1.163s-2.78-.877-2.943-1.163C57.668,24.721,59.6,18.98,61.925,14.281ZM59.784,44.209A18.176,18.176,0,0,1,43.909,28.334,18.176,18.176,0,0,1,59.784,44.209Zm0,16.127A18.176,18.176,0,0,1,43.909,44.461,18.176,18.176,0,0,1,59.784,60.337Zm0,16.127A18.176,18.176,0,0,1,43.909,60.589,18.176,18.176,0,0,1,59.784,76.464Zm-15.875.252A18.176,18.176,0,0,1,59.784,92.591,18.176,18.176,0,0,1,43.909,76.716ZM64.068,92.591A18.176,18.176,0,0,1,79.943,76.716,18.18,18.18,0,0,1,64.068,92.591Zm0-16.127A18.176,18.176,0,0,1,79.943,60.589,18.18,18.18,0,0,1,64.068,76.464Zm0-16.127A18.176,18.176,0,0,1,79.943,44.461,18.18,18.18,0,0,1,64.068,60.337Z" transform="translate(12.143 -38.187)"/></g><g transform="translate(161.707 36.187)"><path class="c" d="M19.822,66.764v18h2.759v-18a15.179,15.179,0,0,0,13.764-14.5L40.11,48.5l-1.951-1.951-3.765,3.765a15.094,15.094,0,0,0-1.669.159,15.1,15.1,0,0,0,3.62-9.244l3.765-3.765-1.951-1.951-3.765,3.765a15.1,15.1,0,0,0-1.669.159,15.1,15.1,0,0,0,3.62-9.244l3.765-3.765-1.951-1.951L34.394,28.24a15.1,15.1,0,0,0-1.669.159,15.1,15.1,0,0,0,3.62-9.244L40.11,15.39,38.159,13.44,34.394,17.2a15.072,15.072,0,0,0-8.744,3.214c2.08-3.856-1.829-11.147-3.069-13.277V2H19.822V7.141c-1.24,2.13-5.15,9.422-3.069,13.277A15.072,15.072,0,0,0,8.008,17.2L4.244,13.44,2.293,15.39l3.765,3.765A15.089,15.089,0,0,0,9.677,28.4a15.1,15.1,0,0,0-1.669-.159L4.244,24.476,2.293,26.426l3.765,3.765a15.089,15.089,0,0,0,3.62,9.244,15.1,15.1,0,0,0-1.669-.159L4.244,35.511,2.293,37.462l3.765,3.765a15.089,15.089,0,0,0,3.62,9.244,15.1,15.1,0,0,0-1.669-.159L4.244,46.547,2.293,48.5l3.765,3.765a15.179,15.179,0,0,0,13.764,14.5Zm1.379-40.7a15.206,15.206,0,0,0-2.567-3.887,5.962,5.962,0,0,0,2.567.516,5.984,5.984,0,0,0,2.567-.515A15.174,15.174,0,0,0,21.2,26.063Zm0,7.664a15.218,15.218,0,0,0,2.271-.189A15.2,15.2,0,0,0,21.2,37.1a15.2,15.2,0,0,0-2.271-3.56A15.218,15.218,0,0,0,21.2,33.728Zm0,11.036a15.218,15.218,0,0,0,2.271-.189,15.2,15.2,0,0,0-2.271,3.56,15.2,15.2,0,0,0-2.271-3.56A15.218,15.218,0,0,0,21.2,44.763Zm0,11.036a15.217,15.217,0,0,0,2.271-.189A15.2,15.2,0,0,0,21.2,59.17a15.2,15.2,0,0,0-2.271-3.56A15.217,15.217,0,0,0,21.2,55.8Zm1.466,8.191A12.437,12.437,0,0,1,33.531,53.127,12.44,12.44,0,0,1,22.668,63.99Zm0-11.036A12.437,12.437,0,0,1,33.531,42.091,12.44,12.44,0,0,1,22.668,52.955Zm0-11.036A12.437,12.437,0,0,1,33.531,31.056,12.44,12.44,0,0,1,22.668,41.919Zm10.863-21.9A12.437,12.437,0,0,1,22.668,30.883,12.435,12.435,0,0,1,33.531,20.02ZM21.2,10.4c1.592,3.216,2.913,7.146,2.014,8.733-.112.2-.451.8-2.014.8s-1.9-.6-2.014-.8c-.9-1.589.422-5.518,2.014-8.733Zm-1.465,20.48A12.437,12.437,0,0,1,8.873,20.02,12.437,12.437,0,0,1,19.736,30.883Zm0,11.036A12.437,12.437,0,0,1,8.873,31.056,12.437,12.437,0,0,1,19.736,41.919Zm0,11.036A12.437,12.437,0,0,1,8.873,42.091,12.437,12.437,0,0,1,19.736,52.955Zm0,11.036A12.437,12.437,0,0,1,8.873,53.127,12.437,12.437,0,0,1,19.736,63.99Z" transform="translate(0 0)"/><path class="c" d="M19.822,66.764v18h2.759v-18a15.179,15.179,0,0,0,13.764-14.5L40.11,48.5l-1.951-1.951-3.765,3.765a15.094,15.094,0,0,0-1.669.159,15.1,15.1,0,0,0,3.62-9.244l3.765-3.765-1.951-1.951-3.765,3.765a15.1,15.1,0,0,0-1.669.159,15.1,15.1,0,0,0,3.62-9.244l3.765-3.765-1.951-1.951L34.394,28.24a15.1,15.1,0,0,0-1.669.159,15.1,15.1,0,0,0,3.62-9.244L40.11,15.39,38.159,13.44,34.394,17.2a15.072,15.072,0,0,0-8.744,3.214c2.08-3.856-1.829-11.147-3.069-13.277V2H19.822V7.141c-1.24,2.13-5.15,9.422-3.069,13.277A15.072,15.072,0,0,0,8.008,17.2L4.244,13.44,2.293,15.39l3.765,3.765A15.089,15.089,0,0,0,9.677,28.4a15.1,15.1,0,0,0-1.669-.159L4.244,24.476,2.293,26.426l3.765,3.765a15.089,15.089,0,0,0,3.62,9.244,15.1,15.1,0,0,0-1.669-.159L4.244,35.511,2.293,37.462l3.765,3.765a15.089,15.089,0,0,0,3.62,9.244,15.1,15.1,0,0,0-1.669-.159L4.244,46.547,2.293,48.5l3.765,3.765a15.179,15.179,0,0,0,13.764,14.5Zm1.379-40.7a15.206,15.206,0,0,0-2.567-3.887,5.962,5.962,0,0,0,2.567.516,5.984,5.984,0,0,0,2.567-.515A15.174,15.174,0,0,0,21.2,26.063Zm0,7.664a15.218,15.218,0,0,0,2.271-.189A15.2,15.2,0,0,0,21.2,37.1a15.2,15.2,0,0,0-2.271-3.56A15.218,15.218,0,0,0,21.2,33.728Zm0,11.036a15.218,15.218,0,0,0,2.271-.189,15.2,15.2,0,0,0-2.271,3.56,15.2,15.2,0,0,0-2.271-3.56A15.218,15.218,0,0,0,21.2,44.763Zm0,11.036a15.217,15.217,0,0,0,2.271-.189A15.2,15.2,0,0,0,21.2,59.17a15.2,15.2,0,0,0-2.271-3.56A15.217,15.217,0,0,0,21.2,55.8Zm1.466,8.191A12.437,12.437,0,0,1,33.531,53.127,12.44,12.44,0,0,1,22.668,63.99Zm0-11.036A12.437,12.437,0,0,1,33.531,42.091,12.44,12.44,0,0,1,22.668,52.955Zm0-11.036A12.437,12.437,0,0,1,33.531,31.056,12.44,12.44,0,0,1,22.668,41.919Zm10.863-21.9A12.437,12.437,0,0,1,22.668,30.883,12.435,12.435,0,0,1,33.531,20.02ZM21.2,10.4c1.592,3.216,2.913,7.146,2.014,8.733-.112.2-.451.8-2.014.8s-1.9-.6-2.014-.8c-.9-1.589.422-5.518,2.014-8.733Zm-1.465,20.48A12.437,12.437,0,0,1,8.873,20.02,12.437,12.437,0,0,1,19.736,30.883Zm0,11.036A12.437,12.437,0,0,1,8.873,31.056,12.437,12.437,0,0,1,19.736,41.919Zm0,11.036A12.437,12.437,0,0,1,8.873,42.091,12.437,12.437,0,0,1,19.736,52.955Zm0,11.036A12.437,12.437,0,0,1,8.873,53.127,12.437,12.437,0,0,1,19.736,63.99Z" transform="translate(106 0)"/><path class="c" d="M84.056,27.07l5.5-5.5-2.851-2.851-5.5,5.5a22.027,22.027,0,0,0-12.779,4.7c3.04-5.634-2.673-16.291-4.485-19.4V2H59.909V9.513c-1.812,3.113-7.525,13.769-4.485,19.4a22.026,22.026,0,0,0-12.779-4.7l-5.5-5.5-2.851,2.851,5.5,5.5a22.05,22.05,0,0,0,5.29,13.509,22.061,22.061,0,0,0-2.439-.232l-5.5-5.5L34.293,37.7l5.5,5.5a22.05,22.05,0,0,0,5.29,13.509,22.061,22.061,0,0,0-2.439-.232l-5.5-5.5-2.851,2.851,5.5,5.5a22.05,22.05,0,0,0,5.29,13.509,22.059,22.059,0,0,0-2.439-.232l-5.5-5.5-2.851,2.851,5.5,5.5A22.182,22.182,0,0,0,59.909,96.645v26.31h4.032V96.645A22.182,22.182,0,0,0,84.056,75.452l5.5-5.5L86.707,67.1l-5.5,5.5a22.057,22.057,0,0,0-2.439.232,22.062,22.062,0,0,0,5.29-13.509l5.5-5.5-2.851-2.851-5.5,5.5a22.06,22.06,0,0,0-2.439.232A22.062,22.062,0,0,0,84.056,43.2l5.5-5.5-2.851-2.851-5.5,5.5a22.062,22.062,0,0,0-2.439.232A22.05,22.05,0,0,0,84.056,27.07ZM61.925,80.621a22.238,22.238,0,0,0,3.318-.276,22.207,22.207,0,0,0-3.318,5.2,22.207,22.207,0,0,0-3.318-5.2A22.238,22.238,0,0,0,61.925,80.621Zm0-11.2a22.207,22.207,0,0,0-3.318-5.2,20.071,20.071,0,0,0,6.636,0A22.207,22.207,0,0,0,61.925,69.42Zm0-16.127a22.207,22.207,0,0,0-3.318-5.2,20.072,20.072,0,0,0,6.636,0A22.207,22.207,0,0,0,61.925,53.293Zm0-16.127a22.221,22.221,0,0,0-3.752-5.681,9.723,9.723,0,0,0,7.5,0A22.175,22.175,0,0,0,61.925,37.166Zm18.018-8.832A18.176,18.176,0,0,1,64.068,44.209,18.172,18.172,0,0,1,79.943,28.334ZM61.925,14.281c2.326,4.7,4.258,10.442,2.943,12.763-.163.286-.659,1.163-2.943,1.163s-2.78-.877-2.943-1.163C57.668,24.721,59.6,18.98,61.925,14.281ZM59.784,44.209A18.176,18.176,0,0,1,43.909,28.334,18.176,18.176,0,0,1,59.784,44.209Zm0,16.127A18.176,18.176,0,0,1,43.909,44.461,18.176,18.176,0,0,1,59.784,60.337Zm0,16.127A18.176,18.176,0,0,1,43.909,60.589,18.176,18.176,0,0,1,59.784,76.464Zm-15.875.252A18.176,18.176,0,0,1,59.784,92.591,18.176,18.176,0,0,1,43.909,76.716ZM64.068,92.591A18.176,18.176,0,0,1,79.943,76.716,18.18,18.18,0,0,1,64.068,92.591Zm0-16.127A18.176,18.176,0,0,1,79.943,60.589,18.18,18.18,0,0,1,64.068,76.464Zm0-16.127A18.176,18.176,0,0,1,79.943,44.461,18.18,18.18,0,0,1,64.068,60.337Z" transform="translate(12.143 -38.187)"/></g><g transform="translate(325.707 36.187)"><path class="c" d="M19.822,66.764v18h2.759v-18a15.179,15.179,0,0,0,13.764-14.5L40.11,48.5l-1.951-1.951-3.765,3.765a15.094,15.094,0,0,0-1.669.159,15.1,15.1,0,0,0,3.62-9.244l3.765-3.765-1.951-1.951-3.765,3.765a15.1,15.1,0,0,0-1.669.159,15.1,15.1,0,0,0,3.62-9.244l3.765-3.765-1.951-1.951L34.394,28.24a15.1,15.1,0,0,0-1.669.159,15.1,15.1,0,0,0,3.62-9.244L40.11,15.39,38.159,13.44,34.394,17.2a15.072,15.072,0,0,0-8.744,3.214c2.08-3.856-1.829-11.147-3.069-13.277V2H19.822V7.141c-1.24,2.13-5.15,9.422-3.069,13.277A15.072,15.072,0,0,0,8.008,17.2L4.244,13.44,2.293,15.39l3.765,3.765A15.089,15.089,0,0,0,9.677,28.4a15.1,15.1,0,0,0-1.669-.159L4.244,24.476,2.293,26.426l3.765,3.765a15.089,15.089,0,0,0,3.62,9.244,15.1,15.1,0,0,0-1.669-.159L4.244,35.511,2.293,37.462l3.765,3.765a15.089,15.089,0,0,0,3.62,9.244,15.1,15.1,0,0,0-1.669-.159L4.244,46.547,2.293,48.5l3.765,3.765a15.179,15.179,0,0,0,13.764,14.5Zm1.379-40.7a15.206,15.206,0,0,0-2.567-3.887,5.962,5.962,0,0,0,2.567.516,5.984,5.984,0,0,0,2.567-.515A15.174,15.174,0,0,0,21.2,26.063Zm0,7.664a15.218,15.218,0,0,0,2.271-.189A15.2,15.2,0,0,0,21.2,37.1a15.2,15.2,0,0,0-2.271-3.56A15.218,15.218,0,0,0,21.2,33.728Zm0,11.036a15.218,15.218,0,0,0,2.271-.189,15.2,15.2,0,0,0-2.271,3.56,15.2,15.2,0,0,0-2.271-3.56A15.218,15.218,0,0,0,21.2,44.763Zm0,11.036a15.217,15.217,0,0,0,2.271-.189A15.2,15.2,0,0,0,21.2,59.17a15.2,15.2,0,0,0-2.271-3.56A15.217,15.217,0,0,0,21.2,55.8Zm1.466,8.191A12.437,12.437,0,0,1,33.531,53.127,12.44,12.44,0,0,1,22.668,63.99Zm0-11.036A12.437,12.437,0,0,1,33.531,42.091,12.44,12.44,0,0,1,22.668,52.955Zm0-11.036A12.437,12.437,0,0,1,33.531,31.056,12.44,12.44,0,0,1,22.668,41.919Zm10.863-21.9A12.437,12.437,0,0,1,22.668,30.883,12.435,12.435,0,0,1,33.531,20.02ZM21.2,10.4c1.592,3.216,2.913,7.146,2.014,8.733-.112.2-.451.8-2.014.8s-1.9-.6-2.014-.8c-.9-1.589.422-5.518,2.014-8.733Zm-1.465,20.48A12.437,12.437,0,0,1,8.873,20.02,12.437,12.437,0,0,1,19.736,30.883Zm0,11.036A12.437,12.437,0,0,1,8.873,31.056,12.437,12.437,0,0,1,19.736,41.919Zm0,11.036A12.437,12.437,0,0,1,8.873,42.091,12.437,12.437,0,0,1,19.736,52.955Zm0,11.036A12.437,12.437,0,0,1,8.873,53.127,12.437,12.437,0,0,1,19.736,63.99Z" transform="translate(0 0)"/><path class="c" d="M19.822,66.764v18h2.759v-18a15.179,15.179,0,0,0,13.764-14.5L40.11,48.5l-1.951-1.951-3.765,3.765a15.094,15.094,0,0,0-1.669.159,15.1,15.1,0,0,0,3.62-9.244l3.765-3.765-1.951-1.951-3.765,3.765a15.1,15.1,0,0,0-1.669.159,15.1,15.1,0,0,0,3.62-9.244l3.765-3.765-1.951-1.951L34.394,28.24a15.1,15.1,0,0,0-1.669.159,15.1,15.1,0,0,0,3.62-9.244L40.11,15.39,38.159,13.44,34.394,17.2a15.072,15.072,0,0,0-8.744,3.214c2.08-3.856-1.829-11.147-3.069-13.277V2H19.822V7.141c-1.24,2.13-5.15,9.422-3.069,13.277A15.072,15.072,0,0,0,8.008,17.2L4.244,13.44,2.293,15.39l3.765,3.765A15.089,15.089,0,0,0,9.677,28.4a15.1,15.1,0,0,0-1.669-.159L4.244,24.476,2.293,26.426l3.765,3.765a15.089,15.089,0,0,0,3.62,9.244,15.1,15.1,0,0,0-1.669-.159L4.244,35.511,2.293,37.462l3.765,3.765a15.089,15.089,0,0,0,3.62,9.244,15.1,15.1,0,0,0-1.669-.159L4.244,46.547,2.293,48.5l3.765,3.765a15.179,15.179,0,0,0,13.764,14.5Zm1.379-40.7a15.206,15.206,0,0,0-2.567-3.887,5.962,5.962,0,0,0,2.567.516,5.984,5.984,0,0,0,2.567-.515A15.174,15.174,0,0,0,21.2,26.063Zm0,7.664a15.218,15.218,0,0,0,2.271-.189A15.2,15.2,0,0,0,21.2,37.1a15.2,15.2,0,0,0-2.271-3.56A15.218,15.218,0,0,0,21.2,33.728Zm0,11.036a15.218,15.218,0,0,0,2.271-.189,15.2,15.2,0,0,0-2.271,3.56,15.2,15.2,0,0,0-2.271-3.56A15.218,15.218,0,0,0,21.2,44.763Zm0,11.036a15.217,15.217,0,0,0,2.271-.189A15.2,15.2,0,0,0,21.2,59.17a15.2,15.2,0,0,0-2.271-3.56A15.217,15.217,0,0,0,21.2,55.8Zm1.466,8.191A12.437,12.437,0,0,1,33.531,53.127,12.44,12.44,0,0,1,22.668,63.99Zm0-11.036A12.437,12.437,0,0,1,33.531,42.091,12.44,12.44,0,0,1,22.668,52.955Zm0-11.036A12.437,12.437,0,0,1,33.531,31.056,12.44,12.44,0,0,1,22.668,41.919Zm10.863-21.9A12.437,12.437,0,0,1,22.668,30.883,12.435,12.435,0,0,1,33.531,20.02ZM21.2,10.4c1.592,3.216,2.913,7.146,2.014,8.733-.112.2-.451.8-2.014.8s-1.9-.6-2.014-.8c-.9-1.589.422-5.518,2.014-8.733Zm-1.465,20.48A12.437,12.437,0,0,1,8.873,20.02,12.437,12.437,0,0,1,19.736,30.883Zm0,11.036A12.437,12.437,0,0,1,8.873,31.056,12.437,12.437,0,0,1,19.736,41.919Zm0,11.036A12.437,12.437,0,0,1,8.873,42.091,12.437,12.437,0,0,1,19.736,52.955Zm0,11.036A12.437,12.437,0,0,1,8.873,53.127,12.437,12.437,0,0,1,19.736,63.99Z" transform="translate(106 0)"/><path class="c" d="M84.056,27.07l5.5-5.5-2.851-2.851-5.5,5.5a22.027,22.027,0,0,0-12.779,4.7c3.04-5.634-2.673-16.291-4.485-19.4V2H59.909V9.513c-1.812,3.113-7.525,13.769-4.485,19.4a22.026,22.026,0,0,0-12.779-4.7l-5.5-5.5-2.851,2.851,5.5,5.5a22.05,22.05,0,0,0,5.29,13.509,22.061,22.061,0,0,0-2.439-.232l-5.5-5.5L34.293,37.7l5.5,5.5a22.05,22.05,0,0,0,5.29,13.509,22.061,22.061,0,0,0-2.439-.232l-5.5-5.5-2.851,2.851,5.5,5.5a22.05,22.05,0,0,0,5.29,13.509,22.059,22.059,0,0,0-2.439-.232l-5.5-5.5-2.851,2.851,5.5,5.5A22.182,22.182,0,0,0,59.909,96.645v26.31h4.032V96.645A22.182,22.182,0,0,0,84.056,75.452l5.5-5.5L86.707,67.1l-5.5,5.5a22.057,22.057,0,0,0-2.439.232,22.062,22.062,0,0,0,5.29-13.509l5.5-5.5-2.851-2.851-5.5,5.5a22.06,22.06,0,0,0-2.439.232A22.062,22.062,0,0,0,84.056,43.2l5.5-5.5-2.851-2.851-5.5,5.5a22.062,22.062,0,0,0-2.439.232A22.05,22.05,0,0,0,84.056,27.07ZM61.925,80.621a22.238,22.238,0,0,0,3.318-.276,22.207,22.207,0,0,0-3.318,5.2,22.207,22.207,0,0,0-3.318-5.2A22.238,22.238,0,0,0,61.925,80.621Zm0-11.2a22.207,22.207,0,0,0-3.318-5.2,20.071,20.071,0,0,0,6.636,0A22.207,22.207,0,0,0,61.925,69.42Zm0-16.127a22.207,22.207,0,0,0-3.318-5.2,20.072,20.072,0,0,0,6.636,0A22.207,22.207,0,0,0,61.925,53.293Zm0-16.127a22.221,22.221,0,0,0-3.752-5.681,9.723,9.723,0,0,0,7.5,0A22.175,22.175,0,0,0,61.925,37.166Zm18.018-8.832A18.176,18.176,0,0,1,64.068,44.209,18.172,18.172,0,0,1,79.943,28.334ZM61.925,14.281c2.326,4.7,4.258,10.442,2.943,12.763-.163.286-.659,1.163-2.943,1.163s-2.78-.877-2.943-1.163C57.668,24.721,59.6,18.98,61.925,14.281ZM59.784,44.209A18.176,18.176,0,0,1,43.909,28.334,18.176,18.176,0,0,1,59.784,44.209Zm0,16.127A18.176,18.176,0,0,1,43.909,44.461,18.176,18.176,0,0,1,59.784,60.337Zm0,16.127A18.176,18.176,0,0,1,43.909,60.589,18.176,18.176,0,0,1,59.784,76.464Zm-15.875.252A18.176,18.176,0,0,1,59.784,92.591,18.176,18.176,0,0,1,43.909,76.716ZM64.068,92.591A18.176,18.176,0,0,1,79.943,76.716,18.18,18.18,0,0,1,64.068,92.591Zm0-16.127A18.176,18.176,0,0,1,79.943,60.589,18.18,18.18,0,0,1,64.068,76.464Zm0-16.127A18.176,18.176,0,0,1,79.943,44.461,18.18,18.18,0,0,1,64.068,60.337Z" transform="translate(12.143 -38.187)"/></g><g transform="translate(489.707 36.187)"><path class="c" d="M19.822,66.764v18h2.759v-18a15.179,15.179,0,0,0,13.764-14.5L40.11,48.5l-1.951-1.951-3.765,3.765a15.094,15.094,0,0,0-1.669.159,15.1,15.1,0,0,0,3.62-9.244l3.765-3.765-1.951-1.951-3.765,3.765a15.1,15.1,0,0,0-1.669.159,15.1,15.1,0,0,0,3.62-9.244l3.765-3.765-1.951-1.951L34.394,28.24a15.1,15.1,0,0,0-1.669.159,15.1,15.1,0,0,0,3.62-9.244L40.11,15.39,38.159,13.44,34.394,17.2a15.072,15.072,0,0,0-8.744,3.214c2.08-3.856-1.829-11.147-3.069-13.277V2H19.822V7.141c-1.24,2.13-5.15,9.422-3.069,13.277A15.072,15.072,0,0,0,8.008,17.2L4.244,13.44,2.293,15.39l3.765,3.765A15.089,15.089,0,0,0,9.677,28.4a15.1,15.1,0,0,0-1.669-.159L4.244,24.476,2.293,26.426l3.765,3.765a15.089,15.089,0,0,0,3.62,9.244,15.1,15.1,0,0,0-1.669-.159L4.244,35.511,2.293,37.462l3.765,3.765a15.089,15.089,0,0,0,3.62,9.244,15.1,15.1,0,0,0-1.669-.159L4.244,46.547,2.293,48.5l3.765,3.765a15.179,15.179,0,0,0,13.764,14.5Zm1.379-40.7a15.206,15.206,0,0,0-2.567-3.887,5.962,5.962,0,0,0,2.567.516,5.984,5.984,0,0,0,2.567-.515A15.174,15.174,0,0,0,21.2,26.063Zm0,7.664a15.218,15.218,0,0,0,2.271-.189A15.2,15.2,0,0,0,21.2,37.1a15.2,15.2,0,0,0-2.271-3.56A15.218,15.218,0,0,0,21.2,33.728Zm0,11.036a15.218,15.218,0,0,0,2.271-.189,15.2,15.2,0,0,0-2.271,3.56,15.2,15.2,0,0,0-2.271-3.56A15.218,15.218,0,0,0,21.2,44.763Zm0,11.036a15.217,15.217,0,0,0,2.271-.189A15.2,15.2,0,0,0,21.2,59.17a15.2,15.2,0,0,0-2.271-3.56A15.217,15.217,0,0,0,21.2,55.8Zm1.466,8.191A12.437,12.437,0,0,1,33.531,53.127,12.44,12.44,0,0,1,22.668,63.99Zm0-11.036A12.437,12.437,0,0,1,33.531,42.091,12.44,12.44,0,0,1,22.668,52.955Zm0-11.036A12.437,12.437,0,0,1,33.531,31.056,12.44,12.44,0,0,1,22.668,41.919Zm10.863-21.9A12.437,12.437,0,0,1,22.668,30.883,12.435,12.435,0,0,1,33.531,20.02ZM21.2,10.4c1.592,3.216,2.913,7.146,2.014,8.733-.112.2-.451.8-2.014.8s-1.9-.6-2.014-.8c-.9-1.589.422-5.518,2.014-8.733Zm-1.465,20.48A12.437,12.437,0,0,1,8.873,20.02,12.437,12.437,0,0,1,19.736,30.883Zm0,11.036A12.437,12.437,0,0,1,8.873,31.056,12.437,12.437,0,0,1,19.736,41.919Zm0,11.036A12.437,12.437,0,0,1,8.873,42.091,12.437,12.437,0,0,1,19.736,52.955Zm0,11.036A12.437,12.437,0,0,1,8.873,53.127,12.437,12.437,0,0,1,19.736,63.99Z" transform="translate(0 0)"/><path class="c" d="M19.822,66.764v18h2.759v-18a15.179,15.179,0,0,0,13.764-14.5L40.11,48.5l-1.951-1.951-3.765,3.765a15.094,15.094,0,0,0-1.669.159,15.1,15.1,0,0,0,3.62-9.244l3.765-3.765-1.951-1.951-3.765,3.765a15.1,15.1,0,0,0-1.669.159,15.1,15.1,0,0,0,3.62-9.244l3.765-3.765-1.951-1.951L34.394,28.24a15.1,15.1,0,0,0-1.669.159,15.1,15.1,0,0,0,3.62-9.244L40.11,15.39,38.159,13.44,34.394,17.2a15.072,15.072,0,0,0-8.744,3.214c2.08-3.856-1.829-11.147-3.069-13.277V2H19.822V7.141c-1.24,2.13-5.15,9.422-3.069,13.277A15.072,15.072,0,0,0,8.008,17.2L4.244,13.44,2.293,15.39l3.765,3.765A15.089,15.089,0,0,0,9.677,28.4a15.1,15.1,0,0,0-1.669-.159L4.244,24.476,2.293,26.426l3.765,3.765a15.089,15.089,0,0,0,3.62,9.244,15.1,15.1,0,0,0-1.669-.159L4.244,35.511,2.293,37.462l3.765,3.765a15.089,15.089,0,0,0,3.62,9.244,15.1,15.1,0,0,0-1.669-.159L4.244,46.547,2.293,48.5l3.765,3.765a15.179,15.179,0,0,0,13.764,14.5Zm1.379-40.7a15.206,15.206,0,0,0-2.567-3.887,5.962,5.962,0,0,0,2.567.516,5.984,5.984,0,0,0,2.567-.515A15.174,15.174,0,0,0,21.2,26.063Zm0,7.664a15.218,15.218,0,0,0,2.271-.189A15.2,15.2,0,0,0,21.2,37.1a15.2,15.2,0,0,0-2.271-3.56A15.218,15.218,0,0,0,21.2,33.728Zm0,11.036a15.218,15.218,0,0,0,2.271-.189,15.2,15.2,0,0,0-2.271,3.56,15.2,15.2,0,0,0-2.271-3.56A15.218,15.218,0,0,0,21.2,44.763Zm0,11.036a15.217,15.217,0,0,0,2.271-.189A15.2,15.2,0,0,0,21.2,59.17a15.2,15.2,0,0,0-2.271-3.56A15.217,15.217,0,0,0,21.2,55.8Zm1.466,8.191A12.437,12.437,0,0,1,33.531,53.127,12.44,12.44,0,0,1,22.668,63.99Zm0-11.036A12.437,12.437,0,0,1,33.531,42.091,12.44,12.44,0,0,1,22.668,52.955Zm0-11.036A12.437,12.437,0,0,1,33.531,31.056,12.44,12.44,0,0,1,22.668,41.919Zm10.863-21.9A12.437,12.437,0,0,1,22.668,30.883,12.435,12.435,0,0,1,33.531,20.02ZM21.2,10.4c1.592,3.216,2.913,7.146,2.014,8.733-.112.2-.451.8-2.014.8s-1.9-.6-2.014-.8c-.9-1.589.422-5.518,2.014-8.733Zm-1.465,20.48A12.437,12.437,0,0,1,8.873,20.02,12.437,12.437,0,0,1,19.736,30.883Zm0,11.036A12.437,12.437,0,0,1,8.873,31.056,12.437,12.437,0,0,1,19.736,41.919Zm0,11.036A12.437,12.437,0,0,1,8.873,42.091,12.437,12.437,0,0,1,19.736,52.955Zm0,11.036A12.437,12.437,0,0,1,8.873,53.127,12.437,12.437,0,0,1,19.736,63.99Z" transform="translate(106 0)"/><path class="c" d="M84.056,27.07l5.5-5.5-2.851-2.851-5.5,5.5a22.027,22.027,0,0,0-12.779,4.7c3.04-5.634-2.673-16.291-4.485-19.4V2H59.909V9.513c-1.812,3.113-7.525,13.769-4.485,19.4a22.026,22.026,0,0,0-12.779-4.7l-5.5-5.5-2.851,2.851,5.5,5.5a22.05,22.05,0,0,0,5.29,13.509,22.061,22.061,0,0,0-2.439-.232l-5.5-5.5L34.293,37.7l5.5,5.5a22.05,22.05,0,0,0,5.29,13.509,22.061,22.061,0,0,0-2.439-.232l-5.5-5.5-2.851,2.851,5.5,5.5a22.05,22.05,0,0,0,5.29,13.509,22.059,22.059,0,0,0-2.439-.232l-5.5-5.5-2.851,2.851,5.5,5.5A22.182,22.182,0,0,0,59.909,96.645v26.31h4.032V96.645A22.182,22.182,0,0,0,84.056,75.452l5.5-5.5L86.707,67.1l-5.5,5.5a22.057,22.057,0,0,0-2.439.232,22.062,22.062,0,0,0,5.29-13.509l5.5-5.5-2.851-2.851-5.5,5.5a22.06,22.06,0,0,0-2.439.232A22.062,22.062,0,0,0,84.056,43.2l5.5-5.5-2.851-2.851-5.5,5.5a22.062,22.062,0,0,0-2.439.232A22.05,22.05,0,0,0,84.056,27.07ZM61.925,80.621a22.238,22.238,0,0,0,3.318-.276,22.207,22.207,0,0,0-3.318,5.2,22.207,22.207,0,0,0-3.318-5.2A22.238,22.238,0,0,0,61.925,80.621Zm0-11.2a22.207,22.207,0,0,0-3.318-5.2,20.071,20.071,0,0,0,6.636,0A22.207,22.207,0,0,0,61.925,69.42Zm0-16.127a22.207,22.207,0,0,0-3.318-5.2,20.072,20.072,0,0,0,6.636,0A22.207,22.207,0,0,0,61.925,53.293Zm0-16.127a22.221,22.221,0,0,0-3.752-5.681,9.723,9.723,0,0,0,7.5,0A22.175,22.175,0,0,0,61.925,37.166Zm18.018-8.832A18.176,18.176,0,0,1,64.068,44.209,18.172,18.172,0,0,1,79.943,28.334ZM61.925,14.281c2.326,4.7,4.258,10.442,2.943,12.763-.163.286-.659,1.163-2.943,1.163s-2.78-.877-2.943-1.163C57.668,24.721,59.6,18.98,61.925,14.281ZM59.784,44.209A18.176,18.176,0,0,1,43.909,28.334,18.176,18.176,0,0,1,59.784,44.209Zm0,16.127A18.176,18.176,0,0,1,43.909,44.461,18.176,18.176,0,0,1,59.784,60.337Zm0,16.127A18.176,18.176,0,0,1,43.909,60.589,18.176,18.176,0,0,1,59.784,76.464Zm-15.875.252A18.176,18.176,0,0,1,59.784,92.591,18.176,18.176,0,0,1,43.909,76.716ZM64.068,92.591A18.176,18.176,0,0,1,79.943,76.716,18.18,18.18,0,0,1,64.068,92.591Zm0-16.127A18.176,18.176,0,0,1,79.943,60.589,18.18,18.18,0,0,1,64.068,76.464Zm0-16.127A18.176,18.176,0,0,1,79.943,44.461,18.18,18.18,0,0,1,64.068,60.337Z" transform="translate(12.143 -38.187)"/></g><g transform="translate(653.707 36.187)"><path class="c" d="M19.822,66.764v18h2.759v-18a15.179,15.179,0,0,0,13.764-14.5L40.11,48.5l-1.951-1.951-3.765,3.765a15.094,15.094,0,0,0-1.669.159,15.1,15.1,0,0,0,3.62-9.244l3.765-3.765-1.951-1.951-3.765,3.765a15.1,15.1,0,0,0-1.669.159,15.1,15.1,0,0,0,3.62-9.244l3.765-3.765-1.951-1.951L34.394,28.24a15.1,15.1,0,0,0-1.669.159,15.1,15.1,0,0,0,3.62-9.244L40.11,15.39,38.159,13.44,34.394,17.2a15.072,15.072,0,0,0-8.744,3.214c2.08-3.856-1.829-11.147-3.069-13.277V2H19.822V7.141c-1.24,2.13-5.15,9.422-3.069,13.277A15.072,15.072,0,0,0,8.008,17.2L4.244,13.44,2.293,15.39l3.765,3.765A15.089,15.089,0,0,0,9.677,28.4a15.1,15.1,0,0,0-1.669-.159L4.244,24.476,2.293,26.426l3.765,3.765a15.089,15.089,0,0,0,3.62,9.244,15.1,15.1,0,0,0-1.669-.159L4.244,35.511,2.293,37.462l3.765,3.765a15.089,15.089,0,0,0,3.62,9.244,15.1,15.1,0,0,0-1.669-.159L4.244,46.547,2.293,48.5l3.765,3.765a15.179,15.179,0,0,0,13.764,14.5Zm1.379-40.7a15.206,15.206,0,0,0-2.567-3.887,5.962,5.962,0,0,0,2.567.516,5.984,5.984,0,0,0,2.567-.515A15.174,15.174,0,0,0,21.2,26.063Zm0,7.664a15.218,15.218,0,0,0,2.271-.189A15.2,15.2,0,0,0,21.2,37.1a15.2,15.2,0,0,0-2.271-3.56A15.218,15.218,0,0,0,21.2,33.728Zm0,11.036a15.218,15.218,0,0,0,2.271-.189,15.2,15.2,0,0,0-2.271,3.56,15.2,15.2,0,0,0-2.271-3.56A15.218,15.218,0,0,0,21.2,44.763Zm0,11.036a15.217,15.217,0,0,0,2.271-.189A15.2,15.2,0,0,0,21.2,59.17a15.2,15.2,0,0,0-2.271-3.56A15.217,15.217,0,0,0,21.2,55.8Zm1.466,8.191A12.437,12.437,0,0,1,33.531,53.127,12.44,12.44,0,0,1,22.668,63.99Zm0-11.036A12.437,12.437,0,0,1,33.531,42.091,12.44,12.44,0,0,1,22.668,52.955Zm0-11.036A12.437,12.437,0,0,1,33.531,31.056,12.44,12.44,0,0,1,22.668,41.919Zm10.863-21.9A12.437,12.437,0,0,1,22.668,30.883,12.435,12.435,0,0,1,33.531,20.02ZM21.2,10.4c1.592,3.216,2.913,7.146,2.014,8.733-.112.2-.451.8-2.014.8s-1.9-.6-2.014-.8c-.9-1.589.422-5.518,2.014-8.733Zm-1.465,20.48A12.437,12.437,0,0,1,8.873,20.02,12.437,12.437,0,0,1,19.736,30.883Zm0,11.036A12.437,12.437,0,0,1,8.873,31.056,12.437,12.437,0,0,1,19.736,41.919Zm0,11.036A12.437,12.437,0,0,1,8.873,42.091,12.437,12.437,0,0,1,19.736,52.955Zm0,11.036A12.437,12.437,0,0,1,8.873,53.127,12.437,12.437,0,0,1,19.736,63.99Z" transform="translate(0 0)"/><path class="c" d="M19.822,66.764v18h2.759v-18a15.179,15.179,0,0,0,13.764-14.5L40.11,48.5l-1.951-1.951-3.765,3.765a15.094,15.094,0,0,0-1.669.159,15.1,15.1,0,0,0,3.62-9.244l3.765-3.765-1.951-1.951-3.765,3.765a15.1,15.1,0,0,0-1.669.159,15.1,15.1,0,0,0,3.62-9.244l3.765-3.765-1.951-1.951L34.394,28.24a15.1,15.1,0,0,0-1.669.159,15.1,15.1,0,0,0,3.62-9.244L40.11,15.39,38.159,13.44,34.394,17.2a15.072,15.072,0,0,0-8.744,3.214c2.08-3.856-1.829-11.147-3.069-13.277V2H19.822V7.141c-1.24,2.13-5.15,9.422-3.069,13.277A15.072,15.072,0,0,0,8.008,17.2L4.244,13.44,2.293,15.39l3.765,3.765A15.089,15.089,0,0,0,9.677,28.4a15.1,15.1,0,0,0-1.669-.159L4.244,24.476,2.293,26.426l3.765,3.765a15.089,15.089,0,0,0,3.62,9.244,15.1,15.1,0,0,0-1.669-.159L4.244,35.511,2.293,37.462l3.765,3.765a15.089,15.089,0,0,0,3.62,9.244,15.1,15.1,0,0,0-1.669-.159L4.244,46.547,2.293,48.5l3.765,3.765a15.179,15.179,0,0,0,13.764,14.5Zm1.379-40.7a15.206,15.206,0,0,0-2.567-3.887,5.962,5.962,0,0,0,2.567.516,5.984,5.984,0,0,0,2.567-.515A15.174,15.174,0,0,0,21.2,26.063Zm0,7.664a15.218,15.218,0,0,0,2.271-.189A15.2,15.2,0,0,0,21.2,37.1a15.2,15.2,0,0,0-2.271-3.56A15.218,15.218,0,0,0,21.2,33.728Zm0,11.036a15.218,15.218,0,0,0,2.271-.189,15.2,15.2,0,0,0-2.271,3.56,15.2,15.2,0,0,0-2.271-3.56A15.218,15.218,0,0,0,21.2,44.763Zm0,11.036a15.217,15.217,0,0,0,2.271-.189A15.2,15.2,0,0,0,21.2,59.17a15.2,15.2,0,0,0-2.271-3.56A15.217,15.217,0,0,0,21.2,55.8Zm1.466,8.191A12.437,12.437,0,0,1,33.531,53.127,12.44,12.44,0,0,1,22.668,63.99Zm0-11.036A12.437,12.437,0,0,1,33.531,42.091,12.44,12.44,0,0,1,22.668,52.955Zm0-11.036A12.437,12.437,0,0,1,33.531,31.056,12.44,12.44,0,0,1,22.668,41.919Zm10.863-21.9A12.437,12.437,0,0,1,22.668,30.883,12.435,12.435,0,0,1,33.531,20.02ZM21.2,10.4c1.592,3.216,2.913,7.146,2.014,8.733-.112.2-.451.8-2.014.8s-1.9-.6-2.014-.8c-.9-1.589.422-5.518,2.014-8.733Zm-1.465,20.48A12.437,12.437,0,0,1,8.873,20.02,12.437,12.437,0,0,1,19.736,30.883Zm0,11.036A12.437,12.437,0,0,1,8.873,31.056,12.437,12.437,0,0,1,19.736,41.919Zm0,11.036A12.437,12.437,0,0,1,8.873,42.091,12.437,12.437,0,0,1,19.736,52.955Zm0,11.036A12.437,12.437,0,0,1,8.873,53.127,12.437,12.437,0,0,1,19.736,63.99Z" transform="translate(106 0)"/><path class="c" d="M84.056,27.07l5.5-5.5-2.851-2.851-5.5,5.5a22.027,22.027,0,0,0-12.779,4.7c3.04-5.634-2.673-16.291-4.485-19.4V2H59.909V9.513c-1.812,3.113-7.525,13.769-4.485,19.4a22.026,22.026,0,0,0-12.779-4.7l-5.5-5.5-2.851,2.851,5.5,5.5a22.05,22.05,0,0,0,5.29,13.509,22.061,22.061,0,0,0-2.439-.232l-5.5-5.5L34.293,37.7l5.5,5.5a22.05,22.05,0,0,0,5.29,13.509,22.061,22.061,0,0,0-2.439-.232l-5.5-5.5-2.851,2.851,5.5,5.5a22.05,22.05,0,0,0,5.29,13.509,22.059,22.059,0,0,0-2.439-.232l-5.5-5.5-2.851,2.851,5.5,5.5A22.182,22.182,0,0,0,59.909,96.645v26.31h4.032V96.645A22.182,22.182,0,0,0,84.056,75.452l5.5-5.5L86.707,67.1l-5.5,5.5a22.057,22.057,0,0,0-2.439.232,22.062,22.062,0,0,0,5.29-13.509l5.5-5.5-2.851-2.851-5.5,5.5a22.06,22.06,0,0,0-2.439.232A22.062,22.062,0,0,0,84.056,43.2l5.5-5.5-2.851-2.851-5.5,5.5a22.062,22.062,0,0,0-2.439.232A22.05,22.05,0,0,0,84.056,27.07ZM61.925,80.621a22.238,22.238,0,0,0,3.318-.276,22.207,22.207,0,0,0-3.318,5.2,22.207,22.207,0,0,0-3.318-5.2A22.238,22.238,0,0,0,61.925,80.621Zm0-11.2a22.207,22.207,0,0,0-3.318-5.2,20.071,20.071,0,0,0,6.636,0A22.207,22.207,0,0,0,61.925,69.42Zm0-16.127a22.207,22.207,0,0,0-3.318-5.2,20.072,20.072,0,0,0,6.636,0A22.207,22.207,0,0,0,61.925,53.293Zm0-16.127a22.221,22.221,0,0,0-3.752-5.681,9.723,9.723,0,0,0,7.5,0A22.175,22.175,0,0,0,61.925,37.166Zm18.018-8.832A18.176,18.176,0,0,1,64.068,44.209,18.172,18.172,0,0,1,79.943,28.334ZM61.925,14.281c2.326,4.7,4.258,10.442,2.943,12.763-.163.286-.659,1.163-2.943,1.163s-2.78-.877-2.943-1.163C57.668,24.721,59.6,18.98,61.925,14.281ZM59.784,44.209A18.176,18.176,0,0,1,43.909,28.334,18.176,18.176,0,0,1,59.784,44.209Zm0,16.127A18.176,18.176,0,0,1,43.909,44.461,18.176,18.176,0,0,1,59.784,60.337Zm0,16.127A18.176,18.176,0,0,1,43.909,60.589,18.176,18.176,0,0,1,59.784,76.464Zm-15.875.252A18.176,18.176,0,0,1,59.784,92.591,18.176,18.176,0,0,1,43.909,76.716ZM64.068,92.591A18.176,18.176,0,0,1,79.943,76.716,18.18,18.18,0,0,1,64.068,92.591Zm0-16.127A18.176,18.176,0,0,1,79.943,60.589,18.18,18.18,0,0,1,64.068,76.464Zm0-16.127A18.176,18.176,0,0,1,79.943,44.461,18.18,18.18,0,0,1,64.068,60.337Z" transform="translate(12.143 -38.187)"/></g><g transform="translate(817.707 36.187)"><path class="c" d="M19.822,66.764v18h2.759v-18a15.179,15.179,0,0,0,13.764-14.5L40.11,48.5l-1.951-1.951-3.765,3.765a15.094,15.094,0,0,0-1.669.159,15.1,15.1,0,0,0,3.62-9.244l3.765-3.765-1.951-1.951-3.765,3.765a15.1,15.1,0,0,0-1.669.159,15.1,15.1,0,0,0,3.62-9.244l3.765-3.765-1.951-1.951L34.394,28.24a15.1,15.1,0,0,0-1.669.159,15.1,15.1,0,0,0,3.62-9.244L40.11,15.39,38.159,13.44,34.394,17.2a15.072,15.072,0,0,0-8.744,3.214c2.08-3.856-1.829-11.147-3.069-13.277V2H19.822V7.141c-1.24,2.13-5.15,9.422-3.069,13.277A15.072,15.072,0,0,0,8.008,17.2L4.244,13.44,2.293,15.39l3.765,3.765A15.089,15.089,0,0,0,9.677,28.4a15.1,15.1,0,0,0-1.669-.159L4.244,24.476,2.293,26.426l3.765,3.765a15.089,15.089,0,0,0,3.62,9.244,15.1,15.1,0,0,0-1.669-.159L4.244,35.511,2.293,37.462l3.765,3.765a15.089,15.089,0,0,0,3.62,9.244,15.1,15.1,0,0,0-1.669-.159L4.244,46.547,2.293,48.5l3.765,3.765a15.179,15.179,0,0,0,13.764,14.5Zm1.379-40.7a15.206,15.206,0,0,0-2.567-3.887,5.962,5.962,0,0,0,2.567.516,5.984,5.984,0,0,0,2.567-.515A15.174,15.174,0,0,0,21.2,26.063Zm0,7.664a15.218,15.218,0,0,0,2.271-.189A15.2,15.2,0,0,0,21.2,37.1a15.2,15.2,0,0,0-2.271-3.56A15.218,15.218,0,0,0,21.2,33.728Zm0,11.036a15.218,15.218,0,0,0,2.271-.189,15.2,15.2,0,0,0-2.271,3.56,15.2,15.2,0,0,0-2.271-3.56A15.218,15.218,0,0,0,21.2,44.763Zm0,11.036a15.217,15.217,0,0,0,2.271-.189A15.2,15.2,0,0,0,21.2,59.17a15.2,15.2,0,0,0-2.271-3.56A15.217,15.217,0,0,0,21.2,55.8Zm1.466,8.191A12.437,12.437,0,0,1,33.531,53.127,12.44,12.44,0,0,1,22.668,63.99Zm0-11.036A12.437,12.437,0,0,1,33.531,42.091,12.44,12.44,0,0,1,22.668,52.955Zm0-11.036A12.437,12.437,0,0,1,33.531,31.056,12.44,12.44,0,0,1,22.668,41.919Zm10.863-21.9A12.437,12.437,0,0,1,22.668,30.883,12.435,12.435,0,0,1,33.531,20.02ZM21.2,10.4c1.592,3.216,2.913,7.146,2.014,8.733-.112.2-.451.8-2.014.8s-1.9-.6-2.014-.8c-.9-1.589.422-5.518,2.014-8.733Zm-1.465,20.48A12.437,12.437,0,0,1,8.873,20.02,12.437,12.437,0,0,1,19.736,30.883Zm0,11.036A12.437,12.437,0,0,1,8.873,31.056,12.437,12.437,0,0,1,19.736,41.919Zm0,11.036A12.437,12.437,0,0,1,8.873,42.091,12.437,12.437,0,0,1,19.736,52.955Zm0,11.036A12.437,12.437,0,0,1,8.873,53.127,12.437,12.437,0,0,1,19.736,63.99Z" transform="translate(0 0)"/><path class="c" d="M19.822,66.764v18h2.759v-18a15.179,15.179,0,0,0,13.764-14.5L40.11,48.5l-1.951-1.951-3.765,3.765a15.094,15.094,0,0,0-1.669.159,15.1,15.1,0,0,0,3.62-9.244l3.765-3.765-1.951-1.951-3.765,3.765a15.1,15.1,0,0,0-1.669.159,15.1,15.1,0,0,0,3.62-9.244l3.765-3.765-1.951-1.951L34.394,28.24a15.1,15.1,0,0,0-1.669.159,15.1,15.1,0,0,0,3.62-9.244L40.11,15.39,38.159,13.44,34.394,17.2a15.072,15.072,0,0,0-8.744,3.214c2.08-3.856-1.829-11.147-3.069-13.277V2H19.822V7.141c-1.24,2.13-5.15,9.422-3.069,13.277A15.072,15.072,0,0,0,8.008,17.2L4.244,13.44,2.293,15.39l3.765,3.765A15.089,15.089,0,0,0,9.677,28.4a15.1,15.1,0,0,0-1.669-.159L4.244,24.476,2.293,26.426l3.765,3.765a15.089,15.089,0,0,0,3.62,9.244,15.1,15.1,0,0,0-1.669-.159L4.244,35.511,2.293,37.462l3.765,3.765a15.089,15.089,0,0,0,3.62,9.244,15.1,15.1,0,0,0-1.669-.159L4.244,46.547,2.293,48.5l3.765,3.765a15.179,15.179,0,0,0,13.764,14.5Zm1.379-40.7a15.206,15.206,0,0,0-2.567-3.887,5.962,5.962,0,0,0,2.567.516,5.984,5.984,0,0,0,2.567-.515A15.174,15.174,0,0,0,21.2,26.063Zm0,7.664a15.218,15.218,0,0,0,2.271-.189A15.2,15.2,0,0,0,21.2,37.1a15.2,15.2,0,0,0-2.271-3.56A15.218,15.218,0,0,0,21.2,33.728Zm0,11.036a15.218,15.218,0,0,0,2.271-.189,15.2,15.2,0,0,0-2.271,3.56,15.2,15.2,0,0,0-2.271-3.56A15.218,15.218,0,0,0,21.2,44.763Zm0,11.036a15.217,15.217,0,0,0,2.271-.189A15.2,15.2,0,0,0,21.2,59.17a15.2,15.2,0,0,0-2.271-3.56A15.217,15.217,0,0,0,21.2,55.8Zm1.466,8.191A12.437,12.437,0,0,1,33.531,53.127,12.44,12.44,0,0,1,22.668,63.99Zm0-11.036A12.437,12.437,0,0,1,33.531,42.091,12.44,12.44,0,0,1,22.668,52.955Zm0-11.036A12.437,12.437,0,0,1,33.531,31.056,12.44,12.44,0,0,1,22.668,41.919Zm10.863-21.9A12.437,12.437,0,0,1,22.668,30.883,12.435,12.435,0,0,1,33.531,20.02ZM21.2,10.4c1.592,3.216,2.913,7.146,2.014,8.733-.112.2-.451.8-2.014.8s-1.9-.6-2.014-.8c-.9-1.589.422-5.518,2.014-8.733Zm-1.465,20.48A12.437,12.437,0,0,1,8.873,20.02,12.437,12.437,0,0,1,19.736,30.883Zm0,11.036A12.437,12.437,0,0,1,8.873,31.056,12.437,12.437,0,0,1,19.736,41.919Zm0,11.036A12.437,12.437,0,0,1,8.873,42.091,12.437,12.437,0,0,1,19.736,52.955Zm0,11.036A12.437,12.437,0,0,1,8.873,53.127,12.437,12.437,0,0,1,19.736,63.99Z" transform="translate(106 0)"/><path class="c" d="M84.056,27.07l5.5-5.5-2.851-2.851-5.5,5.5a22.027,22.027,0,0,0-12.779,4.7c3.04-5.634-2.673-16.291-4.485-19.4V2H59.909V9.513c-1.812,3.113-7.525,13.769-4.485,19.4a22.026,22.026,0,0,0-12.779-4.7l-5.5-5.5-2.851,2.851,5.5,5.5a22.05,22.05,0,0,0,5.29,13.509,22.061,22.061,0,0,0-2.439-.232l-5.5-5.5L34.293,37.7l5.5,5.5a22.05,22.05,0,0,0,5.29,13.509,22.061,22.061,0,0,0-2.439-.232l-5.5-5.5-2.851,2.851,5.5,5.5a22.05,22.05,0,0,0,5.29,13.509,22.059,22.059,0,0,0-2.439-.232l-5.5-5.5-2.851,2.851,5.5,5.5A22.182,22.182,0,0,0,59.909,96.645v26.31h4.032V96.645A22.182,22.182,0,0,0,84.056,75.452l5.5-5.5L86.707,67.1l-5.5,5.5a22.057,22.057,0,0,0-2.439.232,22.062,22.062,0,0,0,5.29-13.509l5.5-5.5-2.851-2.851-5.5,5.5a22.06,22.06,0,0,0-2.439.232A22.062,22.062,0,0,0,84.056,43.2l5.5-5.5-2.851-2.851-5.5,5.5a22.062,22.062,0,0,0-2.439.232A22.05,22.05,0,0,0,84.056,27.07ZM61.925,80.621a22.238,22.238,0,0,0,3.318-.276,22.207,22.207,0,0,0-3.318,5.2,22.207,22.207,0,0,0-3.318-5.2A22.238,22.238,0,0,0,61.925,80.621Zm0-11.2a22.207,22.207,0,0,0-3.318-5.2,20.071,20.071,0,0,0,6.636,0A22.207,22.207,0,0,0,61.925,69.42Zm0-16.127a22.207,22.207,0,0,0-3.318-5.2,20.072,20.072,0,0,0,6.636,0A22.207,22.207,0,0,0,61.925,53.293Zm0-16.127a22.221,22.221,0,0,0-3.752-5.681,9.723,9.723,0,0,0,7.5,0A22.175,22.175,0,0,0,61.925,37.166Zm18.018-8.832A18.176,18.176,0,0,1,64.068,44.209,18.172,18.172,0,0,1,79.943,28.334ZM61.925,14.281c2.326,4.7,4.258,10.442,2.943,12.763-.163.286-.659,1.163-2.943,1.163s-2.78-.877-2.943-1.163C57.668,24.721,59.6,18.98,61.925,14.281ZM59.784,44.209A18.176,18.176,0,0,1,43.909,28.334,18.176,18.176,0,0,1,59.784,44.209Zm0,16.127A18.176,18.176,0,0,1,43.909,44.461,18.176,18.176,0,0,1,59.784,60.337Zm0,16.127A18.176,18.176,0,0,1,43.909,60.589,18.176,18.176,0,0,1,59.784,76.464Zm-15.875.252A18.176,18.176,0,0,1,59.784,92.591,18.176,18.176,0,0,1,43.909,76.716ZM64.068,92.591A18.176,18.176,0,0,1,79.943,76.716,18.18,18.18,0,0,1,64.068,92.591Zm0-16.127A18.176,18.176,0,0,1,79.943,60.589,18.18,18.18,0,0,1,64.068,76.464Zm0-16.127A18.176,18.176,0,0,1,79.943,44.461,18.18,18.18,0,0,1,64.068,60.337Z" transform="translate(12.143 -38.187)"/></g><g transform="translate(981.707 36.187)"><path class="c" d="M19.822,66.764v18h2.759v-18a15.179,15.179,0,0,0,13.764-14.5L40.11,48.5l-1.951-1.951-3.765,3.765a15.094,15.094,0,0,0-1.669.159,15.1,15.1,0,0,0,3.62-9.244l3.765-3.765-1.951-1.951-3.765,3.765a15.1,15.1,0,0,0-1.669.159,15.1,15.1,0,0,0,3.62-9.244l3.765-3.765-1.951-1.951L34.394,28.24a15.1,15.1,0,0,0-1.669.159,15.1,15.1,0,0,0,3.62-9.244L40.11,15.39,38.159,13.44,34.394,17.2a15.072,15.072,0,0,0-8.744,3.214c2.08-3.856-1.829-11.147-3.069-13.277V2H19.822V7.141c-1.24,2.13-5.15,9.422-3.069,13.277A15.072,15.072,0,0,0,8.008,17.2L4.244,13.44,2.293,15.39l3.765,3.765A15.089,15.089,0,0,0,9.677,28.4a15.1,15.1,0,0,0-1.669-.159L4.244,24.476,2.293,26.426l3.765,3.765a15.089,15.089,0,0,0,3.62,9.244,15.1,15.1,0,0,0-1.669-.159L4.244,35.511,2.293,37.462l3.765,3.765a15.089,15.089,0,0,0,3.62,9.244,15.1,15.1,0,0,0-1.669-.159L4.244,46.547,2.293,48.5l3.765,3.765a15.179,15.179,0,0,0,13.764,14.5Zm1.379-40.7a15.206,15.206,0,0,0-2.567-3.887,5.962,5.962,0,0,0,2.567.516,5.984,5.984,0,0,0,2.567-.515A15.174,15.174,0,0,0,21.2,26.063Zm0,7.664a15.218,15.218,0,0,0,2.271-.189A15.2,15.2,0,0,0,21.2,37.1a15.2,15.2,0,0,0-2.271-3.56A15.218,15.218,0,0,0,21.2,33.728Zm0,11.036a15.218,15.218,0,0,0,2.271-.189,15.2,15.2,0,0,0-2.271,3.56,15.2,15.2,0,0,0-2.271-3.56A15.218,15.218,0,0,0,21.2,44.763Zm0,11.036a15.217,15.217,0,0,0,2.271-.189A15.2,15.2,0,0,0,21.2,59.17a15.2,15.2,0,0,0-2.271-3.56A15.217,15.217,0,0,0,21.2,55.8Zm1.466,8.191A12.437,12.437,0,0,1,33.531,53.127,12.44,12.44,0,0,1,22.668,63.99Zm0-11.036A12.437,12.437,0,0,1,33.531,42.091,12.44,12.44,0,0,1,22.668,52.955Zm0-11.036A12.437,12.437,0,0,1,33.531,31.056,12.44,12.44,0,0,1,22.668,41.919Zm10.863-21.9A12.437,12.437,0,0,1,22.668,30.883,12.435,12.435,0,0,1,33.531,20.02ZM21.2,10.4c1.592,3.216,2.913,7.146,2.014,8.733-.112.2-.451.8-2.014.8s-1.9-.6-2.014-.8c-.9-1.589.422-5.518,2.014-8.733Zm-1.465,20.48A12.437,12.437,0,0,1,8.873,20.02,12.437,12.437,0,0,1,19.736,30.883Zm0,11.036A12.437,12.437,0,0,1,8.873,31.056,12.437,12.437,0,0,1,19.736,41.919Zm0,11.036A12.437,12.437,0,0,1,8.873,42.091,12.437,12.437,0,0,1,19.736,52.955Zm0,11.036A12.437,12.437,0,0,1,8.873,53.127,12.437,12.437,0,0,1,19.736,63.99Z" transform="translate(0 0)"/><path class="c" d="M19.822,66.764v18h2.759v-18a15.179,15.179,0,0,0,13.764-14.5L40.11,48.5l-1.951-1.951-3.765,3.765a15.094,15.094,0,0,0-1.669.159,15.1,15.1,0,0,0,3.62-9.244l3.765-3.765-1.951-1.951-3.765,3.765a15.1,15.1,0,0,0-1.669.159,15.1,15.1,0,0,0,3.62-9.244l3.765-3.765-1.951-1.951L34.394,28.24a15.1,15.1,0,0,0-1.669.159,15.1,15.1,0,0,0,3.62-9.244L40.11,15.39,38.159,13.44,34.394,17.2a15.072,15.072,0,0,0-8.744,3.214c2.08-3.856-1.829-11.147-3.069-13.277V2H19.822V7.141c-1.24,2.13-5.15,9.422-3.069,13.277A15.072,15.072,0,0,0,8.008,17.2L4.244,13.44,2.293,15.39l3.765,3.765A15.089,15.089,0,0,0,9.677,28.4a15.1,15.1,0,0,0-1.669-.159L4.244,24.476,2.293,26.426l3.765,3.765a15.089,15.089,0,0,0,3.62,9.244,15.1,15.1,0,0,0-1.669-.159L4.244,35.511,2.293,37.462l3.765,3.765a15.089,15.089,0,0,0,3.62,9.244,15.1,15.1,0,0,0-1.669-.159L4.244,46.547,2.293,48.5l3.765,3.765a15.179,15.179,0,0,0,13.764,14.5Zm1.379-40.7a15.206,15.206,0,0,0-2.567-3.887,5.962,5.962,0,0,0,2.567.516,5.984,5.984,0,0,0,2.567-.515A15.174,15.174,0,0,0,21.2,26.063Zm0,7.664a15.218,15.218,0,0,0,2.271-.189A15.2,15.2,0,0,0,21.2,37.1a15.2,15.2,0,0,0-2.271-3.56A15.218,15.218,0,0,0,21.2,33.728Zm0,11.036a15.218,15.218,0,0,0,2.271-.189,15.2,15.2,0,0,0-2.271,3.56,15.2,15.2,0,0,0-2.271-3.56A15.218,15.218,0,0,0,21.2,44.763Zm0,11.036a15.217,15.217,0,0,0,2.271-.189A15.2,15.2,0,0,0,21.2,59.17a15.2,15.2,0,0,0-2.271-3.56A15.217,15.217,0,0,0,21.2,55.8Zm1.466,8.191A12.437,12.437,0,0,1,33.531,53.127,12.44,12.44,0,0,1,22.668,63.99Zm0-11.036A12.437,12.437,0,0,1,33.531,42.091,12.44,12.44,0,0,1,22.668,52.955Zm0-11.036A12.437,12.437,0,0,1,33.531,31.056,12.44,12.44,0,0,1,22.668,41.919Zm10.863-21.9A12.437,12.437,0,0,1,22.668,30.883,12.435,12.435,0,0,1,33.531,20.02ZM21.2,10.4c1.592,3.216,2.913,7.146,2.014,8.733-.112.2-.451.8-2.014.8s-1.9-.6-2.014-.8c-.9-1.589.422-5.518,2.014-8.733Zm-1.465,20.48A12.437,12.437,0,0,1,8.873,20.02,12.437,12.437,0,0,1,19.736,30.883Zm0,11.036A12.437,12.437,0,0,1,8.873,31.056,12.437,12.437,0,0,1,19.736,41.919Zm0,11.036A12.437,12.437,0,0,1,8.873,42.091,12.437,12.437,0,0,1,19.736,52.955Zm0,11.036A12.437,12.437,0,0,1,8.873,53.127,12.437,12.437,0,0,1,19.736,63.99Z" transform="translate(106 0)"/><path class="c" d="M84.056,27.07l5.5-5.5-2.851-2.851-5.5,5.5a22.027,22.027,0,0,0-12.779,4.7c3.04-5.634-2.673-16.291-4.485-19.4V2H59.909V9.513c-1.812,3.113-7.525,13.769-4.485,19.4a22.026,22.026,0,0,0-12.779-4.7l-5.5-5.5-2.851,2.851,5.5,5.5a22.05,22.05,0,0,0,5.29,13.509,22.061,22.061,0,0,0-2.439-.232l-5.5-5.5L34.293,37.7l5.5,5.5a22.05,22.05,0,0,0,5.29,13.509,22.061,22.061,0,0,0-2.439-.232l-5.5-5.5-2.851,2.851,5.5,5.5a22.05,22.05,0,0,0,5.29,13.509,22.059,22.059,0,0,0-2.439-.232l-5.5-5.5-2.851,2.851,5.5,5.5A22.182,22.182,0,0,0,59.909,96.645v26.31h4.032V96.645A22.182,22.182,0,0,0,84.056,75.452l5.5-5.5L86.707,67.1l-5.5,5.5a22.057,22.057,0,0,0-2.439.232,22.062,22.062,0,0,0,5.29-13.509l5.5-5.5-2.851-2.851-5.5,5.5a22.06,22.06,0,0,0-2.439.232A22.062,22.062,0,0,0,84.056,43.2l5.5-5.5-2.851-2.851-5.5,5.5a22.062,22.062,0,0,0-2.439.232A22.05,22.05,0,0,0,84.056,27.07ZM61.925,80.621a22.238,22.238,0,0,0,3.318-.276,22.207,22.207,0,0,0-3.318,5.2,22.207,22.207,0,0,0-3.318-5.2A22.238,22.238,0,0,0,61.925,80.621Zm0-11.2a22.207,22.207,0,0,0-3.318-5.2,20.071,20.071,0,0,0,6.636,0A22.207,22.207,0,0,0,61.925,69.42Zm0-16.127a22.207,22.207,0,0,0-3.318-5.2,20.072,20.072,0,0,0,6.636,0A22.207,22.207,0,0,0,61.925,53.293Zm0-16.127a22.221,22.221,0,0,0-3.752-5.681,9.723,9.723,0,0,0,7.5,0A22.175,22.175,0,0,0,61.925,37.166Zm18.018-8.832A18.176,18.176,0,0,1,64.068,44.209,18.172,18.172,0,0,1,79.943,28.334ZM61.925,14.281c2.326,4.7,4.258,10.442,2.943,12.763-.163.286-.659,1.163-2.943,1.163s-2.78-.877-2.943-1.163C57.668,24.721,59.6,18.98,61.925,14.281ZM59.784,44.209A18.176,18.176,0,0,1,43.909,28.334,18.176,18.176,0,0,1,59.784,44.209Zm0,16.127A18.176,18.176,0,0,1,43.909,44.461,18.176,18.176,0,0,1,59.784,60.337Zm0,16.127A18.176,18.176,0,0,1,43.909,60.589,18.176,18.176,0,0,1,59.784,76.464Zm-15.875.252A18.176,18.176,0,0,1,59.784,92.591,18.176,18.176,0,0,1,43.909,76.716ZM64.068,92.591A18.176,18.176,0,0,1,79.943,76.716,18.18,18.18,0,0,1,64.068,92.591Zm0-16.127A18.176,18.176,0,0,1,79.943,60.589,18.18,18.18,0,0,1,64.068,76.464Zm0-16.127A18.176,18.176,0,0,1,79.943,44.461,18.18,18.18,0,0,1,64.068,60.337Z" transform="translate(12.143 -38.187)"/></g></g></svg>