<?xml version="1.0" standalone="no"?>
<!DOCTYPE svg PUBLIC "-//W3C//DTD SVG 1.0//EN" "http://www.w3.org/TR/2001/REC-SVG-20010904/DTD/svg10.dtd">
<svg xmlns="http://www.w3.org/2000/svg" xmlns:xlink="http://www.w3.org/1999/xlink" id="body_1" width="226" height="27">

<defs>
        <clipPath  id="1">

            <path clip-rule="evenodd" d="M0 0L1028.817 0L1028.817 120.955L0 120.955z" />        </clipPath>
</defs>

<g transform="matrix(0.21966979 0 0 0.21966979 -0 0.21492098)">
	<g clip-path="url(#1)" >
		<g transform="matrix(1 0 0 1 -2.293 36.187)">
            <path transform="matrix(1 0 0 1 0 0)"  d="M19.822 66.764L19.822 84.764L22.581001 84.764L22.581001 66.764C 30.15363 66.061264 36.03734 59.86294 36.345 52.264L36.345 52.264L40.11 48.5L38.159 46.549L34.394 50.314C 33.835148 50.33604 33.27796 50.389122 32.725002 50.473C 34.93905 47.887733 36.21469 44.630264 36.345 41.229L36.345 41.229L40.11 37.464L38.159 35.513L34.394 39.278C 33.835155 39.30005 33.27796 39.35313 32.725002 39.437C 34.93905 36.851738 36.21469 33.59427 36.345 30.193L36.345 30.193L40.11 26.428001L38.159 24.477001L34.394 28.24C 33.835155 28.262049 33.27796 28.315132 32.725002 28.399C 34.93905 25.813736 36.21469 22.556265 36.345 19.154999L36.345 19.154999L40.11 15.39L38.159 13.44L34.394 17.2C 31.213064 17.321077 28.152134 18.44617 25.650002 20.414001C 27.730001 16.558002 23.821001 9.267001 22.581001 7.137001L22.581001 7.137001L22.581001 2L19.822 2L19.822 7.141C 18.582 9.271 14.672001 16.563 16.753 20.418C 14.251093 18.448538 11.189734 17.322014 8.008 17.2L8.008 17.2L4.244 13.44L2.293 15.39L6.058 19.155C 6.1869516 22.55667 7.4623566 25.814785 9.677 28.4C 9.124041 28.316132 8.56685 28.26305 8.008 28.241L8.008 28.241L4.244 24.476L2.293 26.426L6.058 30.191C 6.187454 33.592445 7.4632034 36.85019 9.6779995 39.435C 9.12504 39.35113 8.567849 39.29805 8.009 39.276L8.009 39.276L4.244 35.511L2.293 37.462L6.058 41.227C 6.187455 44.62844 7.4632044 47.886185 9.6779995 50.471C 9.12504 50.387135 8.567849 50.334053 8.009 50.312L8.009 50.312L4.244 46.547L2.293 48.5L6.058 52.265C 6.3656645 59.86394 12.249373 66.06226 19.822 66.765L19.822 66.765L19.822 66.764zM21.201 26.064C 20.550043 24.64418 19.68422 23.333136 18.634 22.176998C 19.440859 22.537086 20.317669 22.713337 21.201 22.692999C 22.084192 22.71292 22.960838 22.537045 23.768 22.178C 22.717194 23.333145 21.850996 24.643574 21.2 26.063zM21.201 33.728C 21.96166 33.721848 22.720789 33.65867 23.472 33.539C 22.552624 34.61447 21.787905 35.813046 21.2 37.1C 20.612324 35.813446 19.84795 34.615223 18.929 33.539997C 19.680233 33.659332 20.439371 33.722176 21.2 33.728zM21.201 44.764C 21.96166 44.75785 22.720789 44.69467 23.472 44.575C 22.55305 45.650227 21.788675 46.84845 21.201 48.135002C 20.613323 46.84845 19.84895 45.650227 18.93 44.575C 19.680914 44.694283 20.439695 44.757126 21.2 44.763zM21.201 55.8C 21.961657 55.79385 22.72079 55.730675 23.472 55.611C 22.552782 56.685856 21.78807 57.883743 21.2 59.17C 20.612324 57.883446 19.84795 56.685223 18.929 55.609997C 19.68019 55.730003 20.439314 55.793518 21.2 55.8zM22.667 63.990997C 23.3512 58.298378 27.83838 53.8112 33.531 53.127C 32.845436 58.818398 28.3594 63.304436 22.668 63.99zM22.667 52.954998C 23.3512 47.262383 27.83838 42.7752 33.531 42.091C 32.845863 47.78279 28.359726 52.26934 22.668 52.955zM22.667 41.919C 23.351627 36.226772 27.838707 31.740103 33.531 31.056C 32.845436 36.7474 28.359398 41.233437 22.668 41.919zM33.53 20.019C 32.845993 25.710964 28.359838 30.197945 22.668 30.883C 23.351841 25.190763 27.838762 20.703842 33.531 20.02zM21.2 10.4C 22.792 13.615999 24.113 17.546 23.214 19.133C 23.102001 19.333 22.763 19.932999 21.2 19.932999C 19.637001 19.932999 19.300001 19.332998 19.186 19.133C 18.286001 17.543999 19.608002 13.615 21.2 10.4zM19.735 30.88C 14.044467 30.195332 9.55872 25.71041 8.873 20.02C 14.564901 20.704529 19.051468 25.191097 19.736 30.883zM19.735 41.916C 14.044467 41.23133 9.558719 36.746407 8.873 31.056C 14.564901 31.740528 19.051468 36.227097 19.736 41.919zM19.735 52.952C 14.044142 52.267235 9.558291 47.781796 8.873 42.091C 14.565229 42.77563 19.051899 47.262714 19.736 52.955zM19.735 63.988C 14.044142 63.303234 9.558291 58.817795 8.873 53.127C 14.564903 53.81153 19.05147 58.298096 19.736 63.99z" stroke="none" fill="#FAD391" fill-rule="nonzero" />
            <path transform="matrix(1 0 0 1 106 0)"  d="M19.822 66.764L19.822 84.764L22.581001 84.764L22.581001 66.764C 30.15363 66.061264 36.03734 59.86294 36.345 52.264L36.345 52.264L40.11 48.5L38.159 46.549L34.394 50.314C 33.835148 50.33604 33.27796 50.389122 32.725002 50.473C 34.93905 47.887733 36.21469 44.630264 36.345 41.229L36.345 41.229L40.11 37.464L38.159 35.513L34.394 39.278C 33.835155 39.30005 33.27796 39.35313 32.725002 39.437C 34.93905 36.851738 36.21469 33.59427 36.345 30.193L36.345 30.193L40.11 26.428001L38.159 24.477001L34.394 28.24C 33.835155 28.262049 33.27796 28.315132 32.725002 28.399C 34.93905 25.813736 36.21469 22.556265 36.345 19.154999L36.345 19.154999L40.11 15.39L38.159 13.44L34.394 17.2C 31.213064 17.321077 28.152134 18.44617 25.650002 20.414001C 27.730001 16.558002 23.821001 9.267001 22.581001 7.137001L22.581001 7.137001L22.581001 2L19.822 2L19.822 7.141C 18.582 9.271 14.672001 16.563 16.753 20.418C 14.251093 18.448538 11.189734 17.322014 8.008 17.2L8.008 17.2L4.244 13.44L2.293 15.39L6.058 19.155C 6.1869516 22.55667 7.4623566 25.814785 9.677 28.4C 9.124041 28.316132 8.56685 28.26305 8.008 28.241L8.008 28.241L4.244 24.476L2.293 26.426L6.058 30.191C 6.187454 33.592445 7.4632034 36.85019 9.6779995 39.435C 9.12504 39.35113 8.567849 39.29805 8.009 39.276L8.009 39.276L4.244 35.511L2.293 37.462L6.058 41.227C 6.187455 44.62844 7.4632044 47.886185 9.6779995 50.471C 9.12504 50.387135 8.567849 50.334053 8.009 50.312L8.009 50.312L4.244 46.547L2.293 48.5L6.058 52.265C 6.3656645 59.86394 12.249373 66.06226 19.822 66.765L19.822 66.765L19.822 66.764zM21.201 26.064C 20.550043 24.64418 19.68422 23.333136 18.634 22.176998C 19.440859 22.537086 20.317669 22.713337 21.201 22.692999C 22.084192 22.71292 22.960838 22.537045 23.768 22.178C 22.717194 23.333145 21.850996 24.643574 21.2 26.063zM21.201 33.728C 21.96166 33.721848 22.720789 33.65867 23.472 33.539C 22.552624 34.61447 21.787905 35.813046 21.2 37.1C 20.612324 35.813446 19.84795 34.615223 18.929 33.539997C 19.680233 33.659332 20.439371 33.722176 21.2 33.728zM21.201 44.764C 21.96166 44.75785 22.720789 44.69467 23.472 44.575C 22.55305 45.650227 21.788675 46.84845 21.201 48.135002C 20.613323 46.84845 19.84895 45.650227 18.93 44.575C 19.680914 44.694283 20.439695 44.757126 21.2 44.763zM21.201 55.8C 21.961657 55.79385 22.72079 55.730675 23.472 55.611C 22.552782 56.685856 21.78807 57.883743 21.2 59.17C 20.612324 57.883446 19.84795 56.685223 18.929 55.609997C 19.68019 55.730003 20.439314 55.793518 21.2 55.8zM22.667 63.990997C 23.3512 58.298378 27.83838 53.8112 33.531 53.127C 32.845436 58.818398 28.3594 63.304436 22.668 63.99zM22.667 52.954998C 23.3512 47.262383 27.83838 42.7752 33.531 42.091C 32.845863 47.78279 28.359726 52.26934 22.668 52.955zM22.667 41.919C 23.351627 36.226772 27.838707 31.740103 33.531 31.056C 32.845436 36.7474 28.359398 41.233437 22.668 41.919zM33.53 20.019C 32.845993 25.710964 28.359838 30.197945 22.668 30.883C 23.351841 25.190763 27.838762 20.703842 33.531 20.02zM21.2 10.4C 22.792 13.615999 24.113 17.546 23.214 19.133C 23.102001 19.333 22.763 19.932999 21.2 19.932999C 19.637001 19.932999 19.300001 19.332998 19.186 19.133C 18.286001 17.543999 19.608002 13.615 21.2 10.4zM19.735 30.88C 14.044467 30.195332 9.55872 25.71041 8.873 20.02C 14.564901 20.704529 19.051468 25.191097 19.736 30.883zM19.735 41.916C 14.044467 41.23133 9.558719 36.746407 8.873 31.056C 14.564901 31.740528 19.051468 36.227097 19.736 41.919zM19.735 52.952C 14.044142 52.267235 9.558291 47.781796 8.873 42.091C 14.565229 42.77563 19.051899 47.262714 19.736 52.955zM19.735 63.988C 14.044142 63.303234 9.558291 58.817795 8.873 53.127C 14.564903 53.81153 19.05147 58.298096 19.736 63.99z" stroke="none" fill="#FAD391" fill-rule="nonzero" />
            <path transform="matrix(1 0 0 1 12.143 -38.187)"  d="M84.056 27.07L89.556 21.57L86.705 18.719L81.205 24.219C 76.55587 24.396765 72.08241 26.042065 68.426 28.918999C 71.466 23.285 65.753006 12.627998 63.941 9.518999L63.941 9.518999L63.941 2L59.909 2L59.909 9.513C 58.097 12.625999 52.384 23.282 55.424 28.912998C 51.767635 26.036 47.294147 24.39069 42.645 24.212997L42.645 24.212997L37.145 18.712997L34.294 21.563997L39.794 27.063997C 39.983063 32.03479 41.84736 36.79561 45.084 40.572998C 44.27593 40.450546 43.461674 40.373096 42.645 40.341L42.645 40.341L37.145 34.841L34.293 37.7L39.793 43.2C 39.982063 48.170788 41.84636 52.93161 45.083 56.709C 44.27493 56.586548 43.460674 56.509098 42.644 56.477L42.644 56.477L37.144 50.977L34.293 53.828003L39.793 59.328003C 39.982067 64.2988 41.84636 69.059616 45.083 72.837006C 44.274925 72.714554 43.46068 72.6371 42.644 72.605L42.644 72.605L37.144 67.105L34.293 69.956L39.793 75.456C 40.24308 86.56114 48.842205 95.61895 59.909 96.645L59.909 96.645L59.909 122.954994L63.941 122.954994L63.941 96.645C 75.00886 95.618256 83.60794 86.55834 84.056 75.452L84.056 75.452L89.556 69.952L86.707 67.1L81.207 72.6C 80.39035 72.632095 79.57606 72.70955 78.768 72.832C 82.003815 69.054115 83.868 64.2936 84.058 59.323L84.058 59.323L89.558 53.823L86.707 50.972L81.207 56.472C 80.39035 56.50409 79.576065 56.581543 78.768 56.704C 82.00205 52.927174 83.86545 48.168617 84.056 43.2L84.056 43.2L89.556 37.7L86.705 34.849L81.205 40.349C 80.388336 40.381096 79.57408 40.458546 78.766 40.580997C 82.00305 36.803078 83.86737 32.041485 84.056 27.07zM61.925 80.621C 63.03634 80.612045 64.145454 80.51978 65.243 80.345C 63.90048 81.91554 62.783707 83.66576 61.924995 85.545C 61.066284 83.66576 59.949512 81.91554 58.606995 80.345C 59.704556 80.51978 60.81365 80.612045 61.925 80.621zM61.925 69.421005C 61.06629 67.54176 59.94952 65.79155 58.607 64.22101C 60.803673 64.58922 63.046318 64.58922 65.243 64.22101C 63.900555 65.791245 62.78379 67.54111 61.925 69.42zM61.925 53.294006C 61.066288 51.414764 59.949516 49.66455 58.607 48.094006C 60.80368 48.462193 63.04631 48.462193 65.243 48.094006C 63.90056 49.664238 62.783794 51.41411 61.925 53.293zM61.925 37.167007C 60.97357 35.09185 59.70806 33.175705 58.173 31.486008C 60.572403 32.48902 63.273605 32.48902 65.673004 31.486008C 64.13886 33.175217 62.87465 35.091103 61.925 37.166zM79.943 28.335007C 78.94194 36.652527 72.38559 43.208466 64.068 44.209C 65.06726 35.89042 71.62442 29.333256 79.943 28.334zM61.925 14.281C 64.251 18.980999 66.183 24.723 64.868 27.043999C 64.704994 27.329998 64.209 28.206999 61.924995 28.206999C 59.64099 28.206999 59.144997 27.329998 58.981995 27.043999C 57.668 24.721 59.6 18.98 61.925 14.281zM59.784 44.209C 51.46609 43.208366 44.909637 36.651913 43.909 28.334C 52.22691 29.334631 58.783363 35.891087 59.784 44.209zM59.784 60.336C 51.46609 59.335365 44.909637 52.77891 43.909 44.461C 52.22724 45.46173 58.7838 52.018696 59.784 60.337zM59.784 76.463C 51.46641 75.46246 44.91006 68.906525 43.909 60.589C 52.226913 61.58963 58.783363 68.14608 59.784 76.464zM43.909 76.715C 52.22724 77.71573 58.7838 84.2727 59.784 92.591C 51.46609 91.59037 44.909637 85.03392 43.909 76.716zM64.068 92.591C 65.068634 84.27309 71.625084 77.71664 79.943 76.716C 78.940994 85.03325 72.38525 91.589 64.068 92.591zM64.068 76.464005C 65.06863 68.14609 71.625084 61.589638 79.943 60.589C 78.940994 68.90624 72.38525 75.46199 64.068 76.464zM64.068 60.337006C 65.0682 52.0187 71.624756 45.461727 79.943 44.461C 78.94142 52.778637 72.385574 59.3349 64.068 60.337z" stroke="none" fill="#FAD391" fill-rule="nonzero" />
		</g>
		<g transform="matrix(1 0 0 1 161.707 36.187)">
            <path transform="matrix(1 0 0 1 0 0)"  d="M19.822 66.764L19.822 84.764L22.581001 84.764L22.581001 66.764C 30.15363 66.061264 36.03734 59.86294 36.345 52.264L36.345 52.264L40.11 48.5L38.159 46.549L34.394 50.314C 33.835148 50.33604 33.27796 50.389122 32.725002 50.473C 34.93905 47.887733 36.21469 44.630264 36.345 41.229L36.345 41.229L40.11 37.464L38.159 35.513L34.394 39.278C 33.835155 39.30005 33.27796 39.35313 32.725002 39.437C 34.93905 36.851738 36.21469 33.59427 36.345 30.193L36.345 30.193L40.11 26.428001L38.159 24.477001L34.394 28.24C 33.835155 28.262049 33.27796 28.315132 32.725002 28.399C 34.93905 25.813736 36.21469 22.556265 36.345 19.154999L36.345 19.154999L40.11 15.39L38.159 13.44L34.394 17.2C 31.213064 17.321077 28.152134 18.44617 25.650002 20.414001C 27.730001 16.558002 23.821001 9.267001 22.581001 7.137001L22.581001 7.137001L22.581001 2L19.822 2L19.822 7.141C 18.582 9.271 14.672001 16.563 16.753 20.418C 14.251093 18.448538 11.189734 17.322014 8.008 17.2L8.008 17.2L4.244 13.44L2.293 15.39L6.058 19.155C 6.1869516 22.55667 7.4623566 25.814785 9.677 28.4C 9.124041 28.316132 8.56685 28.26305 8.008 28.241L8.008 28.241L4.244 24.476L2.293 26.426L6.058 30.191C 6.187454 33.592445 7.4632034 36.85019 9.6779995 39.435C 9.12504 39.35113 8.567849 39.29805 8.009 39.276L8.009 39.276L4.244 35.511L2.293 37.462L6.058 41.227C 6.187455 44.62844 7.4632044 47.886185 9.6779995 50.471C 9.12504 50.387135 8.567849 50.334053 8.009 50.312L8.009 50.312L4.244 46.547L2.293 48.5L6.058 52.265C 6.3656645 59.86394 12.249373 66.06226 19.822 66.765L19.822 66.765L19.822 66.764zM21.201 26.064C 20.550043 24.64418 19.68422 23.333136 18.634 22.176998C 19.440859 22.537086 20.317669 22.713337 21.201 22.692999C 22.084192 22.71292 22.960838 22.537045 23.768 22.178C 22.717194 23.333145 21.850996 24.643574 21.2 26.063zM21.201 33.728C 21.96166 33.721848 22.720789 33.65867 23.472 33.539C 22.552624 34.61447 21.787905 35.813046 21.2 37.1C 20.612324 35.813446 19.84795 34.615223 18.929 33.539997C 19.680233 33.659332 20.439371 33.722176 21.2 33.728zM21.201 44.764C 21.96166 44.75785 22.720789 44.69467 23.472 44.575C 22.55305 45.650227 21.788675 46.84845 21.201 48.135002C 20.613323 46.84845 19.84895 45.650227 18.93 44.575C 19.680914 44.694283 20.439695 44.757126 21.2 44.763zM21.201 55.8C 21.961657 55.79385 22.72079 55.730675 23.472 55.611C 22.552782 56.685856 21.78807 57.883743 21.2 59.17C 20.612324 57.883446 19.84795 56.685223 18.929 55.609997C 19.68019 55.730003 20.439314 55.793518 21.2 55.8zM22.667 63.990997C 23.3512 58.298378 27.83838 53.8112 33.531 53.127C 32.845436 58.818398 28.3594 63.304436 22.668 63.99zM22.667 52.954998C 23.3512 47.262383 27.83838 42.7752 33.531 42.091C 32.845863 47.78279 28.359726 52.26934 22.668 52.955zM22.667 41.919C 23.351627 36.226772 27.838707 31.740103 33.531 31.056C 32.845436 36.7474 28.359398 41.233437 22.668 41.919zM33.53 20.019C 32.845993 25.710964 28.359838 30.197945 22.668 30.883C 23.351841 25.190763 27.838762 20.703842 33.531 20.02zM21.2 10.4C 22.792 13.615999 24.113 17.546 23.214 19.133C 23.102001 19.333 22.763 19.932999 21.2 19.932999C 19.637001 19.932999 19.300001 19.332998 19.186 19.133C 18.286001 17.543999 19.608002 13.615 21.2 10.4zM19.735 30.88C 14.044467 30.195332 9.55872 25.71041 8.873 20.02C 14.564901 20.704529 19.051468 25.191097 19.736 30.883zM19.735 41.916C 14.044467 41.23133 9.558719 36.746407 8.873 31.056C 14.564901 31.740528 19.051468 36.227097 19.736 41.919zM19.735 52.952C 14.044142 52.267235 9.558291 47.781796 8.873 42.091C 14.565229 42.77563 19.051899 47.262714 19.736 52.955zM19.735 63.988C 14.044142 63.303234 9.558291 58.817795 8.873 53.127C 14.564903 53.81153 19.05147 58.298096 19.736 63.99z" stroke="none" fill="#FAD391" fill-rule="nonzero" />
            <path transform="matrix(1 0 0 1 106 0)"  d="M19.822 66.764L19.822 84.764L22.581001 84.764L22.581001 66.764C 30.15363 66.061264 36.03734 59.86294 36.345 52.264L36.345 52.264L40.11 48.5L38.159 46.549L34.394 50.314C 33.835148 50.33604 33.27796 50.389122 32.725002 50.473C 34.93905 47.887733 36.21469 44.630264 36.345 41.229L36.345 41.229L40.11 37.464L38.159 35.513L34.394 39.278C 33.835155 39.30005 33.27796 39.35313 32.725002 39.437C 34.93905 36.851738 36.21469 33.59427 36.345 30.193L36.345 30.193L40.11 26.428001L38.159 24.477001L34.394 28.24C 33.835155 28.262049 33.27796 28.315132 32.725002 28.399C 34.93905 25.813736 36.21469 22.556265 36.345 19.154999L36.345 19.154999L40.11 15.39L38.159 13.44L34.394 17.2C 31.213064 17.321077 28.152134 18.44617 25.650002 20.414001C 27.730001 16.558002 23.821001 9.267001 22.581001 7.137001L22.581001 7.137001L22.581001 2L19.822 2L19.822 7.141C 18.582 9.271 14.672001 16.563 16.753 20.418C 14.251093 18.448538 11.189734 17.322014 8.008 17.2L8.008 17.2L4.244 13.44L2.293 15.39L6.058 19.155C 6.1869516 22.55667 7.4623566 25.814785 9.677 28.4C 9.124041 28.316132 8.56685 28.26305 8.008 28.241L8.008 28.241L4.244 24.476L2.293 26.426L6.058 30.191C 6.187454 33.592445 7.4632034 36.85019 9.6779995 39.435C 9.12504 39.35113 8.567849 39.29805 8.009 39.276L8.009 39.276L4.244 35.511L2.293 37.462L6.058 41.227C 6.187455 44.62844 7.4632044 47.886185 9.6779995 50.471C 9.12504 50.387135 8.567849 50.334053 8.009 50.312L8.009 50.312L4.244 46.547L2.293 48.5L6.058 52.265C 6.3656645 59.86394 12.249373 66.06226 19.822 66.765L19.822 66.765L19.822 66.764zM21.201 26.064C 20.550043 24.64418 19.68422 23.333136 18.634 22.176998C 19.440859 22.537086 20.317669 22.713337 21.201 22.692999C 22.084192 22.71292 22.960838 22.537045 23.768 22.178C 22.717194 23.333145 21.850996 24.643574 21.2 26.063zM21.201 33.728C 21.96166 33.721848 22.720789 33.65867 23.472 33.539C 22.552624 34.61447 21.787905 35.813046 21.2 37.1C 20.612324 35.813446 19.84795 34.615223 18.929 33.539997C 19.680233 33.659332 20.439371 33.722176 21.2 33.728zM21.201 44.764C 21.96166 44.75785 22.720789 44.69467 23.472 44.575C 22.55305 45.650227 21.788675 46.84845 21.201 48.135002C 20.613323 46.84845 19.84895 45.650227 18.93 44.575C 19.680914 44.694283 20.439695 44.757126 21.2 44.763zM21.201 55.8C 21.961657 55.79385 22.72079 55.730675 23.472 55.611C 22.552782 56.685856 21.78807 57.883743 21.2 59.17C 20.612324 57.883446 19.84795 56.685223 18.929 55.609997C 19.68019 55.730003 20.439314 55.793518 21.2 55.8zM22.667 63.990997C 23.3512 58.298378 27.83838 53.8112 33.531 53.127C 32.845436 58.818398 28.3594 63.304436 22.668 63.99zM22.667 52.954998C 23.3512 47.262383 27.83838 42.7752 33.531 42.091C 32.845863 47.78279 28.359726 52.26934 22.668 52.955zM22.667 41.919C 23.351627 36.226772 27.838707 31.740103 33.531 31.056C 32.845436 36.7474 28.359398 41.233437 22.668 41.919zM33.53 20.019C 32.845993 25.710964 28.359838 30.197945 22.668 30.883C 23.351841 25.190763 27.838762 20.703842 33.531 20.02zM21.2 10.4C 22.792 13.615999 24.113 17.546 23.214 19.133C 23.102001 19.333 22.763 19.932999 21.2 19.932999C 19.637001 19.932999 19.300001 19.332998 19.186 19.133C 18.286001 17.543999 19.608002 13.615 21.2 10.4zM19.735 30.88C 14.044467 30.195332 9.55872 25.71041 8.873 20.02C 14.564901 20.704529 19.051468 25.191097 19.736 30.883zM19.735 41.916C 14.044467 41.23133 9.558719 36.746407 8.873 31.056C 14.564901 31.740528 19.051468 36.227097 19.736 41.919zM19.735 52.952C 14.044142 52.267235 9.558291 47.781796 8.873 42.091C 14.565229 42.77563 19.051899 47.262714 19.736 52.955zM19.735 63.988C 14.044142 63.303234 9.558291 58.817795 8.873 53.127C 14.564903 53.81153 19.05147 58.298096 19.736 63.99z" stroke="none" fill="#FAD391" fill-rule="nonzero" />
            <path transform="matrix(1 0 0 1 12.143 -38.187)"  d="M84.056 27.07L89.556 21.57L86.705 18.719L81.205 24.219C 76.55587 24.396765 72.08241 26.042065 68.426 28.918999C 71.466 23.285 65.753006 12.627998 63.941 9.518999L63.941 9.518999L63.941 2L59.909 2L59.909 9.513C 58.097 12.625999 52.384 23.282 55.424 28.912998C 51.767635 26.036 47.294147 24.39069 42.645 24.212997L42.645 24.212997L37.145 18.712997L34.294 21.563997L39.794 27.063997C 39.983063 32.03479 41.84736 36.79561 45.084 40.572998C 44.27593 40.450546 43.461674 40.373096 42.645 40.341L42.645 40.341L37.145 34.841L34.293 37.7L39.793 43.2C 39.982063 48.170788 41.84636 52.93161 45.083 56.709C 44.27493 56.586548 43.460674 56.509098 42.644 56.477L42.644 56.477L37.144 50.977L34.293 53.828003L39.793 59.328003C 39.982067 64.2988 41.84636 69.059616 45.083 72.837006C 44.274925 72.714554 43.46068 72.6371 42.644 72.605L42.644 72.605L37.144 67.105L34.293 69.956L39.793 75.456C 40.24308 86.56114 48.842205 95.61895 59.909 96.645L59.909 96.645L59.909 122.954994L63.941 122.954994L63.941 96.645C 75.00886 95.618256 83.60794 86.55834 84.056 75.452L84.056 75.452L89.556 69.952L86.707 67.1L81.207 72.6C 80.39035 72.632095 79.57606 72.70955 78.768 72.832C 82.003815 69.054115 83.868 64.2936 84.058 59.323L84.058 59.323L89.558 53.823L86.707 50.972L81.207 56.472C 80.39035 56.50409 79.576065 56.581543 78.768 56.704C 82.00205 52.927174 83.86545 48.168617 84.056 43.2L84.056 43.2L89.556 37.7L86.705 34.849L81.205 40.349C 80.388336 40.381096 79.57408 40.458546 78.766 40.580997C 82.00305 36.803078 83.86737 32.041485 84.056 27.07zM61.925 80.621C 63.03634 80.612045 64.145454 80.51978 65.243 80.345C 63.90048 81.91554 62.783707 83.66576 61.924995 85.545C 61.066284 83.66576 59.949512 81.91554 58.606995 80.345C 59.704556 80.51978 60.81365 80.612045 61.925 80.621zM61.925 69.421005C 61.06629 67.54176 59.94952 65.79155 58.607 64.22101C 60.803673 64.58922 63.046318 64.58922 65.243 64.22101C 63.900555 65.791245 62.78379 67.54111 61.925 69.42zM61.925 53.294006C 61.066288 51.414764 59.949516 49.66455 58.607 48.094006C 60.80368 48.462193 63.04631 48.462193 65.243 48.094006C 63.90056 49.664238 62.783794 51.41411 61.925 53.293zM61.925 37.167007C 60.97357 35.09185 59.70806 33.175705 58.173 31.486008C 60.572403 32.48902 63.273605 32.48902 65.673004 31.486008C 64.13886 33.175217 62.87465 35.091103 61.925 37.166zM79.943 28.335007C 78.94194 36.652527 72.38559 43.208466 64.068 44.209C 65.06726 35.89042 71.62442 29.333256 79.943 28.334zM61.925 14.281C 64.251 18.980999 66.183 24.723 64.868 27.043999C 64.704994 27.329998 64.209 28.206999 61.924995 28.206999C 59.64099 28.206999 59.144997 27.329998 58.981995 27.043999C 57.668 24.721 59.6 18.98 61.925 14.281zM59.784 44.209C 51.46609 43.208366 44.909637 36.651913 43.909 28.334C 52.22691 29.334631 58.783363 35.891087 59.784 44.209zM59.784 60.336C 51.46609 59.335365 44.909637 52.77891 43.909 44.461C 52.22724 45.46173 58.7838 52.018696 59.784 60.337zM59.784 76.463C 51.46641 75.46246 44.91006 68.906525 43.909 60.589C 52.226913 61.58963 58.783363 68.14608 59.784 76.464zM43.909 76.715C 52.22724 77.71573 58.7838 84.2727 59.784 92.591C 51.46609 91.59037 44.909637 85.03392 43.909 76.716zM64.068 92.591C 65.068634 84.27309 71.625084 77.71664 79.943 76.716C 78.940994 85.03325 72.38525 91.589 64.068 92.591zM64.068 76.464005C 65.06863 68.14609 71.625084 61.589638 79.943 60.589C 78.940994 68.90624 72.38525 75.46199 64.068 76.464zM64.068 60.337006C 65.0682 52.0187 71.624756 45.461727 79.943 44.461C 78.94142 52.778637 72.385574 59.3349 64.068 60.337z" stroke="none" fill="#FAD391" fill-rule="nonzero" />
		</g>
		<g transform="matrix(1 0 0 1 325.707 36.187)">
            <path transform="matrix(1 0 0 1 0 0)"  d="M19.822 66.764L19.822 84.764L22.581001 84.764L22.581001 66.764C 30.15363 66.061264 36.03734 59.86294 36.345 52.264L36.345 52.264L40.11 48.5L38.159 46.549L34.394 50.314C 33.835148 50.33604 33.27796 50.389122 32.725002 50.473C 34.93905 47.887733 36.21469 44.630264 36.345 41.229L36.345 41.229L40.11 37.464L38.159 35.513L34.394 39.278C 33.835155 39.30005 33.27796 39.35313 32.725002 39.437C 34.93905 36.851738 36.21469 33.59427 36.345 30.193L36.345 30.193L40.11 26.428001L38.159 24.477001L34.394 28.24C 33.835155 28.262049 33.27796 28.315132 32.725002 28.399C 34.93905 25.813736 36.21469 22.556265 36.345 19.154999L36.345 19.154999L40.11 15.39L38.159 13.44L34.394 17.2C 31.213064 17.321077 28.152134 18.44617 25.650002 20.414001C 27.730001 16.558002 23.821001 9.267001 22.581001 7.137001L22.581001 7.137001L22.581001 2L19.822 2L19.822 7.141C 18.582 9.271 14.672001 16.563 16.753 20.418C 14.251093 18.448538 11.189734 17.322014 8.008 17.2L8.008 17.2L4.244 13.44L2.293 15.39L6.058 19.155C 6.1869516 22.55667 7.4623566 25.814785 9.677 28.4C 9.124041 28.316132 8.56685 28.26305 8.008 28.241L8.008 28.241L4.244 24.476L2.293 26.426L6.058 30.191C 6.187454 33.592445 7.4632034 36.85019 9.6779995 39.435C 9.12504 39.35113 8.567849 39.29805 8.009 39.276L8.009 39.276L4.244 35.511L2.293 37.462L6.058 41.227C 6.187455 44.62844 7.4632044 47.886185 9.6779995 50.471C 9.12504 50.387135 8.567849 50.334053 8.009 50.312L8.009 50.312L4.244 46.547L2.293 48.5L6.058 52.265C 6.3656645 59.86394 12.249373 66.06226 19.822 66.765L19.822 66.765L19.822 66.764zM21.201 26.064C 20.550043 24.64418 19.68422 23.333136 18.634 22.176998C 19.440859 22.537086 20.317669 22.713337 21.201 22.692999C 22.084192 22.71292 22.960838 22.537045 23.768 22.178C 22.717194 23.333145 21.850996 24.643574 21.2 26.063zM21.201 33.728C 21.96166 33.721848 22.720789 33.65867 23.472 33.539C 22.552624 34.61447 21.787905 35.813046 21.2 37.1C 20.612324 35.813446 19.84795 34.615223 18.929 33.539997C 19.680233 33.659332 20.439371 33.722176 21.2 33.728zM21.201 44.764C 21.96166 44.75785 22.720789 44.69467 23.472 44.575C 22.55305 45.650227 21.788675 46.84845 21.201 48.135002C 20.613323 46.84845 19.84895 45.650227 18.93 44.575C 19.680914 44.694283 20.439695 44.757126 21.2 44.763zM21.201 55.8C 21.961657 55.79385 22.72079 55.730675 23.472 55.611C 22.552782 56.685856 21.78807 57.883743 21.2 59.17C 20.612324 57.883446 19.84795 56.685223 18.929 55.609997C 19.68019 55.730003 20.439314 55.793518 21.2 55.8zM22.667 63.990997C 23.3512 58.298378 27.83838 53.8112 33.531 53.127C 32.845436 58.818398 28.3594 63.304436 22.668 63.99zM22.667 52.954998C 23.3512 47.262383 27.83838 42.7752 33.531 42.091C 32.845863 47.78279 28.359726 52.26934 22.668 52.955zM22.667 41.919C 23.351627 36.226772 27.838707 31.740103 33.531 31.056C 32.845436 36.7474 28.359398 41.233437 22.668 41.919zM33.53 20.019C 32.845993 25.710964 28.359838 30.197945 22.668 30.883C 23.351841 25.190763 27.838762 20.703842 33.531 20.02zM21.2 10.4C 22.792 13.615999 24.113 17.546 23.214 19.133C 23.102001 19.333 22.763 19.932999 21.2 19.932999C 19.637001 19.932999 19.300001 19.332998 19.186 19.133C 18.286001 17.543999 19.608002 13.615 21.2 10.4zM19.735 30.88C 14.044467 30.195332 9.55872 25.71041 8.873 20.02C 14.564901 20.704529 19.051468 25.191097 19.736 30.883zM19.735 41.916C 14.044467 41.23133 9.558719 36.746407 8.873 31.056C 14.564901 31.740528 19.051468 36.227097 19.736 41.919zM19.735 52.952C 14.044142 52.267235 9.558291 47.781796 8.873 42.091C 14.565229 42.77563 19.051899 47.262714 19.736 52.955zM19.735 63.988C 14.044142 63.303234 9.558291 58.817795 8.873 53.127C 14.564903 53.81153 19.05147 58.298096 19.736 63.99z" stroke="none" fill="#FAD391" fill-rule="nonzero" />
            <path transform="matrix(1 0 0 1 106 0)"  d="M19.822 66.764L19.822 84.764L22.581001 84.764L22.581001 66.764C 30.15363 66.061264 36.03734 59.86294 36.345 52.264L36.345 52.264L40.11 48.5L38.159 46.549L34.394 50.314C 33.835148 50.33604 33.27796 50.389122 32.725002 50.473C 34.93905 47.887733 36.21469 44.630264 36.345 41.229L36.345 41.229L40.11 37.464L38.159 35.513L34.394 39.278C 33.835155 39.30005 33.27796 39.35313 32.725002 39.437C 34.93905 36.851738 36.21469 33.59427 36.345 30.193L36.345 30.193L40.11 26.428001L38.159 24.477001L34.394 28.24C 33.835155 28.262049 33.27796 28.315132 32.725002 28.399C 34.93905 25.813736 36.21469 22.556265 36.345 19.154999L36.345 19.154999L40.11 15.39L38.159 13.44L34.394 17.2C 31.213064 17.321077 28.152134 18.44617 25.650002 20.414001C 27.730001 16.558002 23.821001 9.267001 22.581001 7.137001L22.581001 7.137001L22.581001 2L19.822 2L19.822 7.141C 18.582 9.271 14.672001 16.563 16.753 20.418C 14.251093 18.448538 11.189734 17.322014 8.008 17.2L8.008 17.2L4.244 13.44L2.293 15.39L6.058 19.155C 6.1869516 22.55667 7.4623566 25.814785 9.677 28.4C 9.124041 28.316132 8.56685 28.26305 8.008 28.241L8.008 28.241L4.244 24.476L2.293 26.426L6.058 30.191C 6.187454 33.592445 7.4632034 36.85019 9.6779995 39.435C 9.12504 39.35113 8.567849 39.29805 8.009 39.276L8.009 39.276L4.244 35.511L2.293 37.462L6.058 41.227C 6.187455 44.62844 7.4632044 47.886185 9.6779995 50.471C 9.12504 50.387135 8.567849 50.334053 8.009 50.312L8.009 50.312L4.244 46.547L2.293 48.5L6.058 52.265C 6.3656645 59.86394 12.249373 66.06226 19.822 66.765L19.822 66.765L19.822 66.764zM21.201 26.064C 20.550043 24.64418 19.68422 23.333136 18.634 22.176998C 19.440859 22.537086 20.317669 22.713337 21.201 22.692999C 22.084192 22.71292 22.960838 22.537045 23.768 22.178C 22.717194 23.333145 21.850996 24.643574 21.2 26.063zM21.201 33.728C 21.96166 33.721848 22.720789 33.65867 23.472 33.539C 22.552624 34.61447 21.787905 35.813046 21.2 37.1C 20.612324 35.813446 19.84795 34.615223 18.929 33.539997C 19.680233 33.659332 20.439371 33.722176 21.2 33.728zM21.201 44.764C 21.96166 44.75785 22.720789 44.69467 23.472 44.575C 22.55305 45.650227 21.788675 46.84845 21.201 48.135002C 20.613323 46.84845 19.84895 45.650227 18.93 44.575C 19.680914 44.694283 20.439695 44.757126 21.2 44.763zM21.201 55.8C 21.961657 55.79385 22.72079 55.730675 23.472 55.611C 22.552782 56.685856 21.78807 57.883743 21.2 59.17C 20.612324 57.883446 19.84795 56.685223 18.929 55.609997C 19.68019 55.730003 20.439314 55.793518 21.2 55.8zM22.667 63.990997C 23.3512 58.298378 27.83838 53.8112 33.531 53.127C 32.845436 58.818398 28.3594 63.304436 22.668 63.99zM22.667 52.954998C 23.3512 47.262383 27.83838 42.7752 33.531 42.091C 32.845863 47.78279 28.359726 52.26934 22.668 52.955zM22.667 41.919C 23.351627 36.226772 27.838707 31.740103 33.531 31.056C 32.845436 36.7474 28.359398 41.233437 22.668 41.919zM33.53 20.019C 32.845993 25.710964 28.359838 30.197945 22.668 30.883C 23.351841 25.190763 27.838762 20.703842 33.531 20.02zM21.2 10.4C 22.792 13.615999 24.113 17.546 23.214 19.133C 23.102001 19.333 22.763 19.932999 21.2 19.932999C 19.637001 19.932999 19.300001 19.332998 19.186 19.133C 18.286001 17.543999 19.608002 13.615 21.2 10.4zM19.735 30.88C 14.044467 30.195332 9.55872 25.71041 8.873 20.02C 14.564901 20.704529 19.051468 25.191097 19.736 30.883zM19.735 41.916C 14.044467 41.23133 9.558719 36.746407 8.873 31.056C 14.564901 31.740528 19.051468 36.227097 19.736 41.919zM19.735 52.952C 14.044142 52.267235 9.558291 47.781796 8.873 42.091C 14.565229 42.77563 19.051899 47.262714 19.736 52.955zM19.735 63.988C 14.044142 63.303234 9.558291 58.817795 8.873 53.127C 14.564903 53.81153 19.05147 58.298096 19.736 63.99z" stroke="none" fill="#FAD391" fill-rule="nonzero" />
            <path transform="matrix(1 0 0 1 12.143 -38.187)"  d="M84.056 27.07L89.556 21.57L86.705 18.719L81.205 24.219C 76.55587 24.396765 72.08241 26.042065 68.426 28.918999C 71.466 23.285 65.753006 12.627998 63.941 9.518999L63.941 9.518999L63.941 2L59.909 2L59.909 9.513C 58.097 12.625999 52.384 23.282 55.424 28.912998C 51.767635 26.036 47.294147 24.39069 42.645 24.212997L42.645 24.212997L37.145 18.712997L34.294 21.563997L39.794 27.063997C 39.983063 32.03479 41.84736 36.79561 45.084 40.572998C 44.27593 40.450546 43.461674 40.373096 42.645 40.341L42.645 40.341L37.145 34.841L34.293 37.7L39.793 43.2C 39.982063 48.170788 41.84636 52.93161 45.083 56.709C 44.27493 56.586548 43.460674 56.509098 42.644 56.477L42.644 56.477L37.144 50.977L34.293 53.828003L39.793 59.328003C 39.982067 64.2988 41.84636 69.059616 45.083 72.837006C 44.274925 72.714554 43.46068 72.6371 42.644 72.605L42.644 72.605L37.144 67.105L34.293 69.956L39.793 75.456C 40.24308 86.56114 48.842205 95.61895 59.909 96.645L59.909 96.645L59.909 122.954994L63.941 122.954994L63.941 96.645C 75.00886 95.618256 83.60794 86.55834 84.056 75.452L84.056 75.452L89.556 69.952L86.707 67.1L81.207 72.6C 80.39035 72.632095 79.57606 72.70955 78.768 72.832C 82.003815 69.054115 83.868 64.2936 84.058 59.323L84.058 59.323L89.558 53.823L86.707 50.972L81.207 56.472C 80.39035 56.50409 79.576065 56.581543 78.768 56.704C 82.00205 52.927174 83.86545 48.168617 84.056 43.2L84.056 43.2L89.556 37.7L86.705 34.849L81.205 40.349C 80.388336 40.381096 79.57408 40.458546 78.766 40.580997C 82.00305 36.803078 83.86737 32.041485 84.056 27.07zM61.925 80.621C 63.03634 80.612045 64.145454 80.51978 65.243 80.345C 63.90048 81.91554 62.783707 83.66576 61.924995 85.545C 61.066284 83.66576 59.949512 81.91554 58.606995 80.345C 59.704556 80.51978 60.81365 80.612045 61.925 80.621zM61.925 69.421005C 61.06629 67.54176 59.94952 65.79155 58.607 64.22101C 60.803673 64.58922 63.046318 64.58922 65.243 64.22101C 63.900555 65.791245 62.78379 67.54111 61.925 69.42zM61.925 53.294006C 61.066288 51.414764 59.949516 49.66455 58.607 48.094006C 60.80368 48.462193 63.04631 48.462193 65.243 48.094006C 63.90056 49.664238 62.783794 51.41411 61.925 53.293zM61.925 37.167007C 60.97357 35.09185 59.70806 33.175705 58.173 31.486008C 60.572403 32.48902 63.273605 32.48902 65.673004 31.486008C 64.13886 33.175217 62.87465 35.091103 61.925 37.166zM79.943 28.335007C 78.94194 36.652527 72.38559 43.208466 64.068 44.209C 65.06726 35.89042 71.62442 29.333256 79.943 28.334zM61.925 14.281C 64.251 18.980999 66.183 24.723 64.868 27.043999C 64.704994 27.329998 64.209 28.206999 61.924995 28.206999C 59.64099 28.206999 59.144997 27.329998 58.981995 27.043999C 57.668 24.721 59.6 18.98 61.925 14.281zM59.784 44.209C 51.46609 43.208366 44.909637 36.651913 43.909 28.334C 52.22691 29.334631 58.783363 35.891087 59.784 44.209zM59.784 60.336C 51.46609 59.335365 44.909637 52.77891 43.909 44.461C 52.22724 45.46173 58.7838 52.018696 59.784 60.337zM59.784 76.463C 51.46641 75.46246 44.91006 68.906525 43.909 60.589C 52.226913 61.58963 58.783363 68.14608 59.784 76.464zM43.909 76.715C 52.22724 77.71573 58.7838 84.2727 59.784 92.591C 51.46609 91.59037 44.909637 85.03392 43.909 76.716zM64.068 92.591C 65.068634 84.27309 71.625084 77.71664 79.943 76.716C 78.940994 85.03325 72.38525 91.589 64.068 92.591zM64.068 76.464005C 65.06863 68.14609 71.625084 61.589638 79.943 60.589C 78.940994 68.90624 72.38525 75.46199 64.068 76.464zM64.068 60.337006C 65.0682 52.0187 71.624756 45.461727 79.943 44.461C 78.94142 52.778637 72.385574 59.3349 64.068 60.337z" stroke="none" fill="#FAD391" fill-rule="nonzero" />
		</g>
		<g transform="matrix(1 0 0 1 489.707 36.187)">
            <path transform="matrix(1 0 0 1 0 0)"  d="M19.822 66.764L19.822 84.764L22.581001 84.764L22.581001 66.764C 30.15363 66.061264 36.03734 59.86294 36.345 52.264L36.345 52.264L40.11 48.5L38.159 46.549L34.394 50.314C 33.835148 50.33604 33.27796 50.389122 32.725002 50.473C 34.93905 47.887733 36.21469 44.630264 36.345 41.229L36.345 41.229L40.11 37.464L38.159 35.513L34.394 39.278C 33.835155 39.30005 33.27796 39.35313 32.725002 39.437C 34.93905 36.851738 36.21469 33.59427 36.345 30.193L36.345 30.193L40.11 26.428001L38.159 24.477001L34.394 28.24C 33.835155 28.262049 33.27796 28.315132 32.725002 28.399C 34.93905 25.813736 36.21469 22.556265 36.345 19.154999L36.345 19.154999L40.11 15.39L38.159 13.44L34.394 17.2C 31.213064 17.321077 28.152134 18.44617 25.650002 20.414001C 27.730001 16.558002 23.821001 9.267001 22.581001 7.137001L22.581001 7.137001L22.581001 2L19.822 2L19.822 7.141C 18.582 9.271 14.672001 16.563 16.753 20.418C 14.251093 18.448538 11.189734 17.322014 8.008 17.2L8.008 17.2L4.244 13.44L2.293 15.39L6.058 19.155C 6.1869516 22.55667 7.4623566 25.814785 9.677 28.4C 9.124041 28.316132 8.56685 28.26305 8.008 28.241L8.008 28.241L4.244 24.476L2.293 26.426L6.058 30.191C 6.187454 33.592445 7.4632034 36.85019 9.6779995 39.435C 9.12504 39.35113 8.567849 39.29805 8.009 39.276L8.009 39.276L4.244 35.511L2.293 37.462L6.058 41.227C 6.187455 44.62844 7.4632044 47.886185 9.6779995 50.471C 9.12504 50.387135 8.567849 50.334053 8.009 50.312L8.009 50.312L4.244 46.547L2.293 48.5L6.058 52.265C 6.3656645 59.86394 12.249373 66.06226 19.822 66.765L19.822 66.765L19.822 66.764zM21.201 26.064C 20.550043 24.64418 19.68422 23.333136 18.634 22.176998C 19.440859 22.537086 20.317669 22.713337 21.201 22.692999C 22.084192 22.71292 22.960838 22.537045 23.768 22.178C 22.717194 23.333145 21.850996 24.643574 21.2 26.063zM21.201 33.728C 21.96166 33.721848 22.720789 33.65867 23.472 33.539C 22.552624 34.61447 21.787905 35.813046 21.2 37.1C 20.612324 35.813446 19.84795 34.615223 18.929 33.539997C 19.680233 33.659332 20.439371 33.722176 21.2 33.728zM21.201 44.764C 21.96166 44.75785 22.720789 44.69467 23.472 44.575C 22.55305 45.650227 21.788675 46.84845 21.201 48.135002C 20.613323 46.84845 19.84895 45.650227 18.93 44.575C 19.680914 44.694283 20.439695 44.757126 21.2 44.763zM21.201 55.8C 21.961657 55.79385 22.72079 55.730675 23.472 55.611C 22.552782 56.685856 21.78807 57.883743 21.2 59.17C 20.612324 57.883446 19.84795 56.685223 18.929 55.609997C 19.68019 55.730003 20.439314 55.793518 21.2 55.8zM22.667 63.990997C 23.3512 58.298378 27.83838 53.8112 33.531 53.127C 32.845436 58.818398 28.3594 63.304436 22.668 63.99zM22.667 52.954998C 23.3512 47.262383 27.83838 42.7752 33.531 42.091C 32.845863 47.78279 28.359726 52.26934 22.668 52.955zM22.667 41.919C 23.351627 36.226772 27.838707 31.740103 33.531 31.056C 32.845436 36.7474 28.359398 41.233437 22.668 41.919zM33.53 20.019C 32.845993 25.710964 28.359838 30.197945 22.668 30.883C 23.351841 25.190763 27.838762 20.703842 33.531 20.02zM21.2 10.4C 22.792 13.615999 24.113 17.546 23.214 19.133C 23.102001 19.333 22.763 19.932999 21.2 19.932999C 19.637001 19.932999 19.300001 19.332998 19.186 19.133C 18.286001 17.543999 19.608002 13.615 21.2 10.4zM19.735 30.88C 14.044467 30.195332 9.55872 25.71041 8.873 20.02C 14.564901 20.704529 19.051468 25.191097 19.736 30.883zM19.735 41.916C 14.044467 41.23133 9.558719 36.746407 8.873 31.056C 14.564901 31.740528 19.051468 36.227097 19.736 41.919zM19.735 52.952C 14.044142 52.267235 9.558291 47.781796 8.873 42.091C 14.565229 42.77563 19.051899 47.262714 19.736 52.955zM19.735 63.988C 14.044142 63.303234 9.558291 58.817795 8.873 53.127C 14.564903 53.81153 19.05147 58.298096 19.736 63.99z" stroke="none" fill="#FAD391" fill-rule="nonzero" />
            <path transform="matrix(1 0 0 1 106 0)"  d="M19.822 66.764L19.822 84.764L22.581001 84.764L22.581001 66.764C 30.15363 66.061264 36.03734 59.86294 36.345 52.264L36.345 52.264L40.11 48.5L38.159 46.549L34.394 50.314C 33.835148 50.33604 33.27796 50.389122 32.725002 50.473C 34.93905 47.887733 36.21469 44.630264 36.345 41.229L36.345 41.229L40.11 37.464L38.159 35.513L34.394 39.278C 33.835155 39.30005 33.27796 39.35313 32.725002 39.437C 34.93905 36.851738 36.21469 33.59427 36.345 30.193L36.345 30.193L40.11 26.428001L38.159 24.477001L34.394 28.24C 33.835155 28.262049 33.27796 28.315132 32.725002 28.399C 34.93905 25.813736 36.21469 22.556265 36.345 19.154999L36.345 19.154999L40.11 15.39L38.159 13.44L34.394 17.2C 31.213064 17.321077 28.152134 18.44617 25.650002 20.414001C 27.730001 16.558002 23.821001 9.267001 22.581001 7.137001L22.581001 7.137001L22.581001 2L19.822 2L19.822 7.141C 18.582 9.271 14.672001 16.563 16.753 20.418C 14.251093 18.448538 11.189734 17.322014 8.008 17.2L8.008 17.2L4.244 13.44L2.293 15.39L6.058 19.155C 6.1869516 22.55667 7.4623566 25.814785 9.677 28.4C 9.124041 28.316132 8.56685 28.26305 8.008 28.241L8.008 28.241L4.244 24.476L2.293 26.426L6.058 30.191C 6.187454 33.592445 7.4632034 36.85019 9.6779995 39.435C 9.12504 39.35113 8.567849 39.29805 8.009 39.276L8.009 39.276L4.244 35.511L2.293 37.462L6.058 41.227C 6.187455 44.62844 7.4632044 47.886185 9.6779995 50.471C 9.12504 50.387135 8.567849 50.334053 8.009 50.312L8.009 50.312L4.244 46.547L2.293 48.5L6.058 52.265C 6.3656645 59.86394 12.249373 66.06226 19.822 66.765L19.822 66.765L19.822 66.764zM21.201 26.064C 20.550043 24.64418 19.68422 23.333136 18.634 22.176998C 19.440859 22.537086 20.317669 22.713337 21.201 22.692999C 22.084192 22.71292 22.960838 22.537045 23.768 22.178C 22.717194 23.333145 21.850996 24.643574 21.2 26.063zM21.201 33.728C 21.96166 33.721848 22.720789 33.65867 23.472 33.539C 22.552624 34.61447 21.787905 35.813046 21.2 37.1C 20.612324 35.813446 19.84795 34.615223 18.929 33.539997C 19.680233 33.659332 20.439371 33.722176 21.2 33.728zM21.201 44.764C 21.96166 44.75785 22.720789 44.69467 23.472 44.575C 22.55305 45.650227 21.788675 46.84845 21.201 48.135002C 20.613323 46.84845 19.84895 45.650227 18.93 44.575C 19.680914 44.694283 20.439695 44.757126 21.2 44.763zM21.201 55.8C 21.961657 55.79385 22.72079 55.730675 23.472 55.611C 22.552782 56.685856 21.78807 57.883743 21.2 59.17C 20.612324 57.883446 19.84795 56.685223 18.929 55.609997C 19.68019 55.730003 20.439314 55.793518 21.2 55.8zM22.667 63.990997C 23.3512 58.298378 27.83838 53.8112 33.531 53.127C 32.845436 58.818398 28.3594 63.304436 22.668 63.99zM22.667 52.954998C 23.3512 47.262383 27.83838 42.7752 33.531 42.091C 32.845863 47.78279 28.359726 52.26934 22.668 52.955zM22.667 41.919C 23.351627 36.226772 27.838707 31.740103 33.531 31.056C 32.845436 36.7474 28.359398 41.233437 22.668 41.919zM33.53 20.019C 32.845993 25.710964 28.359838 30.197945 22.668 30.883C 23.351841 25.190763 27.838762 20.703842 33.531 20.02zM21.2 10.4C 22.792 13.615999 24.113 17.546 23.214 19.133C 23.102001 19.333 22.763 19.932999 21.2 19.932999C 19.637001 19.932999 19.300001 19.332998 19.186 19.133C 18.286001 17.543999 19.608002 13.615 21.2 10.4zM19.735 30.88C 14.044467 30.195332 9.55872 25.71041 8.873 20.02C 14.564901 20.704529 19.051468 25.191097 19.736 30.883zM19.735 41.916C 14.044467 41.23133 9.558719 36.746407 8.873 31.056C 14.564901 31.740528 19.051468 36.227097 19.736 41.919zM19.735 52.952C 14.044142 52.267235 9.558291 47.781796 8.873 42.091C 14.565229 42.77563 19.051899 47.262714 19.736 52.955zM19.735 63.988C 14.044142 63.303234 9.558291 58.817795 8.873 53.127C 14.564903 53.81153 19.05147 58.298096 19.736 63.99z" stroke="none" fill="#FAD391" fill-rule="nonzero" />
            <path transform="matrix(1 0 0 1 12.143 -38.187)"  d="M84.056 27.07L89.556 21.57L86.705 18.719L81.205 24.219C 76.55587 24.396765 72.08241 26.042065 68.426 28.918999C 71.466 23.285 65.753006 12.627998 63.941 9.518999L63.941 9.518999L63.941 2L59.909 2L59.909 9.513C 58.097 12.625999 52.384 23.282 55.424 28.912998C 51.767635 26.036 47.294147 24.39069 42.645 24.212997L42.645 24.212997L37.145 18.712997L34.294 21.563997L39.794 27.063997C 39.983063 32.03479 41.84736 36.79561 45.084 40.572998C 44.27593 40.450546 43.461674 40.373096 42.645 40.341L42.645 40.341L37.145 34.841L34.293 37.7L39.793 43.2C 39.982063 48.170788 41.84636 52.93161 45.083 56.709C 44.27493 56.586548 43.460674 56.509098 42.644 56.477L42.644 56.477L37.144 50.977L34.293 53.828003L39.793 59.328003C 39.982067 64.2988 41.84636 69.059616 45.083 72.837006C 44.274925 72.714554 43.46068 72.6371 42.644 72.605L42.644 72.605L37.144 67.105L34.293 69.956L39.793 75.456C 40.24308 86.56114 48.842205 95.61895 59.909 96.645L59.909 96.645L59.909 122.954994L63.941 122.954994L63.941 96.645C 75.00886 95.618256 83.60794 86.55834 84.056 75.452L84.056 75.452L89.556 69.952L86.707 67.1L81.207 72.6C 80.39035 72.632095 79.57606 72.70955 78.768 72.832C 82.003815 69.054115 83.868 64.2936 84.058 59.323L84.058 59.323L89.558 53.823L86.707 50.972L81.207 56.472C 80.39035 56.50409 79.576065 56.581543 78.768 56.704C 82.00205 52.927174 83.86545 48.168617 84.056 43.2L84.056 43.2L89.556 37.7L86.705 34.849L81.205 40.349C 80.388336 40.381096 79.57408 40.458546 78.766 40.580997C 82.00305 36.803078 83.86737 32.041485 84.056 27.07zM61.925 80.621C 63.03634 80.612045 64.145454 80.51978 65.243 80.345C 63.90048 81.91554 62.783707 83.66576 61.924995 85.545C 61.066284 83.66576 59.949512 81.91554 58.606995 80.345C 59.704556 80.51978 60.81365 80.612045 61.925 80.621zM61.925 69.421005C 61.06629 67.54176 59.94952 65.79155 58.607 64.22101C 60.803673 64.58922 63.046318 64.58922 65.243 64.22101C 63.900555 65.791245 62.78379 67.54111 61.925 69.42zM61.925 53.294006C 61.066288 51.414764 59.949516 49.66455 58.607 48.094006C 60.80368 48.462193 63.04631 48.462193 65.243 48.094006C 63.90056 49.664238 62.783794 51.41411 61.925 53.293zM61.925 37.167007C 60.97357 35.09185 59.70806 33.175705 58.173 31.486008C 60.572403 32.48902 63.273605 32.48902 65.673004 31.486008C 64.13886 33.175217 62.87465 35.091103 61.925 37.166zM79.943 28.335007C 78.94194 36.652527 72.38559 43.208466 64.068 44.209C 65.06726 35.89042 71.62442 29.333256 79.943 28.334zM61.925 14.281C 64.251 18.980999 66.183 24.723 64.868 27.043999C 64.704994 27.329998 64.209 28.206999 61.924995 28.206999C 59.64099 28.206999 59.144997 27.329998 58.981995 27.043999C 57.668 24.721 59.6 18.98 61.925 14.281zM59.784 44.209C 51.46609 43.208366 44.909637 36.651913 43.909 28.334C 52.22691 29.334631 58.783363 35.891087 59.784 44.209zM59.784 60.336C 51.46609 59.335365 44.909637 52.77891 43.909 44.461C 52.22724 45.46173 58.7838 52.018696 59.784 60.337zM59.784 76.463C 51.46641 75.46246 44.91006 68.906525 43.909 60.589C 52.226913 61.58963 58.783363 68.14608 59.784 76.464zM43.909 76.715C 52.22724 77.71573 58.7838 84.2727 59.784 92.591C 51.46609 91.59037 44.909637 85.03392 43.909 76.716zM64.068 92.591C 65.068634 84.27309 71.625084 77.71664 79.943 76.716C 78.940994 85.03325 72.38525 91.589 64.068 92.591zM64.068 76.464005C 65.06863 68.14609 71.625084 61.589638 79.943 60.589C 78.940994 68.90624 72.38525 75.46199 64.068 76.464zM64.068 60.337006C 65.0682 52.0187 71.624756 45.461727 79.943 44.461C 78.94142 52.778637 72.385574 59.3349 64.068 60.337z" stroke="none" fill="#FAD391" fill-rule="nonzero" />
		</g>
		<g transform="matrix(1 0 0 1 653.707 36.187)">
            <path transform="matrix(1 0 0 1 0 0)"  d="M19.822 66.764L19.822 84.764L22.581001 84.764L22.581001 66.764C 30.15363 66.061264 36.03734 59.86294 36.345 52.264L36.345 52.264L40.11 48.5L38.159 46.549L34.394 50.314C 33.835148 50.33604 33.27796 50.389122 32.725002 50.473C 34.93905 47.887733 36.21469 44.630264 36.345 41.229L36.345 41.229L40.11 37.464L38.159 35.513L34.394 39.278C 33.835155 39.30005 33.27796 39.35313 32.725002 39.437C 34.93905 36.851738 36.21469 33.59427 36.345 30.193L36.345 30.193L40.11 26.428001L38.159 24.477001L34.394 28.24C 33.835155 28.262049 33.27796 28.315132 32.725002 28.399C 34.93905 25.813736 36.21469 22.556265 36.345 19.154999L36.345 19.154999L40.11 15.39L38.159 13.44L34.394 17.2C 31.213064 17.321077 28.152134 18.44617 25.650002 20.414001C 27.730001 16.558002 23.821001 9.267001 22.581001 7.137001L22.581001 7.137001L22.581001 2L19.822 2L19.822 7.141C 18.582 9.271 14.672001 16.563 16.753 20.418C 14.251093 18.448538 11.189734 17.322014 8.008 17.2L8.008 17.2L4.244 13.44L2.293 15.39L6.058 19.155C 6.1869516 22.55667 7.4623566 25.814785 9.677 28.4C 9.124041 28.316132 8.56685 28.26305 8.008 28.241L8.008 28.241L4.244 24.476L2.293 26.426L6.058 30.191C 6.187454 33.592445 7.4632034 36.85019 9.6779995 39.435C 9.12504 39.35113 8.567849 39.29805 8.009 39.276L8.009 39.276L4.244 35.511L2.293 37.462L6.058 41.227C 6.187455 44.62844 7.4632044 47.886185 9.6779995 50.471C 9.12504 50.387135 8.567849 50.334053 8.009 50.312L8.009 50.312L4.244 46.547L2.293 48.5L6.058 52.265C 6.3656645 59.86394 12.249373 66.06226 19.822 66.765L19.822 66.765L19.822 66.764zM21.201 26.064C 20.550043 24.64418 19.68422 23.333136 18.634 22.176998C 19.440859 22.537086 20.317669 22.713337 21.201 22.692999C 22.084192 22.71292 22.960838 22.537045 23.768 22.178C 22.717194 23.333145 21.850996 24.643574 21.2 26.063zM21.201 33.728C 21.96166 33.721848 22.720789 33.65867 23.472 33.539C 22.552624 34.61447 21.787905 35.813046 21.2 37.1C 20.612324 35.813446 19.84795 34.615223 18.929 33.539997C 19.680233 33.659332 20.439371 33.722176 21.2 33.728zM21.201 44.764C 21.96166 44.75785 22.720789 44.69467 23.472 44.575C 22.55305 45.650227 21.788675 46.84845 21.201 48.135002C 20.613323 46.84845 19.84895 45.650227 18.93 44.575C 19.680914 44.694283 20.439695 44.757126 21.2 44.763zM21.201 55.8C 21.961657 55.79385 22.72079 55.730675 23.472 55.611C 22.552782 56.685856 21.78807 57.883743 21.2 59.17C 20.612324 57.883446 19.84795 56.685223 18.929 55.609997C 19.68019 55.730003 20.439314 55.793518 21.2 55.8zM22.667 63.990997C 23.3512 58.298378 27.83838 53.8112 33.531 53.127C 32.845436 58.818398 28.3594 63.304436 22.668 63.99zM22.667 52.954998C 23.3512 47.262383 27.83838 42.7752 33.531 42.091C 32.845863 47.78279 28.359726 52.26934 22.668 52.955zM22.667 41.919C 23.351627 36.226772 27.838707 31.740103 33.531 31.056C 32.845436 36.7474 28.359398 41.233437 22.668 41.919zM33.53 20.019C 32.845993 25.710964 28.359838 30.197945 22.668 30.883C 23.351841 25.190763 27.838762 20.703842 33.531 20.02zM21.2 10.4C 22.792 13.615999 24.113 17.546 23.214 19.133C 23.102001 19.333 22.763 19.932999 21.2 19.932999C 19.637001 19.932999 19.300001 19.332998 19.186 19.133C 18.286001 17.543999 19.608002 13.615 21.2 10.4zM19.735 30.88C 14.044467 30.195332 9.55872 25.71041 8.873 20.02C 14.564901 20.704529 19.051468 25.191097 19.736 30.883zM19.735 41.916C 14.044467 41.23133 9.558719 36.746407 8.873 31.056C 14.564901 31.740528 19.051468 36.227097 19.736 41.919zM19.735 52.952C 14.044142 52.267235 9.558291 47.781796 8.873 42.091C 14.565229 42.77563 19.051899 47.262714 19.736 52.955zM19.735 63.988C 14.044142 63.303234 9.558291 58.817795 8.873 53.127C 14.564903 53.81153 19.05147 58.298096 19.736 63.99z" stroke="none" fill="#FAD391" fill-rule="nonzero" />
            <path transform="matrix(1 0 0 1 106 0)"  d="M19.822 66.764L19.822 84.764L22.581001 84.764L22.581001 66.764C 30.15363 66.061264 36.03734 59.86294 36.345 52.264L36.345 52.264L40.11 48.5L38.159 46.549L34.394 50.314C 33.835148 50.33604 33.27796 50.389122 32.725002 50.473C 34.93905 47.887733 36.21469 44.630264 36.345 41.229L36.345 41.229L40.11 37.464L38.159 35.513L34.394 39.278C 33.835155 39.30005 33.27796 39.35313 32.725002 39.437C 34.93905 36.851738 36.21469 33.59427 36.345 30.193L36.345 30.193L40.11 26.428001L38.159 24.477001L34.394 28.24C 33.835155 28.262049 33.27796 28.315132 32.725002 28.399C 34.93905 25.813736 36.21469 22.556265 36.345 19.154999L36.345 19.154999L40.11 15.39L38.159 13.44L34.394 17.2C 31.213064 17.321077 28.152134 18.44617 25.650002 20.414001C 27.730001 16.558002 23.821001 9.267001 22.581001 7.137001L22.581001 7.137001L22.581001 2L19.822 2L19.822 7.141C 18.582 9.271 14.672001 16.563 16.753 20.418C 14.251093 18.448538 11.189734 17.322014 8.008 17.2L8.008 17.2L4.244 13.44L2.293 15.39L6.058 19.155C 6.1869516 22.55667 7.4623566 25.814785 9.677 28.4C 9.124041 28.316132 8.56685 28.26305 8.008 28.241L8.008 28.241L4.244 24.476L2.293 26.426L6.058 30.191C 6.187454 33.592445 7.4632034 36.85019 9.6779995 39.435C 9.12504 39.35113 8.567849 39.29805 8.009 39.276L8.009 39.276L4.244 35.511L2.293 37.462L6.058 41.227C 6.187455 44.62844 7.4632044 47.886185 9.6779995 50.471C 9.12504 50.387135 8.567849 50.334053 8.009 50.312L8.009 50.312L4.244 46.547L2.293 48.5L6.058 52.265C 6.3656645 59.86394 12.249373 66.06226 19.822 66.765L19.822 66.765L19.822 66.764zM21.201 26.064C 20.550043 24.64418 19.68422 23.333136 18.634 22.176998C 19.440859 22.537086 20.317669 22.713337 21.201 22.692999C 22.084192 22.71292 22.960838 22.537045 23.768 22.178C 22.717194 23.333145 21.850996 24.643574 21.2 26.063zM21.201 33.728C 21.96166 33.721848 22.720789 33.65867 23.472 33.539C 22.552624 34.61447 21.787905 35.813046 21.2 37.1C 20.612324 35.813446 19.84795 34.615223 18.929 33.539997C 19.680233 33.659332 20.439371 33.722176 21.2 33.728zM21.201 44.764C 21.96166 44.75785 22.720789 44.69467 23.472 44.575C 22.55305 45.650227 21.788675 46.84845 21.201 48.135002C 20.613323 46.84845 19.84895 45.650227 18.93 44.575C 19.680914 44.694283 20.439695 44.757126 21.2 44.763zM21.201 55.8C 21.961657 55.79385 22.72079 55.730675 23.472 55.611C 22.552782 56.685856 21.78807 57.883743 21.2 59.17C 20.612324 57.883446 19.84795 56.685223 18.929 55.609997C 19.68019 55.730003 20.439314 55.793518 21.2 55.8zM22.667 63.990997C 23.3512 58.298378 27.83838 53.8112 33.531 53.127C 32.845436 58.818398 28.3594 63.304436 22.668 63.99zM22.667 52.954998C 23.3512 47.262383 27.83838 42.7752 33.531 42.091C 32.845863 47.78279 28.359726 52.26934 22.668 52.955zM22.667 41.919C 23.351627 36.226772 27.838707 31.740103 33.531 31.056C 32.845436 36.7474 28.359398 41.233437 22.668 41.919zM33.53 20.019C 32.845993 25.710964 28.359838 30.197945 22.668 30.883C 23.351841 25.190763 27.838762 20.703842 33.531 20.02zM21.2 10.4C 22.792 13.615999 24.113 17.546 23.214 19.133C 23.102001 19.333 22.763 19.932999 21.2 19.932999C 19.637001 19.932999 19.300001 19.332998 19.186 19.133C 18.286001 17.543999 19.608002 13.615 21.2 10.4zM19.735 30.88C 14.044467 30.195332 9.55872 25.71041 8.873 20.02C 14.564901 20.704529 19.051468 25.191097 19.736 30.883zM19.735 41.916C 14.044467 41.23133 9.558719 36.746407 8.873 31.056C 14.564901 31.740528 19.051468 36.227097 19.736 41.919zM19.735 52.952C 14.044142 52.267235 9.558291 47.781796 8.873 42.091C 14.565229 42.77563 19.051899 47.262714 19.736 52.955zM19.735 63.988C 14.044142 63.303234 9.558291 58.817795 8.873 53.127C 14.564903 53.81153 19.05147 58.298096 19.736 63.99z" stroke="none" fill="#FAD391" fill-rule="nonzero" />
            <path transform="matrix(1 0 0 1 12.143 -38.187)"  d="M84.056 27.07L89.556 21.57L86.705 18.719L81.205 24.219C 76.55587 24.396765 72.08241 26.042065 68.426 28.918999C 71.466 23.285 65.753006 12.627998 63.941 9.518999L63.941 9.518999L63.941 2L59.909 2L59.909 9.513C 58.097 12.625999 52.384 23.282 55.424 28.912998C 51.767635 26.036 47.294147 24.39069 42.645 24.212997L42.645 24.212997L37.145 18.712997L34.294 21.563997L39.794 27.063997C 39.983063 32.03479 41.84736 36.79561 45.084 40.572998C 44.27593 40.450546 43.461674 40.373096 42.645 40.341L42.645 40.341L37.145 34.841L34.293 37.7L39.793 43.2C 39.982063 48.170788 41.84636 52.93161 45.083 56.709C 44.27493 56.586548 43.460674 56.509098 42.644 56.477L42.644 56.477L37.144 50.977L34.293 53.828003L39.793 59.328003C 39.982067 64.2988 41.84636 69.059616 45.083 72.837006C 44.274925 72.714554 43.46068 72.6371 42.644 72.605L42.644 72.605L37.144 67.105L34.293 69.956L39.793 75.456C 40.24308 86.56114 48.842205 95.61895 59.909 96.645L59.909 96.645L59.909 122.954994L63.941 122.954994L63.941 96.645C 75.00886 95.618256 83.60794 86.55834 84.056 75.452L84.056 75.452L89.556 69.952L86.707 67.1L81.207 72.6C 80.39035 72.632095 79.57606 72.70955 78.768 72.832C 82.003815 69.054115 83.868 64.2936 84.058 59.323L84.058 59.323L89.558 53.823L86.707 50.972L81.207 56.472C 80.39035 56.50409 79.576065 56.581543 78.768 56.704C 82.00205 52.927174 83.86545 48.168617 84.056 43.2L84.056 43.2L89.556 37.7L86.705 34.849L81.205 40.349C 80.388336 40.381096 79.57408 40.458546 78.766 40.580997C 82.00305 36.803078 83.86737 32.041485 84.056 27.07zM61.925 80.621C 63.03634 80.612045 64.145454 80.51978 65.243 80.345C 63.90048 81.91554 62.783707 83.66576 61.924995 85.545C 61.066284 83.66576 59.949512 81.91554 58.606995 80.345C 59.704556 80.51978 60.81365 80.612045 61.925 80.621zM61.925 69.421005C 61.06629 67.54176 59.94952 65.79155 58.607 64.22101C 60.803673 64.58922 63.046318 64.58922 65.243 64.22101C 63.900555 65.791245 62.78379 67.54111 61.925 69.42zM61.925 53.294006C 61.066288 51.414764 59.949516 49.66455 58.607 48.094006C 60.80368 48.462193 63.04631 48.462193 65.243 48.094006C 63.90056 49.664238 62.783794 51.41411 61.925 53.293zM61.925 37.167007C 60.97357 35.09185 59.70806 33.175705 58.173 31.486008C 60.572403 32.48902 63.273605 32.48902 65.673004 31.486008C 64.13886 33.175217 62.87465 35.091103 61.925 37.166zM79.943 28.335007C 78.94194 36.652527 72.38559 43.208466 64.068 44.209C 65.06726 35.89042 71.62442 29.333256 79.943 28.334zM61.925 14.281C 64.251 18.980999 66.183 24.723 64.868 27.043999C 64.704994 27.329998 64.209 28.206999 61.924995 28.206999C 59.64099 28.206999 59.144997 27.329998 58.981995 27.043999C 57.668 24.721 59.6 18.98 61.925 14.281zM59.784 44.209C 51.46609 43.208366 44.909637 36.651913 43.909 28.334C 52.22691 29.334631 58.783363 35.891087 59.784 44.209zM59.784 60.336C 51.46609 59.335365 44.909637 52.77891 43.909 44.461C 52.22724 45.46173 58.7838 52.018696 59.784 60.337zM59.784 76.463C 51.46641 75.46246 44.91006 68.906525 43.909 60.589C 52.226913 61.58963 58.783363 68.14608 59.784 76.464zM43.909 76.715C 52.22724 77.71573 58.7838 84.2727 59.784 92.591C 51.46609 91.59037 44.909637 85.03392 43.909 76.716zM64.068 92.591C 65.068634 84.27309 71.625084 77.71664 79.943 76.716C 78.940994 85.03325 72.38525 91.589 64.068 92.591zM64.068 76.464005C 65.06863 68.14609 71.625084 61.589638 79.943 60.589C 78.940994 68.90624 72.38525 75.46199 64.068 76.464zM64.068 60.337006C 65.0682 52.0187 71.624756 45.461727 79.943 44.461C 78.94142 52.778637 72.385574 59.3349 64.068 60.337z" stroke="none" fill="#FAD391" fill-rule="nonzero" />
		</g>
		<g transform="matrix(1 0 0 1 817.707 36.187)">
            <path transform="matrix(1 0 0 1 0 0)"  d="M19.822 66.764L19.822 84.764L22.581001 84.764L22.581001 66.764C 30.15363 66.061264 36.03734 59.86294 36.345 52.264L36.345 52.264L40.11 48.5L38.159 46.549L34.394 50.314C 33.835148 50.33604 33.27796 50.389122 32.725002 50.473C 34.93905 47.887733 36.21469 44.630264 36.345 41.229L36.345 41.229L40.11 37.464L38.159 35.513L34.394 39.278C 33.835155 39.30005 33.27796 39.35313 32.725002 39.437C 34.93905 36.851738 36.21469 33.59427 36.345 30.193L36.345 30.193L40.11 26.428001L38.159 24.477001L34.394 28.24C 33.835155 28.262049 33.27796 28.315132 32.725002 28.399C 34.93905 25.813736 36.21469 22.556265 36.345 19.154999L36.345 19.154999L40.11 15.39L38.159 13.44L34.394 17.2C 31.213064 17.321077 28.152134 18.44617 25.650002 20.414001C 27.730001 16.558002 23.821001 9.267001 22.581001 7.137001L22.581001 7.137001L22.581001 2L19.822 2L19.822 7.141C 18.582 9.271 14.672001 16.563 16.753 20.418C 14.251093 18.448538 11.189734 17.322014 8.008 17.2L8.008 17.2L4.244 13.44L2.293 15.39L6.058 19.155C 6.1869516 22.55667 7.4623566 25.814785 9.677 28.4C 9.124041 28.316132 8.56685 28.26305 8.008 28.241L8.008 28.241L4.244 24.476L2.293 26.426L6.058 30.191C 6.187454 33.592445 7.4632034 36.85019 9.6779995 39.435C 9.12504 39.35113 8.567849 39.29805 8.009 39.276L8.009 39.276L4.244 35.511L2.293 37.462L6.058 41.227C 6.187455 44.62844 7.4632044 47.886185 9.6779995 50.471C 9.12504 50.387135 8.567849 50.334053 8.009 50.312L8.009 50.312L4.244 46.547L2.293 48.5L6.058 52.265C 6.3656645 59.86394 12.249373 66.06226 19.822 66.765L19.822 66.765L19.822 66.764zM21.201 26.064C 20.550043 24.64418 19.68422 23.333136 18.634 22.176998C 19.440859 22.537086 20.317669 22.713337 21.201 22.692999C 22.084192 22.71292 22.960838 22.537045 23.768 22.178C 22.717194 23.333145 21.850996 24.643574 21.2 26.063zM21.201 33.728C 21.96166 33.721848 22.720789 33.65867 23.472 33.539C 22.552624 34.61447 21.787905 35.813046 21.2 37.1C 20.612324 35.813446 19.84795 34.615223 18.929 33.539997C 19.680233 33.659332 20.439371 33.722176 21.2 33.728zM21.201 44.764C 21.96166 44.75785 22.720789 44.69467 23.472 44.575C 22.55305 45.650227 21.788675 46.84845 21.201 48.135002C 20.613323 46.84845 19.84895 45.650227 18.93 44.575C 19.680914 44.694283 20.439695 44.757126 21.2 44.763zM21.201 55.8C 21.961657 55.79385 22.72079 55.730675 23.472 55.611C 22.552782 56.685856 21.78807 57.883743 21.2 59.17C 20.612324 57.883446 19.84795 56.685223 18.929 55.609997C 19.68019 55.730003 20.439314 55.793518 21.2 55.8zM22.667 63.990997C 23.3512 58.298378 27.83838 53.8112 33.531 53.127C 32.845436 58.818398 28.3594 63.304436 22.668 63.99zM22.667 52.954998C 23.3512 47.262383 27.83838 42.7752 33.531 42.091C 32.845863 47.78279 28.359726 52.26934 22.668 52.955zM22.667 41.919C 23.351627 36.226772 27.838707 31.740103 33.531 31.056C 32.845436 36.7474 28.359398 41.233437 22.668 41.919zM33.53 20.019C 32.845993 25.710964 28.359838 30.197945 22.668 30.883C 23.351841 25.190763 27.838762 20.703842 33.531 20.02zM21.2 10.4C 22.792 13.615999 24.113 17.546 23.214 19.133C 23.102001 19.333 22.763 19.932999 21.2 19.932999C 19.637001 19.932999 19.300001 19.332998 19.186 19.133C 18.286001 17.543999 19.608002 13.615 21.2 10.4zM19.735 30.88C 14.044467 30.195332 9.55872 25.71041 8.873 20.02C 14.564901 20.704529 19.051468 25.191097 19.736 30.883zM19.735 41.916C 14.044467 41.23133 9.558719 36.746407 8.873 31.056C 14.564901 31.740528 19.051468 36.227097 19.736 41.919zM19.735 52.952C 14.044142 52.267235 9.558291 47.781796 8.873 42.091C 14.565229 42.77563 19.051899 47.262714 19.736 52.955zM19.735 63.988C 14.044142 63.303234 9.558291 58.817795 8.873 53.127C 14.564903 53.81153 19.05147 58.298096 19.736 63.99z" stroke="none" fill="#FAD391" fill-rule="nonzero" />
            <path transform="matrix(1 0 0 1 106 0)"  d="M19.822 66.764L19.822 84.764L22.581001 84.764L22.581001 66.764C 30.15363 66.061264 36.03734 59.86294 36.345 52.264L36.345 52.264L40.11 48.5L38.159 46.549L34.394 50.314C 33.835148 50.33604 33.27796 50.389122 32.725002 50.473C 34.93905 47.887733 36.21469 44.630264 36.345 41.229L36.345 41.229L40.11 37.464L38.159 35.513L34.394 39.278C 33.835155 39.30005 33.27796 39.35313 32.725002 39.437C 34.93905 36.851738 36.21469 33.59427 36.345 30.193L36.345 30.193L40.11 26.428001L38.159 24.477001L34.394 28.24C 33.835155 28.262049 33.27796 28.315132 32.725002 28.399C 34.93905 25.813736 36.21469 22.556265 36.345 19.154999L36.345 19.154999L40.11 15.39L38.159 13.44L34.394 17.2C 31.213064 17.321077 28.152134 18.44617 25.650002 20.414001C 27.730001 16.558002 23.821001 9.267001 22.581001 7.137001L22.581001 7.137001L22.581001 2L19.822 2L19.822 7.141C 18.582 9.271 14.672001 16.563 16.753 20.418C 14.251093 18.448538 11.189734 17.322014 8.008 17.2L8.008 17.2L4.244 13.44L2.293 15.39L6.058 19.155C 6.1869516 22.55667 7.4623566 25.814785 9.677 28.4C 9.124041 28.316132 8.56685 28.26305 8.008 28.241L8.008 28.241L4.244 24.476L2.293 26.426L6.058 30.191C 6.187454 33.592445 7.4632034 36.85019 9.6779995 39.435C 9.12504 39.35113 8.567849 39.29805 8.009 39.276L8.009 39.276L4.244 35.511L2.293 37.462L6.058 41.227C 6.187455 44.62844 7.4632044 47.886185 9.6779995 50.471C 9.12504 50.387135 8.567849 50.334053 8.009 50.312L8.009 50.312L4.244 46.547L2.293 48.5L6.058 52.265C 6.3656645 59.86394 12.249373 66.06226 19.822 66.765L19.822 66.765L19.822 66.764zM21.201 26.064C 20.550043 24.64418 19.68422 23.333136 18.634 22.176998C 19.440859 22.537086 20.317669 22.713337 21.201 22.692999C 22.084192 22.71292 22.960838 22.537045 23.768 22.178C 22.717194 23.333145 21.850996 24.643574 21.2 26.063zM21.201 33.728C 21.96166 33.721848 22.720789 33.65867 23.472 33.539C 22.552624 34.61447 21.787905 35.813046 21.2 37.1C 20.612324 35.813446 19.84795 34.615223 18.929 33.539997C 19.680233 33.659332 20.439371 33.722176 21.2 33.728zM21.201 44.764C 21.96166 44.75785 22.720789 44.69467 23.472 44.575C 22.55305 45.650227 21.788675 46.84845 21.201 48.135002C 20.613323 46.84845 19.84895 45.650227 18.93 44.575C 19.680914 44.694283 20.439695 44.757126 21.2 44.763zM21.201 55.8C 21.961657 55.79385 22.72079 55.730675 23.472 55.611C 22.552782 56.685856 21.78807 57.883743 21.2 59.17C 20.612324 57.883446 19.84795 56.685223 18.929 55.609997C 19.68019 55.730003 20.439314 55.793518 21.2 55.8zM22.667 63.990997C 23.3512 58.298378 27.83838 53.8112 33.531 53.127C 32.845436 58.818398 28.3594 63.304436 22.668 63.99zM22.667 52.954998C 23.3512 47.262383 27.83838 42.7752 33.531 42.091C 32.845863 47.78279 28.359726 52.26934 22.668 52.955zM22.667 41.919C 23.351627 36.226772 27.838707 31.740103 33.531 31.056C 32.845436 36.7474 28.359398 41.233437 22.668 41.919zM33.53 20.019C 32.845993 25.710964 28.359838 30.197945 22.668 30.883C 23.351841 25.190763 27.838762 20.703842 33.531 20.02zM21.2 10.4C 22.792 13.615999 24.113 17.546 23.214 19.133C 23.102001 19.333 22.763 19.932999 21.2 19.932999C 19.637001 19.932999 19.300001 19.332998 19.186 19.133C 18.286001 17.543999 19.608002 13.615 21.2 10.4zM19.735 30.88C 14.044467 30.195332 9.55872 25.71041 8.873 20.02C 14.564901 20.704529 19.051468 25.191097 19.736 30.883zM19.735 41.916C 14.044467 41.23133 9.558719 36.746407 8.873 31.056C 14.564901 31.740528 19.051468 36.227097 19.736 41.919zM19.735 52.952C 14.044142 52.267235 9.558291 47.781796 8.873 42.091C 14.565229 42.77563 19.051899 47.262714 19.736 52.955zM19.735 63.988C 14.044142 63.303234 9.558291 58.817795 8.873 53.127C 14.564903 53.81153 19.05147 58.298096 19.736 63.99z" stroke="none" fill="#FAD391" fill-rule="nonzero" />
            <path transform="matrix(1 0 0 1 12.143 -38.187)"  d="M84.056 27.07L89.556 21.57L86.705 18.719L81.205 24.219C 76.55587 24.396765 72.08241 26.042065 68.426 28.918999C 71.466 23.285 65.753006 12.627998 63.941 9.518999L63.941 9.518999L63.941 2L59.909 2L59.909 9.513C 58.097 12.625999 52.384 23.282 55.424 28.912998C 51.767635 26.036 47.294147 24.39069 42.645 24.212997L42.645 24.212997L37.145 18.712997L34.294 21.563997L39.794 27.063997C 39.983063 32.03479 41.84736 36.79561 45.084 40.572998C 44.27593 40.450546 43.461674 40.373096 42.645 40.341L42.645 40.341L37.145 34.841L34.293 37.7L39.793 43.2C 39.982063 48.170788 41.84636 52.93161 45.083 56.709C 44.27493 56.586548 43.460674 56.509098 42.644 56.477L42.644 56.477L37.144 50.977L34.293 53.828003L39.793 59.328003C 39.982067 64.2988 41.84636 69.059616 45.083 72.837006C 44.274925 72.714554 43.46068 72.6371 42.644 72.605L42.644 72.605L37.144 67.105L34.293 69.956L39.793 75.456C 40.24308 86.56114 48.842205 95.61895 59.909 96.645L59.909 96.645L59.909 122.954994L63.941 122.954994L63.941 96.645C 75.00886 95.618256 83.60794 86.55834 84.056 75.452L84.056 75.452L89.556 69.952L86.707 67.1L81.207 72.6C 80.39035 72.632095 79.57606 72.70955 78.768 72.832C 82.003815 69.054115 83.868 64.2936 84.058 59.323L84.058 59.323L89.558 53.823L86.707 50.972L81.207 56.472C 80.39035 56.50409 79.576065 56.581543 78.768 56.704C 82.00205 52.927174 83.86545 48.168617 84.056 43.2L84.056 43.2L89.556 37.7L86.705 34.849L81.205 40.349C 80.388336 40.381096 79.57408 40.458546 78.766 40.580997C 82.00305 36.803078 83.86737 32.041485 84.056 27.07zM61.925 80.621C 63.03634 80.612045 64.145454 80.51978 65.243 80.345C 63.90048 81.91554 62.783707 83.66576 61.924995 85.545C 61.066284 83.66576 59.949512 81.91554 58.606995 80.345C 59.704556 80.51978 60.81365 80.612045 61.925 80.621zM61.925 69.421005C 61.06629 67.54176 59.94952 65.79155 58.607 64.22101C 60.803673 64.58922 63.046318 64.58922 65.243 64.22101C 63.900555 65.791245 62.78379 67.54111 61.925 69.42zM61.925 53.294006C 61.066288 51.414764 59.949516 49.66455 58.607 48.094006C 60.80368 48.462193 63.04631 48.462193 65.243 48.094006C 63.90056 49.664238 62.783794 51.41411 61.925 53.293zM61.925 37.167007C 60.97357 35.09185 59.70806 33.175705 58.173 31.486008C 60.572403 32.48902 63.273605 32.48902 65.673004 31.486008C 64.13886 33.175217 62.87465 35.091103 61.925 37.166zM79.943 28.335007C 78.94194 36.652527 72.38559 43.208466 64.068 44.209C 65.06726 35.89042 71.62442 29.333256 79.943 28.334zM61.925 14.281C 64.251 18.980999 66.183 24.723 64.868 27.043999C 64.704994 27.329998 64.209 28.206999 61.924995 28.206999C 59.64099 28.206999 59.144997 27.329998 58.981995 27.043999C 57.668 24.721 59.6 18.98 61.925 14.281zM59.784 44.209C 51.46609 43.208366 44.909637 36.651913 43.909 28.334C 52.22691 29.334631 58.783363 35.891087 59.784 44.209zM59.784 60.336C 51.46609 59.335365 44.909637 52.77891 43.909 44.461C 52.22724 45.46173 58.7838 52.018696 59.784 60.337zM59.784 76.463C 51.46641 75.46246 44.91006 68.906525 43.909 60.589C 52.226913 61.58963 58.783363 68.14608 59.784 76.464zM43.909 76.715C 52.22724 77.71573 58.7838 84.2727 59.784 92.591C 51.46609 91.59037 44.909637 85.03392 43.909 76.716zM64.068 92.591C 65.068634 84.27309 71.625084 77.71664 79.943 76.716C 78.940994 85.03325 72.38525 91.589 64.068 92.591zM64.068 76.464005C 65.06863 68.14609 71.625084 61.589638 79.943 60.589C 78.940994 68.90624 72.38525 75.46199 64.068 76.464zM64.068 60.337006C 65.0682 52.0187 71.624756 45.461727 79.943 44.461C 78.94142 52.778637 72.385574 59.3349 64.068 60.337z" stroke="none" fill="#FAD391" fill-rule="nonzero" />
		</g>
		<g transform="matrix(1 0 0 1 981.707 36.187)">
            <path transform="matrix(1 0 0 1 0 0)"  d="M19.822 66.764L19.822 84.764L22.581001 84.764L22.581001 66.764C 30.15363 66.061264 36.03734 59.86294 36.345 52.264L36.345 52.264L40.11 48.5L38.159 46.549L34.394 50.314C 33.835148 50.33604 33.27796 50.389122 32.725002 50.473C 34.93905 47.887733 36.21469 44.630264 36.345 41.229L36.345 41.229L40.11 37.464L38.159 35.513L34.394 39.278C 33.835155 39.30005 33.27796 39.35313 32.725002 39.437C 34.93905 36.851738 36.21469 33.59427 36.345 30.193L36.345 30.193L40.11 26.428001L38.159 24.477001L34.394 28.24C 33.835155 28.262049 33.27796 28.315132 32.725002 28.399C 34.93905 25.813736 36.21469 22.556265 36.345 19.154999L36.345 19.154999L40.11 15.39L38.159 13.44L34.394 17.2C 31.213064 17.321077 28.152134 18.44617 25.650002 20.414001C 27.730001 16.558002 23.821001 9.267001 22.581001 7.137001L22.581001 7.137001L22.581001 2L19.822 2L19.822 7.141C 18.582 9.271 14.672001 16.563 16.753 20.418C 14.251093 18.448538 11.189734 17.322014 8.008 17.2L8.008 17.2L4.244 13.44L2.293 15.39L6.058 19.155C 6.1869516 22.55667 7.4623566 25.814785 9.677 28.4C 9.124041 28.316132 8.56685 28.26305 8.008 28.241L8.008 28.241L4.244 24.476L2.293 26.426L6.058 30.191C 6.187454 33.592445 7.4632034 36.85019 9.6779995 39.435C 9.12504 39.35113 8.567849 39.29805 8.009 39.276L8.009 39.276L4.244 35.511L2.293 37.462L6.058 41.227C 6.187455 44.62844 7.4632044 47.886185 9.6779995 50.471C 9.12504 50.387135 8.567849 50.334053 8.009 50.312L8.009 50.312L4.244 46.547L2.293 48.5L6.058 52.265C 6.3656645 59.86394 12.249373 66.06226 19.822 66.765L19.822 66.765L19.822 66.764zM21.201 26.064C 20.550043 24.64418 19.68422 23.333136 18.634 22.176998C 19.440859 22.537086 20.317669 22.713337 21.201 22.692999C 22.084192 22.71292 22.960838 22.537045 23.768 22.178C 22.717194 23.333145 21.850996 24.643574 21.2 26.063zM21.201 33.728C 21.96166 33.721848 22.720789 33.65867 23.472 33.539C 22.552624 34.61447 21.787905 35.813046 21.2 37.1C 20.612324 35.813446 19.84795 34.615223 18.929 33.539997C 19.680233 33.659332 20.439371 33.722176 21.2 33.728zM21.201 44.764C 21.96166 44.75785 22.720789 44.69467 23.472 44.575C 22.55305 45.650227 21.788675 46.84845 21.201 48.135002C 20.613323 46.84845 19.84895 45.650227 18.93 44.575C 19.680914 44.694283 20.439695 44.757126 21.2 44.763zM21.201 55.8C 21.961657 55.79385 22.72079 55.730675 23.472 55.611C 22.552782 56.685856 21.78807 57.883743 21.2 59.17C 20.612324 57.883446 19.84795 56.685223 18.929 55.609997C 19.68019 55.730003 20.439314 55.793518 21.2 55.8zM22.667 63.990997C 23.3512 58.298378 27.83838 53.8112 33.531 53.127C 32.845436 58.818398 28.3594 63.304436 22.668 63.99zM22.667 52.954998C 23.3512 47.262383 27.83838 42.7752 33.531 42.091C 32.845863 47.78279 28.359726 52.26934 22.668 52.955zM22.667 41.919C 23.351627 36.226772 27.838707 31.740103 33.531 31.056C 32.845436 36.7474 28.359398 41.233437 22.668 41.919zM33.53 20.019C 32.845993 25.710964 28.359838 30.197945 22.668 30.883C 23.351841 25.190763 27.838762 20.703842 33.531 20.02zM21.2 10.4C 22.792 13.615999 24.113 17.546 23.214 19.133C 23.102001 19.333 22.763 19.932999 21.2 19.932999C 19.637001 19.932999 19.300001 19.332998 19.186 19.133C 18.286001 17.543999 19.608002 13.615 21.2 10.4zM19.735 30.88C 14.044467 30.195332 9.55872 25.71041 8.873 20.02C 14.564901 20.704529 19.051468 25.191097 19.736 30.883zM19.735 41.916C 14.044467 41.23133 9.558719 36.746407 8.873 31.056C 14.564901 31.740528 19.051468 36.227097 19.736 41.919zM19.735 52.952C 14.044142 52.267235 9.558291 47.781796 8.873 42.091C 14.565229 42.77563 19.051899 47.262714 19.736 52.955zM19.735 63.988C 14.044142 63.303234 9.558291 58.817795 8.873 53.127C 14.564903 53.81153 19.05147 58.298096 19.736 63.99z" stroke="none" fill="#FAD391" fill-rule="nonzero" />
            <path transform="matrix(1 0 0 1 106 0)"  d="M19.822 66.764L19.822 84.764L22.581001 84.764L22.581001 66.764C 30.15363 66.061264 36.03734 59.86294 36.345 52.264L36.345 52.264L40.11 48.5L38.159 46.549L34.394 50.314C 33.835148 50.33604 33.27796 50.389122 32.725002 50.473C 34.93905 47.887733 36.21469 44.630264 36.345 41.229L36.345 41.229L40.11 37.464L38.159 35.513L34.394 39.278C 33.835155 39.30005 33.27796 39.35313 32.725002 39.437C 34.93905 36.851738 36.21469 33.59427 36.345 30.193L36.345 30.193L40.11 26.428001L38.159 24.477001L34.394 28.24C 33.835155 28.262049 33.27796 28.315132 32.725002 28.399C 34.93905 25.813736 36.21469 22.556265 36.345 19.154999L36.345 19.154999L40.11 15.39L38.159 13.44L34.394 17.2C 31.213064 17.321077 28.152134 18.44617 25.650002 20.414001C 27.730001 16.558002 23.821001 9.267001 22.581001 7.137001L22.581001 7.137001L22.581001 2L19.822 2L19.822 7.141C 18.582 9.271 14.672001 16.563 16.753 20.418C 14.251093 18.448538 11.189734 17.322014 8.008 17.2L8.008 17.2L4.244 13.44L2.293 15.39L6.058 19.155C 6.1869516 22.55667 7.4623566 25.814785 9.677 28.4C 9.124041 28.316132 8.56685 28.26305 8.008 28.241L8.008 28.241L4.244 24.476L2.293 26.426L6.058 30.191C 6.187454 33.592445 7.4632034 36.85019 9.6779995 39.435C 9.12504 39.35113 8.567849 39.29805 8.009 39.276L8.009 39.276L4.244 35.511L2.293 37.462L6.058 41.227C 6.187455 44.62844 7.4632044 47.886185 9.6779995 50.471C 9.12504 50.387135 8.567849 50.334053 8.009 50.312L8.009 50.312L4.244 46.547L2.293 48.5L6.058 52.265C 6.3656645 59.86394 12.249373 66.06226 19.822 66.765L19.822 66.765L19.822 66.764zM21.201 26.064C 20.550043 24.64418 19.68422 23.333136 18.634 22.176998C 19.440859 22.537086 20.317669 22.713337 21.201 22.692999C 22.084192 22.71292 22.960838 22.537045 23.768 22.178C 22.717194 23.333145 21.850996 24.643574 21.2 26.063zM21.201 33.728C 21.96166 33.721848 22.720789 33.65867 23.472 33.539C 22.552624 34.61447 21.787905 35.813046 21.2 37.1C 20.612324 35.813446 19.84795 34.615223 18.929 33.539997C 19.680233 33.659332 20.439371 33.722176 21.2 33.728zM21.201 44.764C 21.96166 44.75785 22.720789 44.69467 23.472 44.575C 22.55305 45.650227 21.788675 46.84845 21.201 48.135002C 20.613323 46.84845 19.84895 45.650227 18.93 44.575C 19.680914 44.694283 20.439695 44.757126 21.2 44.763zM21.201 55.8C 21.961657 55.79385 22.72079 55.730675 23.472 55.611C 22.552782 56.685856 21.78807 57.883743 21.2 59.17C 20.612324 57.883446 19.84795 56.685223 18.929 55.609997C 19.68019 55.730003 20.439314 55.793518 21.2 55.8zM22.667 63.990997C 23.3512 58.298378 27.83838 53.8112 33.531 53.127C 32.845436 58.818398 28.3594 63.304436 22.668 63.99zM22.667 52.954998C 23.3512 47.262383 27.83838 42.7752 33.531 42.091C 32.845863 47.78279 28.359726 52.26934 22.668 52.955zM22.667 41.919C 23.351627 36.226772 27.838707 31.740103 33.531 31.056C 32.845436 36.7474 28.359398 41.233437 22.668 41.919zM33.53 20.019C 32.845993 25.710964 28.359838 30.197945 22.668 30.883C 23.351841 25.190763 27.838762 20.703842 33.531 20.02zM21.2 10.4C 22.792 13.615999 24.113 17.546 23.214 19.133C 23.102001 19.333 22.763 19.932999 21.2 19.932999C 19.637001 19.932999 19.300001 19.332998 19.186 19.133C 18.286001 17.543999 19.608002 13.615 21.2 10.4zM19.735 30.88C 14.044467 30.195332 9.55872 25.71041 8.873 20.02C 14.564901 20.704529 19.051468 25.191097 19.736 30.883zM19.735 41.916C 14.044467 41.23133 9.558719 36.746407 8.873 31.056C 14.564901 31.740528 19.051468 36.227097 19.736 41.919zM19.735 52.952C 14.044142 52.267235 9.558291 47.781796 8.873 42.091C 14.565229 42.77563 19.051899 47.262714 19.736 52.955zM19.735 63.988C 14.044142 63.303234 9.558291 58.817795 8.873 53.127C 14.564903 53.81153 19.05147 58.298096 19.736 63.99z" stroke="none" fill="#FAD391" fill-rule="nonzero" />
            <path transform="matrix(1 0 0 1 12.143 -38.187)"  d="M84.056 27.07L89.556 21.57L86.705 18.719L81.205 24.219C 76.55587 24.396765 72.08241 26.042065 68.426 28.918999C 71.466 23.285 65.753006 12.627998 63.941 9.518999L63.941 9.518999L63.941 2L59.909 2L59.909 9.513C 58.097 12.625999 52.384 23.282 55.424 28.912998C 51.767635 26.036 47.294147 24.39069 42.645 24.212997L42.645 24.212997L37.145 18.712997L34.294 21.563997L39.794 27.063997C 39.983063 32.03479 41.84736 36.79561 45.084 40.572998C 44.27593 40.450546 43.461674 40.373096 42.645 40.341L42.645 40.341L37.145 34.841L34.293 37.7L39.793 43.2C 39.982063 48.170788 41.84636 52.93161 45.083 56.709C 44.27493 56.586548 43.460674 56.509098 42.644 56.477L42.644 56.477L37.144 50.977L34.293 53.828003L39.793 59.328003C 39.982067 64.2988 41.84636 69.059616 45.083 72.837006C 44.274925 72.714554 43.46068 72.6371 42.644 72.605L42.644 72.605L37.144 67.105L34.293 69.956L39.793 75.456C 40.24308 86.56114 48.842205 95.61895 59.909 96.645L59.909 96.645L59.909 122.954994L63.941 122.954994L63.941 96.645C 75.00886 95.618256 83.60794 86.55834 84.056 75.452L84.056 75.452L89.556 69.952L86.707 67.1L81.207 72.6C 80.39035 72.632095 79.57606 72.70955 78.768 72.832C 82.003815 69.054115 83.868 64.2936 84.058 59.323L84.058 59.323L89.558 53.823L86.707 50.972L81.207 56.472C 80.39035 56.50409 79.576065 56.581543 78.768 56.704C 82.00205 52.927174 83.86545 48.168617 84.056 43.2L84.056 43.2L89.556 37.7L86.705 34.849L81.205 40.349C 80.388336 40.381096 79.57408 40.458546 78.766 40.580997C 82.00305 36.803078 83.86737 32.041485 84.056 27.07zM61.925 80.621C 63.03634 80.612045 64.145454 80.51978 65.243 80.345C 63.90048 81.91554 62.783707 83.66576 61.924995 85.545C 61.066284 83.66576 59.949512 81.91554 58.606995 80.345C 59.704556 80.51978 60.81365 80.612045 61.925 80.621zM61.925 69.421005C 61.06629 67.54176 59.94952 65.79155 58.607 64.22101C 60.803673 64.58922 63.046318 64.58922 65.243 64.22101C 63.900555 65.791245 62.78379 67.54111 61.925 69.42zM61.925 53.294006C 61.066288 51.414764 59.949516 49.66455 58.607 48.094006C 60.80368 48.462193 63.04631 48.462193 65.243 48.094006C 63.90056 49.664238 62.783794 51.41411 61.925 53.293zM61.925 37.167007C 60.97357 35.09185 59.70806 33.175705 58.173 31.486008C 60.572403 32.48902 63.273605 32.48902 65.673004 31.486008C 64.13886 33.175217 62.87465 35.091103 61.925 37.166zM79.943 28.335007C 78.94194 36.652527 72.38559 43.208466 64.068 44.209C 65.06726 35.89042 71.62442 29.333256 79.943 28.334zM61.925 14.281C 64.251 18.980999 66.183 24.723 64.868 27.043999C 64.704994 27.329998 64.209 28.206999 61.924995 28.206999C 59.64099 28.206999 59.144997 27.329998 58.981995 27.043999C 57.668 24.721 59.6 18.98 61.925 14.281zM59.784 44.209C 51.46609 43.208366 44.909637 36.651913 43.909 28.334C 52.22691 29.334631 58.783363 35.891087 59.784 44.209zM59.784 60.336C 51.46609 59.335365 44.909637 52.77891 43.909 44.461C 52.22724 45.46173 58.7838 52.018696 59.784 60.337zM59.784 76.463C 51.46641 75.46246 44.91006 68.906525 43.909 60.589C 52.226913 61.58963 58.783363 68.14608 59.784 76.464zM43.909 76.715C 52.22724 77.71573 58.7838 84.2727 59.784 92.591C 51.46609 91.59037 44.909637 85.03392 43.909 76.716zM64.068 92.591C 65.068634 84.27309 71.625084 77.71664 79.943 76.716C 78.940994 85.03325 72.38525 91.589 64.068 92.591zM64.068 76.464005C 65.06863 68.14609 71.625084 61.589638 79.943 60.589C 78.940994 68.90624 72.38525 75.46199 64.068 76.464zM64.068 60.337006C 65.0682 52.0187 71.624756 45.461727 79.943 44.461C 78.94142 52.778637 72.385574 59.3349 64.068 60.337z" stroke="none" fill="#FAD391" fill-rule="nonzero" />
		</g>
	</g>
</g>
</svg>